<svg width="38" height="45" viewBox="0 0 38 45" fill="none" xmlns="http://www.w3.org/2000/svg">
<g clip-path="url(#clip0_205_71)">
<path d="M10.8216 31.8167C11.6394 31.8319 12.4541 31.6744 13.2719 31.6986C14.0898 31.7198 14.9596 31.959 15.4681 32.5919C16.4789 33.8484 15.5385 35.7196 15.8877 37.288C16.1328 38.3872 17.0517 39.2804 18.1329 39.6377C19.2141 39.9949 20.424 39.8587 21.4654 39.4045C22.2005 39.0836 23.0336 38.6052 23.7381 38.9867C24.3415 39.3106 24.4855 40.1009 24.461 40.7792C24.4365 41.4574 24.3201 42.181 24.6417 42.7806C25.1593 43.7495 26.5254 43.8797 27.6036 43.6223C28.6818 43.3649 29.7385 42.8502 30.8381 42.9774C31.4874 43.0531 32.0909 43.3528 32.731 43.483C33.3712 43.6132 34.2441 44.3762 34.6209 43.8494C35.0619 43.5648 35.1967 42.1356 35.261 41.5997C35.3376 40.9578 35.2365 40.2977 35.3682 39.6649C35.5888 38.5931 36.4158 37.7604 36.9977 36.8308C37.5797 35.9013 37.8829 34.5781 37.1141 33.7879C36.6394 33.2973 35.9073 33.1823 35.2457 32.9915C34.5872 32.8038 33.8735 32.4193 33.7479 31.7501C33.604 30.9689 34.3238 30.3361 34.8628 29.7457C35.6255 28.91 36.134 27.817 36.1278 26.6906C36.1217 25.5642 35.552 24.4227 34.5719 23.8474C33.1751 23.0299 31.0801 23.3267 30.1887 21.9853C29.7385 21.3101 29.7814 20.4169 30.0172 19.6418C30.2531 18.8666 30.6574 18.1521 30.8994 17.38C31.2822 16.1537 31.2302 14.7791 30.6421 13.6376C30.0509 12.4961 28.9023 11.624 27.6128 11.4726C26.5836 11.3515 25.5146 11.6725 24.5161 11.403C23.0765 11.0185 22.222 9.54088 21.8575 8.11174C21.4899 6.68563 21.447 5.16868 20.8559 3.81523C20.2647 2.46178 18.868 1.26881 17.41 1.57765C15.7315 1.93191 14.7207 4.07563 13.0055 4.01507C11.4924 3.96057 10.699 2.28011 9.61782 1.23248C7.71571 -0.614505 4.17185 -0.341999 2.5791 1.76841C1.49175 3.15213 1.17014 5.1929 1.96345 6.78252C2.63424 8.12688 4.00032 9.39555 3.57763 10.8338C3.09981 12.4628 1.3631 13.0956 0.496283 14.561C-0.254145 15.8327 -0.18676 17.165 0.931225 18.143C2.04615 19.121 3.48881 19.6357 4.74769 20.426C6.00351 21.2163 7.15825 22.4819 7.07861 23.9504C7.02348 24.9738 6.38332 25.8761 6.17503 26.8813C5.91775 28.1379 6.39557 29.4914 7.30833 30.4027C8.2211 31.3141 9.52593 31.7925 10.8246 31.8167H10.8216Z" fill="#748A5B"/>
<path d="M25.1531 29.0975C24.7212 26.5178 25.3767 23.8109 26.9021 21.7368C25.4839 23.8836 24.9938 26.5723 25.536 29.0279L25.1562 29.1005L25.1531 29.0975Z" fill="#404040"/>
<path d="M34.4461 44.3367C26.9112 30.9172 18.8249 19.3146 9.02954 8.9563C9.02954 8.9563 15.6823 15.7568 20.0961 21.2917C25.2235 27.7198 35.1322 44.2277 35.1322 44.2277L34.443 44.3367H34.4461Z" fill="#404040"/>
<path d="M18.0991 19.4992C15.7315 17.5977 12.8614 16.2896 9.8291 15.7446C12.8829 16.1625 15.8387 17.3554 18.338 19.1964L18.0991 19.4992Z" fill="#404040"/>
<path d="M29.0891 35.3014C27.0278 32.9579 24.2435 31.2169 21.1805 30.3782C24.2772 31.0927 27.1687 32.7308 29.3771 35.0441L29.0891 35.3014Z" fill="#404040"/>
</g>
<defs>
<clipPath id="clip0_205_71">
<rect width="37.5735" height="44.3367" fill="white"/>
</clipPath>
</defs>
</svg>
