<svg width="36" height="36" viewBox="0 0 36 36" fill="none" xmlns="http://www.w3.org/2000/svg">
<rect width="36" height="36" rx="18" fill="#FFFFD0"/>
<g clip-path="url(#clip0_1142_5601)">
<path d="M9.38538 11.8374C9.38538 10.5805 10.4087 9.55713 11.6657 9.55713C12.9226 9.55713 13.946 10.5805 13.946 11.8374C13.946 13.0944 12.9226 14.1177 11.6657 14.1177C10.4088 14.1177 9.38538 13.0943 9.38538 11.8374ZM9.79163 11.8374C9.79163 12.8713 10.6318 13.7115 11.6657 13.7115C12.6995 13.7115 13.5397 12.8712 13.5397 11.8374C13.5397 10.8036 12.6995 9.96338 11.6657 9.96338C10.6319 9.96338 9.79163 10.8036 9.79163 11.8374Z" fill="black" stroke="#748A5B"/>
<path d="M23.3486 27.7015L20.8594 20.6812H16.0358L13.8271 15.4387H10.2225L7.47384 22.9146C7.36275 23.2168 7.33964 23.5393 7.3995 23.8468H6V25.2531H17.9028L20.247 29.1632C20.5668 29.6964 21.1374 29.9998 21.7272 29.9998C21.9604 29.9998 22.1967 29.9524 22.4215 29.853C23.2407 29.4907 23.6479 28.5457 23.3486 27.7015ZM10.9474 23.8468L11.7848 22.5044L12.4952 23.8468H10.9474ZM21.8528 28.5669C21.7069 28.6314 21.535 28.5768 21.4531 28.4401L18.6993 23.8468H14.0862L11.8847 19.687L9.38761 23.6904C9.32648 23.7884 9.22111 23.8468 9.10566 23.8468C8.95486 23.8468 8.8702 23.7578 8.83317 23.7047C8.79614 23.6516 8.74177 23.5414 8.79375 23.3999L11.2038 16.845H12.8936L15.1024 22.0875H19.866L22.0232 28.1715C22.0782 28.3266 22.0033 28.5003 21.8528 28.5669Z" fill="#748A5B"/>
<path d="M22.8612 11.2811C22.8612 10.3899 22.5007 9.90084 22.2375 9.54375C22.0197 9.24815 21.8882 9.0697 21.8882 8.6407C21.8882 8.21165 22.0197 8.03325 22.2376 7.73756C22.5007 7.38046 22.8612 6.89142 22.8612 6.00018H21.4549C21.4549 6.42918 21.3234 6.60764 21.1056 6.90328C20.8424 7.26037 20.4819 7.74942 20.4819 8.64065C20.4819 9.53184 20.8424 10.0209 21.1056 10.378C21.3234 10.6736 21.4549 10.852 21.4549 11.281C21.4549 11.7102 21.3234 11.8886 21.1055 12.1843C20.8424 12.5415 20.4819 13.0306 20.4819 13.9219C20.4819 14.8132 20.8423 15.3023 21.1055 15.6594C21.3234 15.9551 21.4549 16.1336 21.4549 16.5627H22.8612C22.8612 15.6714 22.5008 15.1823 22.2376 14.8252C22.0197 14.5295 21.8882 14.351 21.8882 13.9219C21.8882 13.4927 22.0197 13.3143 22.2376 13.0186C22.5007 12.6614 22.8612 12.1724 22.8612 11.2811Z" fill="#748A5B"/>
<path d="M26.4306 11.2811C26.4306 10.3899 26.0702 9.90082 25.807 9.54373C25.5892 9.24813 25.4576 9.06968 25.4576 8.64068C25.4576 8.21163 25.5892 8.03323 25.807 7.73754C26.0702 7.38059 26.4306 6.89154 26.4306 6.00031H25.0244C25.0244 6.42931 24.8928 6.60776 24.675 6.9034C24.4119 7.26049 24.0514 7.74954 24.0514 8.64077C24.0514 9.53196 24.4118 10.021 24.675 10.3781C24.8928 10.6737 25.0244 10.8521 25.0244 11.2811C25.0244 11.7103 24.8928 11.8887 24.675 12.1844C24.4118 12.5416 24.0514 13.0307 24.0514 13.9219C24.0514 14.8131 24.4118 15.3023 24.675 15.6594C24.8928 15.9551 25.0244 16.1336 25.0244 16.5626H26.4306C26.4306 15.6714 26.0703 15.1823 25.807 14.8251C25.5892 14.5294 25.4576 14.351 25.4576 13.9219C25.4576 13.4927 25.5892 13.3143 25.807 13.0186C26.0702 12.6614 26.4306 12.1723 26.4306 11.2811Z" fill="#748A5B"/>
<path d="M30 11.2812C30 10.39 29.6395 9.90096 29.3763 9.54387C29.1585 9.24827 29.027 9.06982 29.027 8.64082C29.027 8.21177 29.1585 8.03337 29.3763 7.73768C29.6395 7.38059 30 6.89154 30 6.00031H28.5937C28.5937 6.42931 28.4622 6.60776 28.2444 6.9034C27.9812 7.26049 27.6207 7.74954 27.6207 8.64077C27.6207 9.53196 27.9811 10.021 28.2444 10.3781C28.4622 10.6737 28.5937 10.8521 28.5937 11.2811C28.5937 11.7103 28.4622 11.8887 28.2443 12.1844C27.9811 12.5416 27.6207 13.0307 27.6207 13.9219C27.6207 14.8131 27.9811 15.3023 28.2443 15.6594C28.4622 15.9551 28.5937 16.1336 28.5937 16.5626H30C30 15.6714 29.6396 15.1823 29.3764 14.8251C29.1585 14.5294 29.027 14.351 29.027 13.9219C29.027 13.4927 29.1585 13.3143 29.3764 13.0186C29.6396 12.6616 30 12.1725 30 11.2812Z" fill="#748A5B"/>
</g>
<defs>
<clipPath id="clip0_1142_5601">
<rect width="24" height="24" fill="white" transform="translate(6 6)"/>
</clipPath>
</defs>
</svg>
