<svg width="36" height="36" viewBox="0 0 36 36" fill="none" xmlns="http://www.w3.org/2000/svg">
<rect width="36" height="36" rx="18" fill="#FFFFD0"/>
<g clip-path="url(#clip0_1142_5605)">
<mask id="path-2-inside-1_1142_5605" fill="white">
<path d="M26.38 15.0263C26.3744 14.9963 26.365 14.9667 26.3533 14.9386C26.3415 14.91 26.327 14.8828 26.3101 14.8575C26.2933 14.8317 26.2736 14.8078 26.252 14.7863C26.2305 14.7647 26.2065 14.745 26.1808 14.7282C26.1555 14.7113 26.1283 14.6967 26.0997 14.685C26.0715 14.6733 26.0421 14.6644 26.012 14.6583C25.9515 14.6461 25.8897 14.6461 25.8292 14.6583C25.7992 14.6644 25.7697 14.6733 25.7415 14.685C25.713 14.6967 25.6858 14.7113 25.6605 14.7282C25.6347 14.745 25.6108 14.7647 25.5892 14.7863C25.5676 14.8078 25.548 14.8317 25.5311 14.8575C25.5142 14.8828 25.4997 14.91 25.488 14.9386C25.4762 14.9667 25.4669 14.9963 25.4612 15.0263C25.4551 15.0563 25.4519 15.0872 25.4519 15.1177C25.4519 15.1482 25.4551 15.1791 25.4612 15.2096C25.4669 15.2391 25.4762 15.2686 25.488 15.2972C25.4997 15.3253 25.5142 15.3525 25.5311 15.3778C25.548 15.4036 25.5676 15.4275 25.5892 15.4491C25.6764 15.5363 25.7973 15.5864 25.9206 15.5864C26.0439 15.5864 26.1648 15.5363 26.252 15.4491C26.2736 15.4275 26.2933 15.4036 26.3101 15.3778C26.327 15.3525 26.3415 15.3253 26.3533 15.2972C26.365 15.2686 26.3744 15.2391 26.38 15.2096C26.3861 15.1791 26.3894 15.1482 26.3894 15.1177C26.3894 15.0872 26.3861 15.0563 26.38 15.0263Z"/>
</mask>
<path d="M26.38 15.0263C26.3744 14.9963 26.365 14.9667 26.3533 14.9386C26.3415 14.91 26.327 14.8828 26.3101 14.8575C26.2933 14.8317 26.2736 14.8078 26.252 14.7863C26.2305 14.7647 26.2065 14.745 26.1808 14.7282C26.1555 14.7113 26.1283 14.6967 26.0997 14.685C26.0715 14.6733 26.0421 14.6644 26.012 14.6583C25.9515 14.6461 25.8897 14.6461 25.8292 14.6583C25.7992 14.6644 25.7697 14.6733 25.7415 14.685C25.713 14.6967 25.6858 14.7113 25.6605 14.7282C25.6347 14.745 25.6108 14.7647 25.5892 14.7863C25.5676 14.8078 25.548 14.8317 25.5311 14.8575C25.5142 14.8828 25.4997 14.91 25.488 14.9386C25.4762 14.9667 25.4669 14.9963 25.4612 15.0263C25.4551 15.0563 25.4519 15.0872 25.4519 15.1177C25.4519 15.1482 25.4551 15.1791 25.4612 15.2096C25.4669 15.2391 25.4762 15.2686 25.488 15.2972C25.4997 15.3253 25.5142 15.3525 25.5311 15.3778C25.548 15.4036 25.5676 15.4275 25.5892 15.4491C25.6764 15.5363 25.7973 15.5864 25.9206 15.5864C26.0439 15.5864 26.1648 15.5363 26.252 15.4491C26.2736 15.4275 26.2933 15.4036 26.3101 15.3778C26.327 15.3525 26.3415 15.3253 26.3533 15.2972C26.365 15.2686 26.3744 15.2391 26.38 15.2096C26.3861 15.1791 26.3894 15.1482 26.3894 15.1177C26.3894 15.0872 26.3861 15.0563 26.38 15.0263Z" fill="#748A5B"/>
<path d="M26.38 15.0263L25.3971 15.2106L25.3985 15.218L25.4 15.2253L26.38 15.0263ZM26.3533 14.9386L25.4279 15.3179L25.4302 15.3232L26.3533 14.9386ZM26.3101 14.8575L25.4734 15.4052L25.4781 15.4122L26.3101 14.8575ZM26.1808 14.7282L25.626 15.5602L25.6331 15.5649L26.1808 14.7282ZM26.0997 14.685L25.715 15.6081L25.7204 15.6103L26.0997 14.685ZM26.012 14.6583L26.2108 13.6783L26.2094 13.678L26.012 14.6583ZM25.8292 14.6583L25.6316 13.678L25.6301 13.6783L25.8292 14.6583ZM25.7415 14.685L26.1208 15.6104L26.1262 15.6081L25.7415 14.685ZM25.6605 14.7282L26.2081 15.5649L26.2152 15.5602L25.6605 14.7282ZM25.5311 14.8575L26.3632 15.4122L26.3678 15.4052L25.5311 14.8575ZM25.488 14.9386L26.411 15.3232L26.4133 15.3178L25.488 14.9386ZM25.4612 15.0263L26.4412 15.2253L26.4427 15.218L26.4441 15.2106L25.4612 15.0263ZM25.4612 15.2096L26.4436 15.0224L26.4418 15.0134L25.4612 15.2096ZM25.488 15.2972L24.5626 15.6764L24.5649 15.6818L25.488 15.2972ZM25.5311 15.3778L26.3678 14.8302L26.3631 14.8231L25.5311 15.3778ZM25.5892 15.4491L26.2963 14.742L25.5892 15.4491ZM26.252 15.4491L26.9593 16.156L26.9599 16.1554L26.252 15.4491ZM26.3101 15.3778L25.4781 14.8231L25.4734 14.8302L26.3101 15.3778ZM26.3533 15.2972L27.2764 15.6818L27.2786 15.6764L26.3533 15.2972ZM26.38 15.2096L25.3994 15.0134L25.3976 15.0224L26.38 15.2096ZM27.3629 14.842C27.3423 14.7323 27.3103 14.6354 27.2763 14.554L25.4302 15.3232C25.4197 15.2981 25.4064 15.2603 25.3971 15.2106L27.3629 14.842ZM27.2786 14.5594C27.2413 14.4684 27.1953 14.3825 27.1422 14.3028L25.4781 15.4122C25.4587 15.3832 25.4418 15.3517 25.428 15.3178L27.2786 14.5594ZM27.1468 14.3099C27.0902 14.2233 27.0264 14.1464 26.9591 14.0792L25.5449 15.4934C25.5208 15.4693 25.4963 15.4402 25.4734 15.4052L27.1468 14.3099ZM26.9591 14.0792C26.8919 14.0119 26.815 13.9481 26.7284 13.8915L25.6331 15.5649C25.5981 15.542 25.569 15.5175 25.5449 15.4934L26.9591 14.0792ZM26.7355 13.8961C26.6558 13.843 26.5699 13.797 26.4789 13.7597L25.7204 15.6103C25.6866 15.5965 25.6551 15.5796 25.6261 15.5602L26.7355 13.8961ZM26.4843 13.762C26.3935 13.7241 26.3016 13.6967 26.2108 13.6783L25.8133 15.6384C25.7826 15.6321 25.7496 15.6225 25.7151 15.6081L26.4843 13.762ZM26.2094 13.678C26.0187 13.6396 25.8226 13.6395 25.6316 13.678L26.0268 15.6386C25.9568 15.6527 25.8843 15.6527 25.8146 15.6386L26.2094 13.678ZM25.6301 13.6783C25.5399 13.6967 25.4479 13.724 25.3569 13.762L26.1262 15.6081C26.0914 15.6226 26.0585 15.6321 26.0283 15.6383L25.6301 13.6783ZM25.3623 13.7597C25.2713 13.797 25.1854 13.843 25.1058 13.8961L26.2152 15.5602C26.1861 15.5796 26.1546 15.5965 26.1208 15.6103L25.3623 13.7597ZM25.1128 13.8915C25.0263 13.9481 24.9494 14.0119 24.8821 14.0792L26.2963 15.4934C26.2722 15.5175 26.2431 15.542 26.2081 15.5649L25.1128 13.8915ZM24.8821 14.0792C24.8148 14.1464 24.751 14.2233 24.6944 14.3099L26.3678 15.4052C26.3449 15.4402 26.3204 15.4693 26.2963 15.4934L24.8821 14.0792ZM24.699 14.3028C24.6459 14.3825 24.5999 14.4684 24.5626 14.5594L26.4133 15.3178C26.3994 15.3517 26.3825 15.3832 26.3631 15.4122L24.699 14.3028ZM24.5649 14.554C24.531 14.6354 24.4989 14.7323 24.4784 14.842L26.4441 15.2106C26.4348 15.2603 26.4215 15.2981 26.411 15.3232L24.5649 14.554ZM24.4812 14.8272C24.4624 14.9199 24.4519 15.0175 24.4519 15.1177H26.4519C26.4519 15.1569 26.4479 15.1926 26.4412 15.2253L24.4812 14.8272ZM24.4519 15.1177C24.4519 15.2183 24.4625 15.315 24.4807 15.4057L26.4418 15.0134C26.4478 15.0432 26.4519 15.078 26.4519 15.1177H24.4519ZM24.4789 15.3967C24.4995 15.5047 24.531 15.5992 24.5626 15.6764L26.4133 14.918C26.4215 14.9381 26.4342 14.9735 26.4436 15.0224L24.4789 15.3967ZM24.5649 15.6818C24.6012 15.7691 24.6462 15.8532 24.699 15.9325L26.3631 14.8231C26.3822 14.8518 26.3981 14.8816 26.411 14.9126L24.5649 15.6818ZM24.6944 15.9255C24.751 16.0121 24.8149 16.089 24.8821 16.1562L26.2963 14.742C26.3204 14.7661 26.3449 14.7952 26.3678 14.8302L24.6944 15.9255ZM24.8821 16.1562C25.1565 16.4306 25.5316 16.5864 25.9206 16.5864V14.5864C26.0629 14.5864 26.1963 14.6419 26.2963 14.742L24.8821 16.1562ZM25.9206 16.5864C26.3092 16.5864 26.6846 16.4309 26.9593 16.156L25.5447 14.7422C25.6451 14.6418 25.7785 14.5864 25.9206 14.5864V16.5864ZM26.9599 16.1554C27.0261 16.0891 27.0898 16.0126 27.1468 15.9255L25.4734 14.8302C25.4967 14.7946 25.5211 14.7658 25.5441 14.7428L26.9599 16.1554ZM27.1422 15.9325C27.1951 15.8532 27.24 15.7691 27.2763 15.6818L25.4302 14.9126C25.4431 14.8816 25.459 14.8518 25.4781 14.8231L27.1422 15.9325ZM27.2786 15.6764C27.3102 15.5992 27.3417 15.5047 27.3623 15.3967L25.3976 15.0224C25.407 14.9735 25.4197 14.9381 25.428 14.918L27.2786 15.6764ZM27.3606 15.4057C27.3785 15.316 27.3894 15.2192 27.3894 15.1177H25.3894C25.3894 15.0771 25.3936 15.0422 25.3994 15.0134L27.3606 15.4057ZM27.3894 15.1177C27.3894 15.0166 27.3786 14.9189 27.36 14.8272L25.4 15.2253C25.3936 15.1936 25.3894 15.1579 25.3894 15.1177H27.3894Z" fill="#748A5B" mask="url(#path-2-inside-1_1142_5605)"/>
<path d="M24.1395 14.649H19.877C19.6181 14.649 19.4082 14.8589 19.4082 15.1178C19.4082 15.3767 19.6181 15.5865 19.877 15.5865H24.1395C24.3984 15.5865 24.6083 15.3767 24.6083 15.1178C24.6083 14.8589 24.3984 14.649 24.1395 14.649Z" fill="#748A5B"/>
<path d="M9.32273 15.0263C9.31668 14.9963 9.30773 14.9667 9.29601 14.9386C9.28429 14.91 9.26976 14.8828 9.25289 14.8575C9.23606 14.8317 9.21637 14.8078 9.19481 14.7863C9.17325 14.7647 9.14929 14.745 9.12351 14.7282C9.0982 14.7113 9.07101 14.6967 9.04247 14.685C9.01434 14.6733 8.98481 14.6644 8.95481 14.6583C8.89434 14.6461 8.832 14.6461 8.77153 14.6583C8.742 14.6644 8.71247 14.6733 8.68387 14.685C8.65575 14.6967 8.62856 14.7113 8.60325 14.7282C8.57747 14.745 8.55351 14.7647 8.53195 14.7863C8.50992 14.8078 8.4907 14.8317 8.47336 14.8575C8.45653 14.8828 8.44195 14.91 8.43023 14.9386C8.41851 14.9667 8.40965 14.9963 8.40356 15.0263C8.39747 15.0563 8.39465 15.0872 8.39465 15.1177C8.39465 15.1482 8.39742 15.1791 8.40356 15.2096C8.40965 15.2391 8.41851 15.2686 8.43023 15.2972C8.44195 15.3253 8.45653 15.3525 8.47336 15.3778C8.4907 15.4036 8.50992 15.4275 8.53195 15.4491C8.55351 15.4707 8.57747 15.4903 8.60325 15.5077C8.62856 15.5246 8.65575 15.5391 8.68387 15.5508C8.71247 15.5625 8.742 15.5714 8.77153 15.5775C8.802 15.5836 8.83293 15.5864 8.8634 15.5864C8.89387 15.5864 8.92476 15.5836 8.95476 15.5775C8.98472 15.5714 9.01425 15.5625 9.04242 15.5508C9.07097 15.5391 9.09815 15.5246 9.12347 15.5077C9.14925 15.4903 9.1732 15.4707 9.19476 15.4491C9.28195 15.3619 9.33211 15.241 9.33211 15.1177C9.33211 15.0872 9.32883 15.0563 9.32273 15.0263Z" fill="#748A5B"/>
<path d="M14.9071 14.649H10.6445C10.3857 14.649 10.1758 14.8589 10.1758 15.1178C10.1758 15.3767 10.3857 15.5865 10.6445 15.5865H14.9071C15.166 15.5865 15.3759 15.3767 15.3759 15.1178C15.3759 14.8589 15.166 14.649 14.9071 14.649Z" fill="#748A5B"/>
<path d="M29.8853 23.8989C29.8493 23.7096 29.7013 23.5616 29.512 23.5257C29.4676 23.5173 28.664 23.3686 27.666 23.4241V17.0403H28.3153C28.5741 17.0403 28.784 16.8304 28.784 16.5715V13.6639C28.784 13.405 28.5741 13.1952 28.3153 13.1952H6.46875C6.20986 13.1952 6 13.405 6 13.6639V16.5715C6 16.8304 6.20986 17.0403 6.46875 17.0403H7.11806V29.5307C7.11806 29.7896 7.32797 29.9995 7.58681 29.9995H23.2752C23.3424 29.9995 23.4063 29.9853 23.4641 29.9598C23.5985 29.9859 23.7365 29.9989 23.8745 29.9989C24.0653 29.9989 24.2561 29.974 24.4373 29.9242C24.6698 29.9476 24.9713 29.9681 25.3128 29.9681C26.3901 29.9681 27.8654 29.7636 28.8294 28.7995C30.4793 27.1496 29.9102 24.0308 29.8853 23.8989ZM6.93745 16.1028V14.1327H27.8466V16.1028H6.93745ZM26.7286 17.0403V20.8285H23.744V17.0403H26.7286ZM22.8065 17.0403V20.8285H19.8218V17.0403H22.8065ZM18.8843 17.0403V20.8285H15.8997V17.0403H18.8843ZM14.9622 17.0403V20.8285H11.9776V17.0403H14.9622ZM11.0401 17.0403V20.8285H8.05552V17.0403H11.0401ZM11.0402 29.062H8.05552V25.0296H11.0401L11.0402 29.062ZM14.9622 29.062H11.9776V25.0296H14.9622V29.062ZM18.8843 29.062H15.8997V25.0296H18.8843V29.062ZM19.8218 29.062V25.0296H20.1551C20.1555 25.1179 20.163 25.2055 20.1782 25.2914C20.2039 25.4371 20.2893 25.7532 20.5636 26.0246C20.2894 26.296 20.2039 26.6121 20.1782 26.7578C20.0317 27.5886 20.5987 28.5705 21.3914 28.859C21.5304 28.9097 21.8468 28.9936 22.219 28.8919C22.2348 28.9523 22.2542 29.009 22.276 29.062H19.8218ZM22.4983 27.4708C22.2471 27.9059 21.9828 28.0766 21.7121 27.9781C21.348 27.8456 21.0343 27.302 21.1015 26.9206C21.1515 26.6371 21.4316 26.4933 21.9339 26.4933C21.9582 26.4933 21.9821 26.4915 22.0054 26.4879C22.0939 26.8451 22.2825 27.1632 22.5395 27.4108C22.5244 27.4294 22.5106 27.4495 22.4983 27.4708ZM21.712 24.071C21.9825 23.9725 22.2471 24.1432 22.4982 24.5783C22.5105 24.5996 22.5243 24.6197 22.5393 24.6383C22.2823 24.886 22.0938 25.2041 22.0052 25.5612C21.9819 25.5577 21.9581 25.5558 21.9338 25.5558C21.4314 25.5558 21.1514 25.4121 21.1014 25.1285C21.0342 24.7471 21.348 24.2035 21.712 24.071ZM24.485 28.8741C24.1883 29.1231 23.5606 29.123 23.2639 28.8741C23.0433 28.689 23.0589 28.3746 23.31 27.9396C23.3222 27.9185 23.3325 27.8969 23.3411 27.875C23.5105 27.9239 23.6895 27.9501 23.8745 27.9501C24.0594 27.9501 24.2384 27.9239 24.4078 27.875C24.4164 27.897 24.4267 27.9185 24.4388 27.9396C24.69 28.3746 24.7056 28.689 24.485 28.8741ZM23.8745 27.0127C23.3296 27.0127 22.8863 26.5694 22.8863 26.0246C22.8863 25.4797 23.3296 25.0365 23.8745 25.0365C24.4193 25.0365 24.8625 25.4798 24.8625 26.0246C24.8625 26.5694 24.4193 27.0127 23.8745 27.0127ZM23.2639 23.1751C23.5605 22.9261 24.1883 22.9261 24.485 23.1751C24.7056 23.3601 24.69 23.6746 24.4388 24.1096C24.4267 24.1306 24.4164 24.1522 24.4078 24.1742C24.2384 24.1253 24.0594 24.099 23.8745 24.099C23.6895 24.099 23.5105 24.1253 23.3411 24.1742C23.3325 24.1522 23.3222 24.1306 23.31 24.1096C23.0589 23.6745 23.0433 23.3601 23.2639 23.1751ZM25.0876 22.4569C24.4413 21.9146 23.3076 21.9147 22.6613 22.4569C22.6599 22.4581 22.6586 22.4592 22.6572 22.4603H11.5086C11.2497 22.4603 11.0398 22.6702 11.0398 22.9291C11.0398 23.188 11.2497 23.3978 11.5086 23.3978H21.0028C20.7574 23.5742 20.5501 23.8177 20.4021 24.0922H8.05552V21.7659H26.7286V23.3853C26.6125 23.3039 26.4881 23.2376 26.3575 23.1901C26.2185 23.1394 25.902 23.0554 25.53 23.1572C25.4319 22.784 25.2009 22.552 25.0876 22.4569ZM26.6475 25.1286C26.5975 25.4121 26.3174 25.5558 25.8151 25.5558C25.7908 25.5558 25.767 25.5577 25.7437 25.5613C25.6551 25.2041 25.4665 24.886 25.2096 24.6384C25.2246 24.6197 25.2384 24.5997 25.2507 24.5783C25.5018 24.1433 25.7661 23.9726 26.0369 24.071C26.4009 24.2035 26.7148 24.7472 26.6475 25.1286ZM25.2507 27.4708C25.2383 27.4495 25.2246 27.4294 25.2096 27.4108C25.4666 27.1632 25.6551 26.8451 25.7436 26.4879C25.7669 26.4915 25.7908 26.4933 25.815 26.4933C26.3174 26.4933 26.5974 26.637 26.6475 26.9206C26.7147 27.302 26.4008 27.8456 26.0369 27.9781C25.7664 28.0766 25.5019 27.9059 25.2507 27.4708ZM28.1666 28.1366C27.4717 28.8315 26.367 29.0132 25.4853 29.0308C25.5021 28.9869 25.5171 28.9406 25.5299 28.8919C25.9019 28.9936 26.2184 28.9097 26.3575 28.859C27.1502 28.5705 27.7172 27.5886 27.5707 26.7578C27.545 26.6121 27.4596 26.296 27.1853 26.0246C27.4596 25.7531 27.545 25.4371 27.5707 25.2914C27.6233 24.9935 27.584 24.6761 27.4755 24.3783C28.0973 24.321 28.6692 24.362 29.0106 24.4009C29.0993 25.1697 29.2004 27.1028 28.1666 28.1366Z" fill="#748A5B"/>
<path d="M20.4594 9.95421C20.2938 9.76765 20.2026 9.66485 20.2026 9.42035C20.2026 9.17585 20.2938 9.07305 20.4594 8.88649C20.5061 8.83385 20.5544 8.77943 20.6032 8.71821C20.7645 8.5158 20.7313 8.22087 20.5289 8.05952C20.3264 7.89813 20.0315 7.93141 19.8702 8.13382C19.8368 8.17568 19.7986 8.21866 19.7582 8.26423C19.5501 8.49869 19.265 8.81984 19.265 9.42035C19.265 10.0209 19.5501 10.342 19.7582 10.5765C19.9238 10.7631 20.015 10.8659 20.015 11.1104C20.015 11.3548 19.9238 11.4576 19.7582 11.6441C19.6839 11.7278 19.5997 11.8226 19.5228 11.9365C19.3778 12.1509 19.4342 12.4423 19.6486 12.5873C19.7291 12.6417 19.8204 12.6678 19.9108 12.6678C20.0612 12.6678 20.2089 12.5955 20.2996 12.4614C20.342 12.3987 20.399 12.3345 20.4594 12.2664C20.6676 12.0319 20.9526 11.7109 20.9526 11.1103C20.9526 10.5098 20.6675 10.1887 20.4594 9.95421Z" fill="#748A5B"/>
<path d="M17.765 7.99741C17.5994 7.8108 17.5081 7.70805 17.5081 7.4635C17.5081 7.21896 17.5994 7.11621 17.765 6.9296C17.8117 6.87696 17.86 6.82258 17.9088 6.76136C18.0701 6.55896 18.0369 6.26402 17.8345 6.10267C17.6319 5.94128 17.337 5.97457 17.1757 6.17697C17.1424 6.21878 17.1042 6.26182 17.0638 6.30733C16.8557 6.5418 16.5707 6.86294 16.5707 7.46346C16.5707 8.06397 16.8557 8.38511 17.0638 8.61963C17.2295 8.80619 17.3207 8.90899 17.3207 9.15349C17.3207 9.39794 17.2294 9.50069 17.0639 9.68716C16.9896 9.77083 16.9054 9.86571 16.8284 9.97952C16.6835 10.194 16.7398 10.4854 16.9543 10.6303C17.0348 10.6847 17.126 10.7108 17.2164 10.7108C17.3668 10.7108 17.5146 10.6385 17.6052 10.5045C17.6475 10.4418 17.7046 10.3776 17.765 10.3095C17.9731 10.075 18.2582 9.75396 18.2582 9.15349C18.2582 8.55302 17.973 8.23188 17.765 7.99741Z" fill="#748A5B"/>
<path d="M14.9296 9.95421C14.7639 9.76765 14.6727 9.66485 14.6727 9.42035C14.6727 9.17585 14.7639 9.07305 14.9296 8.88649C14.9762 8.83385 15.0246 8.77943 15.0734 8.71821C15.2347 8.5158 15.2015 8.22087 14.999 8.05952C14.7965 7.89813 14.5016 7.93141 14.3403 8.13382C14.307 8.17568 14.2688 8.21866 14.2284 8.26423C14.0203 8.49869 13.7352 8.81984 13.7352 9.42035C13.7352 10.0209 14.0203 10.342 14.2284 10.5765C14.394 10.7631 14.4852 10.8659 14.4852 11.1104C14.4852 11.3548 14.394 11.4576 14.2284 11.6441C14.1542 11.7278 14.07 11.8226 13.993 11.9365C13.8481 12.1509 13.9044 12.4423 14.1189 12.5873C14.1993 12.6417 14.2906 12.6678 14.381 12.6678C14.5314 12.6678 14.6791 12.5955 14.7697 12.4614C14.8121 12.3987 14.8691 12.3345 14.9296 12.2664C15.1377 12.0319 15.4227 11.7109 15.4227 11.1103C15.4227 10.5098 15.1376 10.1887 14.9296 9.95421Z" fill="#748A5B"/>
</g>
<defs>
<clipPath id="clip0_1142_5605">
<rect width="24" height="24" fill="white" transform="translate(6 6)"/>
</clipPath>
</defs>
</svg>
