<svg width="36" height="36" viewBox="0 0 36 36" fill="none" xmlns="http://www.w3.org/2000/svg">
<rect width="36" height="36" rx="18" fill="#FFFFD0"/>
<g clip-path="url(#clip0_1142_5603)">
<mask id="path-2-inside-1_1142_5603" fill="white">
<path d="M22.9092 14.7273H27.2727H29.4546C29.7561 14.7273 30.0001 14.4833 30.0001 14.1818V9.09109C30 7.38656 28.6135 6 26.9089 6C25.9416 6 25.0174 6.46238 24.4368 7.23632L19.6365 13.6364H18V9.09109C18 7.38656 16.6135 6 14.9089 6C13.9416 6 13.0174 6.46238 12.4368 7.23632L7.63657 13.6364H6.54547C6.24397 13.6364 6 13.8803 6 14.1818C6 14.4833 6.24397 14.7273 6.54547 14.7273H6.81834L6.10923 15.6728C6.03835 15.7671 6 15.8816 6 15.9998V29.4546C6 29.7561 6.24397 30.0001 6.54547 30.0001H8.72731C9.02881 30.0001 9.27278 29.7561 9.27278 29.4546V27.8482C10.0174 27.9127 10.4703 28.0992 10.9603 28.3168C11.5851 28.5943 12.2935 28.9091 13.6364 28.9091C14.9792 28.9091 15.6877 28.5943 16.3125 28.3168C16.8025 28.0992 17.2554 27.9127 18 27.8482V29.4546C18 29.7561 18.2439 30.0001 18.5454 30.0001H20.7273C21.0288 30.0001 21.2728 29.7561 21.2728 29.4546V27.852C21.8773 27.9213 22.254 28.1003 22.6651 28.3061C23.2303 28.589 23.8711 28.9091 25.0909 28.9091C26.3107 28.9091 26.9515 28.589 27.5167 28.3061C28.0404 28.044 28.4925 27.8182 29.4546 27.8182C29.7561 27.8182 30.0001 27.5742 30.0001 27.2727C30.0001 26.9712 29.7561 26.7272 29.4546 26.7272C28.2348 26.7272 27.594 27.0473 27.0288 27.3302C26.5051 27.5923 26.0529 27.8182 25.0909 27.8182C24.1289 27.8182 23.6767 27.5923 23.153 27.3302C22.6825 27.0947 22.1385 26.8446 21.2727 26.7637V16.9091L22.9092 14.7273ZM26.7273 13.6364H23.7274L26.7273 9.63651V13.6364ZM7.09089 16.1815L13.3093 7.89046C13.6848 7.38973 14.283 7.09094 14.9089 7.09094C16.012 7.09094 16.9091 7.98798 16.9091 9.09114V13.6364H15.8182V9.09109C15.8182 8.71023 15.5721 8.38158 15.1907 8.25373C14.8146 8.12589 14.4098 8.24361 14.1823 8.54511L8.29101 16.4004C8.22019 16.4947 8.18184 16.6092 8.18184 16.7274V21.2727H7.63636C7.44419 21.2727 7.26235 21.3121 7.09089 21.3732V16.1815ZM14.7273 9.63656V13.6364H11.7274L14.7273 9.63656ZM8.18184 28.9091H7.09089V24.445C7.26235 24.5061 7.44419 24.5455 7.63636 24.5455H8.18184V28.9091ZM18 26.7598C17.0141 26.8341 16.3991 27.0843 15.8693 27.3196C15.2674 27.587 14.7481 27.8182 13.6364 27.8182C12.5246 27.8182 12.0053 27.587 11.4034 27.3196C10.8736 27.0843 10.2586 26.8341 9.27273 26.7598V24.5455H18V26.7598ZM18 23.4545H7.63636C7.33543 23.4545 7.09089 23.2101 7.09089 22.9091C7.09089 22.6081 7.33543 22.3636 7.63636 22.3636H18V23.4545ZM18.1092 15.6728C18.0384 15.7671 18 15.8815 18 15.9998V21.2728H9.27273V16.9091L10.9091 14.7273H15.2727H17.4546H18.8183L18.1092 15.6728ZM20.291 16.4004C20.2202 16.4947 20.1819 16.6092 20.1819 16.7274V28.9091H19.0909V24V21.8182V16.1815L25.3093 7.89046C25.6849 7.38973 26.283 7.09094 26.9089 7.09094C28.0121 7.09094 28.9091 7.98798 28.9091 9.09114V13.6364H27.8182V9.09109C27.8182 8.71023 27.5721 8.38158 27.1907 8.25373C26.8147 8.12589 26.4098 8.24361 26.1824 8.54511L20.291 16.4004Z"/>
</mask>
<path d="M22.9092 14.7273H27.2727H29.4546C29.7561 14.7273 30.0001 14.4833 30.0001 14.1818V9.09109C30 7.38656 28.6135 6 26.9089 6C25.9416 6 25.0174 6.46238 24.4368 7.23632L19.6365 13.6364H18V9.09109C18 7.38656 16.6135 6 14.9089 6C13.9416 6 13.0174 6.46238 12.4368 7.23632L7.63657 13.6364H6.54547C6.24397 13.6364 6 13.8803 6 14.1818C6 14.4833 6.24397 14.7273 6.54547 14.7273H6.81834L6.10923 15.6728C6.03835 15.7671 6 15.8816 6 15.9998V29.4546C6 29.7561 6.24397 30.0001 6.54547 30.0001H8.72731C9.02881 30.0001 9.27278 29.7561 9.27278 29.4546V27.8482C10.0174 27.9127 10.4703 28.0992 10.9603 28.3168C11.5851 28.5943 12.2935 28.9091 13.6364 28.9091C14.9792 28.9091 15.6877 28.5943 16.3125 28.3168C16.8025 28.0992 17.2554 27.9127 18 27.8482V29.4546C18 29.7561 18.2439 30.0001 18.5454 30.0001H20.7273C21.0288 30.0001 21.2728 29.7561 21.2728 29.4546V27.852C21.8773 27.9213 22.254 28.1003 22.6651 28.3061C23.2303 28.589 23.8711 28.9091 25.0909 28.9091C26.3107 28.9091 26.9515 28.589 27.5167 28.3061C28.0404 28.044 28.4925 27.8182 29.4546 27.8182C29.7561 27.8182 30.0001 27.5742 30.0001 27.2727C30.0001 26.9712 29.7561 26.7272 29.4546 26.7272C28.2348 26.7272 27.594 27.0473 27.0288 27.3302C26.5051 27.5923 26.0529 27.8182 25.0909 27.8182C24.1289 27.8182 23.6767 27.5923 23.153 27.3302C22.6825 27.0947 22.1385 26.8446 21.2727 26.7637V16.9091L22.9092 14.7273ZM26.7273 13.6364H23.7274L26.7273 9.63651V13.6364ZM7.09089 16.1815L13.3093 7.89046C13.6848 7.38973 14.283 7.09094 14.9089 7.09094C16.012 7.09094 16.9091 7.98798 16.9091 9.09114V13.6364H15.8182V9.09109C15.8182 8.71023 15.5721 8.38158 15.1907 8.25373C14.8146 8.12589 14.4098 8.24361 14.1823 8.54511L8.29101 16.4004C8.22019 16.4947 8.18184 16.6092 8.18184 16.7274V21.2727H7.63636C7.44419 21.2727 7.26235 21.3121 7.09089 21.3732V16.1815ZM14.7273 9.63656V13.6364H11.7274L14.7273 9.63656ZM8.18184 28.9091H7.09089V24.445C7.26235 24.5061 7.44419 24.5455 7.63636 24.5455H8.18184V28.9091ZM18 26.7598C17.0141 26.8341 16.3991 27.0843 15.8693 27.3196C15.2674 27.587 14.7481 27.8182 13.6364 27.8182C12.5246 27.8182 12.0053 27.587 11.4034 27.3196C10.8736 27.0843 10.2586 26.8341 9.27273 26.7598V24.5455H18V26.7598ZM18 23.4545H7.63636C7.33543 23.4545 7.09089 23.2101 7.09089 22.9091C7.09089 22.6081 7.33543 22.3636 7.63636 22.3636H18V23.4545ZM18.1092 15.6728C18.0384 15.7671 18 15.8815 18 15.9998V21.2728H9.27273V16.9091L10.9091 14.7273H15.2727H17.4546H18.8183L18.1092 15.6728ZM20.291 16.4004C20.2202 16.4947 20.1819 16.6092 20.1819 16.7274V28.9091H19.0909V24V21.8182V16.1815L25.3093 7.89046C25.6849 7.38973 26.283 7.09094 26.9089 7.09094C28.0121 7.09094 28.9091 7.98798 28.9091 9.09114V13.6364H27.8182V9.09109C27.8182 8.71023 27.5721 8.38158 27.1907 8.25373C26.8147 8.12589 26.4098 8.24361 26.1824 8.54511L20.291 16.4004Z" fill="#748A5B" stroke="#748A5B" stroke-width="0.102273" mask="url(#path-2-inside-1_1142_5603)"/>
</g>
<defs>
<clipPath id="clip0_1142_5603">
<rect width="24" height="24" fill="white" transform="translate(6 6)"/>
</clipPath>
</defs>
</svg>
