<svg width="36" height="36" viewBox="0 0 36 36" fill="none" xmlns="http://www.w3.org/2000/svg">
<rect width="36" height="36" rx="18" fill="#FFFFC0"/>
<path d="M11.8 17.3L8 28L18.7 24.21M10 9H10.01M28 14H28.01M21 8H21.01M28 26H28.01M28 8L25.76 8.75C25.1224 8.96239 24.5783 9.38964 24.2208 9.95872C23.8633 10.5278 23.7146 11.2034 23.8 11.87C23.9 12.73 23.23 13.5 22.35 13.5H21.97C21.11 13.5 20.37 14.1 20.21 14.94L20 16M28 19L27.18 18.67C26.32 18.33 25.36 18.87 25.2 19.78C25.09 20.48 24.48 21 23.77 21H23M17 8L17.33 8.82C17.67 9.68 17.13 10.64 16.22 10.8C15.52 10.9 15 11.52 15 12.23V13M17 19C18.93 20.93 19.83 23.17 19 24C18.17 24.83 15.93 23.93 14 22C12.07 20.07 11.17 17.83 12 17C12.83 16.17 15.07 17.07 17 19Z" stroke="#748A5B" stroke-width="1.5" stroke-linecap="round" stroke-linejoin="round"/>
</svg>
