<svg width="44" height="44" viewBox="0 0 44 44" fill="none" xmlns="http://www.w3.org/2000/svg">
<rect width="44" height="44" rx="22" fill="#FFFFD0"/>
<g clip-path="url(#clip0_971_564)">
<path d="M13.3853 15.8374C13.3853 14.5805 14.4086 13.5571 15.6656 13.5571C16.9225 13.5571 17.9458 14.5805 17.9458 15.8374C17.9458 17.0944 16.9225 18.1177 15.6656 18.1177C14.4086 18.1177 13.3853 17.0943 13.3853 15.8374ZM13.7915 15.8374C13.7915 16.8713 14.6317 17.7115 15.6656 17.7115C16.6994 17.7115 17.5396 16.8712 17.5396 15.8374C17.5396 14.8036 16.6993 13.9634 15.6656 13.9634C14.6318 13.9634 13.7915 14.8036 13.7915 15.8374Z" fill="black" stroke="#748A5B"/>
<path d="M27.3486 31.7015L24.8594 24.6812H20.0358L17.8271 19.4387H14.2225L11.4738 26.9146C11.3628 27.2168 11.3396 27.5393 11.3995 27.8468H10V29.2531H21.9028L24.247 33.1632C24.5668 33.6964 25.1374 33.9998 25.7272 33.9998C25.9604 33.9998 26.1967 33.9524 26.4215 33.853C27.2407 33.4907 27.6479 32.5457 27.3486 31.7015ZM14.9474 27.8468L15.7848 26.5044L16.4952 27.8468H14.9474ZM25.8528 32.5669C25.7069 32.6314 25.535 32.5768 25.4531 32.4401L22.6993 27.8468H18.0862L15.8847 23.687L13.3876 27.6904C13.3265 27.7884 13.2211 27.8468 13.1057 27.8468C12.9549 27.8468 12.8702 27.7578 12.8332 27.7047C12.7961 27.6516 12.7418 27.5414 12.7938 27.3999L15.2038 20.845H16.8936L19.1024 26.0875H23.866L26.0232 32.1715C26.0782 32.3266 26.0033 32.5003 25.8528 32.5669Z" fill="#748A5B"/>
<path d="M26.8612 15.2811C26.8612 14.3899 26.5007 13.9008 26.2375 13.5437C26.0197 13.2482 25.8882 13.0697 25.8882 12.6407C25.8882 12.2117 26.0197 12.0332 26.2376 11.7376C26.5007 11.3805 26.8612 10.8914 26.8612 10.0002H25.4549C25.4549 10.4292 25.3234 10.6076 25.1056 10.9033C24.8424 11.2604 24.4819 11.7494 24.4819 12.6407C24.4819 13.5318 24.8424 14.0209 25.1056 14.378C25.3234 14.6736 25.4549 14.852 25.4549 15.281C25.4549 15.7102 25.3234 15.8886 25.1055 16.1843C24.8424 16.5415 24.4819 17.0306 24.4819 17.9219C24.4819 18.8132 24.8423 19.3023 25.1055 19.6594C25.3234 19.9551 25.4549 20.1336 25.4549 20.5627H26.8612C26.8612 19.6714 26.5008 19.1823 26.2376 18.8252C26.0197 18.5295 25.8882 18.351 25.8882 17.9219C25.8882 17.4927 26.0197 17.3143 26.2376 17.0186C26.5007 16.6614 26.8612 16.1724 26.8612 15.2811Z" fill="#748A5B"/>
<path d="M30.4305 15.2811C30.4305 14.3899 30.0701 13.9008 29.8069 13.5437C29.5891 13.2481 29.4575 13.0697 29.4575 12.6407C29.4575 12.2116 29.589 12.0332 29.8069 11.7375C30.07 11.3806 30.4305 10.8915 30.4305 10.0003H29.0243C29.0243 10.4293 28.8927 10.6078 28.6749 10.9034C28.4117 11.2605 28.0513 11.7495 28.0513 12.6408C28.0513 13.532 28.4117 14.021 28.6749 14.3781C28.8927 14.6737 29.0243 14.8521 29.0243 15.2811C29.0243 15.7103 28.8927 15.8887 28.6748 16.1844C28.4117 16.5416 28.0513 17.0307 28.0513 17.9219C28.0513 18.8131 28.4116 19.3023 28.6748 19.6594C28.8927 19.9551 29.0243 20.1336 29.0243 20.5626H30.4305C30.4305 19.6714 30.0701 19.1823 29.8069 18.8251C29.589 18.5294 29.4575 18.351 29.4575 17.9219C29.4575 17.4927 29.589 17.3143 29.8069 17.0186C30.0701 16.6614 30.4305 16.1723 30.4305 15.2811Z" fill="#748A5B"/>
<path d="M34.0001 15.2812C34.0001 14.39 33.6397 13.901 33.3765 13.5439C33.1586 13.2483 33.0271 13.0698 33.0271 12.6408C33.0271 12.2118 33.1586 12.0334 33.3765 11.7377C33.6397 11.3806 34.0001 10.8915 34.0001 10.0003H32.5938C32.5938 10.4293 32.4623 10.6078 32.2445 10.9034C31.9813 11.2605 31.6208 11.7495 31.6208 12.6408C31.6208 13.532 31.9813 14.021 32.2445 14.3781C32.4623 14.6737 32.5938 14.8521 32.5938 15.2811C32.5938 15.7103 32.4623 15.8887 32.2444 16.1844C31.9813 16.5416 31.6208 17.0307 31.6208 17.9219C31.6208 18.8131 31.9812 19.3023 32.2444 19.6594C32.4623 19.9551 32.5938 20.1336 32.5938 20.5626H34.0001C34.0001 19.6714 33.6397 19.1823 33.3765 18.8251C33.1586 18.5294 33.0271 18.351 33.0271 17.9219C33.0271 17.4927 33.1586 17.3143 33.3765 17.0186C33.6397 16.6616 34.0001 16.1725 34.0001 15.2812Z" fill="#748A5B"/>
</g>
<defs>
<clipPath id="clip0_971_564">
<rect width="24" height="24" fill="white" transform="translate(10 10)"/>
</clipPath>
</defs>
</svg>
