<svg width="44" height="44" viewBox="0 0 44 44" fill="none" xmlns="http://www.w3.org/2000/svg">
<rect width="44" height="44" rx="22" fill="#FFFFD0"/>
<g clip-path="url(#clip0_971_586)">
<mask id="path-2-inside-1_971_586" fill="white">
<path d="M30.38 19.0263C30.3744 18.9963 30.365 18.9667 30.3533 18.9386C30.3415 18.91 30.327 18.8828 30.3101 18.8575C30.2933 18.8317 30.2736 18.8078 30.252 18.7863C30.2305 18.7647 30.2065 18.745 30.1808 18.7282C30.1555 18.7113 30.1283 18.6967 30.0997 18.685C30.0715 18.6733 30.0421 18.6644 30.012 18.6583C29.9515 18.6461 29.8897 18.6461 29.8292 18.6583C29.7992 18.6644 29.7697 18.6733 29.7415 18.685C29.713 18.6967 29.6858 18.7113 29.6605 18.7282C29.6347 18.745 29.6108 18.7647 29.5892 18.7863C29.5676 18.8078 29.548 18.8317 29.5311 18.8575C29.5142 18.8828 29.4997 18.91 29.488 18.9386C29.4762 18.9667 29.4669 18.9963 29.4612 19.0263C29.4551 19.0563 29.4519 19.0872 29.4519 19.1177C29.4519 19.1482 29.4551 19.1791 29.4612 19.2096C29.4669 19.2391 29.4762 19.2686 29.488 19.2972C29.4997 19.3253 29.5142 19.3525 29.5311 19.3778C29.548 19.4036 29.5676 19.4275 29.5892 19.4491C29.6764 19.5363 29.7973 19.5864 29.9206 19.5864C30.0439 19.5864 30.1648 19.5363 30.252 19.4491C30.2736 19.4275 30.2933 19.4036 30.3101 19.3778C30.327 19.3525 30.3415 19.3253 30.3533 19.2972C30.365 19.2686 30.3744 19.2391 30.38 19.2096C30.3861 19.1791 30.3894 19.1482 30.3894 19.1177C30.3894 19.0872 30.3861 19.0563 30.38 19.0263Z"/>
</mask>
<path d="M30.38 19.0263C30.3744 18.9963 30.365 18.9667 30.3533 18.9386C30.3415 18.91 30.327 18.8828 30.3101 18.8575C30.2933 18.8317 30.2736 18.8078 30.252 18.7863C30.2305 18.7647 30.2065 18.745 30.1808 18.7282C30.1555 18.7113 30.1283 18.6967 30.0997 18.685C30.0715 18.6733 30.0421 18.6644 30.012 18.6583C29.9515 18.6461 29.8897 18.6461 29.8292 18.6583C29.7992 18.6644 29.7697 18.6733 29.7415 18.685C29.713 18.6967 29.6858 18.7113 29.6605 18.7282C29.6347 18.745 29.6108 18.7647 29.5892 18.7863C29.5676 18.8078 29.548 18.8317 29.5311 18.8575C29.5142 18.8828 29.4997 18.91 29.488 18.9386C29.4762 18.9667 29.4669 18.9963 29.4612 19.0263C29.4551 19.0563 29.4519 19.0872 29.4519 19.1177C29.4519 19.1482 29.4551 19.1791 29.4612 19.2096C29.4669 19.2391 29.4762 19.2686 29.488 19.2972C29.4997 19.3253 29.5142 19.3525 29.5311 19.3778C29.548 19.4036 29.5676 19.4275 29.5892 19.4491C29.6764 19.5363 29.7973 19.5864 29.9206 19.5864C30.0439 19.5864 30.1648 19.5363 30.252 19.4491C30.2736 19.4275 30.2933 19.4036 30.3101 19.3778C30.327 19.3525 30.3415 19.3253 30.3533 19.2972C30.365 19.2686 30.3744 19.2391 30.38 19.2096C30.3861 19.1791 30.3894 19.1482 30.3894 19.1177C30.3894 19.0872 30.3861 19.0563 30.38 19.0263Z" fill="#748A5B"/>
<path d="M30.38 19.0263L29.3971 19.2106L29.3985 19.218L29.4 19.2253L30.38 19.0263ZM30.3533 18.9386L29.4279 19.3179L29.4302 19.3232L30.3533 18.9386ZM30.3101 18.8575L29.4734 19.4052L29.4781 19.4122L30.3101 18.8575ZM30.1808 18.7282L29.626 19.5602L29.6331 19.5649L30.1808 18.7282ZM30.0997 18.685L29.715 19.6081L29.7204 19.6103L30.0997 18.685ZM30.012 18.6583L30.2108 17.6783L30.2094 17.678L30.012 18.6583ZM29.8292 18.6583L29.6316 17.678L29.6301 17.6783L29.8292 18.6583ZM29.7415 18.685L30.1208 19.6104L30.1262 19.6081L29.7415 18.685ZM29.6605 18.7282L30.2081 19.5649L30.2152 19.5602L29.6605 18.7282ZM29.5311 18.8575L30.3632 19.4122L30.3678 19.4052L29.5311 18.8575ZM29.488 18.9386L30.411 19.3232L30.4133 19.3178L29.488 18.9386ZM29.4612 19.0263L30.4412 19.2253L30.4427 19.218L30.4441 19.2106L29.4612 19.0263ZM29.4612 19.2096L30.4436 19.0224L30.4418 19.0134L29.4612 19.2096ZM29.488 19.2972L28.5626 19.6764L28.5649 19.6818L29.488 19.2972ZM29.5311 19.3778L30.3678 18.8302L30.3631 18.8231L29.5311 19.3778ZM29.5892 19.4491L30.2963 18.742L29.5892 19.4491ZM30.252 19.4491L30.9593 20.156L30.9599 20.1554L30.252 19.4491ZM30.3101 19.3778L29.4781 18.8231L29.4734 18.8302L30.3101 19.3778ZM30.3533 19.2972L31.2764 19.6818L31.2786 19.6764L30.3533 19.2972ZM30.38 19.2096L29.3994 19.0134L29.3976 19.0224L30.38 19.2096ZM31.3629 18.842C31.3423 18.7323 31.3103 18.6354 31.2763 18.554L29.4302 19.3232C29.4197 19.2981 29.4064 19.2603 29.3971 19.2106L31.3629 18.842ZM31.2786 18.5594C31.2413 18.4684 31.1953 18.3825 31.1422 18.3028L29.4781 19.4122C29.4587 19.3832 29.4418 19.3517 29.428 19.3178L31.2786 18.5594ZM31.1468 18.3099C31.0902 18.2233 31.0264 18.1464 30.9591 18.0792L29.5449 19.4934C29.5208 19.4693 29.4963 19.4402 29.4734 19.4052L31.1468 18.3099ZM30.9591 18.0792C30.8919 18.0119 30.815 17.9481 30.7284 17.8915L29.6331 19.5649C29.5981 19.542 29.569 19.5175 29.5449 19.4934L30.9591 18.0792ZM30.7355 17.8961C30.6558 17.843 30.5699 17.797 30.4789 17.7597L29.7204 19.6103C29.6866 19.5965 29.6551 19.5796 29.6261 19.5602L30.7355 17.8961ZM30.4843 17.762C30.3935 17.7241 30.3016 17.6967 30.2108 17.6783L29.8133 19.6384C29.7826 19.6321 29.7496 19.6225 29.7151 19.6081L30.4843 17.762ZM30.2094 17.678C30.0187 17.6396 29.8226 17.6395 29.6316 17.678L30.0268 19.6386C29.9568 19.6527 29.8843 19.6527 29.8146 19.6386L30.2094 17.678ZM29.6301 17.6783C29.5399 17.6967 29.4479 17.724 29.3569 17.762L30.1262 19.6081C30.0914 19.6226 30.0585 19.6321 30.0283 19.6383L29.6301 17.6783ZM29.3623 17.7597C29.2713 17.797 29.1854 17.843 29.1058 17.8961L30.2152 19.5602C30.1861 19.5796 30.1546 19.5965 30.1208 19.6103L29.3623 17.7597ZM29.1128 17.8915C29.0263 17.9481 28.9494 18.0119 28.8821 18.0792L30.2963 19.4934C30.2722 19.5175 30.2431 19.542 30.2081 19.5649L29.1128 17.8915ZM28.8821 18.0792C28.8148 18.1464 28.751 18.2233 28.6944 18.3099L30.3678 19.4052C30.3449 19.4402 30.3204 19.4693 30.2963 19.4934L28.8821 18.0792ZM28.699 18.3028C28.6459 18.3825 28.5999 18.4684 28.5626 18.5594L30.4133 19.3178C30.3994 19.3517 30.3825 19.3832 30.3631 19.4122L28.699 18.3028ZM28.5649 18.554C28.531 18.6354 28.4989 18.7323 28.4784 18.842L30.4441 19.2106C30.4348 19.2603 30.4215 19.2981 30.411 19.3232L28.5649 18.554ZM28.4812 18.8272C28.4624 18.9199 28.4519 19.0175 28.4519 19.1177H30.4519C30.4519 19.1569 30.4479 19.1926 30.4412 19.2253L28.4812 18.8272ZM28.4519 19.1177C28.4519 19.2183 28.4625 19.315 28.4807 19.4057L30.4418 19.0134C30.4478 19.0432 30.4519 19.078 30.4519 19.1177H28.4519ZM28.4789 19.3967C28.4995 19.5047 28.531 19.5992 28.5626 19.6764L30.4133 18.918C30.4215 18.9381 30.4342 18.9735 30.4436 19.0224L28.4789 19.3967ZM28.5649 19.6818C28.6012 19.7691 28.6462 19.8532 28.699 19.9325L30.3631 18.8231C30.3822 18.8518 30.3981 18.8816 30.411 18.9126L28.5649 19.6818ZM28.6944 19.9255C28.751 20.0121 28.8149 20.089 28.8821 20.1562L30.2963 18.742C30.3204 18.7661 30.3449 18.7952 30.3678 18.8302L28.6944 19.9255ZM28.8821 20.1562C29.1565 20.4306 29.5316 20.5864 29.9206 20.5864V18.5864C30.0629 18.5864 30.1963 18.6419 30.2963 18.742L28.8821 20.1562ZM29.9206 20.5864C30.3092 20.5864 30.6846 20.4309 30.9593 20.156L29.5447 18.7422C29.6451 18.6418 29.7785 18.5864 29.9206 18.5864V20.5864ZM30.9599 20.1554C31.0261 20.0891 31.0898 20.0126 31.1468 19.9255L29.4734 18.8302C29.4967 18.7946 29.5211 18.7658 29.5441 18.7428L30.9599 20.1554ZM31.1422 19.9325C31.1951 19.8532 31.24 19.7691 31.2763 19.6818L29.4302 18.9126C29.4431 18.8816 29.459 18.8518 29.4781 18.8231L31.1422 19.9325ZM31.2786 19.6764C31.3102 19.5992 31.3417 19.5047 31.3623 19.3967L29.3976 19.0224C29.407 18.9735 29.4197 18.9381 29.428 18.918L31.2786 19.6764ZM31.3606 19.4057C31.3785 19.316 31.3894 19.2192 31.3894 19.1177H29.3894C29.3894 19.0771 29.3936 19.0422 29.3994 19.0134L31.3606 19.4057ZM31.3894 19.1177C31.3894 19.0166 31.3786 18.9189 31.36 18.8272L29.4 19.2253C29.3936 19.1936 29.3894 19.1579 29.3894 19.1177H31.3894Z" fill="#748A5B" mask="url(#path-2-inside-1_971_586)"/>
<path d="M28.1395 18.649H23.877C23.6181 18.649 23.4082 18.8589 23.4082 19.1178C23.4082 19.3767 23.6181 19.5865 23.877 19.5865H28.1395C28.3984 19.5865 28.6083 19.3767 28.6083 19.1178C28.6083 18.8589 28.3984 18.649 28.1395 18.649Z" fill="#748A5B"/>
<path d="M13.3229 19.0263C13.3168 18.9963 13.3079 18.9667 13.2961 18.9386C13.2844 18.91 13.2699 18.8828 13.253 18.8575C13.2362 18.8317 13.2165 18.8078 13.1949 18.7863C13.1734 18.7647 13.1494 18.745 13.1236 18.7282C13.0983 18.7113 13.0711 18.6967 13.0426 18.685C13.0145 18.6733 12.9849 18.6644 12.9549 18.6583C12.8945 18.6461 12.8321 18.6461 12.7717 18.6583C12.7421 18.6644 12.7126 18.6733 12.684 18.685C12.6559 18.6967 12.6287 18.7113 12.6034 18.7282C12.5776 18.745 12.5536 18.7647 12.5321 18.7863C12.51 18.8078 12.4908 18.8317 12.4735 18.8575C12.4567 18.8828 12.4421 18.91 12.4304 18.9386C12.4186 18.9667 12.4098 18.9963 12.4037 19.0263C12.3976 19.0563 12.3948 19.0872 12.3948 19.1177C12.3948 19.1482 12.3975 19.1791 12.4037 19.2096C12.4098 19.2391 12.4186 19.2686 12.4304 19.2972C12.4421 19.3253 12.4567 19.3525 12.4735 19.3778C12.4908 19.4036 12.51 19.4275 12.5321 19.4491C12.5536 19.4707 12.5776 19.4903 12.6034 19.5077C12.6287 19.5246 12.6559 19.5391 12.684 19.5508C12.7126 19.5625 12.7421 19.5714 12.7717 19.5775C12.8021 19.5836 12.8331 19.5864 12.8635 19.5864C12.894 19.5864 12.9249 19.5836 12.9549 19.5775C12.9848 19.5714 13.0144 19.5625 13.0425 19.5508C13.0711 19.5391 13.0983 19.5246 13.1236 19.5077C13.1494 19.4903 13.1733 19.4707 13.1949 19.4491C13.2821 19.3619 13.3322 19.241 13.3322 19.1177C13.3322 19.0872 13.3289 19.0563 13.3229 19.0263Z" fill="#748A5B"/>
<path d="M18.9071 18.649H14.6445C14.3857 18.649 14.1758 18.8589 14.1758 19.1178C14.1758 19.3767 14.3857 19.5865 14.6445 19.5865H18.9071C19.166 19.5865 19.3759 19.3767 19.3759 19.1178C19.3759 18.8589 19.166 18.649 18.9071 18.649Z" fill="#748A5B"/>
<path d="M33.8853 27.8989C33.8493 27.7096 33.7013 27.5616 33.512 27.5257C33.4676 27.5173 32.664 27.3686 31.666 27.4241V21.0403H32.3153C32.5741 21.0403 32.784 20.8304 32.784 20.5715V17.6639C32.784 17.405 32.5741 17.1952 32.3153 17.1952H10.4688C10.2099 17.1952 10 17.405 10 17.6639V20.5715C10 20.8304 10.2099 21.0403 10.4688 21.0403H11.1181V33.5307C11.1181 33.7896 11.328 33.9995 11.5868 33.9995H27.2752C27.3424 33.9995 27.4063 33.9853 27.4641 33.9598C27.5985 33.9859 27.7365 33.9989 27.8745 33.9989C28.0653 33.9989 28.2561 33.974 28.4373 33.9242C28.6698 33.9476 28.9713 33.9681 29.3128 33.9681C30.3901 33.9681 31.8654 33.7636 32.8294 32.7995C34.4793 31.1496 33.9102 28.0308 33.8853 27.8989ZM10.9375 20.1028V18.1327H31.8466V20.1028H10.9375ZM30.7286 21.0403V24.8285H27.744V21.0403H30.7286ZM26.8065 21.0403V24.8285H23.8218V21.0403H26.8065ZM22.8843 21.0403V24.8285H19.8997V21.0403H22.8843ZM18.9622 21.0403V24.8285H15.9776V21.0403H18.9622ZM15.0401 21.0403V24.8285H12.0555V21.0403H15.0401ZM15.0402 33.062H12.0555V29.0296H15.0401L15.0402 33.062ZM18.9622 33.062H15.9776V29.0296H18.9622V33.062ZM22.8843 33.062H19.8997V29.0296H22.8843V33.062ZM23.8218 33.062V29.0296H24.1551C24.1555 29.1179 24.163 29.2055 24.1782 29.2914C24.2039 29.4371 24.2893 29.7532 24.5636 30.0246C24.2894 30.296 24.2039 30.6121 24.1782 30.7578C24.0317 31.5886 24.5987 32.5705 25.3914 32.859C25.5304 32.9097 25.8468 32.9936 26.219 32.8919C26.2348 32.9523 26.2542 33.009 26.276 33.062H23.8218ZM26.4983 31.4708C26.2471 31.9059 25.9828 32.0766 25.7121 31.9781C25.348 31.8456 25.0343 31.302 25.1015 30.9206C25.1515 30.6371 25.4316 30.4933 25.9339 30.4933C25.9582 30.4933 25.9821 30.4915 26.0054 30.4879C26.0939 30.8451 26.2825 31.1632 26.5395 31.4108C26.5244 31.4294 26.5106 31.4495 26.4983 31.4708ZM25.712 28.071C25.9825 27.9725 26.2471 28.1432 26.4982 28.5783C26.5105 28.5996 26.5243 28.6197 26.5393 28.6383C26.2823 28.886 26.0938 29.2041 26.0052 29.5612C25.9819 29.5577 25.9581 29.5558 25.9338 29.5558C25.4314 29.5558 25.1514 29.4121 25.1014 29.1285C25.0342 28.7471 25.348 28.2035 25.712 28.071ZM28.485 32.8741C28.1883 33.1231 27.5606 33.123 27.2639 32.8741C27.0433 32.689 27.0589 32.3746 27.31 31.9396C27.3222 31.9185 27.3325 31.8969 27.3411 31.875C27.5105 31.9239 27.6895 31.9501 27.8745 31.9501C28.0594 31.9501 28.2384 31.9239 28.4078 31.875C28.4164 31.897 28.4267 31.9185 28.4388 31.9396C28.69 32.3746 28.7056 32.689 28.485 32.8741ZM27.8745 31.0127C27.3296 31.0127 26.8863 30.5694 26.8863 30.0246C26.8863 29.4797 27.3296 29.0365 27.8745 29.0365C28.4193 29.0365 28.8625 29.4798 28.8625 30.0246C28.8625 30.5694 28.4193 31.0127 27.8745 31.0127ZM27.2639 27.1751C27.5605 26.9261 28.1883 26.9261 28.485 27.1751C28.7056 27.3601 28.69 27.6746 28.4388 28.1096C28.4267 28.1306 28.4164 28.1522 28.4078 28.1742C28.2384 28.1253 28.0594 28.099 27.8745 28.099C27.6895 28.099 27.5105 28.1253 27.3411 28.1742C27.3325 28.1522 27.3222 28.1306 27.31 28.1096C27.0589 27.6745 27.0433 27.3601 27.2639 27.1751ZM29.0876 26.4569C28.4413 25.9146 27.3076 25.9147 26.6613 26.4569C26.6599 26.4581 26.6586 26.4592 26.6572 26.4603H15.5086C15.2497 26.4603 15.0398 26.6702 15.0398 26.9291C15.0398 27.188 15.2497 27.3978 15.5086 27.3978H25.0028C24.7574 27.5742 24.5501 27.8177 24.4021 28.0922H12.0555V25.7659H30.7286V27.3853C30.6125 27.3039 30.4881 27.2376 30.3575 27.1901C30.2185 27.1394 29.902 27.0554 29.53 27.1572C29.4319 26.784 29.2009 26.552 29.0876 26.4569ZM30.6475 29.1286C30.5975 29.4121 30.3174 29.5558 29.8151 29.5558C29.7908 29.5558 29.767 29.5577 29.7437 29.5613C29.6551 29.2041 29.4665 28.886 29.2096 28.6384C29.2246 28.6197 29.2384 28.5997 29.2507 28.5783C29.5018 28.1433 29.7661 27.9726 30.0369 28.071C30.4009 28.2035 30.7148 28.7472 30.6475 29.1286ZM29.2507 31.4708C29.2383 31.4495 29.2246 31.4294 29.2096 31.4108C29.4666 31.1632 29.6551 30.8451 29.7436 30.4879C29.7669 30.4915 29.7908 30.4933 29.815 30.4933C30.3174 30.4933 30.5974 30.637 30.6475 30.9206C30.7147 31.302 30.4008 31.8456 30.0369 31.9781C29.7664 32.0766 29.5019 31.9059 29.2507 31.4708ZM32.1666 32.1366C31.4717 32.8315 30.367 33.0132 29.4853 33.0308C29.5021 32.9869 29.5171 32.9406 29.5299 32.8919C29.9019 32.9936 30.2184 32.9097 30.3575 32.859C31.1502 32.5705 31.7172 31.5886 31.5707 30.7578C31.545 30.6121 31.4596 30.296 31.1853 30.0246C31.4596 29.7531 31.545 29.4371 31.5707 29.2914C31.6233 28.9935 31.584 28.6761 31.4755 28.3783C32.0973 28.321 32.6692 28.362 33.0106 28.4009C33.0993 29.1697 33.2004 31.1028 32.1666 32.1366Z" fill="#748A5B"/>
<path d="M24.4593 13.9542C24.2937 13.7676 24.2024 13.6649 24.2024 13.4204C24.2024 13.1759 24.2937 13.0731 24.4593 12.8865C24.506 12.8339 24.5543 12.7794 24.6031 12.7182C24.7644 12.5158 24.7312 12.2209 24.5287 12.0595C24.3263 11.8981 24.0313 11.9314 23.87 12.1338C23.8367 12.1757 23.7985 12.2187 23.7581 12.2642C23.5499 12.4987 23.2649 12.8198 23.2649 13.4204C23.2649 14.0209 23.55 14.342 23.7581 14.5765C23.9237 14.7631 24.0149 14.8659 24.0149 15.1104C24.0149 15.3548 23.9237 15.4576 23.7581 15.6441C23.6838 15.7278 23.5996 15.8226 23.5227 15.9365C23.3777 16.1509 23.4341 16.4423 23.6485 16.5873C23.729 16.6417 23.8203 16.6678 23.9106 16.6678C24.0611 16.6678 24.2088 16.5955 24.2995 16.4614C24.3418 16.3987 24.3989 16.3345 24.4593 16.2664C24.6674 16.0319 24.9525 15.7109 24.9525 15.1103C24.9525 14.5098 24.6674 14.1887 24.4593 13.9542Z" fill="#748A5B"/>
<path d="M21.7651 11.9974C21.5995 11.8108 21.5083 11.708 21.5083 11.4635C21.5083 11.219 21.5995 11.1162 21.7651 10.9296C21.8118 10.877 21.8601 10.8226 21.9089 10.7614C22.0702 10.559 22.037 10.264 21.8346 10.1027C21.632 9.94128 21.3372 9.97457 21.1759 10.177C21.1425 10.2188 21.1043 10.2618 21.0639 10.3073C20.8558 10.5418 20.5708 10.8629 20.5708 11.4635C20.5708 12.064 20.8558 12.3851 21.0639 12.6196C21.2296 12.8062 21.3208 12.909 21.3208 13.1535C21.3208 13.3979 21.2295 13.5007 21.064 13.6872C20.9897 13.7708 20.9055 13.8657 20.8285 13.9795C20.6836 14.194 20.7399 14.4854 20.9544 14.6303C21.0349 14.6847 21.1261 14.7108 21.2165 14.7108C21.3669 14.7108 21.5147 14.6385 21.6053 14.5045C21.6477 14.4418 21.7048 14.3776 21.7651 14.3095C21.9733 14.075 22.2583 13.754 22.2583 13.1535C22.2583 12.553 21.9732 12.2319 21.7651 11.9974Z" fill="#748A5B"/>
<path d="M18.9297 13.9542C18.764 13.7676 18.6728 13.6649 18.6728 13.4204C18.6728 13.1759 18.7641 13.0731 18.9297 12.8865C18.9764 12.8339 19.0247 12.7794 19.0735 12.7182C19.2348 12.5158 19.2016 12.2209 18.9991 12.0595C18.7966 11.8981 18.5018 11.9314 18.3405 12.1338C18.3071 12.1757 18.2689 12.2187 18.2285 12.2642C18.0204 12.4987 17.7354 12.8198 17.7354 13.4204C17.7354 14.0209 18.0204 14.342 18.2285 14.5765C18.3941 14.7631 18.4854 14.8659 18.4854 15.1104C18.4854 15.3548 18.3941 15.4576 18.2285 15.6441C18.1543 15.7278 18.0701 15.8226 17.9932 15.9365C17.8482 16.1509 17.9045 16.4423 18.119 16.5873C18.1995 16.6417 18.2907 16.6678 18.3811 16.6678C18.5315 16.6678 18.6792 16.5955 18.7698 16.4614C18.8122 16.3987 18.8693 16.3345 18.9297 16.2664C19.1378 16.0319 19.4229 15.7109 19.4229 15.1103C19.4229 14.5098 19.1378 14.1887 18.9297 13.9542Z" fill="#748A5B"/>
</g>
<defs>
<clipPath id="clip0_971_586">
<rect width="24" height="24" fill="white" transform="translate(10 10)"/>
</clipPath>
</defs>
</svg>
