<svg width="44" height="44" viewBox="0 0 44 44" fill="none" xmlns="http://www.w3.org/2000/svg">
<rect width="44" height="44" rx="22" fill="#FFFFC0"/>
<path d="M15.8 21.3L12 32L22.7 28.21M14 13H14.01M32 18H32.01M25 12H25.01M32 30H32.01M32 12L29.76 12.75C29.1224 12.9624 28.5783 13.3896 28.2208 13.9587C27.8633 14.5278 27.7146 15.2034 27.8 15.87C27.9 16.73 27.23 17.5 26.35 17.5H25.97C25.11 17.5 24.37 18.1 24.21 18.94L24 20M32 23L31.18 22.67C30.32 22.33 29.36 22.87 29.2 23.78C29.09 24.48 28.48 25 27.77 25H27M21 12L21.33 12.82C21.67 13.68 21.13 14.64 20.22 14.8C19.52 14.9 19 15.52 19 16.23V17M21 23C22.93 24.93 23.83 27.17 23 28C22.17 28.83 19.93 27.93 18 26C16.07 24.07 15.17 21.83 16 21C16.83 20.17 19.07 21.07 21 23Z" stroke="#748A5B" stroke-width="1.5" stroke-linecap="round" stroke-linejoin="round"/>
</svg>
