<svg width="125" height="40" viewBox="0 0 125 40" fill="none" xmlns="http://www.w3.org/2000/svg">
<path d="M10.625 13.4819C10.2828 13.6179 10.1187 13.7538 10.1 13.7679C10.1 13.7538 10.1234 13.6507 10.175 13.4866C10.3016 13.4398 10.4281 13.3929 10.5547 13.3413C10.5781 13.3882 10.6016 13.4351 10.625 13.4819Z" fill="black"/>
<path d="M40.7621 18.3438V18.3016H40.7199V18.2594C37.8461 11.2088 30.4063 5.81297 21.3961 5.89735C19.9709 5.91141 18.5833 6.06143 17.2566 6.32864C17.0503 6.27238 16.8347 6.22082 16.6097 6.16925C16.7269 6.00048 16.8581 5.7239 16.9753 5.43325C17.0878 5.1426 17.1769 4.84257 17.2144 4.62224C17.5848 2.3486 16.169 1.56572 16.1268 1.54228C16.1362 1.56572 16.2627 1.89856 16.1596 2.51736C16.1596 2.51736 15.9158 1.46258 13.9516 0.806274C13.9516 0.806274 14.2797 1.04536 14.4719 1.52353C13.9938 1.22819 13.2343 0.965663 12.0389 0.909408C12.0389 0.909408 12.3202 1.09224 12.6249 1.43446H12.6108C12.0201 1.43446 11.2794 1.69229 10.4309 2.35797C10.2059 2.53143 9.9715 2.68144 9.71835 2.79864C9.41363 2.94396 8.9964 3.11273 8.60261 3.1643C8.60261 3.1643 8.63543 3.32368 8.85576 3.43151C7.48219 4.26596 6.28207 4.76756 6.28207 4.76756C6.28207 4.76756 6.99932 5.39574 7.84785 6.35208C8.23226 6.30051 8.62136 6.27238 9.01515 6.25832L9.31518 6.25363C9.94806 6.25363 10.5153 6.29582 11.045 6.37552C11.3263 6.40833 11.5935 6.4599 11.8654 6.53022C12.3717 6.64273 12.8312 6.78805 13.2624 6.98495C13.4359 7.05526 13.6094 7.13965 13.7781 7.22872C13.8203 7.25216 13.8625 7.2756 13.9047 7.29904C14.6548 7.72564 15.297 8.1663 15.883 8.64916C16.0659 8.79917 16.2487 8.95387 16.4174 9.11326C16.6706 9.34766 16.9097 9.58674 17.1253 9.8352L17.2378 9.95708C18.4942 11.3869 19.324 13.1074 19.7037 15.0763C19.7412 15.306 19.7693 15.4982 19.7834 15.681C19.8115 15.8685 19.8209 16.0139 19.8256 16.0983C19.8865 17.1858 19.7037 18.2969 19.2912 19.3189C19.2302 19.5017 19.1646 19.647 19.113 19.7595C19.0333 19.9236 18.9536 20.0736 18.8599 20.2189C18.8177 20.2939 18.7708 20.3689 18.7192 20.4439C18.5739 20.683 18.4098 20.9081 18.2364 21.1284C18.2973 21.4143 18.3442 21.7191 18.363 22.0566C18.377 22.291 18.3723 22.5254 18.363 22.7551C18.3067 23.4395 18.1895 23.974 18.002 24.4709C17.9457 24.6303 17.8801 24.7896 17.8098 24.9443C17.791 24.9865 17.777 25.024 17.7535 25.0615C19.113 26.3507 19.9897 27.3774 19.9897 27.3774C19.9897 27.3774 20.8288 25.4413 22.2165 23.2333C22.3899 23.5989 22.6478 23.6552 22.6478 23.6552C22.7415 23.0129 23.0228 22.3379 23.2666 21.8503C23.4728 21.4425 23.7166 21.0628 24.0026 20.7065C24.0073 20.7065 24.0073 20.7018 24.0073 20.7018C25.1183 19.3282 25.559 18.1234 25.5637 17.1624C26.1075 17.664 26.3981 18.1281 26.3981 18.1281C26.3372 16.1873 25.9293 14.9497 25.4652 14.1621C26.145 14.4528 26.52 14.8981 26.5997 15.0013C25.5965 11.8182 23.8948 11.3963 23.8948 11.3963C24.9074 11.2416 25.4418 11.4619 25.4746 11.476C25.4371 11.4056 24.2042 9.08513 20.5007 9.62893C20.1491 9.6805 19.6521 9.82582 19.1834 9.99928C18.7099 10.1774 18.2551 10.3837 17.9785 10.5712C17.9082 10.2196 17.8285 9.88208 17.7488 9.5633C18.8786 8.75698 20.1116 8.2835 21.3961 8.25068C26.9232 8.16161 31.7565 16.4311 31.7096 23.6552C31.6674 30.7902 26.9232 38.9753 21.3961 38.8862C17.702 38.83 14.5141 35.1921 12.864 30.5323C12.5686 30.8136 12.2498 31.1136 11.9217 31.423C11.8654 31.484 11.8045 31.5402 11.7389 31.5918C11.1435 32.1075 10.384 32.3981 9.58239 32.4075H9.55427C9.32924 32.4075 9.1136 32.3794 8.89795 32.3372C8.7995 32.4216 8.70106 32.5106 8.59323 32.581C8.56511 32.5997 8.48541 32.656 8.45728 32.67C8.35415 32.7357 8.24632 32.7919 8.1385 32.8482C7.4775 33.167 6.82587 33.4904 6.17893 33.8139C5.9586 33.917 5.8414 33.978 5.71951 34.0389C5.70545 34.0436 5.69607 34.053 5.68201 34.0577C9.32456 38.333 14.9314 41.1598 21.3961 41.1927C30.4063 41.2817 37.8461 35.8859 40.7199 28.8353C42.0231 25.5678 42.07 21.6112 40.7621 18.3438Z" fill="black"/>
<path d="M16.9507 16.1036C16.9882 16.7974 16.8523 17.4912 16.5898 18.096C16.5804 18.1569 16.5523 18.1991 16.5241 18.2554C16.5007 18.3163 16.4726 18.3585 16.4304 18.4148C16.4022 18.471 16.3788 18.5179 16.3366 18.5695C16.0928 19.0007 15.7506 19.3664 15.3287 19.6336C15.038 19.2586 14.7427 18.8835 14.4474 18.5226C14.4005 18.4476 14.3349 18.3726 14.2833 18.2976C14.2458 18.2413 14.1942 18.1851 14.1567 18.1288C14.0911 18.0538 14.0161 17.9553 13.9551 17.8663C13.9411 17.8475 13.927 17.8288 13.9176 17.81C13.8379 17.7163 13.7629 17.6178 13.6879 17.51C13.5332 17.3178 13.3785 17.1303 13.2285 16.924C13.1769 16.8677 13.2379 16.624 13.3223 16.5255C13.6879 16.1364 14.0676 15.7473 14.4614 15.3629C14.4849 15.3207 14.5224 15.2926 14.5599 15.2692C14.5786 15.2551 14.5974 15.2317 14.6161 15.2176C14.6396 15.1895 14.6771 15.1473 14.7146 15.1238C14.738 15.0817 14.7943 15.0441 14.8365 14.9879C14.9771 14.8426 15.099 14.7066 15.174 14.4957C14.9865 14.6363 14.799 14.7722 14.6114 14.9269C14.588 14.9551 14.5505 14.9832 14.513 15.0066C14.4755 15.0441 14.438 15.0723 14.3817 15.1098C14.3442 15.1332 14.3067 15.1707 14.2692 15.1988C13.8707 15.4989 13.4676 15.8177 13.0644 16.1411C12.9566 16.2255 12.8488 16.3099 12.7409 16.399C12.4456 15.7989 12.1456 15.2129 11.8596 14.6269C11.8268 14.5566 11.7893 14.505 11.7705 14.4347C11.5971 14.13 11.4424 13.8065 11.2877 13.4878C11.2736 13.4549 11.2549 13.4221 11.2408 13.3893C11.2267 13.3612 11.2127 13.3331 11.1986 13.3049C11.072 13.0658 10.9642 12.8315 10.8376 12.5924C10.7486 12.6252 10.6595 12.6627 10.5704 12.6955C10.0219 12.9065 9.48281 13.1268 8.93432 13.3377C8.864 13.3706 8.79837 13.3893 8.72805 13.4221C8.53584 13.4971 8.34363 13.5862 8.13736 13.6612C7.72482 13.8159 7.30759 13.9753 6.8763 14.1441C6.76379 13.5018 6.64659 12.8736 6.54814 12.2455C6.54814 12.2314 6.53877 12.2126 6.53877 12.1986C6.53408 12.1751 6.52939 12.1564 6.5247 12.1423C6.5247 12.1283 6.5247 12.1142 6.52939 12.1001C6.50595 12.0486 6.50126 11.9829 6.49657 11.9314C6.4872 11.8986 6.48251 11.8517 6.47313 11.8142C6.42625 11.6313 6.39813 11.4485 6.37469 11.2563C6.34187 11.2469 6.30906 11.2563 6.26218 11.2657C6.26686 11.472 6.2903 11.6829 6.28093 11.8892C6.28561 11.9407 6.28093 11.9689 6.2903 12.0204C6.29968 12.0533 6.29499 12.0673 6.30437 12.1001C6.30906 12.1517 6.29968 12.1986 6.30906 12.2455V12.3673C6.31374 12.4236 6.31843 12.4799 6.31374 12.5361C6.31843 12.7611 6.34187 12.9721 6.34656 13.1971C6.38875 14.1956 6.38875 14.1956 5.46522 14.3503C5.44647 14.3597 5.41365 14.355 5.3949 14.3691C5.32927 14.3878 5.24957 14.3878 5.18394 14.4066C5.14644 14.416 5.11362 14.4253 5.06674 14.43C5.04799 14.4253 5.04799 14.4441 5.02924 14.4394C4.93079 14.4675 4.79953 14.4722 4.68233 14.5003C4.64014 14.5097 4.60264 14.5144 4.55576 14.5191C4.51356 14.5285 4.47137 14.5379 4.4198 14.5425C4.35417 14.5613 4.27448 14.5613 4.20416 14.58C3.85725 14.641 3.52909 14.7019 3.18218 14.7629C3.04623 14.7863 2.91966 14.791 2.75558 14.8051C2.68526 14.28 2.6665 13.7972 2.74151 13.3331L2.76964 13.183C2.7837 13.1221 2.79777 13.0565 2.82121 13.0002C2.83058 12.9533 2.83996 12.9065 2.86809 12.8643C3.02748 12.2877 3.33688 11.7579 3.74942 11.2844C3.81037 11.2282 3.85725 11.1579 3.9135 11.1063C3.95101 11.0688 4.01195 11.0125 4.06821 10.975C5.30583 9.78431 7.35447 9.17956 9.2531 9.11862C9.51094 9.11862 9.76877 9.11862 10.0172 9.13268C10.0829 9.13737 10.1485 9.14206 10.2094 9.14675C10.4063 9.16081 10.5985 9.18425 10.7814 9.21238C10.9689 9.23582 11.1377 9.26864 11.3064 9.31552C11.6252 9.38115 11.9299 9.47022 12.2065 9.60617C12.3097 9.63898 12.4128 9.69055 12.5112 9.74212C12.9988 10.014 13.4441 10.3094 13.8567 10.6375C13.8942 10.6609 13.9317 10.6891 13.9645 10.7219C14.0067 10.7547 14.0489 10.7875 14.0911 10.8203C14.5411 11.186 14.9443 11.5892 15.3006 12.0298C16.0788 12.9955 16.6132 14.1441 16.8757 15.4989C16.8992 15.6348 16.9179 15.7661 16.9226 15.9114C16.9414 15.977 16.9461 16.0427 16.9507 16.1036Z" fill="black"/>
<path d="M7.67159 18.9449C6.32145 19.409 5.02289 19.8543 3.64931 20.3231C3.42898 19.273 3.20864 18.237 2.98831 17.1869C2.89455 16.7509 2.80079 16.3103 2.70703 15.8649C3.09144 15.7759 3.47586 15.6868 3.8509 15.5977C4.71348 15.4008 5.56669 15.1992 6.44803 14.993C6.85588 16.315 7.25905 17.6135 7.67159 18.9449Z" fill="black"/>
<path d="M14.7053 20.4685C14.2318 20.8107 13.7724 21.153 13.3129 21.4952C13.2098 21.5702 13.1114 21.6452 13.0082 21.7202C13.0082 21.7202 12.9707 21.7296 12.9707 21.7436C12.7879 21.8655 12.6004 21.9921 12.4316 22.1327C12.1784 22.3062 11.93 22.489 11.6721 22.6765C11.4565 22.8266 11.2409 22.9859 11.0158 23.15C10.6736 22.5359 10.3455 21.9312 9.99854 21.3358C9.96573 21.2655 9.91885 21.1764 9.88603 21.1061C9.87197 21.1014 9.87197 21.0873 9.87197 21.0873C9.56725 20.5342 9.25784 19.995 8.95312 19.4372C9.45943 19.1372 9.94697 18.8512 10.4345 18.5465C10.4908 18.509 10.5611 18.4762 10.6174 18.4387C10.6361 18.4293 10.6502 18.4293 10.6689 18.4199C10.7064 18.3965 10.7439 18.3777 10.7814 18.3543C11.3581 18.0121 11.9206 17.6605 12.4972 17.3229C12.53 17.3698 12.5675 17.4214 12.6004 17.4683C12.7598 17.7027 12.9145 17.9277 13.0832 18.1574C13.0785 18.1714 13.0926 18.1761 13.0926 18.1761C13.3176 18.509 13.5567 18.8231 13.7817 19.1559C14.0818 19.5825 14.3912 20.0279 14.7053 20.4685Z" fill="black"/>
<path d="M9.85565 23.7828C8.57115 24.2376 7.32415 24.6829 6.03027 25.1423C5.38333 23.9563 4.75046 22.7984 4.08008 21.5701C5.40677 21.0357 6.6819 20.5153 8.00859 19.9809C8.62272 21.2467 9.22746 22.4936 9.85565 23.7828Z" fill="black"/>
<path d="M12.1763 16.541C11.6981 16.8129 11.2293 17.0848 10.7558 17.3614C10.0198 17.7833 9.2838 18.2052 8.52435 18.6412C8.07899 17.2957 7.65239 15.9972 7.20703 14.6377C8.21494 14.2486 9.18066 13.8735 10.1745 13.4891C10.3011 13.4423 10.4277 13.3954 10.5542 13.3438C10.5777 13.3907 10.6011 13.4376 10.6246 13.4844C10.7136 13.6579 10.8027 13.8314 10.8871 14.0048C11.309 14.8393 11.7356 15.6737 12.1763 16.541Z" fill="black"/>
<path d="M11.6809 27.5901C11.6622 27.5995 11.6387 27.6276 11.62 27.6417C11.5637 27.6932 11.5028 27.7589 11.4418 27.8151C10.8934 28.3308 10.3496 28.8418 9.77762 29.3856C9.74012 29.409 9.72137 29.4231 9.70261 29.4512C9.54791 29.2637 9.38852 29.0856 9.23382 28.9121C8.82596 28.448 8.43686 28.0073 8.04776 27.5479C8.01963 27.5245 7.99151 27.5057 7.96807 27.4682C7.954 27.4495 7.92588 27.426 7.9165 27.4073C7.71023 27.1588 7.48521 26.9244 7.26018 26.676C7.19455 26.5963 7.11954 26.5025 7.03985 26.4228C7.02579 26.4041 6.99766 26.3853 6.98828 26.3666C7.0211 26.3384 7.0586 26.3291 7.09142 26.3056C7.23674 26.24 7.35863 26.165 7.48521 26.1087C7.55553 26.0619 7.62584 26.029 7.69616 25.9915L7.70085 25.9775C7.78992 25.9306 7.89306 25.8884 7.98682 25.8275C8.11339 25.7571 8.23528 25.7009 8.3431 25.6399C8.54 25.5368 8.73221 25.429 8.91035 25.3399C8.94785 25.3118 8.98536 25.2883 9.01817 25.279C9.05567 25.2555 9.10724 25.2321 9.14475 25.2087C9.19631 25.1852 9.23382 25.1618 9.27132 25.1383C9.66511 24.9274 10.0542 24.7164 10.4292 24.5195C10.6543 24.993 10.884 25.4524 11.0996 25.9118C11.1371 25.9634 11.1699 26.0337 11.1887 26.104H11.2028C11.2121 26.1415 11.2262 26.1603 11.2356 26.1931C11.2543 26.2447 11.2918 26.3009 11.3012 26.3478C11.4747 26.6713 11.62 26.9854 11.7653 27.3042C11.8028 27.3745 11.7419 27.5198 11.6809 27.5901Z" fill="black"/>
<path d="M6.7731 30.2204C6.75434 30.2298 6.73559 30.2438 6.71684 30.2532C6.01365 30.5954 5.32452 30.9377 4.63538 31.2846C4.39161 31.3971 4.15721 31.519 3.91813 31.6315C3.84312 31.669 3.7728 31.7065 3.69779 31.7393C3.0321 30.7314 2.67581 29.7 2.39922 28.5937C2.37578 28.5421 2.35703 28.4906 2.34766 28.439H2.35234C2.74145 28.2609 3.1118 28.064 3.49621 27.8858C3.76342 27.7452 4.03064 27.6045 4.30723 27.4827C4.34942 27.4452 4.3963 27.4358 4.4338 27.4123L4.44786 27.417C4.79009 27.2295 5.10887 27.0654 5.46047 26.8967C5.57766 27.2061 5.70893 27.5202 5.82144 27.8296C5.8355 27.8483 5.84488 27.8671 5.84019 27.8952C5.86363 27.9327 5.87301 27.9843 5.89645 28.0171C5.89176 28.0358 5.89176 28.0358 5.90582 28.0546C6.19648 28.7625 6.47775 29.4563 6.7731 30.2204Z" fill="black"/>
<path d="M4.4892 25.3944C3.53285 25.5116 2.59995 25.6241 1.66235 25.7366C1.27794 25.7788 0.888838 25.8257 0.499736 25.8726C0.232522 24.949 0.157515 24.0349 0.23721 23.102C0.241898 23.0223 0.302842 22.9192 0.368473 22.8864C0.766951 22.6942 1.16074 22.5019 1.5639 22.3144C2.07489 22.0707 2.59057 21.8269 3.11093 21.5784C3.58911 22.9004 4.02977 24.1146 4.4892 25.3944Z" fill="black"/>
<path d="M15.423 22.334C15.4324 22.4512 15.4277 22.559 15.423 22.6715C15.409 22.8449 15.3855 23.009 15.3433 23.1637C15.3199 23.2622 15.2918 23.3606 15.2543 23.4497C15.2121 23.5716 15.1605 23.6888 15.1042 23.806C15.1042 23.806 15.1042 23.806 15.0996 23.82C14.7573 24.5045 14.1854 25.0764 13.5338 25.6342C13.3978 25.4983 13.2666 25.3623 13.1447 25.2405C12.9712 25.0623 12.8118 24.9029 12.6524 24.7435C12.3337 24.4107 12.0008 24.0919 11.668 23.7544C12.0008 23.4215 12.3524 23.0887 12.6899 22.7746C12.9197 22.5637 13.14 22.348 13.3556 22.1371C13.3744 22.123 13.3885 22.1277 13.3931 22.1136C13.501 22.0152 13.6041 21.9167 13.7119 21.8136C14.0541 21.4901 14.4011 21.1667 14.7433 20.8291C15.2308 21.2135 15.3996 21.7386 15.423 22.334Z" fill="black"/>
<path d="M2.76939 20.3318C2.45999 20.3506 2.15996 20.3646 1.85993 20.3834C1.28799 20.4162 0.725439 20.449 0.158195 20.4818C-0.418425 18.2551 0.636368 16.2205 2.42717 16.0939C2.47874 16.7502 2.53499 17.4112 2.58656 18.0722C2.64751 18.8176 2.70845 19.5677 2.76939 20.3318Z" fill="black"/>
<path d="M2.32003 14.8087C1.96374 14.7993 1.65434 14.7946 1.23242 14.7805C1.56527 14.2133 1.84655 13.7258 2.13251 13.2382C2.16533 13.2476 2.20283 13.257 2.24033 13.2663C2.26377 13.7586 2.2919 14.2508 2.32003 14.8087Z" fill="black"/>
<path d="M56.5922 15.6302H62.349V32.4457H58.1439V20.3321C57.9985 20.4165 57.8532 20.4775 57.6891 20.5384C57.5438 20.5993 57.3797 20.6603 57.2344 20.7447C53.2778 22.4417 48.0413 24.72 48.1022 28.9251C48.121 29.2157 48.1444 29.5064 48.2054 29.797C48.3507 30.6268 48.6414 31.3722 48.9086 31.9722C48.9273 32.0566 48.9695 32.1363 49.0117 32.2207C49.0305 32.2629 49.0539 32.3051 49.0539 32.3426C49.0727 32.3613 49.0961 32.4035 49.1149 32.4457H43.9393C43.9393 32.4457 43.9393 32.3426 43.9206 32.1785C43.8784 31.7847 43.8362 30.9784 43.9018 30.3127C43.9018 30.1674 43.9206 30.0455 43.944 29.9189C44.5441 26.7077 47.61 24.8888 50.6525 23.3933L51.9558 22.7699C54.7732 21.4432 57.2344 20.2618 57.2344 18.3585C57.2344 17.2662 56.8641 16.2912 56.5922 15.6302Z" fill="black"/>
<path d="M64.8365 15.6492H69.0417V21.5326C70.3027 23.7499 72.5811 22.6108 75.0047 21.4107C77.344 20.2528 79.8287 19.0292 81.6523 20.6841C85.0464 23.7687 81.6523 32.446 81.6523 32.446H64.8365V15.6492ZM77.4472 24.0594C75.7501 21.2419 69.037 24.0594 69.037 24.0594V30.8521C71.2309 33.2945 75.9142 32.1788 77.4472 29.1739C78.3379 27.4347 78.4645 25.7329 77.4472 24.0594Z" fill="black"/>
<path d="M47.3906 39.4507L47.3859 36.6896L46.017 38.9913H45.7685L44.3996 36.7083V39.4554H43.8793V35.6676H44.3246L45.9045 38.3303L47.4656 35.6676H47.9109L47.9156 39.4554H47.3906V39.4507Z" fill="black"/>
<path d="M52.3831 38.9765V39.4453H49.6312V35.6575H52.3081V36.1263H50.175V37.2889H52.0737V37.7483H50.175V38.9719H52.3831V38.9765Z" fill="black"/>
<path d="M54.4266 39.2388C54.1219 39.07 53.8828 38.8403 53.7094 38.545C53.5359 38.2496 53.4515 37.9215 53.4515 37.5511C53.4515 37.1808 53.5359 36.8526 53.7094 36.5573C53.8828 36.2619 54.1219 36.0322 54.4313 35.8635C54.736 35.6947 55.0829 35.6103 55.458 35.6103C55.7533 35.6103 56.0252 35.6619 56.269 35.7603C56.5128 35.8588 56.7237 36.0088 56.8972 36.201L56.5456 36.5432C56.2596 36.2432 55.9033 36.0932 55.4767 36.0932C55.1955 36.0932 54.9423 36.1541 54.7126 36.2807C54.4876 36.4073 54.3094 36.5807 54.1782 36.8011C54.0516 37.0214 53.986 37.2698 53.986 37.5464C53.986 37.823 54.0516 38.0668 54.1782 38.2918C54.3047 38.5121 54.4829 38.6856 54.7126 38.8122C54.9423 38.9387 55.1955 38.9997 55.4767 38.9997C55.8987 38.9997 56.2549 38.8497 56.5456 38.545L56.8972 38.8872C56.7237 39.0841 56.5128 39.2294 56.2643 39.3325C56.0159 39.4357 55.744 39.4825 55.4486 39.4825C55.0736 39.4919 54.7314 39.4075 54.4266 39.2388Z" fill="black"/>
<path d="M60.7456 36.1308H59.447V39.4498H58.9173V36.1308H57.6234V35.662H60.7456V36.1308Z" fill="black"/>
<path d="M62.5649 39.2384C62.2555 39.0696 62.0164 38.8399 61.843 38.5446C61.6695 38.2492 61.5804 37.9164 61.5804 37.5554C61.5804 37.1898 61.6695 36.8616 61.843 36.5663C62.0164 36.2709 62.2602 36.0365 62.5649 35.8725C62.8696 35.7037 63.2165 35.6193 63.601 35.6193C63.9807 35.6193 64.3229 35.7037 64.6323 35.8725C64.937 36.0412 65.1808 36.2709 65.3543 36.5663C65.5277 36.8616 65.6121 37.1898 65.6121 37.5601C65.6121 37.9305 65.5277 38.2586 65.3543 38.554C65.1808 38.8493 64.9417 39.079 64.6323 39.2478C64.3229 39.4165 63.9807 39.5009 63.601 39.5009C63.2165 39.4915 62.8743 39.4072 62.5649 39.2384ZM64.351 38.8212C64.5714 38.6946 64.7495 38.5211 64.8761 38.3008C65.0027 38.0805 65.0683 37.832 65.0683 37.5554C65.0683 37.2835 65.0027 37.0351 64.8761 36.8101C64.7495 36.5897 64.5714 36.4163 64.351 36.2897C64.1307 36.1631 63.8775 36.1022 63.601 36.1022C63.3244 36.1022 63.0712 36.1631 62.8462 36.2897C62.6212 36.4163 62.443 36.5897 62.3165 36.8101C62.1899 37.0304 62.1243 37.2788 62.1243 37.5554C62.1243 37.832 62.1899 38.0758 62.3165 38.3008C62.443 38.5211 62.6212 38.6946 62.8462 38.8212C63.0712 38.9477 63.3244 39.0087 63.601 39.0087C63.8775 39.0087 64.1307 38.9477 64.351 38.8212Z" fill="black"/>
<path d="M69.6958 39.2384C69.3864 39.0696 69.1473 38.8399 68.9738 38.5446C68.8004 38.2492 68.7113 37.9164 68.7113 37.5554C68.7113 37.1898 68.8004 36.8616 68.9738 36.5663C69.1473 36.2709 69.3911 36.0365 69.6958 35.8725C70.0005 35.7037 70.3474 35.6193 70.7318 35.6193C71.1115 35.6193 71.4538 35.7037 71.7632 35.8725C72.0679 36.0412 72.3117 36.2709 72.4851 36.5663C72.6586 36.8616 72.743 37.1898 72.743 37.5601C72.743 37.9305 72.6586 38.2586 72.4851 38.554C72.3117 38.8493 72.0726 39.079 71.7632 39.2478C71.4538 39.4165 71.1115 39.5009 70.7318 39.5009C70.3474 39.4915 70.0052 39.4072 69.6958 39.2384ZM71.4819 38.8212C71.7022 38.6946 71.8804 38.5211 72.0069 38.3008C72.1335 38.0805 72.1992 37.832 72.1992 37.5554C72.1992 37.2835 72.1335 37.0351 72.0069 36.8101C71.8804 36.5897 71.7022 36.4163 71.4819 36.2897C71.2616 36.1631 71.0084 36.1022 70.7318 36.1022C70.4552 36.1022 70.2021 36.1631 69.9771 36.2897C69.752 36.4163 69.5739 36.5897 69.4473 36.8101C69.3207 37.0304 69.2551 37.2788 69.2551 37.5554C69.2551 37.832 69.3207 38.0758 69.4473 38.3008C69.5739 38.5211 69.752 38.6946 69.9771 38.8212C70.2021 38.9477 70.4552 39.0087 70.7318 39.0087C71.0084 39.0087 71.2616 38.9477 71.4819 38.8212Z" fill="black"/>
<path d="M76.7082 36.1308H75.4097V39.4498H74.8799V36.1308H73.5861V35.662H76.7082V36.1308Z" fill="black"/>
<path d="M81.323 38.9765V40.2751H80.8214V39.4453H77.7039L77.6992 40.2751H77.1976L77.2023 38.9765H77.3852C77.6242 38.9625 77.793 38.775 77.8868 38.4093C77.9852 38.0483 78.0415 37.5327 78.0649 36.8764L78.1024 35.6575H80.7652V38.9765H81.323ZM78.4118 38.2546C78.3462 38.6062 78.2384 38.8453 78.0883 38.9812H80.2261V36.1357H78.5665L78.5384 36.9326C78.5243 37.4623 78.4775 37.903 78.4118 38.2546Z" fill="black"/>
<path d="M85.3023 37.2842C85.5414 37.4858 85.6633 37.7858 85.6633 38.1796C85.6633 38.5968 85.532 38.9109 85.2742 39.1266C85.0164 39.3422 84.646 39.45 84.1678 39.45H82.6021V35.6622H83.1365V36.9842H84.2616C84.7163 36.9795 85.0632 37.0826 85.3023 37.2842ZM84.871 38.8078C85.0398 38.6671 85.1242 38.4562 85.1242 38.189C85.1242 37.6686 84.8007 37.4108 84.1491 37.4108H83.1412V39.0234H84.1491C84.4632 39.0234 84.7023 38.9484 84.871 38.8078ZM86.2634 35.6575H86.7978V39.4453H86.2634V35.6575Z" fill="black"/>
<path d="M88.7391 35.6565L89.7283 37.0442L90.7174 35.6565H91.3503L90.0658 37.4755L91.4534 39.4444H90.8159L89.7283 37.9349L88.6454 39.4444H88.0219L89.4048 37.4942L88.1156 35.6519H88.7391V35.6565Z" fill="black"/>
<path d="M94.9659 38.5029H92.9501L92.5328 39.4498H91.975L93.6908 35.662H94.2252L95.9457 39.4498H95.3784L94.9659 38.5029ZM94.7784 38.0669L93.9627 36.2105L93.147 38.0669H94.7784Z" fill="black"/>
<path d="M99.1467 35.6575H99.6812V38.5828L101.922 35.6575H102.419V39.4453H101.889V36.5295L99.6437 39.45H99.1467V35.6575Z" fill="black"/>
<path d="M106.809 39.2388C106.505 39.07 106.266 38.8403 106.092 38.545C105.919 38.2496 105.834 37.9215 105.834 37.5511C105.834 37.1808 105.919 36.8526 106.092 36.5573C106.266 36.2619 106.505 36.0322 106.814 35.8635C107.119 35.6947 107.466 35.6103 107.841 35.6103C108.136 35.6103 108.408 35.6619 108.652 35.7603C108.896 35.8588 109.107 36.0088 109.28 36.201L108.928 36.5432C108.642 36.2432 108.286 36.0932 107.86 36.0932C107.578 36.0932 107.325 36.1541 107.095 36.2807C106.87 36.4073 106.692 36.5807 106.561 36.8011C106.434 37.0214 106.369 37.2698 106.369 37.5464C106.369 37.823 106.434 38.0668 106.561 38.2918C106.688 38.5121 106.866 38.6856 107.095 38.8122C107.325 38.9387 107.578 38.9997 107.86 38.9997C108.281 38.9997 108.638 38.8497 108.928 38.545L109.28 38.8872C109.107 39.0841 108.896 39.2294 108.647 39.3325C108.399 39.4357 108.127 39.4825 107.831 39.4825C107.456 39.4919 107.114 39.4075 106.809 39.2388Z" fill="black"/>
<path d="M110.571 35.6575H111.105V38.5828L113.346 35.6575H113.843V39.4453H113.313V36.5295L111.068 39.45H110.571V35.6575Z" fill="black"/>
<path d="M118.614 35.6565V39.4444H118.084V36.1253H116.406L116.368 37.2364C116.349 37.7614 116.307 38.1833 116.242 38.5068C116.176 38.8303 116.068 39.074 115.923 39.2381C115.777 39.4022 115.585 39.4866 115.337 39.4866C115.224 39.4866 115.112 39.4725 114.995 39.4444L115.032 38.9615C115.088 38.9756 115.149 38.985 115.205 38.985C115.36 38.985 115.487 38.924 115.581 38.7974C115.674 38.6709 115.745 38.488 115.791 38.2349C115.838 37.9864 115.871 37.6583 115.885 37.2504L115.946 35.6519H118.614V35.6565Z" fill="black"/>
<path d="M123.035 37.2842C123.274 37.4858 123.396 37.7858 123.396 38.1796C123.396 38.5968 123.264 38.9109 123.006 39.1266C122.749 39.3422 122.378 39.45 121.9 39.45H120.334V35.6622H120.869V36.9842H121.994C122.449 36.9795 122.796 37.0826 123.035 37.2842ZM122.603 38.8078C122.772 38.6671 122.856 38.4562 122.856 38.189C122.856 37.6686 122.533 37.4108 121.881 37.4108H120.873V39.0234H121.881C122.195 39.0234 122.435 38.9484 122.603 38.8078ZM123.996 35.6575H124.53V39.4453H123.996V35.6575Z" fill="black"/>
<path d="M124.525 34.2122H96.2144L96.777 32.0042C96.8473 31.737 96.9504 31.5448 96.9973 31.451C97.2129 30.9354 97.5177 30.2087 97.6677 29.4493C97.8739 28.3054 97.7192 26.7537 94.6861 24.8458C91.653 26.7631 91.5077 28.3195 91.7233 29.4634C91.8452 30.1572 92.1124 30.7947 92.3515 31.3526L92.4218 31.526L93.6407 34.2122H43.8639V33.8606H93.0922L92.0234 31.4979C91.7796 30.9166 91.4983 30.2603 91.3717 29.529C91.1326 28.2633 91.2874 26.5475 94.5877 24.4895L94.6814 24.4332L94.7752 24.4895C98.0755 26.5334 98.2396 28.2492 98.0099 29.5149C97.8552 30.3119 97.5411 31.0573 97.3114 31.6011C97.2598 31.6948 97.1707 31.8636 97.1145 32.0933L96.6644 33.8606H124.525V34.2122Z" fill="black"/>
<path d="M99.0327 18.3632C99.0327 17.2662 98.6389 16.2912 98.3717 15.6302H103.528L103.571 15.7942C103.758 16.5396 104.152 18.0304 102.225 19.2117C101.438 19.6899 100.298 20.1868 99.0139 20.7447C97.7904 21.2603 96.4262 21.8651 95.1417 22.5448C95.3057 22.6292 95.4933 22.6902 95.6573 22.7745C99.0749 24.3919 102.989 26.253 103.65 29.9189C103.838 30.8706 103.65 32.4457 103.65 32.4457H98.4936C98.5123 32.3613 98.5545 32.3004 98.5967 32.216C98.8639 31.5738 99.2155 30.744 99.403 29.7923C99.9843 26.5811 97.6028 24.4059 94.6822 22.7933C91.7851 24.4106 89.3801 26.5811 89.9802 29.7923C90.1443 30.744 90.5193 31.5738 90.7865 32.216L90.8897 32.4457H85.7142C85.7142 32.4457 85.5501 30.8706 85.7142 29.9189C86.3986 26.253 90.313 24.3919 93.7306 22.7745C93.8947 22.6902 94.0634 22.6292 94.2275 22.5448C92.9664 21.8604 91.5976 21.2603 90.3552 20.7447C89.0895 20.1868 87.955 19.6899 87.1674 19.2117C85.2407 18.0304 85.6157 16.5396 85.822 15.7942C85.822 15.7333 85.8407 15.6911 85.8642 15.6302H91.0209C90.7537 16.2912 90.3599 17.2662 90.3599 18.3632C90.3599 20.0602 92.3054 21.1572 94.6869 22.3198C97.0872 21.1572 99.0327 20.0602 99.0327 18.3632Z" fill="black"/>
<path d="M124.524 32.4457H107.727C107.727 32.4457 104.352 23.7871 107.727 20.6837C111.436 17.2897 117.835 25.8826 120.319 21.5135V16.4787C120.319 16.4787 119.41 15.1754 116.114 16.4787L107.727 19.8352V15.6302H124.524V32.4457ZM120.324 24.0356C120.324 24.0356 113.634 21.2182 111.956 24.0356C110.939 25.7326 111.046 27.4109 111.937 29.1501C113.47 32.1316 118.13 33.2708 120.324 30.8471V24.0356Z" fill="black"/>
<path d="M124.525 40.8047H43.8639V41.1563H124.525V40.8047Z" fill="black"/>
</svg>
