<svg width="125" height="40" viewBox="0 0 125 40" fill="none" xmlns="http://www.w3.org/2000/svg">
<path d="M10.6656 13.4535C10.3221 13.5899 10.1574 13.7264 10.1385 13.7405C10.1385 13.7264 10.1621 13.6229 10.2138 13.4582C10.3409 13.4111 10.4679 13.364 10.595 13.3123C10.6185 13.3593 10.6421 13.4064 10.6656 13.4535Z" fill="black"/>
<path d="M40.9151 18.3337V18.2913H40.8727V18.249C37.9881 11.1717 30.5202 5.75542 21.4759 5.84013C20.0454 5.85424 18.6525 6.00483 17.3208 6.27305C17.1138 6.21658 16.8973 6.16482 16.6714 6.11306C16.7891 5.94365 16.9208 5.66602 17.0385 5.37427C17.1514 5.08251 17.2408 4.78135 17.2785 4.56018C17.6502 2.27793 16.2291 1.49209 16.1868 1.46856C16.1962 1.49209 16.3232 1.82619 16.2197 2.44734C16.2197 2.44734 15.975 1.38856 14.0033 0.729767C14.0033 0.729767 14.3327 0.969756 14.5257 1.44974C14.0457 1.15328 13.2834 0.889759 12.0834 0.833291C12.0834 0.833291 12.3657 1.01681 12.6716 1.36033H12.6575C12.0646 1.36033 11.3211 1.61914 10.4694 2.28734C10.2435 2.46145 10.0082 2.61204 9.7541 2.72968C9.44823 2.87555 9.02942 3.04496 8.63415 3.09672C8.63415 3.09672 8.66709 3.25671 8.88826 3.36494C7.50949 4.20255 6.30484 4.70606 6.30484 4.70606C6.30484 4.70606 7.02481 5.33662 7.87653 6.29658C8.2624 6.24481 8.65297 6.21658 9.04825 6.20246L9.34941 6.19776C9.98468 6.19776 10.5541 6.24011 11.0858 6.32011C11.3681 6.35304 11.6364 6.40481 11.9093 6.47539C12.4175 6.58833 12.8787 6.7342 13.3116 6.93184C13.4857 7.00243 13.6598 7.08713 13.8292 7.17654C13.8716 7.20007 13.9139 7.22359 13.9563 7.24712C14.7092 7.67534 15.3538 8.11767 15.9421 8.60236C16.1256 8.75294 16.3091 8.90823 16.4785 9.06822C16.7326 9.3035 16.9726 9.54349 17.1891 9.79289L17.302 9.91524C18.5631 11.3505 19.396 13.0775 19.7772 15.0538C19.8148 15.2844 19.8431 15.4773 19.8572 15.6609C19.8854 15.8491 19.8948 15.995 19.8995 16.0797C19.9607 17.1714 19.7772 18.2866 19.3631 19.3125C19.3019 19.496 19.236 19.6419 19.1843 19.7548C19.1043 19.9195 19.0243 20.0701 18.9302 20.216C18.8878 20.2912 18.8408 20.3665 18.789 20.4418C18.6431 20.6818 18.4784 20.9077 18.3043 21.1289C18.3655 21.4159 18.4125 21.7218 18.4314 22.0606C18.4455 22.2959 18.4408 22.5311 18.4314 22.7617C18.3749 23.4488 18.2572 23.9852 18.069 24.484C18.0126 24.644 17.9467 24.804 17.8761 24.9593C17.8573 25.0016 17.8431 25.0393 17.8196 25.0769C19.1843 26.371 20.0642 27.4015 20.0642 27.4015C20.0642 27.4015 20.9065 25.4581 22.2994 23.2417C22.4735 23.6087 22.7323 23.6652 22.7323 23.6652C22.8265 23.0205 23.1088 22.3429 23.3535 21.8535C23.5605 21.4441 23.8052 21.063 24.0923 20.7053C24.097 20.7053 24.097 20.7006 24.097 20.7006C25.2122 19.3219 25.6546 18.1125 25.6593 17.1479C26.2051 17.6514 26.4969 18.1172 26.4969 18.1172C26.4357 16.1691 26.0263 14.9268 25.5605 14.1362C26.2428 14.428 26.6192 14.875 26.6992 14.9785C25.6922 11.7834 23.9841 11.3599 23.9841 11.3599C25.0005 11.2046 25.5369 11.4258 25.5699 11.4399C25.5322 11.3693 24.2946 9.03998 20.5771 9.58584C20.2242 9.6376 19.7254 9.78348 19.2549 9.95759C18.7796 10.1364 18.3231 10.3435 18.0455 10.5317C17.9749 10.1788 17.8949 9.83995 17.8149 9.51996C18.949 8.71059 20.1866 8.23531 21.4759 8.20237C27.0239 8.11297 31.8755 16.4138 31.8284 23.6652C31.7861 30.8272 27.0239 39.0434 21.4759 38.9539C17.7679 38.8975 14.568 35.2459 12.9116 30.5684C12.6151 30.8508 12.2952 31.1519 11.9658 31.4625C11.9093 31.5237 11.8481 31.5802 11.7822 31.6319C11.1846 32.1495 10.4223 32.4413 9.61763 32.4507H9.5894C9.36353 32.4507 9.14707 32.4225 8.93061 32.3801C8.83179 32.4648 8.73297 32.5542 8.62474 32.6248C8.5965 32.6436 8.51651 32.7001 8.48827 32.7142C8.38475 32.7801 8.27652 32.8366 8.16829 32.893C7.50479 33.213 6.8507 33.5377 6.20132 33.8624C5.98015 33.9659 5.86251 34.0271 5.74016 34.0883C5.72604 34.093 5.71663 34.1024 5.70251 34.1071C9.35882 38.3987 14.9868 41.2362 21.4759 41.2691C30.5202 41.3585 37.9881 35.9423 40.8727 28.865C42.1809 25.5851 42.2279 21.6135 40.9151 18.3337Z" fill="black"/>
<path d="M17.0145 16.0851C17.0521 16.7815 16.9157 17.478 16.6521 18.085C16.6427 18.1462 16.6145 18.1885 16.5863 18.245C16.5627 18.3062 16.5345 18.3485 16.4921 18.405C16.4639 18.4615 16.4404 18.5085 16.398 18.5603C16.1533 18.9932 15.8098 19.3602 15.3863 19.6285C15.0946 19.252 14.7981 18.8756 14.5016 18.5132C14.4546 18.4379 14.3887 18.3626 14.3369 18.2873C14.2993 18.2309 14.2475 18.1744 14.2099 18.1179C14.144 18.0427 14.0687 17.9438 14.0076 17.8544C13.9934 17.8356 13.9793 17.8168 13.9699 17.798C13.8899 17.7038 13.8146 17.605 13.7393 17.4968C13.584 17.3039 13.4288 17.1156 13.2782 16.9086C13.2264 16.8521 13.2876 16.6074 13.3723 16.5086C13.7393 16.118 14.1205 15.7275 14.5158 15.3416C14.5393 15.2992 14.5769 15.271 14.6146 15.2475C14.6334 15.2334 14.6522 15.2098 14.6711 15.1957C14.6946 15.1675 14.7322 15.1251 14.7699 15.1016C14.7934 15.0593 14.8499 15.0216 14.8922 14.9651C15.0334 14.8193 15.1557 14.6828 15.231 14.471C15.0428 14.6122 14.8546 14.7487 14.6663 14.904C14.6428 14.9322 14.6052 14.9604 14.5675 14.984C14.5299 15.0216 14.4922 15.0498 14.4358 15.0875C14.3981 15.111 14.3605 15.1487 14.3228 15.1769C13.9228 15.4781 13.5182 15.798 13.1135 16.1227C13.0052 16.2074 12.897 16.2921 12.7888 16.3815C12.4923 15.7792 12.1912 15.191 11.9041 14.6028C11.8712 14.5322 11.8335 14.4805 11.8147 14.4099C11.6406 14.104 11.4853 13.7793 11.33 13.4593C11.3159 13.4264 11.2971 13.3934 11.283 13.3605C11.2688 13.3323 11.2547 13.304 11.2406 13.2758C11.1136 13.0358 11.0053 12.8005 10.8783 12.5605C10.7889 12.5935 10.6995 12.6311 10.6101 12.6641C10.0595 12.8758 9.51834 13.097 8.96778 13.3087C8.89719 13.3417 8.83131 13.3605 8.76073 13.3934C8.56779 13.4687 8.37486 13.5581 8.16781 13.6334C7.75371 13.7887 7.33491 13.9487 6.90199 14.1181C6.78905 13.4734 6.67141 12.8429 6.57259 12.2123C6.57259 12.1982 6.56318 12.1794 6.56318 12.1653C6.55847 12.1417 6.55377 12.1229 6.54906 12.1088C6.54906 12.0947 6.54906 12.0806 6.55377 12.0664C6.53024 12.0147 6.52553 11.9488 6.52083 11.897C6.51141 11.8641 6.50671 11.817 6.4973 11.7794C6.45024 11.5959 6.42201 11.4124 6.39848 11.2194C6.36554 11.21 6.3326 11.2194 6.28554 11.2288C6.29025 11.4359 6.31378 11.6476 6.30436 11.8547C6.30907 11.9065 6.30436 11.9347 6.31378 11.9864C6.32319 12.0194 6.31848 12.0335 6.32789 12.0664C6.3326 12.1182 6.32319 12.1653 6.3326 12.2123V12.3347C6.3373 12.3911 6.34201 12.4476 6.33731 12.5041C6.34201 12.7299 6.36554 12.9417 6.37024 13.1676C6.4126 14.1699 6.4126 14.1699 5.48558 14.3252C5.46675 14.3346 5.43382 14.3299 5.41499 14.344C5.34911 14.3628 5.26912 14.3628 5.20324 14.3816C5.16559 14.391 5.13265 14.4005 5.0856 14.4052C5.06677 14.4005 5.06677 14.4193 5.04795 14.4146C4.94913 14.4428 4.81737 14.4475 4.69973 14.4758C4.65738 14.4852 4.61973 14.4899 4.57268 14.4946C4.53033 14.504 4.48798 14.5134 4.43621 14.5181C4.37033 14.5369 4.29034 14.5369 4.21975 14.5557C3.87153 14.6169 3.54214 14.6781 3.19392 14.7393C3.05745 14.7628 2.9304 14.7675 2.7657 14.7816C2.69511 14.2546 2.67629 13.7699 2.75158 13.304L2.77982 13.1535C2.79393 13.0923 2.80805 13.0264 2.83158 12.9699C2.84099 12.9229 2.8504 12.8758 2.87864 12.8335C3.03863 12.2547 3.3492 11.7229 3.7633 11.2477C3.82447 11.1912 3.87153 11.1206 3.928 11.0688C3.96565 11.0312 4.02682 10.9747 4.08329 10.9371C5.32558 9.74184 7.38196 9.13481 9.28776 9.07364C9.54657 9.07364 9.80538 9.07364 10.0548 9.08776C10.1207 9.09246 10.1865 9.09717 10.2477 9.10187C10.4454 9.11599 10.6383 9.13952 10.8218 9.16775C11.01 9.19128 11.1794 9.22422 11.3488 9.27128C11.6688 9.33716 11.9747 9.42656 12.2523 9.56303C12.3559 9.59597 12.4594 9.64773 12.5582 9.69949C13.0476 9.97242 13.4946 10.2689 13.9087 10.5983C13.9464 10.6218 13.984 10.65 14.017 10.683C14.0593 10.7159 14.1017 10.7489 14.144 10.7818C14.5958 11.1488 15.0004 11.5535 15.3581 11.9959C16.1392 12.9652 16.6757 14.1181 16.9392 15.4781C16.9627 15.6145 16.9815 15.7463 16.9862 15.8922C17.0051 15.958 17.0098 16.0239 17.0145 16.0851Z" fill="black"/>
<path d="M7.70145 18.9371C6.34621 19.403 5.04274 19.85 3.66398 20.3206C3.44281 19.2665 3.22165 18.2266 3.00048 17.1725C2.90637 16.7349 2.81225 16.2925 2.71814 15.8455C3.104 15.7561 3.48987 15.6667 3.86632 15.5773C4.73217 15.3796 5.5886 15.1773 6.47327 14.9702C6.88266 16.2972 7.28735 17.6007 7.70145 18.9371Z" fill="black"/>
<path d="M14.7597 20.4665C14.2844 20.81 13.8233 21.1536 13.3621 21.4971C13.2586 21.5724 13.1598 21.6477 13.0562 21.7229C13.0562 21.7229 13.0186 21.7324 13.0186 21.7465C12.8351 21.8688 12.6469 21.9959 12.4774 22.137C12.2233 22.3112 11.9739 22.4947 11.7151 22.6829C11.4987 22.8335 11.2822 22.9935 11.0563 23.1582C10.7128 22.5417 10.3834 21.9347 10.0352 21.3371C10.0023 21.2665 9.95521 21.1771 9.92227 21.1065C9.90815 21.1018 9.90815 21.0877 9.90815 21.0877C9.60228 20.5324 9.29171 19.9913 8.98584 19.4313C9.49405 19.1301 9.98344 18.8431 10.4728 18.5372C10.5293 18.4996 10.5999 18.4666 10.6564 18.429C10.6752 18.4196 10.6893 18.4196 10.7081 18.4101C10.7458 18.3866 10.7834 18.3678 10.8211 18.3443C11.3998 18.0008 11.9645 17.6478 12.5433 17.309C12.5763 17.3561 12.6139 17.4078 12.6469 17.4549C12.8068 17.6902 12.9621 17.9161 13.1315 18.1466C13.1268 18.1607 13.1409 18.1655 13.1409 18.1655C13.3668 18.4996 13.6068 18.8148 13.8327 19.1489C14.1338 19.5772 14.4444 20.0242 14.7597 20.4665Z" fill="black"/>
<path d="M9.89456 23.7934C8.6052 24.2498 7.35349 24.6969 6.05473 25.158C5.40534 23.9675 4.77008 22.8052 4.09717 21.5723C5.42887 21.0359 6.70882 20.5135 8.04052 19.9771C8.65696 21.2476 9.264 22.4993 9.89456 23.7934Z" fill="black"/>
<path d="M12.2235 16.5241C11.7435 16.797 11.2729 17.0699 10.7977 17.3476C10.0589 17.7711 9.32009 18.1946 8.55777 18.6322C8.11073 17.2817 7.68251 15.9782 7.23547 14.6136C8.24719 14.223 9.21656 13.8466 10.2142 13.4607C10.3412 13.4136 10.4683 13.3666 10.5953 13.3148C10.6189 13.3619 10.6424 13.4089 10.6659 13.456C10.7553 13.6301 10.8447 13.8042 10.9294 13.9783C11.3529 14.8159 11.7812 15.6535 12.2235 16.5241Z" fill="black"/>
<path d="M11.7254 27.6151C11.7066 27.6245 11.683 27.6527 11.6642 27.6668C11.6078 27.7186 11.5466 27.7845 11.4854 27.841C10.9348 28.3586 10.389 28.8715 9.81489 29.4174C9.77724 29.4409 9.75842 29.455 9.7396 29.4832C9.58431 29.295 9.42432 29.1162 9.26903 28.9421C8.85964 28.4762 8.46907 28.0339 8.0785 27.5727C8.05026 27.5492 8.02203 27.5304 7.9985 27.4927C7.98438 27.4739 7.95615 27.4504 7.94674 27.4316C7.73969 27.1822 7.51382 26.9469 7.28794 26.6975C7.22206 26.6175 7.14677 26.5234 7.06678 26.4434C7.05266 26.4245 7.02443 26.4057 7.01501 26.3869C7.04795 26.3587 7.0856 26.3493 7.11854 26.3257C7.26442 26.2598 7.38676 26.1846 7.51382 26.1281C7.5844 26.081 7.65499 26.0481 7.72557 26.0104L7.73028 25.9963C7.81968 25.9493 7.92321 25.9069 8.01732 25.8458C8.14438 25.7752 8.26672 25.7187 8.37495 25.6575C8.57259 25.554 8.76552 25.4458 8.94434 25.3564C8.98199 25.3281 9.01963 25.3046 9.05257 25.2952C9.09022 25.2717 9.14198 25.2481 9.17962 25.2246C9.23139 25.2011 9.26903 25.1775 9.30668 25.154C9.70195 24.9423 10.0925 24.7305 10.469 24.5329C10.6949 25.0081 10.9254 25.4693 11.1419 25.9305C11.1795 25.9822 11.2125 26.0528 11.2313 26.1234H11.2454C11.2548 26.161 11.2689 26.1799 11.2784 26.2128C11.2972 26.2646 11.3348 26.321 11.3442 26.3681C11.5183 26.6928 11.6642 27.008 11.8101 27.328C11.8477 27.3986 11.7866 27.5445 11.7254 27.6151Z" fill="black"/>
<path d="M6.79775 30.2554C6.77892 30.2648 6.7601 30.2789 6.74128 30.2883C6.03543 30.6318 5.34369 30.9753 4.65196 31.3235C4.40726 31.4365 4.17198 31.5588 3.93199 31.6718C3.8567 31.7094 3.78612 31.7471 3.71082 31.78C3.04262 30.7683 2.68499 29.733 2.40735 28.6225C2.38383 28.5707 2.365 28.519 2.35559 28.4672H2.3603C2.75087 28.2884 3.12262 28.0907 3.50848 27.9119C3.7767 27.7708 4.04493 27.6296 4.32256 27.5072C4.36491 27.4696 4.41197 27.4602 4.44962 27.4367L4.46373 27.4414C4.80725 27.2531 5.12723 27.0884 5.48016 26.919C5.5978 27.2296 5.72956 27.5449 5.84249 27.8555C5.85661 27.8743 5.86602 27.8931 5.86132 27.9213C5.88485 27.959 5.89426 28.0108 5.91778 28.0437C5.91308 28.0625 5.91308 28.0625 5.9272 28.0813C6.21895 28.7919 6.50129 29.4883 6.79775 30.2554Z" fill="black"/>
<path d="M4.50696 25.411C3.547 25.5287 2.61057 25.6416 1.66944 25.7546C1.28357 25.7969 0.893 25.844 0.502429 25.891C0.234205 24.964 0.158914 24.0464 0.238911 23.11C0.243617 23.03 0.304791 22.9264 0.37067 22.8935C0.770652 22.7006 1.16593 22.5076 1.57062 22.3194C2.08353 22.0747 2.60116 21.83 3.12349 21.5806C3.60347 22.9076 4.0458 24.1264 4.50696 25.411Z" fill="black"/>
<path d="M15.4805 22.339C15.49 22.4567 15.4853 22.5649 15.4805 22.6778C15.4664 22.8519 15.4429 23.0166 15.4006 23.1719C15.377 23.2707 15.3488 23.3696 15.3111 23.459C15.2688 23.5813 15.217 23.699 15.1606 23.8166C15.1606 23.8166 15.1606 23.8166 15.1559 23.8307C14.8123 24.5177 14.2382 25.0918 13.5842 25.6518C13.4477 25.5153 13.3159 25.3789 13.1936 25.2565C13.0195 25.0777 12.8595 24.9177 12.6995 24.7577C12.3795 24.4236 12.0454 24.1036 11.7113 23.7648C12.0454 23.4307 12.3983 23.0966 12.7371 22.7813C12.9677 22.5696 13.1889 22.3531 13.4053 22.1414C13.4242 22.1273 13.4383 22.132 13.443 22.1178C13.5512 22.019 13.6547 21.9202 13.763 21.8167C14.1065 21.492 14.4547 21.1673 14.7982 20.8285C15.2876 21.2144 15.457 21.7414 15.4805 22.339Z" fill="black"/>
<path d="M2.77985 20.3293C2.46928 20.3481 2.16811 20.3622 1.86695 20.3811C1.29286 20.414 0.728179 20.4469 0.158792 20.4799C-0.420005 18.2447 0.638771 16.2024 2.43634 16.0754C2.4881 16.7342 2.54457 17.3977 2.59633 18.0612C2.6575 18.8094 2.71868 19.5623 2.77985 20.3293Z" fill="black"/>
<path d="M2.32865 14.7852C1.97102 14.7758 1.66045 14.7711 1.23694 14.757C1.57104 14.1876 1.85338 13.6982 2.14043 13.2088C2.17337 13.2182 2.21101 13.2276 2.24866 13.237C2.27219 13.7311 2.30042 14.2252 2.32865 14.7852Z" fill="black"/>
<path d="M56.805 15.6098H62.5836V32.489H58.3626V20.3296C58.2167 20.4143 58.0708 20.4755 57.9061 20.5366C57.7603 20.5978 57.5956 20.659 57.4497 20.7437C53.4781 22.4471 48.2219 24.7341 48.283 28.9551C48.3019 29.2468 48.3254 29.5386 48.3866 29.8303C48.5324 30.6632 48.8242 31.4115 49.0924 32.0138C49.1112 32.0985 49.1536 32.1785 49.1959 32.2632C49.2148 32.3055 49.2383 32.3479 49.2383 32.3855C49.2571 32.4043 49.2806 32.4467 49.2995 32.489H44.1044C44.1044 32.489 44.1044 32.3855 44.0856 32.2208C44.0432 31.8255 44.0009 31.0162 44.0668 30.348C44.0668 30.2021 44.0856 30.0797 44.1091 29.9527C44.7114 26.7293 47.7889 24.9035 50.8429 23.4024L52.1511 22.7765C54.9792 21.4448 57.4497 20.259 57.4497 18.3485C57.4497 17.2521 57.0779 16.2733 56.805 15.6098Z" fill="black"/>
<path d="M65.082 15.629H69.303V21.5346C70.5688 23.7604 72.8558 22.6169 75.2886 21.4122C77.6368 20.2499 80.1308 19.0218 81.9613 20.6829C85.3682 23.7792 81.9613 32.4894 81.9613 32.4894H65.082V15.629ZM77.7403 24.0709C76.0368 21.2428 69.2983 24.0709 69.2983 24.0709V30.8895C71.5006 33.3411 76.2015 32.2212 77.7403 29.2048C78.6344 27.459 78.7614 25.7509 77.7403 24.0709Z" fill="black"/>
<path d="M47.5685 39.5207L47.5638 36.749L46.1897 39.0595H45.9403L44.5663 36.7679V39.5254H44.0439V35.7232H44.491L46.0768 38.396L47.6438 35.7232H48.0908L48.0955 39.5254H47.5685V39.5207Z" fill="black"/>
<path d="M52.5797 39.0447V39.5153H49.8175V35.7131H52.5044V36.1836H50.3634V37.3506H52.2692V37.8118H50.3634V39.04H52.5797V39.0447Z" fill="black"/>
<path d="M54.6315 39.3079C54.3256 39.1385 54.0856 38.9079 53.9115 38.6115C53.7374 38.315 53.6527 37.9856 53.6527 37.6139C53.6527 37.2421 53.7374 36.9127 53.9115 36.6163C54.0856 36.3198 54.3256 36.0892 54.6362 35.9198C54.9421 35.7504 55.2903 35.6657 55.6667 35.6657C55.9632 35.6657 56.2361 35.7175 56.4808 35.8163C56.7255 35.9151 56.9373 36.0657 57.1114 36.2586L56.7585 36.6021C56.4714 36.301 56.1138 36.1504 55.6856 36.1504C55.4032 36.1504 55.1491 36.2116 54.9185 36.3386C54.6927 36.4657 54.5138 36.6398 54.3821 36.861C54.255 37.0821 54.1892 37.3315 54.1892 37.6092C54.1892 37.8868 54.255 38.1315 54.3821 38.3574C54.5091 38.5785 54.688 38.7526 54.9185 38.8797C55.1491 39.0067 55.4032 39.0679 55.6856 39.0679C56.1091 39.0679 56.4667 38.9173 56.7585 38.6115L57.1114 38.955C56.9373 39.1526 56.7255 39.2985 56.4761 39.402C56.2267 39.5055 55.9538 39.5526 55.6573 39.5526C55.2809 39.562 54.9374 39.4773 54.6315 39.3079Z" fill="black"/>
<path d="M60.9755 36.1881H59.6721V39.5197H59.1403V36.1881H57.8416V35.7176H60.9755V36.1881Z" fill="black"/>
<path d="M62.8012 39.3075C62.4906 39.1381 62.2506 38.9075 62.0765 38.6111C61.9024 38.3146 61.813 37.9805 61.813 37.6182C61.813 37.2511 61.9024 36.9217 62.0765 36.6253C62.2506 36.3288 62.4953 36.0935 62.8012 35.9288C63.1071 35.7594 63.4553 35.6747 63.8411 35.6747C64.2223 35.6747 64.5658 35.7594 64.8764 35.9288C65.1823 36.0982 65.4269 36.3288 65.6011 36.6253C65.7752 36.9217 65.8599 37.2511 65.8599 37.6229C65.8599 37.9946 65.7752 38.324 65.6011 38.6205C65.4269 38.9169 65.187 39.1475 64.8764 39.3169C64.5658 39.4863 64.2223 39.571 63.8411 39.571C63.4553 39.5616 63.1118 39.4769 62.8012 39.3075ZM64.594 38.8887C64.8152 38.7616 64.994 38.5875 65.1211 38.3664C65.2481 38.1452 65.314 37.8958 65.314 37.6182C65.314 37.3452 65.2481 37.0958 65.1211 36.87C64.994 36.6488 64.8152 36.4747 64.594 36.3476C64.3729 36.2206 64.1188 36.1594 63.8411 36.1594C63.5635 36.1594 63.3094 36.2206 63.0835 36.3476C62.8576 36.4747 62.6788 36.6488 62.5518 36.87C62.4247 37.0911 62.3588 37.3405 62.3588 37.6182C62.3588 37.8958 62.4247 38.1405 62.5518 38.3664C62.6788 38.5875 62.8576 38.7616 63.0835 38.8887C63.3094 39.0157 63.5635 39.0769 63.8411 39.0769C64.1188 39.0769 64.3729 39.0157 64.594 38.8887Z" fill="black"/>
<path d="M69.9582 39.3075C69.6476 39.1381 69.4076 38.9075 69.2335 38.6111C69.0594 38.3146 68.97 37.9805 68.97 37.6182C68.97 37.2511 69.0594 36.9217 69.2335 36.6253C69.4076 36.3288 69.6523 36.0935 69.9582 35.9288C70.264 35.7594 70.6122 35.6747 70.9981 35.6747C71.3793 35.6747 71.7228 35.7594 72.0334 35.9288C72.3392 36.0982 72.5839 36.3288 72.758 36.6253C72.9321 36.9217 73.0168 37.2511 73.0168 37.6229C73.0168 37.9946 72.9321 38.324 72.758 38.6205C72.5839 38.9169 72.3439 39.1475 72.0334 39.3169C71.7228 39.4863 71.3793 39.571 70.9981 39.571C70.6122 39.5616 70.2687 39.4769 69.9582 39.3075ZM71.751 38.8887C71.9722 38.7616 72.151 38.5875 72.2781 38.3664C72.4051 38.1452 72.471 37.8958 72.471 37.6182C72.471 37.3452 72.4051 37.0958 72.2781 36.87C72.151 36.6488 71.9722 36.4747 71.751 36.3476C71.5299 36.2206 71.2757 36.1594 70.9981 36.1594C70.7205 36.1594 70.4664 36.2206 70.2405 36.3476C70.0146 36.4747 69.8358 36.6488 69.7088 36.87C69.5817 37.0911 69.5158 37.3405 69.5158 37.6182C69.5158 37.8958 69.5817 38.1405 69.7088 38.3664C69.8358 38.5875 70.0146 38.7616 70.2405 38.8887C70.4664 39.0157 70.7205 39.0769 70.9981 39.0769C71.2757 39.0769 71.5299 39.0157 71.751 38.8887Z" fill="black"/>
<path d="M76.9971 36.1881H75.6937V39.5197H75.1619V36.1881H73.8632V35.7176H76.9971V36.1881Z" fill="black"/>
<path d="M81.6278 39.0447V40.3482H81.1243V39.5153H77.995L77.9903 40.3482H77.4868L77.4915 39.0447H77.675C77.915 39.0306 78.0844 38.8423 78.1786 38.4753C78.2774 38.113 78.3338 37.5953 78.3574 36.9366L78.395 35.7131H81.0678V39.0447H81.6278ZM78.7056 38.32C78.6397 38.6729 78.5315 38.9129 78.3809 39.0494H80.5267V36.1931H78.8609L78.8326 36.993C78.8185 37.5248 78.7715 37.9671 78.7056 38.32Z" fill="black"/>
<path d="M85.6231 37.3459C85.8631 37.5483 85.9854 37.8495 85.9854 38.2447C85.9854 38.6635 85.8536 38.9788 85.5948 39.1953C85.336 39.4117 84.9643 39.52 84.4843 39.52H82.9126V35.7178H83.4491V37.0448H84.5784C85.0349 37.0401 85.3831 37.1436 85.6231 37.3459ZM85.1901 38.8753C85.3596 38.7341 85.4443 38.5224 85.4443 38.2541C85.4443 37.7318 85.1196 37.473 84.4655 37.473H83.4538V39.0917H84.4655C84.7808 39.0917 85.0207 39.0165 85.1901 38.8753ZM86.5877 35.7131H87.1242V39.5153H86.5877V35.7131Z" fill="black"/>
<path d="M89.0718 35.7121L90.0647 37.105L91.0576 35.7121H91.6928L90.4035 37.5379L91.7964 39.5143H91.1564L90.0647 37.9991L88.9777 39.5143H88.3518L89.74 37.5568L88.4459 35.7074H89.0718V35.7121Z" fill="black"/>
<path d="M95.3224 38.5692H93.299L92.8802 39.5197H92.3202L94.0425 35.7176H94.5789L96.3059 39.5197H95.7365L95.3224 38.5692ZM95.1342 38.1316L94.3154 36.2681L93.4966 38.1316H95.1342Z" fill="black"/>
<path d="M99.5201 35.7131H100.057V38.6494L102.306 35.7131H102.805V39.5153H102.273V36.5883L100.019 39.52H99.5201V35.7131Z" fill="black"/>
<path d="M107.212 39.3079C106.906 39.1385 106.666 38.9079 106.492 38.6115C106.318 38.315 106.233 37.9856 106.233 37.6139C106.233 37.2421 106.318 36.9127 106.492 36.6163C106.666 36.3198 106.906 36.0892 107.217 35.9198C107.523 35.7504 107.871 35.6657 108.247 35.6657C108.544 35.6657 108.817 35.7175 109.061 35.8163C109.306 35.9151 109.518 36.0657 109.692 36.2586L109.339 36.6021C109.052 36.301 108.694 36.1504 108.266 36.1504C107.984 36.1504 107.73 36.2116 107.499 36.3386C107.273 36.4657 107.094 36.6398 106.963 36.861C106.836 37.0821 106.77 37.3315 106.77 37.6092C106.77 37.8868 106.836 38.1315 106.963 38.3574C107.09 38.5785 107.269 38.7526 107.499 38.8797C107.73 39.0067 107.984 39.0679 108.266 39.0679C108.69 39.0679 109.047 38.9173 109.339 38.6115L109.692 38.955C109.518 39.1526 109.306 39.2985 109.057 39.402C108.807 39.5055 108.534 39.5526 108.238 39.5526C107.861 39.562 107.518 39.4773 107.212 39.3079Z" fill="black"/>
<path d="M110.987 35.7131H111.524V38.6494L113.773 35.7131H114.272V39.5153H113.74V36.5883L111.486 39.52H110.987V35.7131Z" fill="black"/>
<path d="M119.061 35.7121V39.5143H118.529V36.1827H116.844L116.806 37.2979C116.788 37.825 116.745 38.2485 116.679 38.5732C116.614 38.8979 116.505 39.1426 116.359 39.3073C116.214 39.472 116.021 39.5567 115.771 39.5567C115.658 39.5567 115.545 39.5425 115.428 39.5143L115.465 39.0296C115.522 39.0437 115.583 39.0532 115.639 39.0532C115.795 39.0532 115.922 38.992 116.016 38.8649C116.11 38.7379 116.181 38.5544 116.228 38.3003C116.275 38.0509 116.308 37.7215 116.322 37.3121L116.383 35.7074H119.061V35.7121Z" fill="black"/>
<path d="M123.499 37.3459C123.739 37.5483 123.861 37.8495 123.861 38.2447C123.861 38.6635 123.729 38.9788 123.471 39.1953C123.212 39.4117 122.84 39.52 122.36 39.52H120.788V35.7178H121.325V37.0448H122.454C122.911 37.0401 123.259 37.1436 123.499 37.3459ZM123.066 38.8753C123.235 38.7341 123.32 38.5224 123.32 38.2541C123.32 37.7318 122.995 37.473 122.341 37.473H121.33V39.0917H122.341C122.657 39.0917 122.897 39.0165 123.066 38.8753ZM124.464 35.7131H125V39.5153H124.464V35.7131Z" fill="black"/>
<path d="M124.995 34.2623H96.5779L97.1426 32.0459C97.2132 31.7777 97.3167 31.5847 97.3637 31.4906C97.5802 30.973 97.8861 30.2436 98.0367 29.4813C98.2437 28.3331 98.0884 26.7755 95.0439 24.8603C91.9993 26.7849 91.8534 28.3472 92.0699 29.4954C92.1922 30.1919 92.4604 30.8318 92.7004 31.3918L92.771 31.5659L93.9945 34.2623H44.0297V33.9093H93.4439L92.371 31.5377C92.1263 30.9542 91.844 30.2954 91.7169 29.5613C91.477 28.2908 91.6322 26.5685 94.945 24.5027L95.0391 24.4462L95.1333 24.5027C98.446 26.5544 98.6108 28.2766 98.3802 29.5472C98.2249 30.3471 97.9096 31.0953 97.679 31.6412C97.6273 31.7353 97.5379 31.9047 97.4814 32.1353L97.0296 33.9093H124.995V34.2623Z" fill="black"/>
<path d="M99.4061 18.3532C99.4061 17.2521 99.0108 16.2733 98.7426 15.6098H103.919L103.961 15.7745C104.149 16.5227 104.545 18.0191 102.611 19.2049C101.82 19.6849 100.677 20.1837 99.3873 20.7437C98.1591 21.2613 96.7898 21.8683 95.5004 22.5507C95.6651 22.6354 95.8533 22.6965 96.018 22.7812C99.4485 24.4047 103.378 26.2729 104.041 29.9527C104.229 30.9079 104.041 32.489 104.041 32.489H98.865C98.8838 32.4043 98.9261 32.3432 98.9685 32.2585C99.2367 31.6138 99.5896 30.7809 99.7779 29.8256C100.361 26.6023 97.9709 24.4188 95.0393 22.8001C92.1312 24.4235 89.7171 26.6023 90.3195 29.8256C90.4842 30.7809 90.8606 31.6138 91.1288 32.2585L91.2324 32.489H86.0373C86.0373 32.489 85.8726 30.9079 86.0373 29.9527C86.7243 26.2729 90.6536 24.4047 94.084 22.7812C94.2487 22.6965 94.4181 22.6354 94.5828 22.5507C93.317 21.8636 91.9429 21.2613 90.6959 20.7437C89.4254 20.1837 88.2866 19.6849 87.4961 19.2049C85.562 18.0191 85.9385 16.5227 86.1455 15.7745C86.1455 15.7133 86.1644 15.671 86.1879 15.6098H91.3641C91.0959 16.2733 90.7006 17.2521 90.7006 18.3532C90.7006 20.0567 92.6535 21.1578 95.044 22.3248C97.4533 21.1578 99.4061 20.0567 99.4061 18.3532Z" fill="black"/>
<path d="M124.995 32.489H108.135C108.135 32.489 104.747 23.7977 108.135 20.6825C111.857 17.2756 118.28 25.9011 120.774 21.5154V16.4615C120.774 16.4615 119.861 15.1534 116.553 16.4615L108.135 19.8308V15.6098H124.995V32.489ZM120.779 24.0471C120.779 24.0471 114.064 21.219 112.379 24.0471C111.358 25.7505 111.466 27.4352 112.36 29.181C113.899 32.1738 118.576 33.3172 120.779 30.8844V24.0471Z" fill="black"/>
<path d="M124.995 40.8798H44.0297V41.2327H124.995V40.8798Z" fill="black"/>
</svg>
