<svg width="165" height="53" viewBox="0 0 165 53" fill="none" xmlns="http://www.w3.org/2000/svg">
<path d="M14.079 17.5386C13.6256 17.7187 13.4081 17.8988 13.3833 17.9175C13.3833 17.8988 13.4144 17.7622 13.4827 17.5448C13.6504 17.4827 13.8181 17.4206 13.9858 17.3522C14.0169 17.4143 14.0479 17.4765 14.079 17.5386Z" fill="black"/>
<path d="M54.0074 23.9805V23.9246H53.9515V23.8687C50.1439 14.5266 40.2862 7.37715 28.3478 7.48896C26.4595 7.5076 24.6209 7.70636 22.863 8.06042C22.5897 7.98588 22.304 7.91755 22.0058 7.84923C22.1611 7.62561 22.335 7.25914 22.4903 6.87402C22.6394 6.48891 22.7574 6.09138 22.8071 5.79944C23.2978 2.78686 21.422 1.74955 21.3661 1.71849C21.3785 1.74955 21.5462 2.19056 21.4095 3.01048C21.4095 3.01048 21.0865 1.61289 18.4839 0.743286C18.4839 0.743286 18.9187 1.06007 19.1734 1.69364C18.5398 1.30232 17.5336 0.954476 15.9496 0.879938C15.9496 0.879938 16.3223 1.12219 16.7261 1.57563H16.7074C15.9248 1.57563 14.9434 1.91726 13.8191 2.79929C13.5209 3.02911 13.2104 3.22788 12.8749 3.38317C12.4712 3.57572 11.9184 3.79934 11.3966 3.86766C11.3966 3.86766 11.4401 4.07885 11.732 4.22172C9.91207 5.32736 8.32193 5.99199 8.32193 5.99199C8.32193 5.99199 9.27228 6.82433 10.3966 8.09148C10.9059 8.02315 11.4215 7.98588 11.9432 7.96725L12.3408 7.96103C13.1793 7.96103 13.9309 8.01694 14.6328 8.12253C15.0055 8.16601 15.3595 8.23434 15.7198 8.32751C16.3906 8.47659 16.9994 8.66914 17.5708 8.93003C17.8007 9.0232 18.0305 9.13501 18.2541 9.25302C18.31 9.28408 18.3659 9.31514 18.4218 9.3462C19.4156 9.91144 20.2666 10.4953 21.0431 11.1351C21.2853 11.3339 21.5275 11.5389 21.7512 11.75C22.0866 12.0606 22.4034 12.3774 22.6891 12.7066L22.8382 12.8681C24.5029 14.7626 25.6023 17.0422 26.1054 19.6511C26.1551 19.9554 26.1924 20.2101 26.211 20.4523C26.2483 20.7008 26.2607 20.8933 26.2669 21.0052C26.3477 22.4462 26.1054 23.9183 25.5588 25.2724C25.4781 25.5147 25.3911 25.7073 25.3228 25.8563C25.2172 26.0737 25.1116 26.2725 24.9873 26.4651C24.9314 26.5644 24.8693 26.6638 24.801 26.7632C24.6084 27.08 24.391 27.3781 24.1612 27.6701C24.242 28.049 24.3041 28.4527 24.3289 28.9C24.3476 29.2105 24.3414 29.5211 24.3289 29.8255C24.2544 30.7323 24.0991 31.4405 23.8506 32.0989C23.7761 32.3101 23.6891 32.5213 23.596 32.7262C23.5711 32.7821 23.5525 32.8318 23.5214 32.8815C25.3228 34.5897 26.4843 35.95 26.4843 35.95C26.4843 35.95 27.5962 33.3847 29.4348 30.459C29.6646 30.9435 30.0062 31.0181 30.0062 31.0181C30.1305 30.1671 30.5032 29.2726 30.8261 28.6267C31.0995 28.0863 31.4225 27.5831 31.8014 27.111C31.8076 27.111 31.8076 27.1048 31.8076 27.1048C33.2797 25.2849 33.8636 23.6885 33.8698 22.4152C34.5903 23.0798 34.9754 23.6947 34.9754 23.6947C34.8947 21.1232 34.3543 19.4833 33.7393 18.4398C34.64 18.8249 35.1369 19.415 35.2425 19.5517C33.9133 15.3341 31.6585 14.775 31.6585 14.775C33.0002 14.5701 33.7083 14.862 33.7518 14.8806C33.7021 14.7875 32.0684 11.7128 27.1614 12.4333C26.6955 12.5016 26.0371 12.6942 25.4159 12.924C24.7886 13.16 24.1861 13.4334 23.8196 13.6818C23.7264 13.216 23.6208 12.7687 23.5152 12.3463C25.0122 11.278 26.6458 10.6506 28.3478 10.6071C35.6711 10.4891 42.0752 21.4462 42.013 31.0181C41.9571 40.472 35.6711 51.3172 28.3478 51.1992C23.4531 51.1247 19.2293 46.3045 17.0429 40.1303C16.6515 40.503 16.2291 40.9005 15.7943 41.3105C15.7198 41.3913 15.6391 41.4658 15.5521 41.5341C14.7632 42.2174 13.757 42.6025 12.6948 42.6149H12.6575C12.3594 42.6149 12.0737 42.5777 11.7879 42.5217C11.6575 42.6336 11.5271 42.7516 11.3842 42.8447C11.3469 42.8696 11.2413 42.9441 11.2041 42.9628C11.0674 43.0497 10.9245 43.1243 10.7817 43.1988C9.90586 43.6212 9.04246 44.0498 8.18527 44.4784C7.89333 44.615 7.73805 44.6958 7.57655 44.7765C7.55791 44.7827 7.54549 44.7952 7.52686 44.8014C12.3532 50.4662 19.7821 54.2118 28.3478 54.2552C40.2862 54.3733 50.1439 47.2238 53.9515 37.8818C55.6783 33.5524 55.7404 28.3099 54.0074 23.9805Z" fill="black"/>
<path d="M22.4587 21.0123C22.5084 21.9316 22.3283 22.8509 21.9804 23.6522C21.968 23.733 21.9307 23.7889 21.8934 23.8634C21.8624 23.9441 21.8251 24 21.7692 24.0746C21.7319 24.1491 21.7009 24.2112 21.645 24.2796C21.322 24.851 20.8686 25.3355 20.3095 25.6896C19.9244 25.1926 19.5331 24.6957 19.1418 24.2174C19.0796 24.1181 18.9927 24.0187 18.9244 23.9193C18.8747 23.8448 18.8063 23.7702 18.7566 23.6957C18.6697 23.5963 18.5703 23.4659 18.4896 23.3478C18.4709 23.323 18.4523 23.2981 18.4399 23.2733C18.3343 23.1491 18.2349 23.0186 18.1355 22.8758C17.9305 22.6211 17.7255 22.3726 17.5268 22.0993C17.4584 22.0248 17.5392 21.7018 17.651 21.5714C18.1355 21.0558 18.6386 20.5402 19.1604 20.0309C19.1915 19.975 19.2411 19.9377 19.2908 19.9067C19.3157 19.888 19.3405 19.857 19.3654 19.8383C19.3964 19.8011 19.4461 19.7452 19.4958 19.7141C19.5269 19.6582 19.6014 19.6085 19.6573 19.534C19.8437 19.3414 20.0052 19.1613 20.1045 18.8818C19.8561 19.0681 19.6076 19.2483 19.3592 19.4532C19.3281 19.4905 19.2784 19.5278 19.2287 19.5588C19.179 19.6085 19.1293 19.6458 19.0548 19.6955C19.0051 19.7265 18.9554 19.7762 18.9057 19.8135C18.3777 20.211 17.8436 20.6334 17.3094 21.062C17.1665 21.1738 17.0236 21.2856 16.8808 21.4036C16.4895 20.6086 16.0919 19.8321 15.713 19.0557C15.6695 18.9625 15.6198 18.8942 15.595 18.801C15.3652 18.3973 15.1602 17.9687 14.9552 17.5463C14.9366 17.5028 14.9117 17.4593 14.8931 17.4159C14.8745 17.3786 14.8558 17.3413 14.8372 17.3041C14.6695 16.9873 14.5266 16.6767 14.3589 16.3599C14.2409 16.4034 14.1229 16.4531 14.0049 16.4966C13.2781 16.7761 12.5638 17.068 11.837 17.3475C11.7439 17.391 11.6569 17.4159 11.5637 17.4593C11.3091 17.5587 11.0544 17.6767 10.7811 17.7761C10.2345 17.9811 9.68166 18.1923 9.11021 18.4159C8.96113 17.5649 8.80584 16.7326 8.6754 15.9003C8.6754 15.8816 8.66298 15.8568 8.66298 15.8381C8.65677 15.8071 8.65056 15.7822 8.64434 15.7636C8.64434 15.745 8.64434 15.7263 8.65056 15.7077C8.6195 15.6394 8.61329 15.5524 8.60707 15.4841C8.59465 15.4406 8.58844 15.3785 8.57602 15.3288C8.5139 15.0866 8.47663 14.8443 8.44558 14.5896C8.4021 14.5772 8.35862 14.5896 8.2965 14.6021C8.30271 14.8754 8.33377 15.1549 8.32135 15.4282C8.32756 15.4965 8.32135 15.5338 8.33377 15.6021C8.34619 15.6456 8.33998 15.6642 8.3524 15.7077C8.35862 15.776 8.34619 15.8382 8.35862 15.9003V16.0618C8.36483 16.1363 8.37104 16.2108 8.36483 16.2854C8.37104 16.5835 8.4021 16.863 8.40831 17.1612C8.46421 18.4842 8.46421 18.4842 7.24055 18.6892C7.2157 18.7016 7.17222 18.6954 7.14738 18.7141C7.06041 18.7389 6.95482 18.7389 6.86786 18.7638C6.81817 18.7762 6.77469 18.7886 6.71257 18.7948C6.68773 18.7886 6.68772 18.8135 6.66288 18.8072C6.53244 18.8445 6.35852 18.8507 6.20323 18.888C6.14733 18.9004 6.09763 18.9066 6.03552 18.9128C5.97962 18.9253 5.92371 18.9377 5.85539 18.9439C5.76842 18.9687 5.66283 18.9687 5.56966 18.9936C5.11001 19.0743 4.6752 19.1551 4.21555 19.2358C4.03542 19.2669 3.86771 19.2731 3.65031 19.2917C3.55714 18.5961 3.53229 17.9563 3.63167 17.3413L3.66894 17.1426C3.68758 17.0618 3.70621 16.9749 3.73727 16.9003C3.74969 16.8382 3.76211 16.7761 3.79938 16.7202C4.01057 15.9562 4.42053 15.2543 4.96714 14.6269C5.04789 14.5524 5.11001 14.4592 5.18454 14.3909C5.23424 14.3412 5.31499 14.2666 5.38952 14.217C7.02936 12.6392 9.74378 11.838 12.2594 11.7572C12.6011 11.7572 12.9427 11.7572 13.2719 11.7758C13.3589 11.782 13.4458 11.7883 13.5266 11.7945C13.7875 11.8131 14.0421 11.8442 14.2844 11.8814C14.5328 11.9125 14.7564 11.956 14.9801 12.0181C15.4024 12.105 15.8062 12.2231 16.1727 12.4032C16.3093 12.4467 16.446 12.515 16.5764 12.5833C17.2224 12.9436 17.8125 13.3349 18.3591 13.7697C18.4088 13.8008 18.4585 13.8381 18.502 13.8815C18.5579 13.925 18.6138 13.9685 18.6697 14.012C19.266 14.4965 19.8002 15.0307 20.2722 15.6145C21.3034 16.8941 22.0115 18.4159 22.3593 20.211C22.3904 20.3912 22.4152 20.5651 22.4214 20.7576C22.4463 20.8446 22.4525 20.9316 22.4587 21.0123Z" fill="black"/>
<path d="M10.1668 24.777C8.37792 25.3919 6.65734 25.982 4.83738 26.6032C4.54544 25.2118 4.2535 23.8391 3.96156 22.4477C3.83733 21.87 3.7131 21.2861 3.58887 20.696C4.09821 20.578 4.60755 20.46 5.10447 20.342C6.24738 20.0811 7.37787 19.814 8.54563 19.5407C9.08603 21.2923 9.62022 23.0129 10.1668 24.777Z" fill="black"/>
<path d="M19.4833 26.7958C18.8559 27.2492 18.2472 27.7027 17.6385 28.1561C17.5018 28.2555 17.3714 28.3549 17.2348 28.4543C17.2348 28.4543 17.1851 28.4667 17.1851 28.4853C16.9428 28.6468 16.6944 28.8145 16.4707 29.0009C16.1353 29.2307 15.8061 29.473 15.4645 29.7214C15.1788 29.9202 14.893 30.1314 14.5949 30.3488C14.1414 29.5351 13.7066 28.7338 13.247 27.9449C13.2035 27.8518 13.1414 27.7337 13.0979 27.6406C13.0793 27.6344 13.0793 27.6157 13.0793 27.6157C12.6755 26.8828 12.2656 26.1684 11.8618 25.4293C12.5327 25.0317 13.1787 24.6528 13.8246 24.2491C13.8992 24.1994 13.9924 24.1559 14.0669 24.1062C14.0917 24.0938 14.1104 24.0938 14.1352 24.0814C14.1849 24.0503 14.2346 24.0255 14.2843 23.9944C15.0483 23.541 15.7937 23.0751 16.5577 22.6279C16.6012 22.69 16.6509 22.7583 16.6944 22.8205C16.9055 23.131 17.1105 23.4292 17.3341 23.7335C17.3279 23.7522 17.3466 23.7584 17.3466 23.7584C17.6447 24.1994 17.9615 24.6156 18.2596 25.0566C18.6572 25.6218 19.0671 26.2119 19.4833 26.7958Z" fill="black"/>
<path d="M13.0612 31.1873C11.3593 31.7898 9.70704 32.3799 7.99267 32.9886C7.13548 31.4171 6.29693 29.8829 5.40869 28.2554C7.16654 27.5473 8.85607 26.8579 10.6139 26.1497C11.4276 27.8269 12.2289 29.4791 13.0612 31.1873Z" fill="black"/>
<path d="M16.1354 21.5918C15.5019 21.9521 14.8807 22.3123 14.2534 22.6788C13.2782 23.2378 12.303 23.7969 11.2967 24.3745C10.7066 22.5918 10.1414 20.8713 9.55127 19.0699C10.8867 18.5544 12.1663 18.0575 13.4831 17.5481C13.6508 17.486 13.8186 17.4239 13.9863 17.3556C14.0173 17.4177 14.0484 17.4798 14.0794 17.5419C14.1975 17.7717 14.3155 18.0016 14.4273 18.2314C14.9863 19.337 15.5516 20.4427 16.1354 21.5918Z" fill="black"/>
<path d="M15.478 36.2319C15.4531 36.2443 15.4221 36.2816 15.3972 36.3002C15.3227 36.3686 15.2419 36.4555 15.1612 36.5301C14.4344 37.2133 13.7139 37.8904 12.9561 38.6109C12.9064 38.642 12.8816 38.6606 12.8567 38.6979C12.6517 38.4494 12.4405 38.2134 12.2356 37.9836C11.6952 37.3686 11.1796 36.7847 10.6641 36.176C10.6268 36.145 10.5895 36.1201 10.5585 36.0704C10.5398 36.0456 10.5026 36.0145 10.4901 35.9897C10.2168 35.6605 9.91867 35.3499 9.62052 35.0207C9.53356 34.9151 9.43418 34.7908 9.32858 34.6853C9.30995 34.6604 9.27268 34.6356 9.26025 34.6107C9.30373 34.5734 9.35343 34.561 9.39691 34.53C9.58946 34.443 9.75096 34.3436 9.91867 34.2691C10.0118 34.207 10.105 34.1635 10.1982 34.1138L10.2044 34.0952C10.3224 34.033 10.4591 33.9771 10.5833 33.8964C10.751 33.8032 10.9125 33.7287 11.0554 33.6479C11.3163 33.5113 11.5709 33.3684 11.807 33.2504C11.8567 33.2131 11.9063 33.1821 11.9498 33.1696C11.9995 33.1386 12.0678 33.1075 12.1175 33.0765C12.1859 33.0454 12.2356 33.0144 12.2852 32.9833C12.807 32.7038 13.3226 32.4243 13.8195 32.1634C14.1176 32.7908 14.422 33.3995 14.7077 34.0082C14.7574 34.0765 14.8009 34.1697 14.8257 34.2629H14.8444C14.8568 34.3126 14.8754 34.3374 14.8879 34.3809C14.9127 34.4492 14.9624 34.5238 14.9748 34.5859C15.2046 35.0145 15.3972 35.4306 15.5898 35.853C15.6395 35.9462 15.5587 36.1387 15.478 36.2319Z" fill="black"/>
<path d="M8.974 39.7171C8.94915 39.7295 8.9243 39.7481 8.89946 39.7605C7.96773 40.214 7.05465 40.6674 6.14156 41.1271C5.81856 41.2761 5.50799 41.4376 5.1912 41.5867C5.09182 41.6364 4.99864 41.6861 4.89926 41.7296C4.01723 40.3941 3.54516 39.0276 3.17868 37.5617C3.14762 37.4933 3.12277 37.425 3.11035 37.3567H3.11656C3.63212 37.1207 4.12282 36.8598 4.63217 36.6237C4.98622 36.4374 5.34028 36.251 5.70675 36.0895C5.76266 36.0399 5.82477 36.0274 5.87446 35.9964L5.8931 36.0026C6.34654 35.7541 6.76892 35.5367 7.23478 35.3131C7.39007 35.7231 7.56399 36.1392 7.71306 36.5492C7.7317 36.574 7.74412 36.5989 7.73791 36.6362C7.76897 36.6858 7.78139 36.7542 7.81245 36.7977C7.80624 36.8225 7.80624 36.8225 7.82487 36.8473C8.20998 37.7853 8.58267 38.7046 8.974 39.7171Z" fill="black"/>
<path d="M5.9492 33.3226C4.68205 33.4779 3.44597 33.6269 2.20367 33.776C1.69433 33.8319 1.17877 33.894 0.663221 33.9561C0.309166 32.7325 0.209782 31.5212 0.315377 30.2852C0.321589 30.1796 0.402338 30.0429 0.489299 29.9994C1.01728 29.7448 1.53904 29.4901 2.07323 29.2416C2.75028 28.9186 3.43354 28.5956 4.12302 28.2664C4.75659 30.0181 5.34047 31.6268 5.9492 33.3226Z" fill="black"/>
<path d="M20.4339 29.2675C20.4463 29.4228 20.4401 29.5656 20.4339 29.7147C20.4153 29.9445 20.3842 30.1619 20.3283 30.3669C20.2972 30.4974 20.26 30.6278 20.2103 30.7458C20.1544 30.9073 20.0861 31.0626 20.0115 31.2179C20.0115 31.2179 20.0115 31.2179 20.0053 31.2365C19.5519 32.1434 18.7941 32.9012 17.9307 33.6404C17.7505 33.4602 17.5766 33.2801 17.4151 33.1186C17.1853 32.8826 16.9741 32.6714 16.7629 32.4602C16.3405 32.0192 15.8995 31.5968 15.4585 31.1496C15.8995 30.7085 16.3654 30.2675 16.8126 29.8514C17.117 29.5718 17.4089 29.2861 17.6946 29.0066C17.7195 28.988 17.7381 28.9942 17.7443 28.9755C17.8872 28.8451 18.0238 28.7147 18.1667 28.578C18.6201 28.1494 19.0798 27.7208 19.5332 27.2736C20.1792 27.7829 20.4028 28.4786 20.4339 29.2675Z" fill="black"/>
<path d="M3.6694 26.6147C3.25945 26.6395 2.86191 26.6581 2.46438 26.683C1.70657 26.7265 0.961196 26.77 0.209606 26.8134C-0.554407 23.863 0.843178 21.1672 3.21597 20.9995C3.28429 21.8691 3.35883 22.7449 3.42716 23.6207C3.50791 24.6084 3.58866 25.6022 3.6694 26.6147Z" fill="black"/>
<path d="M3.07339 19.2965C2.60132 19.2841 2.19136 19.2779 1.63232 19.2592C2.07334 18.5076 2.44603 17.8616 2.82493 17.2156C2.86841 17.2281 2.9181 17.2405 2.96779 17.2529C2.99885 17.9051 3.03612 18.5573 3.07339 19.2965Z" fill="black"/>
<path d="M74.9831 20.3849H82.6108V42.6656H77.0391V26.6151C76.8466 26.7269 76.654 26.8076 76.4366 26.8884C76.2441 26.9691 76.0267 27.0499 75.8341 27.1617C70.5916 29.4102 63.6534 32.429 63.7341 38.0007C63.759 38.3858 63.79 38.7709 63.8708 39.1561C64.0633 40.2555 64.4484 41.2431 64.8025 42.0382C64.8273 42.15 64.8832 42.2556 64.9392 42.3674C64.964 42.4233 64.9951 42.4792 64.9951 42.5289C65.0199 42.5537 65.051 42.6096 65.0758 42.6656H58.2183C58.2183 42.6656 58.2183 42.5289 58.1935 42.3115C58.1376 41.7897 58.0817 40.7214 58.1686 39.8393C58.1686 39.6468 58.1935 39.4853 58.2245 39.3176C59.0196 35.0627 63.0819 32.6526 67.1132 30.6712L68.84 29.845C72.5731 28.0872 75.8341 26.5219 75.8341 24C75.8341 22.5528 75.3434 21.2608 74.9831 20.3849Z" fill="black"/>
<path d="M85.9092 20.4102H91.4809V28.2057C93.1518 31.1437 96.1706 29.6343 99.3819 28.0442C102.481 26.5099 105.774 24.8887 108.19 27.0814C112.687 31.1685 108.19 42.666 108.19 42.666H85.9092V20.4102ZM102.618 31.5537C100.37 27.8206 91.4747 31.5537 91.4747 31.5537V40.5541C94.3817 43.7903 100.587 42.312 102.618 38.3304C103.798 36.0259 103.966 33.7712 102.618 31.5537Z" fill="black"/>
<path d="M62.7901 51.9473L62.7839 48.2887L60.9701 51.3385H60.6409L58.8272 48.3136V51.9535H58.1377V46.9346H58.7278L60.8211 50.4627L62.8895 46.9346H63.4796L63.4858 51.9535H62.7901V51.9473Z" fill="black"/>
<path d="M69.4049 51.3189V51.9401H65.7588V46.9212H69.3055V47.5424H66.4793V49.0828H68.995V49.6915H66.4793V51.3127H69.4049V51.3189Z" fill="black"/>
<path d="M72.1133 51.6664C71.7095 51.4428 71.3927 51.1384 71.1629 50.7471C70.9331 50.3558 70.8213 49.921 70.8213 49.4303C70.8213 48.9396 70.9331 48.5048 71.1629 48.1134C71.3927 47.7221 71.7095 47.4177 72.1195 47.1941C72.5232 46.9705 72.9829 46.8587 73.4798 46.8587C73.8711 46.8587 74.2314 46.927 74.5544 47.0575C74.8774 47.1879 75.1569 47.3867 75.3867 47.6414L74.9209 48.0948C74.542 47.6973 74.0699 47.4985 73.5047 47.4985C73.132 47.4985 72.7965 47.5792 72.4922 47.7469C72.194 47.9147 71.958 48.1445 71.7841 48.4364C71.6164 48.7284 71.5294 49.0576 71.5294 49.4241C71.5294 49.7905 71.6164 50.1135 71.7841 50.4117C71.9518 50.7036 72.1878 50.9334 72.4922 51.1012C72.7965 51.2689 73.132 51.3496 73.5047 51.3496C74.0637 51.3496 74.5358 51.1508 74.9209 50.7471L75.3867 51.2005C75.1569 51.4614 74.8774 51.654 74.5482 51.7906C74.219 51.9273 73.8587 51.9894 73.4674 51.9894C72.9705 52.0018 72.517 51.89 72.1133 51.6664Z" fill="black"/>
<path d="M80.4865 47.5483H78.7659V51.946H78.064V47.5483H76.3496V46.9272H80.4865V47.5483Z" fill="black"/>
<path d="M82.8967 51.6659C82.4867 51.4423 82.17 51.1379 81.9401 50.7466C81.7103 50.3552 81.5923 49.9142 81.5923 49.4359C81.5923 48.9515 81.7103 48.5166 81.9401 48.1253C82.17 47.734 82.493 47.4234 82.8967 47.206C83.3004 46.9824 83.7601 46.8706 84.2694 46.8706C84.7726 46.8706 85.226 46.9824 85.636 47.206C86.0397 47.4296 86.3627 47.734 86.5925 48.1253C86.8224 48.5166 86.9342 48.9515 86.9342 49.4422C86.9342 49.9329 86.8224 50.3677 86.5925 50.759C86.3627 51.1503 86.0459 51.4547 85.636 51.6783C85.226 51.9019 84.7726 52.0137 84.2694 52.0137C83.7601 52.0013 83.3067 51.8895 82.8967 51.6659ZM85.2633 51.113C85.5552 50.9453 85.7912 50.7155 85.959 50.4236C86.1267 50.1316 86.2136 49.8024 86.2136 49.4359C86.2136 49.0757 86.1267 48.7465 85.959 48.4483C85.7912 48.1564 85.5552 47.9266 85.2633 47.7588C84.9713 47.5911 84.6359 47.5104 84.2694 47.5104C83.903 47.5104 83.5675 47.5911 83.2694 47.7588C82.9712 47.9266 82.7352 48.1564 82.5675 48.4483C82.3998 48.7403 82.3128 49.0695 82.3128 49.4359C82.3128 49.8024 82.3998 50.1254 82.5675 50.4236C82.7352 50.7155 82.9712 50.9453 83.2694 51.113C83.5675 51.2808 83.903 51.3615 84.2694 51.3615C84.6359 51.3615 84.9713 51.2808 85.2633 51.113Z" fill="black"/>
<path d="M92.3454 51.6659C91.9355 51.4423 91.6187 51.1379 91.3889 50.7466C91.159 50.3552 91.041 49.9142 91.041 49.4359C91.041 48.9515 91.159 48.5166 91.3889 48.1253C91.6187 47.734 91.9417 47.4234 92.3454 47.206C92.7492 46.9824 93.2088 46.8706 93.7182 46.8706C94.2213 46.8706 94.6747 46.9824 95.0847 47.206C95.4884 47.4296 95.8114 47.734 96.0413 48.1253C96.2711 48.5166 96.3829 48.9515 96.3829 49.4422C96.3829 49.9329 96.2711 50.3677 96.0413 50.759C95.8114 51.1503 95.4946 51.4547 95.0847 51.6783C94.6747 51.9019 94.2213 52.0137 93.7182 52.0137C93.2088 52.0013 92.7554 51.8895 92.3454 51.6659ZM94.712 51.113C95.0039 50.9453 95.24 50.7155 95.4077 50.4236C95.5754 50.1316 95.6624 49.8024 95.6624 49.4359C95.6624 49.0757 95.5754 48.7465 95.4077 48.4483C95.24 48.1564 95.0039 47.9266 94.712 47.7588C94.4201 47.5911 94.0846 47.5104 93.7182 47.5104C93.3517 47.5104 93.0163 47.5911 92.7181 47.7588C92.42 47.9266 92.1839 48.1564 92.0162 48.4483C91.8485 48.7403 91.7616 49.0695 91.7616 49.4359C91.7616 49.8024 91.8485 50.1254 92.0162 50.4236C92.1839 50.7155 92.42 50.9453 92.7181 51.113C93.0163 51.2808 93.3517 51.3615 93.7182 51.3615C94.0846 51.3615 94.4201 51.2808 94.712 51.113Z" fill="black"/>
<path d="M101.636 47.5483H99.9158V51.946H99.2139V47.5483H97.4995V46.9272H101.636V47.5483Z" fill="black"/>
<path d="M107.749 51.3189V53.0395H107.084V51.9401H102.954L102.947 53.0395H102.283L102.289 51.3189H102.531C102.848 51.3003 103.072 51.0518 103.196 50.5673C103.326 50.0891 103.401 49.4058 103.432 48.5362L103.482 46.9212H107.01V51.3189H107.749ZM103.891 50.3624C103.805 50.8282 103.662 51.145 103.463 51.3252H106.295V47.5548H104.096L104.059 48.6107C104.041 49.3126 103.978 49.8965 103.891 50.3624Z" fill="black"/>
<path d="M113.022 49.0766C113.339 49.3437 113.5 49.7412 113.5 50.263C113.5 50.8158 113.327 51.232 112.985 51.5177C112.643 51.8034 112.153 51.9463 111.519 51.9463H109.444V46.9274H110.152V48.6791H111.643C112.246 48.6728 112.705 48.8095 113.022 49.0766ZM112.451 51.0953C112.674 50.909 112.786 50.6295 112.786 50.2754C112.786 49.5859 112.358 49.2443 111.494 49.2443H110.159V51.3811H111.494C111.91 51.3811 112.227 51.2817 112.451 51.0953ZM114.296 46.9212H115.004V51.9401H114.296V46.9212Z" fill="black"/>
<path d="M117.575 46.92L118.886 48.7586L120.197 46.92H121.035L119.333 49.33L121.172 51.9388H120.327L118.886 49.9387L117.451 51.9388H116.625L118.457 49.3549L116.749 46.9138H117.575V46.92Z" fill="black"/>
<path d="M125.824 50.6913H123.153L122.6 51.946H121.861L124.135 46.9272H124.843L127.122 51.946H126.371L125.824 50.6913ZM125.576 50.1137L124.495 47.6539L123.414 50.1137H125.576Z" fill="black"/>
<path d="M131.366 46.9212H132.074V50.7972L135.043 46.9212H135.701V51.9401H134.999V48.0765L132.024 51.9463H131.366V46.9212Z" fill="black"/>
<path d="M141.521 51.6664C141.117 51.4428 140.8 51.1384 140.57 50.7471C140.34 50.3558 140.229 49.921 140.229 49.4303C140.229 48.9396 140.34 48.5048 140.57 48.1134C140.8 47.7221 141.117 47.4177 141.527 47.1941C141.93 46.9705 142.39 46.8587 142.887 46.8587C143.278 46.8587 143.639 46.927 143.962 47.0575C144.285 47.1879 144.564 47.3867 144.794 47.6414L144.328 48.0948C143.949 47.6973 143.477 47.4985 142.912 47.4985C142.539 47.4985 142.204 47.5792 141.899 47.7469C141.601 47.9147 141.365 48.1445 141.191 48.4364C141.024 48.7284 140.937 49.0576 140.937 49.4241C140.937 49.7905 141.024 50.1135 141.191 50.4117C141.359 50.7036 141.595 50.9334 141.899 51.1012C142.204 51.2689 142.539 51.3496 142.912 51.3496C143.471 51.3496 143.943 51.1508 144.328 50.7471L144.794 51.2005C144.564 51.4614 144.285 51.654 143.955 51.7906C143.626 51.9273 143.266 51.9894 142.875 51.9894C142.378 52.0018 141.924 51.89 141.521 51.6664Z" fill="black"/>
<path d="M146.502 46.9212H147.211V50.7972L150.18 46.9212H150.838V51.9401H150.136V48.0765L147.161 51.9463H146.502V46.9212Z" fill="black"/>
<path d="M157.161 46.92V51.9388H156.459V47.5411H154.235L154.185 49.0132C154.16 49.7089 154.104 50.268 154.017 50.6966C153.931 51.1251 153.788 51.4481 153.595 51.6655C153.403 51.8829 153.148 51.9948 152.819 51.9948C152.67 51.9948 152.521 51.9761 152.365 51.9388L152.415 51.2991C152.489 51.3177 152.57 51.3301 152.645 51.3301C152.85 51.3301 153.017 51.2494 153.142 51.0817C153.266 50.914 153.359 50.6717 153.421 50.3363C153.483 50.0071 153.527 49.5723 153.545 49.0319L153.626 46.9138H157.161V46.92Z" fill="black"/>
<path d="M163.019 49.0766C163.336 49.3437 163.497 49.7412 163.497 50.263C163.497 50.8158 163.323 51.232 162.981 51.5177C162.64 51.8034 162.149 51.9463 161.516 51.9463H159.441V46.9274H160.149V48.6791H161.64C162.242 48.6728 162.702 48.8095 163.019 49.0766ZM162.447 51.0953C162.671 50.909 162.783 50.6295 162.783 50.2754C162.783 49.5859 162.354 49.2443 161.491 49.2443H160.155V51.3811H161.491C161.907 51.3811 162.224 51.2817 162.447 51.0953ZM164.292 46.9212H165V51.9401H164.292V46.9212Z" fill="black"/>
<path d="M164.994 45.0062H127.483L128.229 42.0806C128.322 41.7265 128.459 41.4718 128.521 41.3476C128.806 40.6643 129.21 39.7016 129.409 38.6953C129.682 37.1797 129.477 35.1237 125.458 32.5956C121.44 35.1361 121.247 37.1983 121.533 38.7139C121.694 39.6332 122.048 40.478 122.365 41.2172L122.458 41.447L124.073 45.0062H58.1196V44.5403H123.346L121.93 41.4097C121.607 40.6395 121.235 39.7699 121.067 38.8009C120.75 37.1238 120.955 34.8504 125.328 32.1235L125.452 32.049L125.576 32.1235C129.949 34.8318 130.167 37.1052 129.862 38.7823C129.657 39.8382 129.241 40.8258 128.937 41.5464C128.868 41.6706 128.75 41.8942 128.676 42.1986L128.08 44.5403H164.994V45.0062Z" fill="black"/>
<path d="M131.216 24.0062C131.216 22.5528 130.694 21.2608 130.34 20.3849H137.172L137.228 20.6024C137.477 21.59 137.999 23.5652 135.446 25.1305C134.402 25.7641 132.893 26.4225 131.191 27.1617C129.57 27.8449 127.762 28.6462 126.06 29.5469C126.277 29.6587 126.526 29.7394 126.743 29.8513C131.272 31.9942 136.458 34.4602 137.334 39.3176C137.582 40.5785 137.334 42.6656 137.334 42.6656H130.501C130.526 42.5537 130.582 42.473 130.638 42.3612C130.992 41.5102 131.458 40.4108 131.706 39.1499C132.477 34.895 129.321 32.0129 125.451 29.8761C121.613 32.0191 118.426 34.895 119.221 39.1499C119.439 40.4108 119.936 41.5102 120.29 42.3612L120.426 42.6656H113.569C113.569 42.6656 113.351 40.5785 113.569 39.3176C114.476 34.4602 119.662 31.9942 124.19 29.8513C124.408 29.7394 124.631 29.6587 124.849 29.5469C123.178 28.64 121.364 27.8449 119.718 27.1617C118.041 26.4225 116.538 25.7641 115.494 25.1305C112.941 23.5652 113.438 21.59 113.712 20.6024C113.712 20.5216 113.736 20.4657 113.768 20.3849H120.6C120.246 21.2608 119.724 22.5528 119.724 24.0062C119.724 26.2548 122.302 27.7083 125.458 29.2487C128.638 27.7083 131.216 26.2548 131.216 24.0062Z" fill="black"/>
<path d="M164.994 42.6656H142.738C142.738 42.6656 138.266 31.1929 142.738 27.0809C147.651 22.5838 156.13 33.9695 159.422 28.1804V21.5092C159.422 21.5092 158.217 19.7824 153.851 21.5092L142.738 25.9567V20.3849H164.994V42.6656ZM159.428 31.5221C159.428 31.5221 150.565 27.789 148.341 31.5221C146.993 33.7707 147.136 35.9944 148.316 38.2989C150.347 42.2494 156.521 43.7588 159.428 40.5474V31.5221Z" fill="black"/>
<path d="M164.994 53.7413H58.1196V54.2071H164.994V53.7413Z" fill="black"/>
</svg>
