<svg width="123" height="40" viewBox="0 0 123 40" fill="none" xmlns="http://www.w3.org/2000/svg">
<path d="M10.4949 12.5742C10.1569 12.7085 9.99484 12.8428 9.97632 12.8567C9.97632 12.8428 9.99947 12.7409 10.0504 12.5789C10.1754 12.5326 10.3004 12.4863 10.4255 12.4353C10.4486 12.4816 10.4718 12.5279 10.4949 12.5742Z" fill="black"/>
<path d="M40.2605 17.3764V17.3347H40.2188V17.293C37.3804 10.3289 30.032 4.99936 21.1324 5.0827C19.7247 5.09659 18.3541 5.24477 17.0437 5.5087C16.84 5.45313 16.627 5.4022 16.4047 5.35126C16.5205 5.18457 16.6502 4.91138 16.7659 4.62429C16.877 4.33721 16.965 4.04087 17.0021 3.82324C17.3679 1.5775 15.9695 0.804229 15.9278 0.781077C15.9371 0.804229 16.0621 1.13299 15.9602 1.7442C15.9602 1.7442 15.7195 0.702361 13.7793 0.0541077C13.7793 0.0541077 14.1034 0.290257 14.2933 0.762556C13.821 0.470842 13.0709 0.21154 11.8901 0.155976C11.8901 0.155976 12.1679 0.336561 12.4689 0.674579H12.455C11.8716 0.674579 11.14 0.92925 10.3019 1.58676C10.0796 1.75809 9.84813 1.90626 9.59809 2.02202C9.29711 2.16556 8.88501 2.33226 8.49606 2.38319C8.49606 2.38319 8.52847 2.54062 8.7461 2.64712C7.38939 3.47133 6.20402 3.96678 6.20402 3.96678C6.20402 3.96678 6.91246 4.58725 7.75056 5.53185C8.13026 5.48091 8.51458 5.45313 8.90353 5.43924L9.19987 5.43461C9.82498 5.43461 10.3853 5.47628 10.9085 5.555C11.1863 5.58741 11.4502 5.63835 11.7188 5.7078C12.2189 5.81893 12.6727 5.96247 13.0987 6.15695C13.27 6.22641 13.4413 6.30975 13.608 6.39773C13.6497 6.42088 13.6913 6.44403 13.733 6.46719C14.4739 6.88855 15.1082 7.32381 15.687 7.80074C15.8676 7.94891 16.0482 8.10171 16.2149 8.25914C16.4649 8.49066 16.7011 8.72681 16.9141 8.97222L17.0252 9.09261C18.2662 10.5049 19.0857 12.2042 19.4608 14.149C19.4978 14.3759 19.5256 14.5657 19.5395 14.7463C19.5673 14.9315 19.5766 15.0751 19.5812 15.1584C19.6414 16.2327 19.4608 17.3301 19.0533 18.3395C18.9931 18.5201 18.9283 18.6636 18.8774 18.7747C18.7987 18.9368 18.7199 19.085 18.6273 19.2285C18.5857 19.3026 18.5394 19.3767 18.4884 19.4508C18.3449 19.6869 18.1828 19.9092 18.0115 20.1268C18.0717 20.4093 18.118 20.7102 18.1365 21.0436C18.1504 21.2751 18.1458 21.5067 18.1365 21.7336C18.0809 22.4096 17.9652 22.9375 17.78 23.4283C17.7244 23.5857 17.6596 23.7431 17.5901 23.8959C17.5716 23.9376 17.5577 23.9747 17.5346 24.0117C18.8774 25.2851 19.7433 26.2991 19.7433 26.2991C19.7433 26.2991 20.5721 24.3868 21.9427 22.2059C22.114 22.567 22.3687 22.6226 22.3687 22.6226C22.4613 21.9882 22.7391 21.3214 22.9799 20.8399C23.1836 20.437 23.4244 20.062 23.7069 19.7101C23.7115 19.7101 23.7115 19.7054 23.7115 19.7054C24.8089 18.3487 25.2441 17.1587 25.2488 16.2095C25.7859 16.705 26.073 17.1634 26.073 17.1634C26.0128 15.2464 25.6099 14.024 25.1515 13.2461C25.8229 13.5331 26.1934 13.973 26.2721 14.0749C25.2812 10.9309 23.6004 10.5141 23.6004 10.5141C24.6005 10.3613 25.1284 10.579 25.1608 10.5929C25.1238 10.5234 23.906 8.23136 20.248 8.76849C19.9007 8.81942 19.4099 8.96296 18.9468 9.13429C18.4792 9.31024 18.03 9.51398 17.7568 9.69919C17.6874 9.35191 17.6086 9.01853 17.5299 8.70366C18.6459 7.90723 19.8636 7.43957 21.1324 7.40715C26.5916 7.31918 31.3655 15.4872 31.3192 22.6226C31.2775 29.67 26.5916 37.7547 21.1324 37.6667C17.4836 37.6111 14.335 34.018 12.7051 29.4154C12.4134 29.6932 12.0985 29.9895 11.7744 30.2951C11.7188 30.3553 11.6586 30.4109 11.5938 30.4618C11.0057 30.9712 10.2556 31.2582 9.46381 31.2675H9.43602C9.21377 31.2675 9.00077 31.2397 8.78777 31.1981C8.69053 31.2814 8.59329 31.3694 8.48679 31.4388C8.45901 31.4574 8.3803 31.5129 8.35251 31.5268C8.25065 31.5916 8.14415 31.6472 8.03765 31.7028C7.38476 32.0176 6.74114 32.3371 6.10215 32.6566C5.88452 32.7585 5.76876 32.8187 5.64837 32.8789C5.63448 32.8835 5.62522 32.8928 5.61133 32.8974C9.20913 37.1203 14.7471 39.9124 21.1324 39.9448C30.032 40.0328 37.3804 34.7033 40.2188 27.7392C41.506 24.5118 41.5524 20.6037 40.2605 17.3764Z" fill="black"/>
<path d="M16.7424 15.1638C16.7794 15.8491 16.6452 16.5344 16.3859 17.1317C16.3766 17.1919 16.3488 17.2335 16.321 17.2891C16.2979 17.3493 16.2701 17.391 16.2284 17.4465C16.2007 17.5021 16.1775 17.5484 16.1358 17.5993C15.895 18.0253 15.557 18.3865 15.1403 18.6504C14.8532 18.28 14.5615 17.9096 14.2698 17.553C14.2235 17.479 14.1587 17.4049 14.1077 17.3308C14.0707 17.2752 14.0197 17.2197 13.9827 17.1641C13.9179 17.09 13.8438 16.9928 13.7836 16.9048C13.7697 16.8863 13.7558 16.8677 13.7465 16.8492C13.6678 16.7566 13.5937 16.6594 13.5197 16.5529C13.3669 16.363 13.2141 16.1778 13.0659 15.9741C13.0149 15.9185 13.0751 15.6777 13.1585 15.5805C13.5197 15.1962 13.8947 14.8119 14.2837 14.4322C14.3068 14.3905 14.3439 14.3627 14.3809 14.3396C14.3994 14.3257 14.418 14.3025 14.4365 14.2886C14.4596 14.2608 14.4967 14.2192 14.5337 14.196C14.5569 14.1543 14.6124 14.1173 14.6541 14.0617C14.793 13.9182 14.9134 13.7839 14.9875 13.5755C14.8023 13.7145 14.6171 13.8487 14.4318 14.0015C14.4087 14.0293 14.3716 14.0571 14.3346 14.0803C14.2976 14.1173 14.2605 14.1451 14.205 14.1821C14.1679 14.2053 14.1309 14.2423 14.0938 14.2701C13.7002 14.5664 13.302 14.8813 12.9038 15.2008C12.7973 15.2842 12.6908 15.3675 12.5843 15.4555C12.2926 14.8628 11.9963 14.284 11.7138 13.7052C11.6814 13.6357 11.6444 13.5848 11.6258 13.5153C11.4545 13.2144 11.3017 12.8949 11.1489 12.58C11.135 12.5476 11.1165 12.5152 11.1026 12.4828C11.0887 12.455 11.0748 12.4272 11.0609 12.3994C10.9359 12.1633 10.8294 11.9318 10.7044 11.6956C10.6164 11.728 10.5284 11.7651 10.4405 11.7975C9.8987 12.0058 9.36621 12.2235 8.82445 12.4318C8.755 12.4643 8.69017 12.4828 8.62072 12.5152C8.43087 12.5893 8.24102 12.6772 8.03729 12.7513C7.62981 12.9041 7.21771 13.0616 6.79171 13.2283C6.68058 12.5939 6.56483 11.9734 6.46759 11.353C6.46759 11.3391 6.45833 11.3205 6.45833 11.3067C6.4537 11.2835 6.44907 11.265 6.44444 11.2511C6.44444 11.2372 6.44444 11.2233 6.44907 11.2094C6.42591 11.1585 6.42128 11.0937 6.41665 11.0427C6.40739 11.0103 6.40276 10.964 6.3935 10.927C6.3472 10.7464 6.31942 10.5658 6.29626 10.376C6.26385 10.3667 6.23144 10.376 6.18513 10.3852C6.18976 10.5889 6.21292 10.7973 6.20366 11.0011C6.20829 11.052 6.20366 11.0798 6.21292 11.1307C6.22218 11.1631 6.21755 11.177 6.22681 11.2094C6.23144 11.2604 6.22218 11.3067 6.23144 11.353V11.4734C6.23607 11.5289 6.2407 11.5845 6.23607 11.64C6.2407 11.8623 6.26385 12.0707 6.26848 12.2929C6.31016 13.2792 6.31015 13.2792 5.39797 13.432C5.37945 13.4413 5.34704 13.4366 5.32851 13.4505C5.26369 13.469 5.18497 13.469 5.12015 13.4876C5.0831 13.4968 5.05069 13.5061 5.00439 13.5107C4.98587 13.5061 4.98587 13.5246 4.96734 13.52C4.87011 13.5478 4.74046 13.5524 4.6247 13.5802C4.58302 13.5894 4.54598 13.5941 4.49968 13.5987C4.458 13.608 4.41633 13.6172 4.36539 13.6218C4.30057 13.6404 4.22185 13.6404 4.1524 13.6589C3.80975 13.7191 3.48562 13.7793 3.14297 13.8395C3.00869 13.8626 2.88367 13.8673 2.72161 13.8811C2.65215 13.3625 2.63363 12.8856 2.70772 12.4272L2.7355 12.279C2.74939 12.2188 2.76328 12.154 2.78643 12.0985C2.79569 12.0521 2.80496 12.0058 2.83274 11.9642C2.99017 11.3946 3.29578 10.8714 3.70325 10.4037C3.76344 10.3482 3.80975 10.2787 3.86531 10.2278C3.90236 10.1907 3.96255 10.1352 4.01812 10.0981C5.24054 8.92201 7.26401 8.32469 9.13932 8.2645C9.39399 8.2645 9.64866 8.2645 9.89407 8.27839C9.9589 8.28302 10.0237 8.28765 10.0839 8.29228C10.2784 8.30617 10.4682 8.32932 10.6488 8.3571C10.834 8.38026 11.0007 8.41267 11.1674 8.45897C11.4823 8.5238 11.7833 8.61177 12.0565 8.74606C12.1583 8.77847 12.2602 8.8294 12.3574 8.88034C12.839 9.1489 13.2789 9.44061 13.6864 9.76474C13.7234 9.78789 13.7604 9.81567 13.7929 9.84809C13.8345 9.8805 13.8762 9.91291 13.9179 9.94532C14.3624 10.3065 14.7606 10.7047 15.1125 11.14C15.8812 12.0938 16.409 13.2283 16.6683 14.5664C16.6915 14.7007 16.71 14.8304 16.7146 14.9739C16.7331 15.0387 16.7378 15.1036 16.7424 15.1638Z" fill="black"/>
<path d="M7.57813 17.9702C6.24458 18.4286 4.96197 18.8684 3.60527 19.3315C3.38764 18.2943 3.17001 17.271 2.95238 16.2338C2.85978 15.8031 2.76717 15.3679 2.67456 14.928C3.05425 14.84 3.43394 14.752 3.80437 14.6641C4.65636 14.4696 5.49909 14.2705 6.3696 14.0667C6.77245 15.3725 7.17066 16.6551 7.57813 17.9702Z" fill="black"/>
<path d="M14.5235 19.4751C14.0558 19.8131 13.6021 20.1512 13.1483 20.4892C13.0464 20.5633 12.9492 20.6373 12.8473 20.7114C12.8473 20.7114 12.8103 20.7207 12.8103 20.7346C12.6297 20.855 12.4445 20.98 12.2778 21.1189C12.0277 21.2902 11.7823 21.4708 11.5277 21.656C11.3147 21.8042 11.1017 21.9616 10.8794 22.1237C10.5414 21.5171 10.2173 20.9198 9.87462 20.3317C9.8422 20.2623 9.7959 20.1743 9.76349 20.1049C9.7496 20.1002 9.7496 20.0863 9.7496 20.0863C9.44862 19.5399 9.14302 19.0075 8.84204 18.4564C9.34212 18.1601 9.82368 17.8776 10.3052 17.5767C10.3608 17.5396 10.4303 17.5072 10.4858 17.4702C10.5043 17.4609 10.5182 17.4609 10.5368 17.4516C10.5738 17.4285 10.6108 17.41 10.6479 17.3868C11.2174 17.0488 11.7731 16.7015 12.3426 16.3681C12.375 16.4144 12.4121 16.4654 12.4445 16.5117C12.6019 16.7432 12.7547 16.9655 12.9214 17.1923C12.9168 17.2062 12.9307 17.2109 12.9307 17.2109C13.1529 17.5396 13.3891 17.8499 13.6113 18.1786C13.9077 18.6 14.2133 19.0399 14.5235 19.4751Z" fill="black"/>
<path d="M9.73612 22.7487C8.4674 23.1979 7.23572 23.6378 5.95773 24.0916C5.31874 22.9201 4.69364 21.7764 4.03149 20.5632C5.34189 20.0353 6.60136 19.5214 7.91175 18.9935C8.51833 20.2437 9.11565 21.4754 9.73612 22.7487Z" fill="black"/>
<path d="M12.0278 15.5957C11.5555 15.8643 11.0925 16.1328 10.6248 16.406C9.89786 16.8227 9.17089 17.2395 8.42077 17.6701C7.98088 16.3412 7.55952 15.0586 7.11963 13.7158C8.11516 13.3314 9.06902 12.961 10.0507 12.5813C10.1757 12.535 10.3007 12.4887 10.4257 12.4378C10.4489 12.4841 10.472 12.5304 10.4952 12.5767C10.5832 12.748 10.6711 12.9193 10.7545 13.0907C11.1712 13.9149 11.5926 14.7391 12.0278 15.5957Z" fill="black"/>
<path d="M11.5378 26.5093C11.5193 26.5185 11.4962 26.5463 11.4776 26.5602C11.4221 26.6111 11.3619 26.676 11.3017 26.7315C10.7599 27.2409 10.2228 27.7456 9.65791 28.2827C9.62087 28.3059 9.60234 28.3198 9.58382 28.3475C9.43102 28.1623 9.27359 27.9864 9.12079 27.815C8.71794 27.3566 8.33362 26.9214 7.9493 26.4676C7.92152 26.4445 7.89373 26.4259 7.87058 26.3889C7.85669 26.3704 7.82891 26.3472 7.81965 26.3287C7.61591 26.0833 7.39365 25.8518 7.17139 25.6064C7.10657 25.5276 7.03248 25.435 6.95377 25.3563C6.93988 25.3378 6.91209 25.3193 6.90283 25.3007C6.93524 25.273 6.97229 25.2637 7.0047 25.2406C7.14824 25.1757 7.26863 25.1016 7.39365 25.0461C7.46311 24.9998 7.53256 24.9674 7.60202 24.9303L7.60665 24.9164C7.69463 24.8701 7.7965 24.8285 7.8891 24.7683C8.01412 24.6988 8.13451 24.6432 8.24101 24.583C8.43549 24.4812 8.62533 24.3747 8.80129 24.2867C8.83833 24.2589 8.87537 24.2358 8.90779 24.2265C8.94483 24.2033 8.99576 24.1802 9.03281 24.157C9.08374 24.1339 9.12079 24.1107 9.15783 24.0876C9.54678 23.8792 9.9311 23.6709 10.3015 23.4764C10.5238 23.944 10.7507 24.3978 10.9637 24.8516C11.0007 24.9025 11.0331 24.972 11.0517 25.0414H11.0655C11.0748 25.0785 11.0887 25.097 11.098 25.1294C11.1165 25.1804 11.1535 25.2359 11.1628 25.2822C11.3341 25.6017 11.4777 25.912 11.6212 26.2268C11.6582 26.2963 11.598 26.4398 11.5378 26.5093Z" fill="black"/>
<path d="M6.68895 29.1073C6.67043 29.1165 6.65191 29.1304 6.63339 29.1397C5.93883 29.4777 5.25816 29.8157 4.5775 30.1584C4.33672 30.2695 4.1052 30.3899 3.86905 30.501C3.79496 30.5381 3.72551 30.5751 3.65142 30.6075C2.99391 29.612 2.642 28.5933 2.36881 27.5005C2.34565 27.4496 2.32713 27.3987 2.31787 27.3477H2.3225C2.70682 27.1718 3.07262 26.9773 3.45231 26.8014C3.71625 26.6624 3.98018 26.5235 4.25337 26.4031C4.29504 26.3661 4.34135 26.3568 4.37839 26.3337L4.39228 26.3383C4.7303 26.1531 5.04517 25.991 5.39244 25.8243C5.5082 26.1299 5.63785 26.4402 5.74898 26.7458C5.76287 26.7643 5.77214 26.7828 5.76751 26.8106C5.79066 26.8477 5.79992 26.8986 5.82307 26.931C5.81844 26.9495 5.81844 26.9495 5.83233 26.968C6.11941 27.6672 6.39724 28.3525 6.68895 29.1073Z" fill="black"/>
<path d="M4.43489 24.3405C3.49029 24.4562 2.56884 24.5674 1.64277 24.6785C1.26307 24.7202 0.878754 24.7665 0.494432 24.8128C0.2305 23.9006 0.156414 22.9977 0.23513 22.0762C0.239761 21.9975 0.299956 21.8956 0.364781 21.8632C0.758364 21.6734 1.14732 21.4835 1.54553 21.2983C2.05024 21.0575 2.55958 20.8168 3.07355 20.5714C3.54585 21.8771 3.98111 23.0764 4.43489 24.3405Z" fill="black"/>
<path d="M15.2329 21.3176C15.2421 21.4333 15.2375 21.5398 15.2329 21.651C15.219 21.8223 15.1958 21.9844 15.1541 22.1372C15.131 22.2344 15.1032 22.3316 15.0662 22.4196C15.0245 22.54 14.9736 22.6558 14.918 22.7715C14.918 22.7715 14.918 22.7715 14.9134 22.7854C14.5753 23.4615 14.0104 24.0264 13.3668 24.5774C13.2325 24.4431 13.1029 24.3088 12.9825 24.1884C12.8112 24.0125 12.6537 23.855 12.4963 23.6976C12.1814 23.3688 11.8527 23.054 11.5239 22.7206C11.8527 22.3918 12.2 22.0631 12.5333 21.7528C12.7602 21.5445 12.9779 21.3315 13.1909 21.1231C13.2094 21.1092 13.2233 21.1139 13.2279 21.1C13.3344 21.0027 13.4363 20.9055 13.5428 20.8036C13.8808 20.4841 14.2234 20.1646 14.5615 19.8312C15.043 20.2109 15.2097 20.7295 15.2329 21.3176Z" fill="black"/>
<path d="M2.73537 19.34C2.42977 19.3586 2.13342 19.3725 1.83708 19.391C1.27217 19.4234 0.716528 19.4558 0.156252 19.4882C-0.413285 17.2888 0.628551 15.2792 2.39736 15.1542C2.44829 15.8024 2.50386 16.4553 2.55479 17.1082C2.61498 17.8444 2.67518 18.5853 2.73537 19.34Z" fill="black"/>
<path d="M2.29153 13.8847C1.93962 13.8754 1.63402 13.8708 1.21729 13.8569C1.54604 13.2966 1.82387 12.8151 2.10632 12.3335C2.13873 12.3428 2.17577 12.352 2.21282 12.3613C2.23597 12.8475 2.26375 13.3337 2.29153 13.8847Z" fill="black"/>
<path d="M55.8962 14.6961H61.5823V31.3053H57.4288V19.3403C57.2853 19.4237 57.1418 19.4839 56.9797 19.5441C56.8362 19.6043 56.6741 19.6645 56.5306 19.7478C52.6225 21.424 47.4504 23.6744 47.5106 27.8278C47.5291 28.1149 47.5522 28.402 47.6124 28.6891C47.756 29.5087 48.0431 30.2449 48.307 30.8376C48.3255 30.9209 48.3672 30.9996 48.4089 31.083C48.4274 31.1247 48.4505 31.1663 48.4505 31.2034C48.4691 31.2219 48.4922 31.2636 48.5107 31.3053H43.3988C43.3988 31.3053 43.3988 31.2034 43.3803 31.0413C43.3386 30.6524 43.2969 29.8559 43.3617 29.1984C43.3617 29.0549 43.3803 28.9345 43.4034 28.8095C43.9961 25.6377 47.0244 23.8411 50.0295 22.364L51.3167 21.7481C54.0996 20.4377 56.5306 19.2709 56.5306 17.391C56.5306 16.3121 56.1647 15.349 55.8962 14.6961Z" fill="black"/>
<path d="M64.0408 14.7149H68.1942V20.526C69.4398 22.7162 71.6902 21.591 74.0841 20.4056C76.3946 19.2619 78.8487 18.0534 80.65 19.6879C84.0023 22.7347 80.65 31.3056 80.65 31.3056H64.0408V14.7149ZM76.4965 23.0218C74.8203 20.2389 68.1896 23.0218 68.1896 23.0218V29.7312C70.3566 32.1437 74.9824 31.0416 76.4965 28.0736C77.3763 26.3557 77.5013 24.6749 76.4965 23.0218Z" fill="black"/>
<path d="M46.808 38.2244L46.8034 35.4971L45.4513 37.7706H45.2059L43.8538 35.5156V38.229H43.3398V34.4876H43.7797L45.3402 37.1177L46.8821 34.4876H47.322L47.3266 38.229H46.808V38.2244Z" fill="black"/>
<path d="M51.739 37.756V38.219H49.021V34.4777H51.6649V34.9407H49.5581V36.089H51.4334V36.5428H49.5581V37.7513H51.739V37.756Z" fill="black"/>
<path d="M53.7578 38.015C53.4568 37.8483 53.2207 37.6214 53.0494 37.3297C52.878 37.038 52.7947 36.7138 52.7947 36.348C52.7947 35.9822 52.878 35.6581 53.0494 35.3664C53.2207 35.0747 53.4568 34.8478 53.7624 34.6811C54.0634 34.5144 54.406 34.4311 54.7765 34.4311C55.0682 34.4311 55.3368 34.482 55.5775 34.5792C55.8183 34.6765 56.0267 34.8246 56.198 35.0145L55.8507 35.3525C55.5683 35.0562 55.2164 34.908 54.795 34.908C54.5172 34.908 54.2671 34.9682 54.0403 35.0932C53.818 35.2182 53.642 35.3896 53.5124 35.6072C53.3874 35.8248 53.3225 36.0702 53.3225 36.3434C53.3225 36.6166 53.3874 36.8574 53.5124 37.0796C53.6374 37.2973 53.8134 37.4686 54.0403 37.5936C54.2671 37.7186 54.5172 37.7788 54.795 37.7788C55.2117 37.7788 55.5636 37.6307 55.8507 37.3297L56.198 37.6677C56.0267 37.8622 55.8183 38.0057 55.5729 38.1076C55.3275 38.2095 55.0589 38.2558 54.7672 38.2558C54.3968 38.265 54.0588 38.1817 53.7578 38.015Z" fill="black"/>
<path d="M60.0003 34.9451H58.7177V38.2234H58.1945V34.9451H56.9165V34.4821H60.0003V34.9451Z" fill="black"/>
<path d="M61.7968 38.0146C61.4912 37.8479 61.2551 37.621 61.0838 37.3293C60.9124 37.0376 60.8245 36.7088 60.8245 36.3523C60.8245 35.9911 60.9124 35.667 61.0838 35.3753C61.2551 35.0836 61.4959 34.852 61.7968 34.69C62.0978 34.5233 62.4405 34.4399 62.8202 34.4399C63.1952 34.4399 63.5332 34.5233 63.8388 34.69C64.1398 34.8567 64.3806 35.0836 64.5519 35.3753C64.7232 35.667 64.8066 35.9911 64.8066 36.3569C64.8066 36.7227 64.7232 37.0468 64.5519 37.3386C64.3806 37.6303 64.1445 37.8572 63.8388 38.0239C63.5332 38.1905 63.1952 38.2739 62.8202 38.2739C62.4405 38.2646 62.1025 38.1813 61.7968 38.0146ZM63.561 37.6025C63.7786 37.4775 63.9546 37.3061 64.0796 37.0885C64.2046 36.8709 64.2695 36.6255 64.2695 36.3523C64.2695 36.0837 64.2046 35.8383 64.0796 35.6161C63.9546 35.3984 63.7786 35.2271 63.561 35.1021C63.3434 34.9771 63.0933 34.9169 62.8202 34.9169C62.547 34.9169 62.2969 34.9771 62.0747 35.1021C61.8524 35.2271 61.6765 35.3984 61.5514 35.6161C61.4264 35.8337 61.3616 36.0791 61.3616 36.3523C61.3616 36.6255 61.4264 36.8663 61.5514 37.0885C61.6765 37.3061 61.8524 37.4775 62.0747 37.6025C62.2969 37.7275 62.547 37.7877 62.8202 37.7877C63.0933 37.7877 63.3434 37.7275 63.561 37.6025Z" fill="black"/>
<path d="M68.8393 38.0146C68.5337 37.8479 68.2976 37.621 68.1262 37.3293C67.9549 37.0376 67.8669 36.7088 67.8669 36.3523C67.8669 35.9911 67.9549 35.667 68.1262 35.3753C68.2976 35.0836 68.5383 34.852 68.8393 34.69C69.1403 34.5233 69.4829 34.4399 69.8626 34.4399C70.2377 34.4399 70.5757 34.5233 70.8813 34.69C71.1823 34.8567 71.4231 35.0836 71.5944 35.3753C71.7657 35.667 71.8491 35.9911 71.8491 36.3569C71.8491 36.7227 71.7657 37.0468 71.5944 37.3386C71.4231 37.6303 71.1869 37.8572 70.8813 38.0239C70.5757 38.1905 70.2377 38.2739 69.8626 38.2739C69.4829 38.2646 69.1449 38.1813 68.8393 38.0146ZM70.6035 37.6025C70.8211 37.4775 70.9971 37.3061 71.1221 37.0885C71.2471 36.8709 71.3119 36.6255 71.3119 36.3523C71.3119 36.0837 71.2471 35.8383 71.1221 35.6161C70.9971 35.3984 70.8211 35.2271 70.6035 35.1021C70.3859 34.9771 70.1358 34.9169 69.8626 34.9169C69.5894 34.9169 69.3394 34.9771 69.1171 35.1021C68.8949 35.2271 68.7189 35.3984 68.5939 35.6161C68.4689 35.8337 68.4041 36.0791 68.4041 36.3523C68.4041 36.6255 68.4689 36.8663 68.5939 37.0885C68.7189 37.3061 68.8949 37.4775 69.1171 37.6025C69.3394 37.7275 69.5894 37.7877 69.8626 37.7877C70.1358 37.7877 70.3859 37.7275 70.6035 37.6025Z" fill="black"/>
<path d="M75.7657 34.9451H74.4831V38.2234H73.9599V34.9451H72.6819V34.4821H75.7657V34.9451Z" fill="black"/>
<path d="M80.3223 37.756V39.0386H79.8268V38.219H76.7476L76.743 39.0386H76.2476L76.2522 37.756H76.4328C76.6689 37.7421 76.8356 37.5569 76.9282 37.1957C77.0255 36.8392 77.081 36.3298 77.1042 35.6816L77.1412 34.4777H79.7713V37.756H80.3223ZM77.4468 37.0429C77.382 37.3902 77.2755 37.6263 77.1273 37.7606H79.2388V34.95H77.5996L77.5718 35.7371C77.558 36.2604 77.5117 36.6956 77.4468 37.0429Z" fill="black"/>
<path d="M84.2535 36.0844C84.4897 36.2835 84.6101 36.5799 84.6101 36.9688C84.6101 37.3809 84.4804 37.6911 84.2257 37.9041C83.9711 38.1171 83.6053 38.2236 83.133 38.2236H81.5864V34.4823H82.1143V35.7881H83.2256C83.6747 35.7834 84.0174 35.8853 84.2535 36.0844ZM83.8275 37.5893C83.9942 37.4504 84.0776 37.242 84.0776 36.9781C84.0776 36.4641 83.7581 36.2094 83.1145 36.2094H82.1189V37.8023H83.1145C83.4247 37.8023 83.6608 37.7282 83.8275 37.5893ZM85.2028 34.4777H85.7306V38.219H85.2028V34.4777Z" fill="black"/>
<path d="M87.6472 34.4767L88.6242 35.8473L89.6012 34.4767H90.2263L88.9576 36.2733L90.3282 38.2181H89.6984L88.6242 36.7271L87.5546 38.2181H86.9387L88.3047 36.2918L87.0313 34.4721H87.6472V34.4767Z" fill="black"/>
<path d="M93.7977 37.2881H91.8066L91.3945 38.2234H90.8435L92.5382 34.4821H93.0661L94.7654 38.2234H94.2052L93.7977 37.2881ZM93.6125 36.8575L92.8068 35.0238L92.0011 36.8575H93.6125Z" fill="black"/>
<path d="M97.9282 34.4777H98.4561V37.367L100.669 34.4777H101.16V38.219H100.637V35.3389L98.419 38.2236H97.9282V34.4777Z" fill="black"/>
<path d="M105.497 38.015C105.196 37.8483 104.96 37.6214 104.789 37.3297C104.617 37.038 104.534 36.7138 104.534 36.348C104.534 35.9822 104.617 35.6581 104.789 35.3664C104.96 35.0747 105.196 34.8478 105.502 34.6811C105.803 34.5144 106.145 34.4311 106.516 34.4311C106.807 34.4311 107.076 34.482 107.317 34.5792C107.558 34.6765 107.766 34.8246 107.937 35.0145L107.59 35.3525C107.308 35.0562 106.956 34.908 106.534 34.908C106.256 34.908 106.006 34.9682 105.78 35.0932C105.557 35.2182 105.381 35.3896 105.252 35.6072C105.127 35.8248 105.062 36.0702 105.062 36.3434C105.062 36.6166 105.127 36.8574 105.252 37.0796C105.377 37.2973 105.553 37.4686 105.78 37.5936C106.006 37.7186 106.256 37.7788 106.534 37.7788C106.951 37.7788 107.303 37.6307 107.59 37.3297L107.937 37.6677C107.766 37.8622 107.558 38.0057 107.312 38.1076C107.067 38.2095 106.798 38.2558 106.506 38.2558C106.136 38.265 105.798 38.1817 105.497 38.015Z" fill="black"/>
<path d="M109.212 34.4777H109.74V37.367L111.953 34.4777H112.444V38.219H111.921V35.3389L109.703 38.2236H109.212V34.4777Z" fill="black"/>
<path d="M117.156 34.4767V38.2181H116.633V34.9398H114.975L114.938 36.0372C114.919 36.5558 114.878 36.9725 114.813 37.292C114.748 37.6115 114.642 37.8523 114.498 38.0143C114.355 38.1764 114.165 38.2598 113.919 38.2598C113.808 38.2598 113.697 38.2459 113.581 38.2181L113.618 37.7412C113.674 37.755 113.734 37.7643 113.79 37.7643C113.942 37.7643 114.067 37.7041 114.16 37.5791C114.253 37.4541 114.322 37.2735 114.368 37.0234C114.415 36.778 114.447 36.4539 114.461 36.0511L114.521 34.4721H117.156V34.4767Z" fill="black"/>
<path d="M121.524 36.0844C121.76 36.2835 121.88 36.5799 121.88 36.9688C121.88 37.3809 121.75 37.6911 121.496 37.9041C121.241 38.1171 120.875 38.2236 120.403 38.2236H118.856V34.4823H119.384V35.7881H120.496C120.945 35.7834 121.287 35.8853 121.524 36.0844ZM121.098 37.5893C121.264 37.4504 121.348 37.242 121.348 36.9781C121.348 36.4641 121.028 36.2094 120.384 36.2094H119.389V37.8023H120.384C120.695 37.8023 120.931 37.7282 121.098 37.5893ZM122.473 34.4777H123.001V38.219H122.473V34.4777Z" fill="black"/>
<path d="M122.996 33.0501H95.0327L95.5883 30.8692C95.6578 30.6052 95.7596 30.4154 95.8059 30.3228C96.0189 29.8135 96.3199 29.0957 96.4681 28.3456C96.6718 27.2158 96.519 25.6832 93.5232 23.7986C90.5273 25.6924 90.3838 27.2297 90.5968 28.3595C90.7171 29.0448 90.9811 29.6745 91.2172 30.2256L91.2867 30.3969L92.4906 33.0501H43.3252V32.7028H91.9488L90.8931 30.3691C90.6523 29.7949 90.3745 29.1467 90.2495 28.4243C90.0133 27.1741 90.1661 25.4794 93.4259 23.4467L93.5185 23.3911L93.6111 23.4467C96.8709 25.4655 97.033 27.1602 96.8061 28.4104C96.6533 29.1976 96.3431 29.9338 96.1162 30.471C96.0652 30.5636 95.9773 30.7303 95.9217 30.9572L95.4772 32.7028H122.996V33.0501Z" fill="black"/>
<path d="M97.8156 17.3956C97.8156 16.3121 97.4266 15.349 97.1627 14.6961H102.256L102.298 14.8581C102.483 15.5944 102.872 17.0668 100.969 18.2337C100.191 18.706 99.0658 19.1968 97.797 19.7478C96.5885 20.2572 95.2411 20.8545 93.9723 21.5259C94.1344 21.6092 94.3196 21.6694 94.4817 21.7528C97.8572 23.3503 101.724 25.1885 102.376 28.8095C102.562 29.7494 102.376 31.3053 102.376 31.3053H97.2831C97.3016 31.2219 97.3433 31.1617 97.3849 31.0784C97.6489 30.444 97.9961 29.6244 98.1814 28.6845C98.7555 25.5126 96.4033 23.3642 93.5186 21.7713C90.657 23.3688 88.2816 25.5126 88.8743 28.6845C89.0364 29.6244 89.4068 30.444 89.6707 31.0784L89.7726 31.3053H84.6607C84.6607 31.3053 84.4986 29.7494 84.6607 28.8095C85.3367 25.1885 89.2031 23.3503 92.5786 21.7528C92.7407 21.6694 92.9074 21.6092 93.0694 21.5259C91.8238 20.8499 90.4718 20.2572 89.2447 19.7478C87.9945 19.1968 86.874 18.706 86.0961 18.2337C84.193 17.0668 84.5634 15.5944 84.7671 14.8581C84.7671 14.7979 84.7857 14.7563 84.8088 14.6961H89.9022C89.6383 15.349 89.2494 16.3121 89.2494 17.3956C89.2494 19.0718 91.171 20.1553 93.5232 21.3036C95.894 20.1553 97.8156 19.0718 97.8156 17.3956Z" fill="black"/>
<path d="M122.995 31.3053H106.405C106.405 31.3053 103.071 22.7529 106.405 19.6876C110.067 16.3352 116.388 24.8227 118.842 20.5072V15.5342C118.842 15.5342 117.943 14.2469 114.688 15.5342L106.405 18.8495V14.6961H122.995V31.3053ZM118.846 22.9984C118.846 22.9984 112.239 20.2155 110.581 22.9984C109.576 24.6745 109.683 26.3322 110.563 28.0501C112.077 30.995 116.679 32.1202 118.846 29.7263V22.9984Z" fill="black"/>
<path d="M122.996 39.5617H43.3252V39.909H122.996V39.5617Z" fill="black"/>
</svg>
