<svg width="540" height="200" viewBox="0 0 540 200" fill="none" xmlns="http://www.w3.org/2000/svg">
<g clip-path="url(#clip0_1142_5858)">
<rect width="540" height="200" rx="16" fill="#748A5B"/>
<path d="M93.0053 5.06745C83.6783 55.074 15.1495 49.6934 -2.27305 27.8442L-16.2376 -163.408L201.806 -179.329L209.26 -77.2472C216.419 20.8001 153.571 2.54044 136.4 -18.383C119.23 -39.3065 102.332 -44.9391 93.0053 5.06745Z" stroke="#FFFFC0" stroke-width="2" stroke-dasharray="11 11"/>
<rect x="20" y="20" width="182" height="47" rx="14" fill="white"/>
<path d="M45.4 51V36.6H47.81V43.28L53.56 36.6H56.52L50.33 43.66L56.94 51H53.88L47.81 44.28V51H45.4ZM62.3184 51.3C61.2384 51.3 60.2951 51.0567 59.4884 50.57C58.6818 50.0833 58.0551 49.4133 57.6084 48.56C57.1684 47.7 56.9484 46.7133 56.9484 45.6C56.9484 44.4667 57.1751 43.4733 57.6284 42.62C58.0818 41.7667 58.7118 41.1 59.5184 40.62C60.3251 40.14 61.2584 39.9 62.3184 39.9C63.4051 39.9 64.3518 40.1433 65.1584 40.63C65.9651 41.1167 66.5918 41.79 67.0384 42.65C67.4851 43.5033 67.7084 44.4867 67.7084 45.6C67.7084 46.72 67.4818 47.71 67.0284 48.57C66.5818 49.4233 65.9551 50.0933 65.1484 50.58C64.3418 51.06 63.3984 51.3 62.3184 51.3ZM62.3184 49.04C63.2784 49.04 63.9918 48.72 64.4584 48.08C64.9251 47.44 65.1584 46.6133 65.1584 45.6C65.1584 44.5533 64.9218 43.72 64.4484 43.1C63.9751 42.4733 63.2651 42.16 62.3184 42.16C61.6718 42.16 61.1384 42.3067 60.7184 42.6C60.3051 42.8867 59.9984 43.29 59.7984 43.81C59.5984 44.3233 59.4984 44.92 59.4984 45.6C59.4984 46.6467 59.7351 47.4833 60.2084 48.11C60.6884 48.73 61.3918 49.04 62.3184 49.04ZM75.1017 51.3C74.0484 51.3 73.1651 51.05 72.4517 50.55C71.7384 50.05 71.2017 49.37 70.8417 48.51C70.4817 47.6433 70.3017 46.6733 70.3017 45.6C70.3017 44.5133 70.4817 43.54 70.8417 42.68C71.2017 41.82 71.7284 41.1433 72.4217 40.65C73.1217 40.15 73.9851 39.9 75.0117 39.9C76.0317 39.9 76.9151 40.15 77.6617 40.65C78.4151 41.1433 78.9984 41.82 79.4117 42.68C79.8251 43.5333 80.0317 44.5067 80.0317 45.6C80.0317 46.68 79.8284 47.65 79.4217 48.51C79.0151 49.37 78.4417 50.05 77.7017 50.55C76.9617 51.05 76.0951 51.3 75.1017 51.3ZM69.8917 55.8V40.2H72.0217V47.78H72.3217V55.8H69.8917ZM74.7317 49.14C75.3584 49.14 75.8751 48.9833 76.2817 48.67C76.6884 48.3567 76.9884 47.9333 77.1817 47.4C77.3817 46.86 77.4817 46.26 77.4817 45.6C77.4817 44.9467 77.3817 44.3533 77.1817 43.82C76.9817 43.28 76.6717 42.8533 76.2517 42.54C75.8317 42.22 75.2984 42.06 74.6517 42.06C74.0384 42.06 73.5384 42.21 73.1517 42.51C72.7651 42.8033 72.4784 43.2167 72.2917 43.75C72.1117 44.2767 72.0217 44.8933 72.0217 45.6C72.0217 46.3 72.1117 46.9167 72.2917 47.45C72.4784 47.9833 72.7684 48.4 73.1617 48.7C73.5617 48.9933 74.0851 49.14 74.7317 49.14ZM82.2159 51V40.2H91.5959V51H89.1859V42.46H84.6259V51H82.2159ZM99.1739 51.3C98.0939 51.3 97.1506 51.0567 96.3439 50.57C95.5372 50.0833 94.9106 49.4133 94.4639 48.56C94.0239 47.7 93.8039 46.7133 93.8039 45.6C93.8039 44.4667 94.0306 43.4733 94.4839 42.62C94.9372 41.7667 95.5672 41.1 96.3739 40.62C97.1806 40.14 98.1139 39.9 99.1739 39.9C100.261 39.9 101.207 40.1433 102.014 40.63C102.821 41.1167 103.447 41.79 103.894 42.65C104.341 43.5033 104.564 44.4867 104.564 45.6C104.564 46.72 104.337 47.71 103.884 48.57C103.437 49.4233 102.811 50.0933 102.004 50.58C101.197 51.06 100.254 51.3 99.1739 51.3ZM99.1739 49.04C100.134 49.04 100.847 48.72 101.314 48.08C101.781 47.44 102.014 46.6133 102.014 45.6C102.014 44.5533 101.777 43.72 101.304 43.1C100.831 42.4733 100.121 42.16 99.1739 42.16C98.5272 42.16 97.9939 42.3067 97.5739 42.6C97.1606 42.8867 96.8539 43.29 96.6539 43.81C96.4539 44.3233 96.3539 44.92 96.3539 45.6C96.3539 46.6467 96.5906 47.4833 97.0639 48.11C97.5439 48.73 98.2472 49.04 99.1739 49.04ZM111.957 51.3C110.904 51.3 110.021 51.05 109.307 50.55C108.594 50.05 108.057 49.37 107.697 48.51C107.337 47.6433 107.157 46.6733 107.157 45.6C107.157 44.5133 107.337 43.54 107.697 42.68C108.057 41.82 108.584 41.1433 109.277 40.65C109.977 40.15 110.841 39.9 111.867 39.9C112.887 39.9 113.771 40.15 114.517 40.65C115.271 41.1433 115.854 41.82 116.267 42.68C116.681 43.5333 116.887 44.5067 116.887 45.6C116.887 46.68 116.684 47.65 116.277 48.51C115.871 49.37 115.297 50.05 114.557 50.55C113.817 51.05 112.951 51.3 111.957 51.3ZM106.747 55.8V40.2H108.877V47.78H109.177V55.8H106.747ZM111.587 49.14C112.214 49.14 112.731 48.9833 113.137 48.67C113.544 48.3567 113.844 47.9333 114.037 47.4C114.237 46.86 114.337 46.26 114.337 45.6C114.337 44.9467 114.237 44.3533 114.037 43.82C113.837 43.28 113.527 42.8533 113.107 42.54C112.687 42.22 112.154 42.06 111.507 42.06C110.894 42.06 110.394 42.21 110.007 42.51C109.621 42.8033 109.334 43.2167 109.147 43.75C108.967 44.2767 108.877 44.8933 108.877 45.6C108.877 46.3 108.967 46.9167 109.147 47.45C109.334 47.9833 109.624 48.4 110.017 48.7C110.417 48.9933 110.941 49.14 111.587 49.14ZM122.111 51.3C121.331 51.3 120.671 51.1533 120.131 50.86C119.591 50.56 119.181 50.1633 118.901 49.67C118.628 49.1767 118.491 48.6333 118.491 48.04C118.491 47.52 118.578 47.0533 118.751 46.64C118.925 46.22 119.191 45.86 119.551 45.56C119.911 45.2533 120.378 45.0033 120.951 44.81C121.385 44.67 121.891 44.5433 122.471 44.43C123.058 44.3167 123.691 44.2133 124.371 44.12C125.058 44.02 125.775 43.9133 126.521 43.8L125.661 44.29C125.668 43.5433 125.501 42.9933 125.161 42.64C124.821 42.2867 124.248 42.11 123.441 42.11C122.955 42.11 122.485 42.2233 122.031 42.45C121.578 42.6767 121.261 43.0667 121.081 43.62L118.881 42.93C119.148 42.0167 119.655 41.2833 120.401 40.73C121.155 40.1767 122.168 39.9 123.441 39.9C124.401 39.9 125.245 40.0567 125.971 40.37C126.705 40.6833 127.248 41.1967 127.601 41.91C127.795 42.29 127.911 42.68 127.951 43.08C127.991 43.4733 128.011 43.9033 128.011 44.37V51H125.901V48.66L126.251 49.04C125.765 49.82 125.195 50.3933 124.541 50.76C123.895 51.12 123.085 51.3 122.111 51.3ZM122.591 49.38C123.138 49.38 123.605 49.2833 123.991 49.09C124.378 48.8967 124.685 48.66 124.911 48.38C125.145 48.1 125.301 47.8367 125.381 47.59C125.508 47.2833 125.578 46.9333 125.591 46.54C125.611 46.14 125.621 45.8167 125.621 45.57L126.361 45.79C125.635 45.9033 125.011 46.0033 124.491 46.09C123.971 46.1767 123.525 46.26 123.151 46.34C122.778 46.4133 122.448 46.4967 122.161 46.59C121.881 46.69 121.645 46.8067 121.451 46.94C121.258 47.0733 121.108 47.2267 121.001 47.4C120.901 47.5733 120.851 47.7767 120.851 48.01C120.851 48.2767 120.918 48.5133 121.051 48.72C121.185 48.92 121.378 49.08 121.631 49.2C121.891 49.32 122.211 49.38 122.591 49.38ZM133.325 51V42.34H129.715V40.2H139.345V42.34H135.735V51H133.325ZM150.6 40.2V51H148.29V43.95L143.15 51H141.22V40.2H143.53V47.07L148.69 40.2H150.6ZM153.388 51V40.2H158.298C158.651 40.2 158.981 40.22 159.288 40.26C159.594 40.3 159.858 40.35 160.078 40.41C160.598 40.5633 161.058 40.8633 161.458 41.31C161.858 41.75 162.058 42.36 162.058 43.14C162.058 43.6 161.984 43.98 161.838 44.28C161.691 44.5733 161.498 44.82 161.258 45.02C161.144 45.1133 161.028 45.1933 160.908 45.26C160.788 45.3267 160.668 45.38 160.548 45.42C160.808 45.46 161.054 45.5367 161.288 45.65C161.654 45.83 161.961 46.0967 162.208 46.45C162.461 46.8033 162.588 47.3 162.588 47.94C162.588 48.6667 162.411 49.28 162.058 49.78C161.711 50.2733 161.201 50.6167 160.528 50.81C160.281 50.8767 159.998 50.9267 159.678 50.96C159.358 50.9867 159.031 51 158.698 51H153.388ZM155.828 49.14H158.528C158.668 49.14 158.821 49.1267 158.988 49.1C159.154 49.0733 159.304 49.0367 159.438 48.99C159.678 48.9033 159.851 48.75 159.958 48.53C160.071 48.31 160.128 48.08 160.128 47.84C160.128 47.5133 160.044 47.2533 159.878 47.06C159.718 46.86 159.524 46.7267 159.298 46.66C159.164 46.6067 159.018 46.5767 158.858 46.57C158.704 46.5567 158.578 46.55 158.478 46.55H155.828V49.14ZM155.828 44.66H157.828C158.034 44.66 158.234 44.65 158.428 44.63C158.628 44.6033 158.794 44.56 158.928 44.5C159.148 44.4133 159.308 44.2667 159.408 44.06C159.514 43.8533 159.568 43.6233 159.568 43.37C159.568 43.1033 159.508 42.8633 159.388 42.65C159.274 42.43 159.091 42.2833 158.838 42.21C158.671 42.1433 158.468 42.1067 158.228 42.1C157.994 42.0933 157.844 42.09 157.778 42.09H155.828V44.66ZM164.57 51L164.56 40.2H166.97V43.8H168.18C168.48 43.8 168.816 43.8067 169.19 43.82C169.57 43.8333 169.886 43.8633 170.14 43.91C170.746 44.0433 171.263 44.2567 171.69 44.55C172.123 44.8433 172.453 45.2267 172.68 45.7C172.906 46.1733 173.02 46.7433 173.02 47.41C173.02 48.3633 172.773 49.1267 172.28 49.7C171.786 50.2667 171.096 50.6533 170.21 50.86C169.95 50.92 169.626 50.96 169.24 50.98C168.853 50.9933 168.51 51 168.21 51H164.57ZM166.97 49.11H168.42C168.566 49.11 168.73 49.1033 168.91 49.09C169.09 49.0767 169.26 49.0467 169.42 49C169.72 48.92 169.986 48.74 170.22 48.46C170.453 48.1733 170.57 47.8233 170.57 47.41C170.57 46.9767 170.453 46.62 170.22 46.34C169.986 46.06 169.7 45.8767 169.36 45.79C169.2 45.75 169.036 45.7233 168.87 45.71C168.71 45.6967 168.56 45.69 168.42 45.69H166.97V49.11ZM174.15 51V40.2H176.56V51H174.15Z" fill="#3D5E38"/>
<path d="M274.088 201.756C294.604 155.207 360.086 176.117 372.05 201.372L341.906 390.75L126 356.383L142.089 255.302C157.543 158.216 214.55 190.365 226.48 214.66C238.41 238.956 253.572 248.304 274.088 201.756Z" stroke="#FFFFC0" stroke-width="2" stroke-dasharray="11 11"/>
<g clip-path="url(#clip1_1142_5858)">
<path fill-rule="evenodd" clip-rule="evenodd" d="M477.571 48.4004C480.762 48.0452 483.158 45.259 482.986 42.0143C482.807 38.6487 479.932 36.0644 476.563 36.242C475.507 36.2978 474.51 36.5714 473.886 36.7606C473.151 36.9834 472.365 37.2699 471.581 37.5824C470.006 38.2102 468.189 39.044 466.364 39.9673C462.862 41.7398 458.662 44.1814 456.027 46.5145C453.503 48.7491 453.27 52.6059 455.507 55.1288C457.745 57.6517 461.605 57.8853 464.128 55.6505C465.541 54.3996 468.579 52.5294 471.886 50.8554C473.467 50.0556 474.946 49.3823 476.11 48.9186C476.695 48.6854 477.138 48.5301 477.436 48.4397C477.491 48.4229 477.536 48.41 477.571 48.4004ZM431.139 29.5126C427.83 28.8604 424.619 31.0123 423.967 34.3189C423.316 37.6255 425.47 40.8346 428.78 41.4868C430.46 41.8178 432.446 42.9324 434.452 44.8243C436.424 46.6831 438.015 48.9213 438.953 50.7602C440.484 53.7636 444.161 54.9586 447.166 53.4294C450.172 51.9003 451.366 48.2259 449.835 45.2225C448.282 42.1763 445.857 38.7993 442.834 35.9488C439.846 33.1315 435.86 30.4429 431.139 29.5126ZM435.621 68.7171C438.984 68.9705 441.915 66.4514 442.168 63.0907C442.42 59.73 439.899 56.8002 436.535 56.5468C427.104 55.8366 418.64 59.9181 413.901 64.1743C411.392 66.4266 411.187 70.285 413.442 72.792C415.696 75.299 419.558 75.5054 422.066 73.2529C424.758 70.835 430.048 68.2975 435.621 68.7171ZM464.038 62.0593C460.937 60.7329 457.348 62.1695 456.022 65.2678C454.695 68.3661 456.134 71.953 459.235 73.2793C465.103 75.789 468.977 80.2581 470.859 83.3389C472.616 86.2161 476.374 87.1258 479.253 85.3706C482.132 83.6156 483.041 79.8603 481.284 76.9831C478.459 72.3588 472.832 65.8203 464.038 62.0593ZM448.55 66.7094C451.859 67.3615 454.014 70.5707 453.362 73.8772L450.503 88.3876C449.851 91.6942 446.64 93.8459 443.331 93.1938C440.022 92.5417 437.867 89.3326 438.519 86.026L441.378 71.5157C442.03 68.2091 445.241 66.0572 448.55 66.7094ZM394.912 26.182C395.564 22.8754 393.409 19.6662 390.1 19.0141C386.791 18.362 383.58 20.5139 382.929 23.8204L382.239 27.3216L378.471 24.9682C375.61 23.1817 371.843 24.0501 370.056 26.908C368.269 29.7658 369.139 33.5307 371.999 35.3173L376.468 38.1079L372.089 42.1124C369.602 44.3875 369.431 48.2476 371.709 50.734C373.987 53.2205 377.85 53.3917 380.337 51.1166L384.53 47.2821L386.954 52.4205C388.393 55.4693 392.032 56.7764 395.082 55.3399C398.133 53.9035 399.44 50.2675 398.001 47.2187L395.47 41.8525L400.663 40.9657C403.987 40.3979 406.22 37.2446 405.651 33.9225C405.082 30.6004 401.926 28.3675 398.601 28.9352L394.222 29.6831L394.912 26.182ZM346.568 91.0168L352.961 70.3138L366.888 73.0583L364.949 94.6391L346.568 91.0168ZM332.897 93.8912L341.953 64.5673C342.634 61.7836 344.507 59.9392 346.251 58.9321C347.943 57.9544 350.235 57.3373 352.563 57.7961L372.006 61.6277C374.252 62.0701 376.436 63.3047 377.874 65.4466C379.229 67.4654 379.587 69.7914 379.253 71.9307L376.509 102.47L376.508 102.485L375.191 117.148C374.953 126.544 369.01 133.828 360.368 136.939C358.013 137.787 355.561 138.261 353.102 138.378L351.393 147.05L353.965 147.557C357.274 148.209 359.428 151.418 358.777 154.725C358.125 158.031 354.914 160.183 351.605 159.531L334.477 156.156C331.168 155.504 329.014 152.295 329.665 148.988C330.317 145.681 333.528 143.53 336.837 144.182L339.409 144.688L341.109 136.061C338.813 135.01 336.664 133.613 334.759 131.892C334.687 131.828 334.617 131.761 334.548 131.693C328.399 125.582 325.953 116.811 328.465 108.243L328.49 108.16L332.893 93.9046L332.897 93.8912ZM411.048 107.684C408.159 106.311 404.704 107.537 403.33 110.423C401.956 113.308 403.184 116.761 406.072 118.136C407.539 118.833 409.103 120.322 410.504 122.53C411.879 124.7 412.817 127.128 413.248 129.038C413.951 132.156 417.051 134.115 420.171 133.413C423.292 132.711 425.251 129.615 424.548 126.496C423.834 123.334 422.397 119.663 420.286 116.336C418.201 113.048 415.168 109.644 411.048 107.684ZM413.312 141.121C412.293 144.15 409.008 145.779 405.977 144.759C400.954 143.069 395.498 144.162 392.456 145.754C389.623 147.237 386.123 146.144 384.638 143.312C383.154 140.481 384.247 136.983 387.08 135.501C392.433 132.699 401.169 130.929 409.67 133.789C412.701 134.809 414.333 138.092 413.312 141.121ZM455.767 131.307C455.164 134.329 452.308 136.328 449.293 135.908C449.259 135.909 449.214 135.91 449.16 135.912C448.865 135.926 448.421 135.965 447.829 136.042C446.651 136.196 445.133 136.468 443.493 136.833C440.061 137.597 436.831 138.605 435.239 139.424C432.396 140.886 428.903 139.768 427.439 136.927C425.974 134.085 427.092 130.595 429.935 129.133C432.904 127.606 437.337 126.345 440.971 125.536C442.863 125.114 444.729 124.774 446.324 124.566C447.118 124.461 447.907 124.382 448.635 124.35C449.253 124.322 450.233 124.303 451.217 124.5C454.354 125.125 456.391 128.173 455.767 131.307ZM425.534 146.364C427.48 143.828 431.115 143.348 433.654 145.292C440.854 150.807 444.494 158.131 446.006 163.042C446.946 166.097 445.231 169.335 442.173 170.274C439.116 171.213 435.875 169.498 434.935 166.442C433.927 163.171 431.414 158.158 426.61 154.478C424.071 152.533 423.589 148.901 425.534 146.364ZM421.072 153.653C422.447 150.767 421.219 147.313 418.33 145.94C415.441 144.566 411.986 145.792 410.613 148.678L404.583 161.342C403.21 164.228 404.437 167.681 407.326 169.055C410.214 170.429 413.67 169.203 415.044 166.317L421.072 153.653Z" fill="#FFFFC0"/>
</g>
<path d="M479.163 49.7152C386.252 70.3814 345.194 -51.5089 370.004 -97.5365L688.9 -262L876.402 101.567L706.189 189.351C542.705 273.664 527.983 152.094 551.385 107.18C574.787 62.2666 572.074 29.0489 479.163 49.7152Z" stroke="#FFFFC0" stroke-width="2" stroke-dasharray="11 11"/>
<g clip-path="url(#clip2_1142_5858)">
<path d="M44.34 118.808C44.34 118.808 39.8507 111.328 34.1454 109.654C34.1454 109.654 22.4487 114.552 18.6075 125.106C18.6075 125.106 17.2801 128.094 17.0271 132.538C16.9355 134.128 16.5065 135.701 15.3019 136.749C15.278 136.765 15.2586 136.792 15.2348 136.808C16.682 136.135 18.9846 136.906 20.4174 137.613C24.2264 139.501 27.857 139.154 27.857 139.154C37.4403 140.297 48.2531 131.144 48.2531 131.144C48.8479 126.538 45.7308 121.006 44.3356 118.798L44.34 118.808Z" fill="#FFFFC0"/>
<path d="M45.0142 124.416C46.7812 128.723 46.8764 132.234 46.8764 132.234L49.4845 130.261L49.061 118.701L44.2693 113.052L39.0877 109.447L35.2941 109.099L33.1314 110.194C33.1314 110.194 37.5992 112.955 42.1823 119.303C42.9959 120.428 43.6716 121.575 44.2234 122.688C41.3037 124.748 37.8792 126.653 34.5519 128.425C36.8522 128.403 41.9018 126.337 45.0082 124.431L45.0142 124.416Z" fill="#FFFFC0"/>
<path d="M54.3678 112.916C54.5551 111.219 56.749 110.111 56.749 110.111L56.7524 110.06L56.8 110.028L56.7484 110.007L56.7436 109.514L56.3045 109.808L56.2529 109.787C56.2529 109.787 54.3572 111.344 52.7245 110.831C51.0991 110.32 46.3977 103.967 40.2947 104.188C34.1918 104.41 33.115 109.498 33.115 109.498C38.3232 110.073 43.7889 118.85 43.7889 118.85C45.02 120.68 49.0906 127.249 47.7616 131.502C47.7616 131.502 52.7772 132.463 55.4427 126.966C58.1081 121.469 54.1762 114.604 54.3635 112.906L54.3678 112.916Z" fill="#FFFFC0"/>
<path d="M46.135 108.329C46.1458 108.093 45.9772 107.894 45.7496 107.861C44.6542 107.697 41.6871 107.265 41.2961 107.294C40.9481 107.324 40.4224 109.848 40.1487 111.252C40.0512 111.763 40.3846 112.253 40.899 112.343C42.439 112.621 45.3848 113.104 45.6322 112.731C45.9093 112.328 46.0771 109.417 46.135 108.329Z" fill="#748A5B"/>
<path d="M45.7117 114.745C45.7171 114.627 45.638 114.525 45.5153 114.51C44.9697 114.433 43.4841 114.211 43.2886 114.226C43.1182 114.242 42.8517 115.503 42.7185 116.206C42.6661 116.46 42.8417 116.705 43.0989 116.75C43.8673 116.892 45.3396 117.125 45.4655 116.944C45.6004 116.741 45.6879 115.287 45.7147 114.738L45.7117 114.745Z" fill="#FFFFC0"/>
<path d="M50.4342 116.421C50.4604 116.294 50.3739 116.19 50.2378 116.186C49.5896 116.17 47.8493 116.129 47.6166 116.171C47.409 116.216 46.9117 117.64 46.6565 118.431C46.5638 118.72 46.729 118.969 47.0338 118.982C47.9348 119.032 49.663 119.103 49.8395 118.882C50.0324 118.643 50.336 117.018 50.4446 116.417L50.4342 116.421Z" fill="#FFFFC0"/>
<path d="M50.5561 111.898C50.5925 111.62 50.4125 111.365 50.1406 111.314C49.3353 111.156 47.8163 111.016 47.4348 111.506C47.1057 111.931 46.9637 112.993 46.9067 113.615C46.8838 113.882 47.0697 114.121 47.3343 114.17C47.9713 114.275 49.1097 114.44 49.615 114.363C50.1486 114.28 50.4414 112.703 50.5457 111.902L50.5561 111.898Z" fill="#FFFFC0"/>
<path d="M54.4828 113.687C54.5685 115.307 54.5017 119.612 51.4991 121.138C48.284 122.784 46.0776 122.01 45.5261 121.758C47.0334 124.555 48.6979 128.544 47.772 131.498C47.772 131.498 52.7876 132.459 55.4531 126.962C57.8581 121.995 54.9427 116.055 54.4858 113.68L54.4828 113.687Z" fill="#FFFFC0"/>
<path d="M30.8787 123.199C31.9068 121.846 32.4465 120.129 31.9613 118.854C31.476 117.578 29.8175 116.959 28.3162 117.722L27.6089 118.061C25.8719 119.589 24.3342 121.345 23.0782 123.234C22.4517 124.174 21.8727 125.272 22.1288 126.161C22.3531 126.959 23.2187 127.348 24.1338 127.301C25.0489 127.254 25.9981 126.85 26.8916 126.372C28.3872 125.581 29.8507 124.552 30.8818 123.192L30.8787 123.199Z" fill="#748A5B"/>
<g opacity="0.84">
<path d="M43.4993 105.07C43.4751 105.129 42.9095 104.975 41.9777 104.895C41.0459 104.815 39.7371 104.856 38.3835 105.3C37.033 105.738 35.9448 106.48 35.2397 107.087C34.5315 107.702 34.1695 108.165 34.1165 108.126C34.0753 108.1 34.3639 107.564 35.0446 106.87C35.7149 106.18 36.8333 105.363 38.2566 104.895C39.68 104.427 41.0638 104.434 42.0157 104.592C42.975 104.752 43.5234 105.011 43.5053 105.056L43.4993 105.07Z" fill="white"/>
</g>
<path d="M35.1835 115.109C34.8528 114.655 34.3264 114.405 33.7739 114.282L33.8034 114.294C33.737 114.267 33.6676 114.247 33.5996 114.245C33.5627 114.23 33.5271 114.232 33.4872 114.225L33.5922 114.242C33.2622 114.227 32.9245 114.442 32.6665 114.672C32.3518 114.957 32.2222 115.421 32.3386 115.83C32.5027 116.397 33.0682 116.74 33.6321 116.92C34.0824 117.061 34.6088 117.122 35.0002 116.86C35.545 116.498 35.5772 115.641 35.1939 115.105L35.1835 115.109Z" fill="#FAFAFA"/>
</g>
<path d="M109.437 110.469C109.437 110.469 91.0161 115.359 83.9342 125.227C83.9342 125.227 86.7981 149.32 106.403 161.369C106.403 161.369 111.809 165.235 120.91 167.77C124.175 168.679 127.174 170.209 128.629 172.941C128.653 172.997 128.679 173.043 128.715 173.101C128.224 170.093 131.281 166.155 133.648 163.813C139.979 157.581 141.542 150.649 141.542 150.649C149.939 133.314 137.648 108.896 137.648 108.896C128.422 105.649 114.92 108.89 109.437 110.469Z" fill="#FFFFC0"/>
<path d="M120.989 112.021C131.19 110.71 138.643 112.18 138.643 112.18L136.138 106.337L111.512 101.696L96.5675 108.078L85.6806 116.159L82.5337 123.164L83.4785 127.761C83.4785 127.761 92.133 120.618 108.41 114.955C111.302 113.949 114.136 113.217 116.842 112.686C119.333 119.168 121.164 126.523 122.794 133.624C124.206 129.277 123.057 118.775 121.003 112.011L120.989 112.021Z" fill="#FFFFC0"/>
<path d="M102.404 89.2461C98.9607 88.1067 98.0189 83.4831 98.0189 83.4831L97.9126 83.4699L97.8782 83.347L97.7989 83.4342L96.7678 83.209L97.1067 84.1783L97.0275 84.2655C97.0275 84.2655 99.0955 88.5547 96.9924 91.3659C94.8892 94.1771 78.5833 100.021 75.1946 111.588C71.8081 123.145 81.8085 127.536 81.8085 127.536C86.306 118.047 108.187 111.872 108.187 111.872L108.192 111.851C112.816 110.41 129.179 105.835 137.255 110.321C137.255 110.321 142.452 101.361 132.595 93.7965C122.738 86.2321 105.854 90.4081 102.413 89.2581L102.404 89.2461Z" fill="#FFFFC0"/>
<path d="M87.3476 102.193C86.8693 102.058 86.3386 102.282 86.1178 102.695C85.083 104.659 82.3109 110.013 82.129 110.752C81.9767 111.41 86.9106 113.579 89.6719 114.727C90.6819 115.142 91.913 114.748 92.4218 113.834C93.9716 111.097 96.8267 105.807 96.2134 105.173C95.5408 104.477 89.5602 102.8 87.3241 102.19L87.3476 102.193Z" fill="#FFFFC0"/>
<path d="M100.746 106.212C100.505 106.15 100.241 106.257 100.138 106.458C99.625 107.447 98.2341 110.118 98.142 110.493C98.0706 110.827 100.533 111.906 101.921 112.476C102.419 112.688 103.041 112.486 103.297 112.024C104.073 110.65 105.504 108.016 105.197 107.699C104.862 107.346 101.877 106.514 100.757 106.213L100.746 106.212Z" fill="#FFFFC0"/>
<path d="M107.165 98.4269C106.911 98.3205 106.646 98.4372 106.558 98.6828C106.125 99.8692 104.943 103.101 104.881 103.564C104.829 103.974 107.498 105.547 108.987 106.395C109.533 106.709 110.14 106.506 110.366 105.957C111.03 104.307 112.26 101.125 111.907 100.696C111.526 100.231 108.348 98.9056 107.165 98.4269Z" fill="#FFFFC0"/>
<path d="M97.4967 95.9296C96.9482 95.7328 96.3011 95.9417 96.0159 96.4314C95.1787 97.8704 93.9391 100.631 94.7164 101.564C95.3986 102.377 97.5268 103.135 98.7832 103.516C99.3267 103.68 99.9548 103.447 100.212 102.975C100.842 101.832 101.89 99.7977 102.038 98.8195C102.2 97.7787 99.0954 96.5141 97.4967 95.9296Z" fill="#748A5B"/>
<path d="M104.015 89.7593C107.493 90.3553 116.507 92.5092 117.84 98.8928C119.258 105.732 116.233 109.533 115.376 110.468C122.227 108.945 131.691 107.672 137.33 110.816C137.33 110.816 142.549 101.798 132.65 94.184C123.703 87.3075 109.341 90.0214 104.039 89.7622L104.015 89.7593Z" fill="#FFFFC0"/>
<path d="M110.169 137.374C107.989 134.821 104.744 133.024 101.783 133.342C98.8226 133.66 96.4902 136.457 97.1288 139.623L97.394 141.092C99.4933 145.04 102.192 148.72 105.339 151.94C106.902 153.539 108.841 155.13 110.853 155.08C112.646 155.035 114.014 153.597 114.489 151.877C114.965 150.157 114.722 148.187 114.292 146.301C113.579 143.147 112.346 139.939 110.167 137.385L110.169 137.374Z" fill="#748A5B"/>
<g opacity="0.84">
<path d="M78.9828 105.39C79.0642 105.432 78.3627 106.411 77.6059 108.105C76.8404 109.789 76.0943 112.261 76.1081 114.983C76.122 117.706 76.9086 120.054 77.7067 121.627C78.4915 123.21 79.208 124.072 79.1282 124.126C79.1016 124.144 78.882 123.958 78.5577 123.579C78.2223 123.199 77.7867 122.604 77.3369 121.817C76.4327 120.263 75.5472 117.85 75.5317 115.031C75.5052 112.211 76.3578 109.667 77.2381 107.976C77.6739 107.125 78.1019 106.464 78.4224 106.035C78.7453 105.596 78.952 105.376 78.9805 105.401L78.9828 105.39Z" fill="#748A5B"/>
</g>
</g>
<defs>
<clipPath id="clip0_1142_5858">
<rect width="540" height="200" rx="16" fill="white"/>
</clipPath>
<clipPath id="clip1_1142_5858">
<rect width="146.571" height="146.453" fill="white" transform="translate(347.316 10) rotate(11.1479)"/>
</clipPath>
<clipPath id="clip2_1142_5858">
<rect width="34.8309" height="41" fill="white" transform="translate(29.5426 98.3708) rotate(22.2772)"/>
</clipPath>
</defs>
</svg>
