<svg width="307" height="200" viewBox="0 0 307 200" fill="none" xmlns="http://www.w3.org/2000/svg">
<g clip-path="url(#clip0_1142_7237)">
<rect width="307" height="200" rx="20" fill="#748A5B"/>
<path d="M93.0053 5.06745C83.6783 55.074 15.1495 49.6934 -2.27305 27.8442L-16.2376 -163.408L201.806 -179.329L209.26 -77.2472C216.419 20.8001 153.571 2.54044 136.4 -18.383C119.23 -39.3065 102.332 -44.9391 93.0053 5.06745Z" stroke="#FFFFC0" stroke-width="2" stroke-dasharray="11 11"/>
<rect x="20" y="20" width="156" height="42" rx="14" fill="white"/>
<path d="M45.12 47V35.48H47.048V40.824L51.648 35.48H54.016L49.064 41.128L54.352 47H51.904L47.048 41.624V47H45.12ZM58.6548 47.24C57.7908 47.24 57.0361 47.0453 56.3908 46.656C55.7454 46.2667 55.2441 45.7307 54.8868 45.048C54.5348 44.36 54.3588 43.5707 54.3588 42.68C54.3588 41.7733 54.5401 40.9787 54.9028 40.296C55.2654 39.6133 55.7694 39.08 56.4148 38.696C57.0601 38.312 57.8068 38.12 58.6548 38.12C59.5241 38.12 60.2814 38.3147 60.9268 38.704C61.5721 39.0933 62.0734 39.632 62.4308 40.32C62.7881 41.0027 62.9668 41.7893 62.9668 42.68C62.9668 43.576 62.7854 44.368 62.4228 45.056C62.0654 45.7387 61.5641 46.2747 60.9188 46.664C60.2734 47.048 59.5188 47.24 58.6548 47.24ZM58.6548 45.432C59.4228 45.432 59.9934 45.176 60.3668 44.664C60.7401 44.152 60.9268 43.4907 60.9268 42.68C60.9268 41.8427 60.7374 41.176 60.3588 40.68C59.9801 40.1787 59.4121 39.928 58.6548 39.928C58.1374 39.928 57.7108 40.0453 57.3748 40.28C57.0441 40.5093 56.7988 40.832 56.6388 41.248C56.4788 41.6587 56.3988 42.136 56.3988 42.68C56.3988 43.5173 56.5881 44.1867 56.9668 44.688C57.3508 45.184 57.9134 45.432 58.6548 45.432ZM68.8814 47.24C68.0387 47.24 67.332 47.04 66.7614 46.64C66.1907 46.24 65.7614 45.696 65.4734 45.008C65.1854 44.3147 65.0414 43.5387 65.0414 42.68C65.0414 41.8107 65.1854 41.032 65.4734 40.344C65.7614 39.656 66.1827 39.1147 66.7374 38.72C67.2974 38.32 67.988 38.12 68.8094 38.12C69.6254 38.12 70.332 38.32 70.9294 38.72C71.532 39.1147 71.9987 39.656 72.3294 40.344C72.66 41.0267 72.8254 41.8053 72.8254 42.68C72.8254 43.544 72.6627 44.32 72.3374 45.008C72.012 45.696 71.5534 46.24 70.9614 46.64C70.3694 47.04 69.676 47.24 68.8814 47.24ZM64.7134 50.84V38.36H66.4174V44.424H66.6574V50.84H64.7134ZM68.5854 45.512C69.0867 45.512 69.5 45.3867 69.8254 45.136C70.1507 44.8853 70.3907 44.5467 70.5454 44.12C70.7054 43.688 70.7854 43.208 70.7854 42.68C70.7854 42.1573 70.7054 41.6827 70.5454 41.256C70.3854 40.824 70.1374 40.4827 69.8014 40.232C69.4654 39.976 69.0387 39.848 68.5214 39.848C68.0307 39.848 67.6307 39.968 67.3214 40.208C67.012 40.4427 66.7827 40.7733 66.6334 41.2C66.4894 41.6213 66.4174 42.1147 66.4174 42.68C66.4174 43.24 66.4894 43.7333 66.6334 44.16C66.7827 44.5867 67.0147 44.92 67.3294 45.16C67.6494 45.3947 68.068 45.512 68.5854 45.512ZM74.5728 47V38.36H82.0768V47H80.1488V40.168H76.5008V47H74.5728ZM88.1391 47.24C87.2751 47.24 86.5205 47.0453 85.8751 46.656C85.2298 46.2667 84.7285 45.7307 84.3711 45.048C84.0191 44.36 83.8431 43.5707 83.8431 42.68C83.8431 41.7733 84.0245 40.9787 84.3871 40.296C84.7498 39.6133 85.2538 39.08 85.8991 38.696C86.5445 38.312 87.2911 38.12 88.1391 38.12C89.0085 38.12 89.7658 38.3147 90.4111 38.704C91.0565 39.0933 91.5578 39.632 91.9151 40.32C92.2725 41.0027 92.4511 41.7893 92.4511 42.68C92.4511 43.576 92.2698 44.368 91.9071 45.056C91.5498 45.7387 91.0485 46.2747 90.4031 46.664C89.7578 47.048 89.0031 47.24 88.1391 47.24ZM88.1391 45.432C88.9071 45.432 89.4778 45.176 89.8511 44.664C90.2245 44.152 90.4111 43.4907 90.4111 42.68C90.4111 41.8427 90.2218 41.176 89.8431 40.68C89.4645 40.1787 88.8965 39.928 88.1391 39.928C87.6218 39.928 87.1951 40.0453 86.8591 40.28C86.5285 40.5093 86.2831 40.832 86.1231 41.248C85.9631 41.6587 85.8831 42.136 85.8831 42.68C85.8831 43.5173 86.0725 44.1867 86.4511 44.688C86.8351 45.184 87.3978 45.432 88.1391 45.432ZM98.3658 47.24C97.5231 47.24 96.8164 47.04 96.2458 46.64C95.6751 46.24 95.2458 45.696 94.9578 45.008C94.6698 44.3147 94.5258 43.5387 94.5258 42.68C94.5258 41.8107 94.6698 41.032 94.9578 40.344C95.2458 39.656 95.6671 39.1147 96.2218 38.72C96.7818 38.32 97.4724 38.12 98.2938 38.12C99.1098 38.12 99.8164 38.32 100.414 38.72C101.016 39.1147 101.483 39.656 101.814 40.344C102.144 41.0267 102.31 41.8053 102.31 42.68C102.31 43.544 102.147 44.32 101.822 45.008C101.496 45.696 101.038 46.24 100.446 46.64C99.8538 47.04 99.1604 47.24 98.3658 47.24ZM94.1978 50.84V38.36H95.9018V44.424H96.1418V50.84H94.1978ZM98.0698 45.512C98.5711 45.512 98.9844 45.3867 99.3098 45.136C99.6351 44.8853 99.8751 44.5467 100.03 44.12C100.19 43.688 100.27 43.208 100.27 42.68C100.27 42.1573 100.19 41.6827 100.03 41.256C99.8698 40.824 99.6218 40.4827 99.2858 40.232C98.9498 39.976 98.5231 39.848 98.0058 39.848C97.5151 39.848 97.1151 39.968 96.8058 40.208C96.4964 40.4427 96.2671 40.7733 96.1178 41.2C95.9738 41.6213 95.9018 42.1147 95.9018 42.68C95.9018 43.24 95.9738 43.7333 96.1178 44.16C96.2671 44.5867 96.4991 44.92 96.8138 45.16C97.1338 45.3947 97.5524 45.512 98.0698 45.512ZM106.489 47.24C105.865 47.24 105.337 47.1227 104.905 46.888C104.473 46.648 104.145 46.3307 103.921 45.936C103.702 45.5413 103.593 45.1067 103.593 44.632C103.593 44.216 103.662 43.8427 103.801 43.512C103.94 43.176 104.153 42.888 104.441 42.648C104.729 42.4027 105.102 42.2027 105.561 42.048C105.908 41.936 106.313 41.8347 106.777 41.744C107.246 41.6533 107.753 41.5707 108.297 41.496C108.846 41.416 109.42 41.3307 110.017 41.24L109.329 41.632C109.334 41.0347 109.201 40.5947 108.929 40.312C108.657 40.0293 108.198 39.888 107.553 39.888C107.164 39.888 106.788 39.9787 106.425 40.16C106.062 40.3413 105.809 40.6533 105.665 41.096L103.905 40.544C104.118 39.8133 104.524 39.2267 105.121 38.784C105.724 38.3413 106.534 38.12 107.553 38.12C108.321 38.12 108.996 38.2453 109.577 38.496C110.164 38.7467 110.598 39.1573 110.881 39.728C111.036 40.032 111.129 40.344 111.161 40.664C111.193 40.9787 111.209 41.3227 111.209 41.696V47H109.521V45.128L109.801 45.432C109.412 46.056 108.956 46.5147 108.433 46.808C107.916 47.096 107.268 47.24 106.489 47.24ZM106.873 45.704C107.31 45.704 107.684 45.6267 107.993 45.472C108.302 45.3173 108.548 45.128 108.729 44.904C108.916 44.68 109.041 44.4693 109.105 44.272C109.206 44.0267 109.262 43.7467 109.273 43.432C109.289 43.112 109.297 42.8533 109.297 42.656L109.889 42.832C109.308 42.9227 108.809 43.0027 108.393 43.072C107.977 43.1413 107.62 43.208 107.321 43.272C107.022 43.3307 106.758 43.3973 106.529 43.472C106.305 43.552 106.116 43.6453 105.961 43.752C105.806 43.8587 105.686 43.9813 105.601 44.12C105.521 44.2587 105.481 44.4213 105.481 44.608C105.481 44.8213 105.534 45.0107 105.641 45.176C105.748 45.336 105.902 45.464 106.105 45.56C106.313 45.656 106.569 45.704 106.873 45.704ZM115.46 47V40.072H112.572V38.36H120.276V40.072H117.388V47H115.46ZM129.28 38.36V47H127.432V41.36L123.32 47H121.776V38.36H123.624V43.856L127.752 38.36H129.28ZM131.51 47V38.36H135.438C135.721 38.36 135.985 38.376 136.23 38.408C136.476 38.44 136.686 38.48 136.862 38.528C137.278 38.6507 137.646 38.8907 137.966 39.248C138.286 39.6 138.446 40.088 138.446 40.712C138.446 41.08 138.388 41.384 138.27 41.624C138.153 41.8587 137.998 42.056 137.806 42.216C137.716 42.2907 137.622 42.3547 137.526 42.408C137.43 42.4613 137.334 42.504 137.238 42.536C137.446 42.568 137.644 42.6293 137.83 42.72C138.124 42.864 138.369 43.0773 138.566 43.36C138.769 43.6427 138.87 44.04 138.87 44.552C138.87 45.1333 138.729 45.624 138.446 46.024C138.169 46.4187 137.761 46.6933 137.222 46.848C137.025 46.9013 136.798 46.9413 136.542 46.968C136.286 46.9893 136.025 47 135.758 47H131.51ZM133.462 45.512H135.622C135.734 45.512 135.857 45.5013 135.99 45.48C136.124 45.4587 136.244 45.4293 136.35 45.392C136.542 45.3227 136.681 45.2 136.766 45.024C136.857 44.848 136.902 44.664 136.902 44.472C136.902 44.2107 136.836 44.0027 136.702 43.848C136.574 43.688 136.42 43.5813 136.238 43.528C136.132 43.4853 136.014 43.4613 135.886 43.456C135.764 43.4453 135.662 43.44 135.582 43.44H133.462V45.512ZM133.462 41.928H135.062C135.228 41.928 135.388 41.92 135.542 41.904C135.702 41.8827 135.836 41.848 135.942 41.8C136.118 41.7307 136.246 41.6133 136.326 41.448C136.412 41.2827 136.454 41.0987 136.454 40.896C136.454 40.6827 136.406 40.4907 136.31 40.32C136.22 40.144 136.073 40.0267 135.87 39.968C135.737 39.9147 135.574 39.8853 135.382 39.88C135.196 39.8747 135.076 39.872 135.022 39.872H133.462V41.928ZM140.456 47L140.448 38.36H142.376V41.24H143.344C143.584 41.24 143.853 41.2453 144.152 41.256C144.456 41.2667 144.709 41.2907 144.912 41.328C145.397 41.4347 145.81 41.6053 146.152 41.84C146.498 42.0747 146.762 42.3813 146.944 42.76C147.125 43.1387 147.216 43.5947 147.216 44.128C147.216 44.8907 147.018 45.5013 146.624 45.96C146.229 46.4133 145.677 46.7227 144.968 46.888C144.76 46.936 144.501 46.968 144.192 46.984C143.882 46.9947 143.608 47 143.368 47H140.456ZM142.376 45.488H143.536C143.653 45.488 143.784 45.4827 143.928 45.472C144.072 45.4613 144.208 45.4373 144.336 45.4C144.576 45.336 144.789 45.192 144.976 44.968C145.162 44.7387 145.256 44.4587 145.256 44.128C145.256 43.7813 145.162 43.496 144.976 43.272C144.789 43.048 144.56 42.9013 144.288 42.832C144.16 42.8 144.029 42.7787 143.896 42.768C143.768 42.7573 143.648 42.752 143.536 42.752H142.376V45.488ZM148.12 47V38.36H150.048V47H148.12Z" fill="#3D5E38"/>
<g clip-path="url(#clip1_1142_7237)">
<path d="M21.3911 126.253C21.3911 126.253 16.9018 118.772 11.1965 117.098C11.1965 117.098 -0.500149 121.996 -4.34139 132.55C-4.34139 132.55 -5.66871 135.538 -5.92172 139.982C-6.01337 141.573 -6.44235 143.146 -7.647 144.194C-7.67081 144.21 -7.69027 144.236 -7.71409 144.252C-6.26685 143.579 -3.96426 144.35 -2.53145 145.058C1.27752 146.945 4.90819 146.598 4.90819 146.598C14.4914 147.742 25.3043 138.588 25.3043 138.588C25.899 133.983 22.7819 128.451 21.3867 126.243L21.3911 126.253Z" fill="#FFFFC0"/>
<path d="M22.0653 131.861C23.8324 136.168 23.9276 139.678 23.9276 139.678L26.5356 137.706L26.1121 126.146L21.3205 120.496L16.1389 116.892L12.3453 116.544L10.1826 117.639C10.1826 117.639 14.6504 120.399 19.2334 126.747C20.047 127.873 20.7228 129.02 21.2745 130.133C18.3549 132.193 14.9303 134.097 11.6031 135.87C13.9034 135.847 18.953 133.781 22.0593 131.876L22.0653 131.861Z" fill="#FFFFC0"/>
<path d="M31.4191 120.361C31.6064 118.663 33.8002 117.555 33.8002 117.555L33.8036 117.505L33.8513 117.473L33.7996 117.452L33.7948 116.959L33.3558 117.253L33.3041 117.231C33.3041 117.231 31.4085 118.789 29.7757 118.275C28.1503 117.764 23.4489 111.411 17.346 111.633C11.2431 111.854 10.1662 116.943 10.1662 116.943C15.3745 117.518 20.8402 126.294 20.8402 126.294C22.0713 128.125 26.1418 134.694 24.8129 138.947C24.8129 138.947 29.8285 139.908 32.4939 134.41C35.1594 128.913 31.2275 122.048 31.4148 120.351L31.4191 120.361Z" fill="#FFFFC0"/>
<path d="M23.1862 115.774C23.1971 115.537 23.0285 115.339 22.8008 115.306C21.7054 115.141 18.7384 114.71 18.3474 114.739C17.9993 114.769 17.4736 117.292 17.2 118.696C17.1025 119.208 17.4359 119.697 17.9502 119.787C19.4902 120.065 22.4361 120.548 22.6834 120.176C22.9606 119.773 23.1283 116.861 23.1862 115.774Z" fill="#748A5B"/>
<path d="M22.7628 122.19C22.7682 122.071 22.6891 121.97 22.5664 121.954C22.0209 121.877 20.5352 121.656 20.3397 121.671C20.1694 121.687 19.9028 122.947 19.7697 123.651C19.7173 123.905 19.8928 124.149 20.15 124.194C20.9185 124.337 22.3908 124.57 22.5166 124.389C22.6515 124.185 22.7391 122.731 22.7658 122.182L22.7628 122.19Z" fill="#FFFFC0"/>
<path d="M27.4855 123.866C27.5117 123.739 27.4252 123.635 27.2891 123.63C26.6409 123.615 24.9006 123.574 24.6679 123.616C24.4603 123.66 23.963 125.084 23.7078 125.876C23.6151 126.165 23.7803 126.414 24.0851 126.426C24.986 126.477 26.7142 126.547 26.8907 126.327C27.0837 126.087 27.3872 124.463 27.4958 123.862L27.4855 123.866Z" fill="#FFFFC0"/>
<path d="M27.6073 119.342C27.6436 119.064 27.4637 118.81 27.1918 118.759C26.3864 118.601 24.8675 118.461 24.486 118.951C24.1568 119.376 24.0148 120.437 23.9578 121.06C23.9349 121.326 24.1209 121.566 24.3854 121.614C25.0225 121.72 26.1608 121.885 26.6662 121.808C27.1997 121.725 27.4925 120.148 27.5969 119.347L27.6073 119.342Z" fill="#FFFFC0"/>
<path d="M31.5341 121.132C31.6198 122.752 31.5529 127.057 28.5504 128.583C25.3352 130.229 23.1289 129.454 22.5774 129.202C24.0846 131.999 25.7492 135.989 24.8233 138.943C24.8233 138.943 29.8388 139.903 32.5043 134.406C34.9093 129.44 31.994 123.499 31.5371 121.124L31.5341 121.132Z" fill="#FFFFC0"/>
<path d="M7.92989 130.644C8.95798 129.291 9.49768 127.574 9.01243 126.298C8.52718 125.023 6.86866 124.404 5.36739 125.167L4.66004 125.506C2.923 127.034 1.38537 128.79 0.129339 130.678C-0.497164 131.619 -1.07613 132.717 -0.820048 133.605C-0.595776 134.404 0.269828 134.793 1.18494 134.745C2.10005 134.698 3.0492 134.295 3.94273 133.817C5.4383 133.025 6.90181 131.997 7.93291 130.636L7.92989 130.644Z" fill="#748A5B"/>
<g opacity="0.84">
<path d="M20.5505 112.515C20.5264 112.574 19.9608 112.42 19.0289 112.34C18.0971 112.259 16.7884 112.3 15.4348 112.745C14.0842 113.182 12.9961 113.925 12.291 114.532C11.5828 115.146 11.2208 115.609 11.1678 115.571C11.1266 115.545 11.4152 115.009 12.0959 114.314C12.7662 113.624 13.8846 112.807 15.3079 112.34C16.7312 111.872 18.1151 111.879 19.067 112.036C20.0263 112.197 20.5747 112.456 20.5566 112.5L20.5505 112.515Z" fill="white"/>
</g>
<path d="M12.2345 122.554C11.9038 122.1 11.3775 121.849 10.8249 121.726L10.8544 121.739C10.788 121.711 10.7186 121.692 10.6506 121.69C10.6137 121.674 10.5782 121.677 10.5383 121.669L10.6432 121.686C10.3133 121.672 9.97548 121.887 9.71751 122.117C9.40284 122.401 9.27318 122.865 9.38967 123.275C9.55369 123.841 10.1192 124.185 10.6831 124.364C11.1334 124.506 11.6598 124.566 12.0513 124.305C12.596 123.942 12.6283 123.085 12.2449 122.549L12.2345 122.554Z" fill="#FAFAFA"/>
</g>
<path d="M61.6283 96.8663C61.6283 96.8663 48.2239 100.568 43.2159 108.642C43.2159 108.642 45.7519 128.759 60.3314 139.185C60.3314 139.185 64.3617 142.512 71.0738 144.805C73.4818 145.628 75.707 146.962 76.8219 149.265C76.8405 149.313 76.8607 149.352 76.888 149.401C76.4734 146.887 78.6413 143.669 80.3329 141.766C84.8566 136.704 85.8752 130.964 85.8752 130.964C91.7108 116.7 82.2636 96.1229 82.2636 96.1229C75.4467 93.2341 65.6157 95.6612 61.6283 96.8663Z" fill="#FFFFC0"/>
<path d="M70.4732 98.199C77.8564 97.3242 83.2954 98.679 83.2954 98.679L81.3703 93.8314L63.405 89.5351L52.669 94.4798L44.91 100.899L42.7517 106.589L43.521 110.382C43.521 110.382 49.6759 104.688 61.3922 100.36C63.4743 99.5907 65.5189 99.046 67.4741 98.6637C69.4005 104.035 70.8631 110.11 72.1746 115.972C73.1215 112.431 72.0972 103.786 70.4833 98.1918L70.4732 98.199Z" fill="#FFFFC0"/>
<path d="M56.7478 78.866C54.2185 77.8553 53.4486 74.0138 53.4486 74.0138L53.3709 74.0008L53.3436 73.8985L53.2874 73.969L52.5321 73.7623L52.7965 74.5705L52.7404 74.641C52.7404 74.641 54.3248 78.2284 52.8434 80.5108C51.3619 82.7932 39.5868 87.2998 37.3272 96.7961C35.069 106.284 42.4351 110.113 42.4351 110.113C45.5402 102.358 61.3716 97.6881 61.3716 97.6881L61.3745 97.6709C64.7176 96.5713 76.557 93.1145 82.5229 96.9845C82.5229 96.9845 86.1473 89.68 78.8283 83.2294C71.5092 76.7789 59.2828 79.8954 56.755 78.8761L56.7478 78.866Z" fill="#FFFFC0"/>
<path d="M46.1629 89.6196C45.8106 89.4982 45.4266 89.6736 45.2726 90.0121C44.5515 91.6239 42.6213 96.0187 42.5017 96.6296C42.4023 97.1728 46.05 99.0746 48.0903 100.084C48.8366 100.45 49.7298 100.146 50.0853 99.3974C51.169 97.1533 53.161 92.8134 52.701 92.2739C52.1965 91.6825 47.7921 90.169 46.1457 89.6167L46.1629 89.6196Z" fill="#FFFFC0"/>
<path d="M55.8646 92.9904C55.6877 92.9341 55.4964 93.0174 55.4244 93.1831C55.0675 93.994 54.0988 96.1864 54.0382 96.4961C53.9921 96.7728 55.8124 97.7186 56.8376 98.2198C57.2057 98.4061 57.6573 98.2509 57.8358 97.8721C58.3784 96.7458 59.3773 94.5852 59.1473 94.3154C58.8957 94.0154 56.6971 93.2637 55.8732 92.9919L55.8646 92.9904Z" fill="#FFFFC0"/>
<path d="M60.4554 86.3946C60.2672 86.3007 60.0746 86.3928 60.0141 86.596C59.7177 87.5777 58.9091 90.2518 58.8716 90.6368C58.8413 90.9785 60.8299 92.3447 61.9392 93.0827C62.3458 93.3557 62.7885 93.199 62.9439 92.7449C63.4014 91.3812 64.2474 88.749 63.9803 88.3839C63.6915 87.9885 61.3334 86.818 60.4554 86.3946Z" fill="#FFFFC0"/>
<path d="M53.5187 84.2969C53.1133 84.1221 52.6431 84.283 52.4431 84.685C51.856 85.8664 50.9982 88.1401 51.5845 88.9321C52.099 89.6231 53.6717 90.2965 54.5989 90.6391C55 90.7866 55.4559 90.6054 55.6357 90.2179C56.076 89.2785 56.8071 87.6057 56.8979 86.7943C56.9975 85.9309 54.7003 84.8157 53.5187 84.2969Z" fill="#748A5B"/>
<path d="M57.9723 78.9798C60.5076 79.5375 67.0912 81.4832 68.174 86.7484C69.3273 92.3892 67.1999 95.4487 66.595 96.1991C71.541 95.0846 78.3888 94.2265 82.539 96.918C82.539 96.918 86.1648 89.6201 78.8409 83.1763C72.2208 77.3562 61.8438 79.3 57.9896 78.9826L57.9723 78.9798Z" fill="#FFFFC0"/>
<path d="M62.643 119.506C61.0004 117.336 58.5912 115.775 56.4286 115.981C54.266 116.186 52.6088 118.467 53.134 121.116L53.355 122.344C54.9641 125.673 57.0075 128.79 59.3703 131.534C60.5445 132.896 61.9933 134.26 63.4656 134.258C64.7784 134.257 65.7537 133.087 66.0705 131.665C66.3874 130.243 66.1738 128.598 65.825 127.019C65.2451 124.379 64.2842 121.684 62.6416 119.514L62.643 119.506Z" fill="#748A5B"/>
<g opacity="0.84">
<path d="M40.048 92.3193C40.1121 92.3572 39.5995 93.1591 39.0657 94.563C38.5249 95.9567 38.0227 98.0161 38.1156 100.312C38.2085 102.608 38.8873 104.613 39.5517 105.965C40.206 107.325 40.7858 108.075 40.7257 108.118C40.7057 108.133 40.5304 107.969 40.2682 107.639C39.9976 107.307 39.643 106.792 39.2715 106.113C38.5258 104.773 37.7685 102.71 37.6715 100.333C37.5659 97.955 38.1481 95.8382 38.7775 94.4419C39.0887 93.7388 39.3995 93.1958 39.6343 92.8445C39.8706 92.4846 40.0237 92.3063 40.0465 92.328L40.048 92.3193Z" fill="#748A5B"/>
</g>
<path d="M274.088 194.756C294.604 148.207 360.086 169.117 372.05 194.372L341.906 383.75L126 349.383L142.089 248.302C157.543 151.216 214.55 183.365 226.48 207.66C238.41 231.956 253.572 241.304 274.088 194.756Z" stroke="#FFFFC0" stroke-width="2" stroke-dasharray="11 11"/>
<g clip-path="url(#clip2_1142_7237)">
<path fill-rule="evenodd" clip-rule="evenodd" d="M280.556 85.0964C282.67 84.861 284.259 83.0144 284.144 80.864C284.026 78.6335 282.12 76.9207 279.888 77.0384C279.188 77.0754 278.527 77.2567 278.114 77.3821C277.627 77.5297 277.106 77.7196 276.586 77.9268C275.542 78.3428 274.338 78.8954 273.128 79.5073C270.807 80.6821 268.024 82.3002 266.278 83.8465C264.605 85.3275 264.45 87.8836 265.933 89.5557C267.416 91.2277 269.974 91.3826 271.647 89.9014C272.583 89.0724 274.596 87.8329 276.788 86.7235C277.836 86.1934 278.816 85.7471 279.587 85.4399C279.975 85.2853 280.269 85.1824 280.466 85.1224C280.503 85.1113 280.532 85.1027 280.556 85.0964ZM249.783 72.5784C247.59 72.1462 245.462 73.5724 245.03 75.7639C244.598 77.9553 246.026 80.0822 248.219 80.5144C249.333 80.7338 250.649 81.4725 251.979 82.7264C253.285 83.9583 254.34 85.4416 254.961 86.6604C255.976 88.6509 258.413 89.4429 260.405 88.4294C262.397 87.416 263.189 84.9808 262.174 82.9902C261.145 80.9713 259.537 78.7332 257.533 76.844C255.553 74.9769 252.912 73.195 249.783 72.5784ZM252.753 98.5614C254.982 98.7293 256.925 97.0597 257.092 94.8325C257.26 92.6051 255.588 90.6634 253.359 90.4955C247.109 90.0248 241.499 92.7298 238.358 95.5506C236.695 97.0434 236.559 99.6005 238.054 101.262C239.548 102.924 242.107 103.06 243.77 101.567C245.554 99.965 249.06 98.2833 252.753 98.5614ZM271.587 94.1489C269.531 93.2698 267.153 94.2219 266.274 96.2753C265.395 98.3287 266.348 100.706 268.404 101.585C272.292 103.248 274.86 106.21 276.107 108.252C277.272 110.159 279.763 110.762 281.67 109.599C283.579 108.435 284.181 105.947 283.016 104.04C281.145 100.975 277.415 96.6415 271.587 94.1489ZM261.322 97.2307C263.515 97.6629 264.943 99.7898 264.511 101.981L262.616 111.598C262.184 113.789 260.056 115.216 257.863 114.783C255.67 114.351 254.242 112.224 254.674 110.033L256.569 100.416C257.001 98.2247 259.129 96.7985 261.322 97.2307ZM225.773 70.3711C226.205 68.1796 224.777 66.0527 222.584 65.6205C220.391 65.1884 218.263 66.6145 217.831 68.806L217.374 71.1263L214.877 69.5667C212.981 68.3826 210.484 68.9582 209.299 70.8522C208.115 72.7462 208.692 75.2415 210.588 76.4255L213.549 78.275L210.647 80.929C208.999 82.4369 208.886 84.9951 210.395 86.643C211.905 88.2909 214.465 88.4044 216.114 86.8966L218.892 84.3552L220.499 87.7608C221.452 89.7814 223.864 90.6477 225.886 89.6956C227.908 88.7436 228.774 86.3338 227.821 84.3132L226.143 80.7568L229.584 80.169C231.788 79.7927 233.268 77.7028 232.891 75.5011C232.514 73.2994 230.422 71.8195 228.218 72.1958L225.316 72.6914L225.773 70.3711ZM193.733 113.341L197.97 99.6196L207.2 101.438L205.915 115.741L193.733 113.341ZM184.672 115.246L190.674 95.8111C191.126 93.9662 192.367 92.7438 193.523 92.0763C194.644 91.4284 196.163 91.0194 197.706 91.3234L210.592 93.8628C212.081 94.1561 213.528 94.9743 214.481 96.3938C215.38 97.7318 215.616 99.2733 215.395 100.691L213.577 120.932L213.576 120.941L212.703 130.659C212.546 136.886 208.607 141.714 202.879 143.775C201.318 144.338 199.693 144.652 198.063 144.73L196.931 150.477L198.635 150.813C200.828 151.245 202.256 153.372 201.824 155.563C201.392 157.755 199.264 159.181 197.071 158.749L185.72 156.512C183.527 156.079 182.099 153.953 182.531 151.761C182.962 149.57 185.091 148.144 187.284 148.576L188.988 148.912L190.115 143.194C188.593 142.497 187.169 141.572 185.906 140.431C185.859 140.388 185.812 140.344 185.767 140.299C181.691 136.249 180.07 130.436 181.736 124.757L181.752 124.702L184.67 115.255L184.672 115.246ZM236.467 124.387C234.553 123.477 232.263 124.289 231.352 126.202C230.442 128.114 231.255 130.403 233.17 131.314C234.141 131.776 235.178 132.763 236.107 134.226C237.018 135.664 237.64 137.274 237.925 138.539C238.391 140.606 240.446 141.904 242.514 141.439C244.582 140.974 245.88 138.921 245.414 136.855C244.942 134.759 243.989 132.326 242.59 130.121C241.208 127.942 239.198 125.686 236.467 124.387ZM237.968 146.547C237.292 148.555 235.116 149.634 233.106 148.958C229.777 147.838 226.161 148.563 224.146 149.618C222.268 150.601 219.948 149.876 218.964 148C217.98 146.123 218.705 143.805 220.582 142.823C224.13 140.966 229.92 139.793 235.554 141.688C237.563 142.364 238.644 144.54 237.968 146.547ZM266.105 140.043C265.706 142.046 263.813 143.371 261.814 143.092C261.792 143.093 261.762 143.094 261.726 143.095C261.53 143.104 261.237 143.13 260.844 143.181C260.063 143.283 259.057 143.464 257.971 143.705C255.696 144.212 253.555 144.88 252.5 145.423C250.616 146.392 248.301 145.651 247.331 143.767C246.36 141.884 247.101 139.571 248.985 138.602C250.953 137.59 253.89 136.755 256.299 136.218C257.553 135.939 258.79 135.713 259.847 135.575C260.373 135.506 260.896 135.454 261.378 135.432C261.788 135.414 262.437 135.401 263.09 135.532C265.169 135.946 266.519 137.966 266.105 140.043ZM246.068 150.022C247.357 148.341 249.767 148.023 251.45 149.312C256.221 152.966 258.634 157.821 259.636 161.075C260.259 163.101 259.122 165.246 257.096 165.869C255.07 166.491 252.922 165.354 252.298 163.329C251.631 161.161 249.965 157.838 246.781 155.4C245.098 154.111 244.779 151.703 246.068 150.022ZM243.111 154.853C244.022 152.94 243.208 150.651 241.294 149.741C239.379 148.83 237.089 149.643 236.179 151.556L232.183 159.949C231.272 161.862 232.086 164.15 234.001 165.06C235.915 165.971 238.205 165.159 239.116 163.246L243.111 154.853Z" fill="#FFFFC0"/>
</g>
</g>
<defs>
<clipPath id="clip0_1142_7237">
<rect width="307" height="200" rx="20" fill="white"/>
</clipPath>
<clipPath id="clip1_1142_7237">
<rect width="34.8309" height="41" fill="white" transform="translate(6.59375 105.815) rotate(22.2772)"/>
</clipPath>
<clipPath id="clip2_1142_7237">
<rect width="97.1406" height="97.0624" fill="white" transform="translate(194.229 59.6464) rotate(11.1479)"/>
</clipPath>
</defs>
</svg>
