<svg width="427" height="260" viewBox="0 0 427 260" fill="none" xmlns="http://www.w3.org/2000/svg">
<g clip-path="url(#clip0_170_482)">
<rect width="427" height="260" rx="20" fill="#748A5B"/>
<path d="M93.0053 5.06745C83.6783 55.074 15.1495 49.6934 -2.27305 27.8442L-16.2376 -163.408L201.806 -179.329L209.26 -77.2472C216.419 20.8001 153.571 2.54044 136.4 -18.383C119.23 -39.3065 102.332 -44.9391 93.0053 5.06745Z" stroke="#FFFFC0" stroke-width="2" stroke-dasharray="11 11"/>
<rect x="20.4639" y="40.5344" width="182" height="47" rx="14" fill="white"/>
<path d="M45.8639 71.5344V57.1344H48.2739V63.8144L54.0239 57.1344H56.9839L50.7939 64.1944L57.4039 71.5344H54.3439L48.2739 64.8144V71.5344H45.8639ZM62.7823 71.8344C61.7023 71.8344 60.759 71.5911 59.9523 71.1044C59.1456 70.6178 58.519 69.9478 58.0723 69.0944C57.6323 68.2344 57.4123 67.2478 57.4123 66.1344C57.4123 65.0011 57.639 64.0078 58.0923 63.1544C58.5456 62.3011 59.1756 61.6344 59.9823 61.1544C60.789 60.6744 61.7223 60.4344 62.7823 60.4344C63.869 60.4344 64.8156 60.6778 65.6223 61.1644C66.429 61.6511 67.0556 62.3244 67.5023 63.1844C67.949 64.0378 68.1723 65.0211 68.1723 66.1344C68.1723 67.2544 67.9456 68.2444 67.4923 69.1044C67.0456 69.9578 66.419 70.6278 65.6123 71.1144C64.8056 71.5944 63.8623 71.8344 62.7823 71.8344ZM62.7823 69.5744C63.7423 69.5744 64.4556 69.2544 64.9223 68.6144C65.389 67.9744 65.6223 67.1478 65.6223 66.1344C65.6223 65.0878 65.3856 64.2544 64.9123 63.6344C64.439 63.0078 63.729 62.6944 62.7823 62.6944C62.1356 62.6944 61.6023 62.8411 61.1823 63.1344C60.769 63.4211 60.4623 63.8244 60.2623 64.3444C60.0623 64.8578 59.9623 65.4544 59.9623 66.1344C59.9623 67.1811 60.199 68.0178 60.6723 68.6444C61.1523 69.2644 61.8556 69.5744 62.7823 69.5744ZM75.5656 71.8344C74.5123 71.8344 73.6289 71.5844 72.9156 71.0844C72.2023 70.5844 71.6656 69.9044 71.3056 69.0444C70.9456 68.1778 70.7656 67.2078 70.7656 66.1344C70.7656 65.0478 70.9456 64.0744 71.3056 63.2144C71.6656 62.3544 72.1923 61.6778 72.8856 61.1844C73.5856 60.6844 74.4489 60.4344 75.4756 60.4344C76.4956 60.4344 77.3789 60.6844 78.1256 61.1844C78.8789 61.6778 79.4623 62.3544 79.8756 63.2144C80.2889 64.0678 80.4956 65.0411 80.4956 66.1344C80.4956 67.2144 80.2923 68.1844 79.8856 69.0444C79.4789 69.9044 78.9056 70.5844 78.1656 71.0844C77.4256 71.5844 76.5589 71.8344 75.5656 71.8344ZM70.3556 76.3344V60.7344H72.4856V68.3144H72.7856V76.3344H70.3556ZM75.1956 69.6744C75.8223 69.6744 76.3389 69.5178 76.7456 69.2044C77.1523 68.8911 77.4523 68.4678 77.6456 67.9344C77.8456 67.3944 77.9456 66.7944 77.9456 66.1344C77.9456 65.4811 77.8456 64.8878 77.6456 64.3544C77.4456 63.8144 77.1356 63.3878 76.7156 63.0744C76.2956 62.7544 75.7623 62.5944 75.1156 62.5944C74.5023 62.5944 74.0023 62.7444 73.6156 63.0444C73.2289 63.3378 72.9423 63.7511 72.7556 64.2844C72.5756 64.8111 72.4856 65.4278 72.4856 66.1344C72.4856 66.8344 72.5756 67.4511 72.7556 67.9844C72.9423 68.5178 73.2323 68.9344 73.6256 69.2344C74.0256 69.5278 74.5489 69.6744 75.1956 69.6744ZM82.6798 71.5344V60.7344H92.0598V71.5344H89.6498V62.9944H85.0898V71.5344H82.6798ZM99.6378 71.8344C98.5578 71.8344 97.6144 71.5911 96.8078 71.1044C96.0011 70.6178 95.3744 69.9478 94.9278 69.0944C94.4878 68.2344 94.2678 67.2478 94.2678 66.1344C94.2678 65.0011 94.4944 64.0078 94.9478 63.1544C95.4011 62.3011 96.0311 61.6344 96.8378 61.1544C97.6444 60.6744 98.5778 60.4344 99.6378 60.4344C100.724 60.4344 101.671 60.6778 102.478 61.1644C103.284 61.6511 103.911 62.3244 104.358 63.1844C104.804 64.0378 105.028 65.0211 105.028 66.1344C105.028 67.2544 104.801 68.2444 104.348 69.1044C103.901 69.9578 103.274 70.6278 102.468 71.1144C101.661 71.5944 100.718 71.8344 99.6378 71.8344ZM99.6378 69.5744C100.598 69.5744 101.311 69.2544 101.778 68.6144C102.244 67.9744 102.478 67.1478 102.478 66.1344C102.478 65.0878 102.241 64.2544 101.768 63.6344C101.294 63.0078 100.584 62.6944 99.6378 62.6944C98.9911 62.6944 98.4578 62.8411 98.0378 63.1344C97.6244 63.4211 97.3178 63.8244 97.1178 64.3444C96.9178 64.8578 96.8178 65.4544 96.8178 66.1344C96.8178 67.1811 97.0544 68.0178 97.5278 68.6444C98.0078 69.2644 98.7111 69.5744 99.6378 69.5744ZM112.421 71.8344C111.368 71.8344 110.484 71.5844 109.771 71.0844C109.058 70.5844 108.521 69.9044 108.161 69.0444C107.801 68.1778 107.621 67.2078 107.621 66.1344C107.621 65.0478 107.801 64.0744 108.161 63.2144C108.521 62.3544 109.048 61.6778 109.741 61.1844C110.441 60.6844 111.304 60.4344 112.331 60.4344C113.351 60.4344 114.234 60.6844 114.981 61.1844C115.734 61.6778 116.318 62.3544 116.731 63.2144C117.144 64.0678 117.351 65.0411 117.351 66.1344C117.351 67.2144 117.148 68.1844 116.741 69.0444C116.334 69.9044 115.761 70.5844 115.021 71.0844C114.281 71.5844 113.414 71.8344 112.421 71.8344ZM107.211 76.3344V60.7344H109.341V68.3144H109.641V76.3344H107.211ZM112.051 69.6744C112.678 69.6744 113.194 69.5178 113.601 69.2044C114.008 68.8911 114.308 68.4678 114.501 67.9344C114.701 67.3944 114.801 66.7944 114.801 66.1344C114.801 65.4811 114.701 64.8878 114.501 64.3544C114.301 63.8144 113.991 63.3878 113.571 63.0744C113.151 62.7544 112.618 62.5944 111.971 62.5944C111.358 62.5944 110.858 62.7444 110.471 63.0444C110.084 63.3378 109.798 63.7511 109.611 64.2844C109.431 64.8111 109.341 65.4278 109.341 66.1344C109.341 66.8344 109.431 67.4511 109.611 67.9844C109.798 68.5178 110.088 68.9344 110.481 69.2344C110.881 69.5278 111.404 69.6744 112.051 69.6744ZM122.575 71.8344C121.795 71.8344 121.135 71.6878 120.595 71.3944C120.055 71.0944 119.645 70.6978 119.365 70.2044C119.092 69.7111 118.955 69.1678 118.955 68.5744C118.955 68.0544 119.042 67.5878 119.215 67.1744C119.389 66.7544 119.655 66.3944 120.015 66.0944C120.375 65.7878 120.842 65.5378 121.415 65.3444C121.849 65.2044 122.355 65.0778 122.935 64.9644C123.522 64.8511 124.155 64.7478 124.835 64.6544C125.522 64.5544 126.239 64.4478 126.985 64.3344L126.125 64.8244C126.132 64.0778 125.965 63.5278 125.625 63.1744C125.285 62.8211 124.712 62.6444 123.905 62.6444C123.419 62.6444 122.949 62.7578 122.495 62.9844C122.042 63.2111 121.725 63.6011 121.545 64.1544L119.345 63.4644C119.612 62.5511 120.119 61.8178 120.865 61.2644C121.619 60.7111 122.632 60.4344 123.905 60.4344C124.865 60.4344 125.709 60.5911 126.435 60.9044C127.169 61.2178 127.712 61.7311 128.065 62.4444C128.259 62.8244 128.375 63.2144 128.415 63.6144C128.455 64.0078 128.475 64.4378 128.475 64.9044V71.5344H126.365V69.1944L126.715 69.5744C126.229 70.3544 125.659 70.9278 125.005 71.2944C124.359 71.6544 123.549 71.8344 122.575 71.8344ZM123.055 69.9144C123.602 69.9144 124.069 69.8178 124.455 69.6244C124.842 69.4311 125.149 69.1944 125.375 68.9144C125.609 68.6344 125.765 68.3711 125.845 68.1244C125.972 67.8178 126.042 67.4678 126.055 67.0744C126.075 66.6744 126.085 66.3511 126.085 66.1044L126.825 66.3244C126.099 66.4378 125.475 66.5378 124.955 66.6244C124.435 66.7111 123.989 66.7944 123.615 66.8744C123.242 66.9478 122.912 67.0311 122.625 67.1244C122.345 67.2244 122.109 67.3411 121.915 67.4744C121.722 67.6078 121.572 67.7611 121.465 67.9344C121.365 68.1078 121.315 68.3111 121.315 68.5444C121.315 68.8111 121.382 69.0478 121.515 69.2544C121.649 69.4544 121.842 69.6144 122.095 69.7344C122.355 69.8544 122.675 69.9144 123.055 69.9144ZM133.789 71.5344V62.8744H130.179V60.7344H139.809V62.8744H136.199V71.5344H133.789ZM151.064 60.7344V71.5344H148.754V64.4844L143.614 71.5344H141.684V60.7344H143.994V67.6044L149.154 60.7344H151.064ZM153.852 71.5344V60.7344H158.762C159.115 60.7344 159.445 60.7544 159.752 60.7944C160.058 60.8344 160.322 60.8844 160.542 60.9444C161.062 61.0978 161.522 61.3978 161.922 61.8444C162.322 62.2844 162.522 62.8944 162.522 63.6744C162.522 64.1344 162.448 64.5144 162.302 64.8144C162.155 65.1078 161.962 65.3544 161.722 65.5544C161.608 65.6478 161.492 65.7278 161.372 65.7944C161.252 65.8611 161.132 65.9144 161.012 65.9544C161.272 65.9944 161.518 66.0711 161.752 66.1844C162.118 66.3644 162.425 66.6311 162.672 66.9844C162.925 67.3378 163.052 67.8344 163.052 68.4744C163.052 69.2011 162.875 69.8144 162.522 70.3144C162.175 70.8078 161.665 71.1511 160.992 71.3444C160.745 71.4111 160.462 71.4611 160.142 71.4944C159.822 71.5211 159.495 71.5344 159.162 71.5344H153.852ZM156.292 69.6744H158.992C159.132 69.6744 159.285 69.6611 159.452 69.6344C159.618 69.6078 159.768 69.5711 159.902 69.5244C160.142 69.4378 160.315 69.2844 160.422 69.0644C160.535 68.8444 160.592 68.6144 160.592 68.3744C160.592 68.0478 160.508 67.7878 160.342 67.5944C160.182 67.3944 159.988 67.2611 159.762 67.1944C159.628 67.1411 159.482 67.1111 159.322 67.1044C159.168 67.0911 159.042 67.0844 158.942 67.0844H156.292V69.6744ZM156.292 65.1944H158.292C158.498 65.1944 158.698 65.1844 158.892 65.1644C159.092 65.1378 159.258 65.0944 159.392 65.0344C159.612 64.9478 159.772 64.8011 159.872 64.5944C159.978 64.3878 160.032 64.1578 160.032 63.9044C160.032 63.6378 159.972 63.3978 159.852 63.1844C159.738 62.9644 159.555 62.8178 159.302 62.7444C159.135 62.6778 158.932 62.6411 158.692 62.6344C158.458 62.6278 158.308 62.6244 158.242 62.6244H156.292V65.1944ZM165.034 71.5344L165.024 60.7344H167.434V64.3344H168.644C168.944 64.3344 169.28 64.3411 169.654 64.3544C170.034 64.3678 170.35 64.3978 170.604 64.4444C171.21 64.5778 171.727 64.7911 172.154 65.0844C172.587 65.3778 172.917 65.7611 173.144 66.2344C173.37 66.7078 173.484 67.2778 173.484 67.9444C173.484 68.8978 173.237 69.6611 172.744 70.2344C172.25 70.8011 171.56 71.1878 170.674 71.3944C170.414 71.4544 170.09 71.4944 169.704 71.5144C169.317 71.5278 168.974 71.5344 168.674 71.5344H165.034ZM167.434 69.6444H168.884C169.03 69.6444 169.194 69.6378 169.374 69.6244C169.554 69.6111 169.724 69.5811 169.884 69.5344C170.184 69.4544 170.45 69.2744 170.684 68.9944C170.917 68.7078 171.034 68.3578 171.034 67.9444C171.034 67.5111 170.917 67.1544 170.684 66.8744C170.45 66.5944 170.164 66.4111 169.824 66.3244C169.664 66.2844 169.5 66.2578 169.334 66.2444C169.174 66.2311 169.024 66.2244 168.884 66.2244H167.434V69.6444ZM174.614 71.5344V60.7344H177.024V71.5344H174.614Z" fill="#3D5E38"/>
<g clip-path="url(#clip1_170_482)">
<path d="M21.3909 210.031C21.3909 210.031 16.9016 202.55 11.1963 200.876C11.1963 200.876 -0.500394 205.775 -4.34164 216.329C-4.34164 216.329 -5.66896 219.316 -5.92196 223.761C-6.01362 225.351 -6.44259 226.924 -7.64724 227.972C-7.67106 227.988 -7.69052 228.015 -7.71433 228.031C-6.2671 227.357 -3.9645 228.128 -2.5317 228.836C1.27727 230.724 4.90795 230.376 4.90795 230.376C14.4912 231.52 25.304 222.367 25.304 222.367C25.8988 217.761 22.7817 212.229 21.3865 210.021L21.3909 210.031Z" fill="#FFFFC0"/>
<path d="M22.0651 215.639C23.8321 219.946 23.9273 223.456 23.9273 223.456L26.5354 221.484L26.1119 209.924L21.3202 204.274L16.1386 200.67L12.345 200.322L10.1823 201.417C10.1823 201.417 14.6501 204.178 19.2332 210.525C20.0468 211.651 20.7225 212.798 21.2743 213.911C18.3546 215.971 14.9301 217.876 11.6028 219.648C13.9031 219.625 18.9527 217.56 22.0591 215.654L22.0651 215.639Z" fill="#FFFFC0"/>
<path d="M31.4191 204.139C31.6064 202.442 33.8002 201.333 33.8002 201.333L33.8036 201.283L33.8513 201.251L33.7996 201.23L33.7948 200.737L33.3558 201.031L33.3041 201.01C33.3041 201.01 31.4085 202.567 29.7757 202.053C28.1503 201.543 23.4489 195.189 17.346 195.411C11.2431 195.633 10.1662 200.721 10.1662 200.721C15.3745 201.296 20.8402 210.072 20.8402 210.072C22.0713 211.903 26.1418 218.472 24.8129 222.725C24.8129 222.725 29.8285 223.686 32.4939 218.189C35.1594 212.691 31.2275 205.826 31.4148 204.129L31.4191 204.139Z" fill="#FFFFC0"/>
<path d="M23.186 199.552C23.1968 199.315 23.0283 199.117 22.8006 199.084C21.7052 198.92 18.7382 198.488 18.3472 198.517C17.9991 198.547 17.4734 201.071 17.1998 202.474C17.1023 202.986 17.4357 203.476 17.95 203.566C19.49 203.843 22.4359 204.327 22.6832 203.954C22.9604 203.551 23.1281 200.64 23.186 199.552Z" fill="#748A5B"/>
<path d="M22.7628 205.968C22.7682 205.849 22.6891 205.748 22.5664 205.732C22.0209 205.655 20.5352 205.434 20.3397 205.449C20.1694 205.465 19.9028 206.726 19.7697 207.429C19.7173 207.683 19.8928 207.927 20.15 207.972C20.9185 208.115 22.3908 208.348 22.5166 208.167C22.6515 207.964 22.7391 206.509 22.7658 205.96L22.7628 205.968Z" fill="#FFFFC0"/>
<path d="M27.4852 207.644C27.5114 207.517 27.425 207.413 27.2888 207.409C26.6407 207.393 24.9004 207.352 24.6676 207.394C24.4601 207.438 23.9627 208.863 23.7075 209.654C23.6148 209.943 23.78 210.192 24.0848 210.205C24.9858 210.255 26.714 210.326 26.8905 210.105C27.0834 209.865 27.387 208.241 27.4956 207.64L27.4852 207.644Z" fill="#FFFFC0"/>
<path d="M27.607 203.12C27.6434 202.842 27.4635 202.588 27.1915 202.537C26.3862 202.379 24.8672 202.239 24.4857 202.729C24.1566 203.154 24.0146 204.215 23.9576 204.838C23.9347 205.104 24.1206 205.344 24.3852 205.392C25.0222 205.498 26.1606 205.663 26.6659 205.586C27.1995 205.503 27.4923 203.926 27.5966 203.125L27.607 203.12Z" fill="#FFFFC0"/>
<path d="M31.5341 204.91C31.6198 206.53 31.5529 210.835 28.5504 212.361C25.3352 214.007 23.1289 213.232 22.5774 212.981C24.0846 215.777 25.7492 219.767 24.8233 222.721C24.8233 222.721 29.8388 223.682 32.5043 218.184C34.9093 213.218 31.994 207.277 31.5371 204.903L31.5341 204.91Z" fill="#FFFFC0"/>
<path d="M7.92989 214.422C8.95798 213.069 9.49768 211.352 9.01243 210.076C8.52718 208.801 6.86866 208.182 5.36739 208.945L4.66004 209.284C2.923 210.812 1.38537 212.568 0.129339 214.456C-0.497164 215.397 -1.07613 216.495 -0.820048 217.384C-0.595776 218.182 0.269828 218.571 1.18494 218.524C2.10005 218.477 3.0492 218.073 3.94273 217.595C5.4383 216.804 6.90181 215.775 7.93291 214.415L7.92989 214.422Z" fill="#748A5B"/>
<g opacity="0.84">
<path d="M20.5503 196.293C20.5261 196.352 19.9605 196.198 19.0287 196.118C18.0969 196.038 16.7881 196.078 15.4345 196.523C14.084 196.96 12.9959 197.703 12.2907 198.31C11.5826 198.924 11.2205 199.388 11.1676 199.349C11.1263 199.323 11.415 198.787 12.0957 198.092C12.766 197.402 13.8843 196.586 15.3077 196.118C16.731 195.65 18.1148 195.657 19.0667 195.815C20.026 195.975 20.5745 196.234 20.5563 196.278L20.5503 196.293Z" fill="white"/>
</g>
<path d="M12.2345 206.332C11.9038 205.878 11.3775 205.628 10.8249 205.505L10.8544 205.517C10.788 205.49 10.7186 205.47 10.6506 205.468C10.6137 205.453 10.5782 205.455 10.5383 205.448L10.6432 205.465C10.3133 205.45 9.97548 205.665 9.71751 205.895C9.40284 206.18 9.27318 206.643 9.38967 207.053C9.55369 207.62 10.1192 207.963 10.6831 208.143C11.1334 208.284 11.6598 208.345 12.0513 208.083C12.596 207.72 12.6283 206.864 12.2449 206.328L12.2345 206.332Z" fill="#FAFAFA"/>
</g>
<path d="M85.9649 212.94C85.9649 212.94 67.3925 218.03 60.3896 228.702C60.3896 228.702 63.7038 255.025 83.7659 268.432C83.7659 268.432 89.3076 272.721 98.5678 275.608C101.89 276.644 104.954 278.353 106.474 281.353C106.499 281.415 106.527 281.465 106.564 281.529C106.015 278.241 109.044 273.984 111.401 271.461C117.706 264.746 119.169 257.204 119.169 257.204C127.376 238.403 114.509 211.6 114.509 211.6C105.109 207.934 91.4906 211.29 85.9649 212.94Z" fill="#FFFFC0"/>
<path d="M98.0265 214.662C108.274 213.377 115.803 215.069 115.803 215.069L113.181 208.706L88.3095 203.354L73.3732 210.069L62.5507 218.677L59.5021 226.224L60.5317 231.216C60.5317 231.216 69.1227 223.593 85.4124 217.674C88.3072 216.622 91.1478 215.867 93.863 215.328C96.4818 222.383 98.4505 230.373 100.212 238.086C101.559 233.396 100.224 222.006 98.0405 214.652L98.0265 214.662Z" fill="#FFFFC0"/>
<path d="M79.0978 189.567C75.6039 188.283 74.5744 183.244 74.5744 183.244L74.4669 183.228L74.4301 183.094L74.3516 183.188L73.3073 182.93L73.6658 183.988L73.5874 184.082C73.5874 184.082 75.7476 188.772 73.6734 191.8C71.5992 194.828 55.2445 200.964 52.0229 213.494C48.8033 226.013 58.97 230.919 58.97 230.919C63.3461 220.663 85.3215 214.241 85.3215 214.241L85.3256 214.218C89.9672 212.713 106.401 207.956 114.628 212.94C114.628 212.94 119.719 203.269 109.642 194.915C99.566 186.561 82.5996 190.876 79.1077 189.581L79.0978 189.567Z" fill="#FFFFC0"/>
<path d="M64.2683 203.675C63.782 203.522 63.249 203.758 63.0326 204.205C62.0195 206.333 59.3068 212.132 59.1355 212.936C58.9927 213.65 64.0215 216.08 66.8347 217.368C67.8637 217.834 69.1024 217.421 69.6015 216.432C71.1225 213.469 73.9202 207.74 73.2889 207.041C72.5965 206.274 66.5171 204.366 64.2444 203.671L64.2683 203.675Z" fill="#FFFFC0"/>
<path d="M77.7315 208.076C77.4873 208.005 77.2218 208.118 77.1207 208.336C76.619 209.407 75.2577 212.3 75.171 212.707C75.1045 213.071 77.614 214.28 79.0277 214.919C79.5352 215.157 80.1616 214.945 80.4121 214.445C81.1737 212.958 82.5764 210.106 82.2608 209.756C81.9156 209.367 78.8808 208.42 77.7434 208.078L77.7315 208.076Z" fill="#FFFFC0"/>
<path d="M84.1279 199.506C83.8687 199.387 83.6017 199.511 83.5162 199.778C83.0972 201.068 81.9543 204.583 81.8988 205.088C81.8536 205.536 84.5882 207.289 86.1137 208.235C86.6729 208.586 87.2861 208.373 87.5052 207.775C88.1504 205.982 89.3445 202.521 88.9789 202.048C88.5837 201.536 85.3369 200.045 84.1279 199.506Z" fill="#FFFFC0"/>
<path d="M74.4732 196.77C73.9143 196.548 73.2625 196.767 72.982 197.297C72.1589 198.856 70.9509 201.852 71.7541 202.879C72.459 203.776 74.6274 204.631 75.9063 205.063C76.4596 205.25 77.0917 205.004 77.3442 204.493C77.9621 203.254 78.989 201.048 79.1225 199.983C79.2684 198.85 76.1023 197.429 74.4732 196.77Z" fill="#748A5B"/>
<path d="M80.7721 189.918C84.2827 190.61 93.3938 193.061 94.8439 199.992C96.3879 207.417 93.4077 211.493 92.5614 212.494C99.4315 210.936 108.937 209.682 114.666 213.161C114.666 213.161 119.766 203.465 109.672 195.089C100.548 187.523 86.138 190.272 80.7961 189.922L80.7721 189.918Z" fill="#FFFFC0"/>
<path d="M87.1578 242.452C84.9069 239.637 81.5899 237.634 78.5972 237.941C75.6044 238.249 73.2906 241.269 73.9916 244.731L74.2855 246.338C76.479 250.672 79.2751 254.722 82.5165 258.277C84.1274 260.042 86.118 261.804 88.1542 261.776C89.9697 261.751 91.3298 260.201 91.7816 258.33C92.2334 256.46 91.9538 254.308 91.4865 252.245C90.7098 248.794 89.4067 245.278 87.1558 242.463L87.1578 242.452Z" fill="#748A5B"/>
<g opacity="0.84">
<path d="M55.8121 207.186C55.8988 207.234 55.1896 208.294 54.4424 210.139C53.6858 211.971 52.9715 214.67 53.0624 217.66C53.1533 220.65 54.0452 223.244 54.9275 224.988C55.796 226.742 56.5725 227.703 56.4902 227.761C56.4628 227.78 56.227 227.572 55.8758 227.149C55.5129 226.724 55.0389 226.062 54.5444 225.189C53.5513 223.463 52.5537 220.795 52.4584 217.7C52.3515 214.603 53.1755 211.827 54.0525 209.989C54.4863 209.064 54.9172 208.347 55.2418 207.883C55.5685 207.407 55.7794 207.17 55.81 207.197L55.8121 207.186Z" fill="#748A5B"/>
</g>
<path d="M274.088 259.756C294.604 213.207 360.086 234.117 372.05 259.372L341.906 448.75L126 414.383L142.089 313.302C157.543 216.216 214.55 248.365 226.48 272.66C238.41 296.956 253.572 306.304 274.088 259.756Z" stroke="#FFFFC0" stroke-width="2" stroke-dasharray="11 11"/>
<g clip-path="url(#clip2_170_482)">
<path fill-rule="evenodd" clip-rule="evenodd" d="M363.395 81.7766C366.295 81.1676 368.251 78.3934 367.806 75.4251C367.345 72.3463 364.475 70.2245 361.396 70.686C360.43 70.8309 359.538 71.1708 358.982 71.3999C358.326 71.6699 357.629 72.0029 356.936 72.3597C355.544 73.0764 353.949 74.004 352.354 75.0146C349.293 76.9545 345.649 79.5715 343.434 81.9501C341.312 84.2283 341.439 87.7953 343.718 89.917C345.996 92.0388 349.563 91.9119 351.685 89.6335C352.872 88.3581 355.498 86.3695 358.389 84.5374C359.77 83.662 361.071 82.9119 362.098 82.3826C362.615 82.1163 363.009 81.9343 363.275 81.8247C363.324 81.8044 363.364 81.7886 363.395 81.7766ZM319.065 68.5202C315.967 68.2136 313.207 70.4766 312.901 73.5747C312.594 76.6728 314.857 79.4329 317.955 79.7396C319.528 79.8952 321.451 80.7442 323.462 82.3062C325.438 83.8408 327.097 85.758 328.121 87.3659C329.793 89.9919 333.278 90.7652 335.904 89.093C338.53 87.4208 339.303 83.9364 337.631 81.3103C335.935 78.6468 333.408 75.7563 330.379 73.4029C327.385 71.077 323.485 68.9577 319.065 68.5202ZM326.646 104.173C329.759 104.108 332.229 101.532 332.164 98.4193C332.1 95.3067 329.524 92.836 326.411 92.9008C317.683 93.0828 310.266 97.5852 306.288 101.918C304.182 104.212 304.335 107.778 306.628 109.883C308.921 111.989 312.487 111.837 314.592 109.543C316.853 107.082 321.489 104.28 326.646 104.173ZM352.168 95.5344C349.201 94.5894 346.031 96.2281 345.086 99.1944C344.141 102.161 345.779 105.332 348.746 106.277C354.359 108.065 358.313 111.831 360.314 114.497C362.183 116.987 365.716 117.491 368.206 115.622C370.697 113.754 371.2 110.22 369.331 107.73C366.328 103.728 360.58 98.2141 352.168 95.5344ZM338.348 101.182C341.446 101.488 343.709 104.248 343.402 107.346L342.057 120.942C341.75 124.04 338.99 126.303 335.892 125.996C332.794 125.69 330.531 122.93 330.838 119.832L332.183 106.236C332.49 103.138 335.25 100.875 338.348 101.182ZM285.486 68.6653C285.793 65.5672 283.53 62.8071 280.431 62.5004C277.333 62.1938 274.573 64.4568 274.267 67.5549L273.942 70.8353L270.272 69.005C267.486 67.6156 264.101 68.7477 262.712 71.5338C261.322 74.3197 262.454 77.7046 265.24 79.0941L269.592 81.2645L265.923 85.3343C263.838 87.6466 264.023 91.211 266.335 93.2957C268.648 95.3804 272.212 95.1958 274.297 92.8835L277.81 88.9864L280.491 93.4966C282.082 96.1727 285.542 97.0524 288.218 95.4614C290.894 93.8705 291.773 90.4114 290.182 87.7353L287.382 83.0252L292.075 81.75C295.079 80.9336 296.853 77.8363 296.037 74.832C295.22 71.8276 292.123 70.0539 289.119 70.8703L285.161 71.9457L285.486 68.6653ZM246.794 132.562L250.839 112.96L263.878 114.25L264.003 134.265L246.794 132.562ZM234.487 136.416L240.217 108.65C240.597 106.03 242.155 104.168 243.668 103.088C245.137 102.039 247.188 101.269 249.367 101.485L267.571 103.286C269.673 103.494 271.789 104.436 273.299 106.278C274.723 108.015 275.257 110.122 275.139 112.118L275.316 140.443L275.316 140.457L275.4 154.056C276.012 162.717 271.195 169.941 263.53 173.566C261.44 174.555 259.23 175.208 256.98 175.533L256.176 183.658L258.584 183.897C261.682 184.203 263.945 186.963 263.638 190.062C263.332 193.16 260.571 195.423 257.473 195.116L241.438 193.529C238.34 193.222 236.077 190.462 236.384 187.364C236.691 184.266 239.451 182.003 242.549 182.31L244.957 182.548L245.757 174.464C243.554 173.701 241.457 172.607 239.554 171.193C239.482 171.14 239.412 171.085 239.342 171.028C233.153 165.954 230.131 158.106 231.683 150.005L231.698 149.926L234.484 136.429L234.487 136.416ZM307.51 142.179C304.735 141.172 301.668 142.605 300.661 145.38C299.654 148.156 301.086 151.222 303.862 152.23C305.27 152.741 306.84 153.972 308.321 155.878C309.777 157.751 310.853 159.902 311.418 161.619C312.339 164.424 315.36 165.951 318.165 165.029C320.971 164.107 322.497 161.087 321.575 158.282C320.641 155.437 318.996 152.188 316.762 149.316C314.556 146.478 311.469 143.617 307.51 142.179ZM312.544 172.724C311.875 175.6 309.001 177.388 306.126 176.719C301.361 175.609 296.445 177.098 293.791 178.831C291.319 180.445 288.006 179.75 286.392 177.278C284.778 174.806 285.473 171.493 287.945 169.879C292.616 166.829 300.486 164.428 308.55 166.305C311.425 166.974 313.214 169.848 312.544 172.724ZM350.684 159.941C350.398 162.773 347.95 164.864 345.143 164.745C345.111 164.749 345.071 164.754 345.021 164.76C344.751 164.799 344.347 164.874 343.809 164.998C342.741 165.243 341.37 165.628 339.896 166.109C336.81 167.115 333.931 168.328 332.541 169.222C330.057 170.819 326.75 170.1 325.153 167.616C323.556 165.133 324.275 161.825 326.758 160.229C329.351 158.562 333.313 157.01 336.58 155.944C338.282 155.389 339.966 154.911 341.413 154.578C342.133 154.412 342.852 154.27 343.517 154.175C344.082 154.095 344.981 153.991 345.903 154.084C348.841 154.381 350.981 157.004 350.684 159.941ZM324.237 176.463C325.8 173.959 329.098 173.195 331.603 174.758C338.705 179.191 342.696 185.604 344.519 189.986C345.653 192.712 344.363 195.841 341.636 196.976C338.911 198.109 335.782 196.819 334.647 194.093C333.433 191.174 330.681 186.787 325.941 183.828C323.437 182.265 322.674 178.968 324.237 176.463ZM320.781 183.56C321.789 180.785 320.355 177.718 317.58 176.711C314.805 175.703 311.738 177.137 310.731 179.912L306.31 192.091C305.303 194.866 306.735 197.932 309.511 198.94C312.286 199.947 315.353 198.514 316.36 195.739L320.781 183.56Z" fill="#FFFFC0"/>
</g>
<path d="M479.163 49.7152C386.252 70.3814 345.194 -51.5089 370.004 -97.5365L688.9 -262L876.402 101.567L706.189 189.351C542.705 273.664 527.983 152.094 551.385 107.18C574.787 62.2666 572.074 29.0489 479.163 49.7152Z" stroke="#FFFFC0" stroke-width="2" stroke-dasharray="11 11"/>
</g>
<defs>
<clipPath id="clip0_170_482">
<rect width="427" height="260" rx="20" fill="white"/>
</clipPath>
<clipPath id="clip1_170_482">
<rect width="34.8309" height="41" fill="white" transform="translate(6.59375 189.594) rotate(22.2772)"/>
</clipPath>
<clipPath id="clip2_170_482">
<rect width="135.29" height="135.29" fill="white" transform="translate(240.325 58) rotate(5.6522)"/>
</clipPath>
</defs>
</svg>
