<svg width="307" height="242" viewBox="0 0 307 242" fill="none" xmlns="http://www.w3.org/2000/svg">
<g clip-path="url(#clip0_1142_4513)">
<rect width="307" height="242" rx="20" fill="#748A5B"/>
<path d="M93.0053 5.06745C83.6783 55.074 15.1495 49.6934 -2.27305 27.8442L-16.2376 -163.408L201.806 -179.329L209.26 -77.2472C216.419 20.8001 153.571 2.54044 136.4 -18.383C119.23 -39.3065 102.332 -44.9391 93.0053 5.06745Z" stroke="#FFFFC0" stroke-width="2" stroke-dasharray="11 11"/>
<rect x="20" y="20" width="182" height="47" rx="14" fill="white"/>
<path d="M45.4 51V36.6H47.81V43.28L53.56 36.6H56.52L50.33 43.66L56.94 51H53.88L47.81 44.28V51H45.4ZM62.3184 51.3C61.2384 51.3 60.2951 51.0567 59.4884 50.57C58.6818 50.0833 58.0551 49.4133 57.6084 48.56C57.1684 47.7 56.9484 46.7133 56.9484 45.6C56.9484 44.4667 57.1751 43.4733 57.6284 42.62C58.0818 41.7667 58.7118 41.1 59.5184 40.62C60.3251 40.14 61.2584 39.9 62.3184 39.9C63.4051 39.9 64.3518 40.1433 65.1584 40.63C65.9651 41.1167 66.5918 41.79 67.0384 42.65C67.4851 43.5033 67.7084 44.4867 67.7084 45.6C67.7084 46.72 67.4818 47.71 67.0284 48.57C66.5818 49.4233 65.9551 50.0933 65.1484 50.58C64.3418 51.06 63.3984 51.3 62.3184 51.3ZM62.3184 49.04C63.2784 49.04 63.9918 48.72 64.4584 48.08C64.9251 47.44 65.1584 46.6133 65.1584 45.6C65.1584 44.5533 64.9218 43.72 64.4484 43.1C63.9751 42.4733 63.2651 42.16 62.3184 42.16C61.6718 42.16 61.1384 42.3067 60.7184 42.6C60.3051 42.8867 59.9984 43.29 59.7984 43.81C59.5984 44.3233 59.4984 44.92 59.4984 45.6C59.4984 46.6467 59.7351 47.4833 60.2084 48.11C60.6884 48.73 61.3918 49.04 62.3184 49.04ZM75.1017 51.3C74.0484 51.3 73.1651 51.05 72.4517 50.55C71.7384 50.05 71.2017 49.37 70.8417 48.51C70.4817 47.6433 70.3017 46.6733 70.3017 45.6C70.3017 44.5133 70.4817 43.54 70.8417 42.68C71.2017 41.82 71.7284 41.1433 72.4217 40.65C73.1217 40.15 73.9851 39.9 75.0117 39.9C76.0317 39.9 76.9151 40.15 77.6617 40.65C78.4151 41.1433 78.9984 41.82 79.4117 42.68C79.8251 43.5333 80.0317 44.5067 80.0317 45.6C80.0317 46.68 79.8284 47.65 79.4217 48.51C79.0151 49.37 78.4417 50.05 77.7017 50.55C76.9617 51.05 76.0951 51.3 75.1017 51.3ZM69.8917 55.8V40.2H72.0217V47.78H72.3217V55.8H69.8917ZM74.7317 49.14C75.3584 49.14 75.8751 48.9833 76.2817 48.67C76.6884 48.3567 76.9884 47.9333 77.1817 47.4C77.3817 46.86 77.4817 46.26 77.4817 45.6C77.4817 44.9467 77.3817 44.3533 77.1817 43.82C76.9817 43.28 76.6717 42.8533 76.2517 42.54C75.8317 42.22 75.2984 42.06 74.6517 42.06C74.0384 42.06 73.5384 42.21 73.1517 42.51C72.7651 42.8033 72.4784 43.2167 72.2917 43.75C72.1117 44.2767 72.0217 44.8933 72.0217 45.6C72.0217 46.3 72.1117 46.9167 72.2917 47.45C72.4784 47.9833 72.7684 48.4 73.1617 48.7C73.5617 48.9933 74.0851 49.14 74.7317 49.14ZM82.2159 51V40.2H91.5959V51H89.1859V42.46H84.6259V51H82.2159ZM99.1739 51.3C98.0939 51.3 97.1506 51.0567 96.3439 50.57C95.5372 50.0833 94.9106 49.4133 94.4639 48.56C94.0239 47.7 93.8039 46.7133 93.8039 45.6C93.8039 44.4667 94.0306 43.4733 94.4839 42.62C94.9372 41.7667 95.5672 41.1 96.3739 40.62C97.1806 40.14 98.1139 39.9 99.1739 39.9C100.261 39.9 101.207 40.1433 102.014 40.63C102.821 41.1167 103.447 41.79 103.894 42.65C104.341 43.5033 104.564 44.4867 104.564 45.6C104.564 46.72 104.337 47.71 103.884 48.57C103.437 49.4233 102.811 50.0933 102.004 50.58C101.197 51.06 100.254 51.3 99.1739 51.3ZM99.1739 49.04C100.134 49.04 100.847 48.72 101.314 48.08C101.781 47.44 102.014 46.6133 102.014 45.6C102.014 44.5533 101.777 43.72 101.304 43.1C100.831 42.4733 100.121 42.16 99.1739 42.16C98.5272 42.16 97.9939 42.3067 97.5739 42.6C97.1606 42.8867 96.8539 43.29 96.6539 43.81C96.4539 44.3233 96.3539 44.92 96.3539 45.6C96.3539 46.6467 96.5906 47.4833 97.0639 48.11C97.5439 48.73 98.2472 49.04 99.1739 49.04ZM111.957 51.3C110.904 51.3 110.021 51.05 109.307 50.55C108.594 50.05 108.057 49.37 107.697 48.51C107.337 47.6433 107.157 46.6733 107.157 45.6C107.157 44.5133 107.337 43.54 107.697 42.68C108.057 41.82 108.584 41.1433 109.277 40.65C109.977 40.15 110.841 39.9 111.867 39.9C112.887 39.9 113.771 40.15 114.517 40.65C115.271 41.1433 115.854 41.82 116.267 42.68C116.681 43.5333 116.887 44.5067 116.887 45.6C116.887 46.68 116.684 47.65 116.277 48.51C115.871 49.37 115.297 50.05 114.557 50.55C113.817 51.05 112.951 51.3 111.957 51.3ZM106.747 55.8V40.2H108.877V47.78H109.177V55.8H106.747ZM111.587 49.14C112.214 49.14 112.731 48.9833 113.137 48.67C113.544 48.3567 113.844 47.9333 114.037 47.4C114.237 46.86 114.337 46.26 114.337 45.6C114.337 44.9467 114.237 44.3533 114.037 43.82C113.837 43.28 113.527 42.8533 113.107 42.54C112.687 42.22 112.154 42.06 111.507 42.06C110.894 42.06 110.394 42.21 110.007 42.51C109.621 42.8033 109.334 43.2167 109.147 43.75C108.967 44.2767 108.877 44.8933 108.877 45.6C108.877 46.3 108.967 46.9167 109.147 47.45C109.334 47.9833 109.624 48.4 110.017 48.7C110.417 48.9933 110.941 49.14 111.587 49.14ZM122.111 51.3C121.331 51.3 120.671 51.1533 120.131 50.86C119.591 50.56 119.181 50.1633 118.901 49.67C118.628 49.1767 118.491 48.6333 118.491 48.04C118.491 47.52 118.578 47.0533 118.751 46.64C118.925 46.22 119.191 45.86 119.551 45.56C119.911 45.2533 120.378 45.0033 120.951 44.81C121.385 44.67 121.891 44.5433 122.471 44.43C123.058 44.3167 123.691 44.2133 124.371 44.12C125.058 44.02 125.775 43.9133 126.521 43.8L125.661 44.29C125.668 43.5433 125.501 42.9933 125.161 42.64C124.821 42.2867 124.248 42.11 123.441 42.11C122.955 42.11 122.485 42.2233 122.031 42.45C121.578 42.6767 121.261 43.0667 121.081 43.62L118.881 42.93C119.148 42.0167 119.655 41.2833 120.401 40.73C121.155 40.1767 122.168 39.9 123.441 39.9C124.401 39.9 125.245 40.0567 125.971 40.37C126.705 40.6833 127.248 41.1967 127.601 41.91C127.795 42.29 127.911 42.68 127.951 43.08C127.991 43.4733 128.011 43.9033 128.011 44.37V51H125.901V48.66L126.251 49.04C125.765 49.82 125.195 50.3933 124.541 50.76C123.895 51.12 123.085 51.3 122.111 51.3ZM122.591 49.38C123.138 49.38 123.605 49.2833 123.991 49.09C124.378 48.8967 124.685 48.66 124.911 48.38C125.145 48.1 125.301 47.8367 125.381 47.59C125.508 47.2833 125.578 46.9333 125.591 46.54C125.611 46.14 125.621 45.8167 125.621 45.57L126.361 45.79C125.635 45.9033 125.011 46.0033 124.491 46.09C123.971 46.1767 123.525 46.26 123.151 46.34C122.778 46.4133 122.448 46.4967 122.161 46.59C121.881 46.69 121.645 46.8067 121.451 46.94C121.258 47.0733 121.108 47.2267 121.001 47.4C120.901 47.5733 120.851 47.7767 120.851 48.01C120.851 48.2767 120.918 48.5133 121.051 48.72C121.185 48.92 121.378 49.08 121.631 49.2C121.891 49.32 122.211 49.38 122.591 49.38ZM133.325 51V42.34H129.715V40.2H139.345V42.34H135.735V51H133.325ZM150.6 40.2V51H148.29V43.95L143.15 51H141.22V40.2H143.53V47.07L148.69 40.2H150.6ZM153.388 51V40.2H158.298C158.651 40.2 158.981 40.22 159.288 40.26C159.594 40.3 159.858 40.35 160.078 40.41C160.598 40.5633 161.058 40.8633 161.458 41.31C161.858 41.75 162.058 42.36 162.058 43.14C162.058 43.6 161.984 43.98 161.838 44.28C161.691 44.5733 161.498 44.82 161.258 45.02C161.144 45.1133 161.028 45.1933 160.908 45.26C160.788 45.3267 160.668 45.38 160.548 45.42C160.808 45.46 161.054 45.5367 161.288 45.65C161.654 45.83 161.961 46.0967 162.208 46.45C162.461 46.8033 162.588 47.3 162.588 47.94C162.588 48.6667 162.411 49.28 162.058 49.78C161.711 50.2733 161.201 50.6167 160.528 50.81C160.281 50.8767 159.998 50.9267 159.678 50.96C159.358 50.9867 159.031 51 158.698 51H153.388ZM155.828 49.14H158.528C158.668 49.14 158.821 49.1267 158.988 49.1C159.154 49.0733 159.304 49.0367 159.438 48.99C159.678 48.9033 159.851 48.75 159.958 48.53C160.071 48.31 160.128 48.08 160.128 47.84C160.128 47.5133 160.044 47.2533 159.878 47.06C159.718 46.86 159.524 46.7267 159.298 46.66C159.164 46.6067 159.018 46.5767 158.858 46.57C158.704 46.5567 158.578 46.55 158.478 46.55H155.828V49.14ZM155.828 44.66H157.828C158.034 44.66 158.234 44.65 158.428 44.63C158.628 44.6033 158.794 44.56 158.928 44.5C159.148 44.4133 159.308 44.2667 159.408 44.06C159.514 43.8533 159.568 43.6233 159.568 43.37C159.568 43.1033 159.508 42.8633 159.388 42.65C159.274 42.43 159.091 42.2833 158.838 42.21C158.671 42.1433 158.468 42.1067 158.228 42.1C157.994 42.0933 157.844 42.09 157.778 42.09H155.828V44.66ZM164.57 51L164.56 40.2H166.97V43.8H168.18C168.48 43.8 168.816 43.8067 169.19 43.82C169.57 43.8333 169.886 43.8633 170.14 43.91C170.746 44.0433 171.263 44.2567 171.69 44.55C172.123 44.8433 172.453 45.2267 172.68 45.7C172.906 46.1733 173.02 46.7433 173.02 47.41C173.02 48.3633 172.773 49.1267 172.28 49.7C171.786 50.2667 171.096 50.6533 170.21 50.86C169.95 50.92 169.626 50.96 169.24 50.98C168.853 50.9933 168.51 51 168.21 51H164.57ZM166.97 49.11H168.42C168.566 49.11 168.73 49.1033 168.91 49.09C169.09 49.0767 169.26 49.0467 169.42 49C169.72 48.92 169.986 48.74 170.22 48.46C170.453 48.1733 170.57 47.8233 170.57 47.41C170.57 46.9767 170.453 46.62 170.22 46.34C169.986 46.06 169.7 45.8767 169.36 45.79C169.2 45.75 169.036 45.7233 168.87 45.71C168.71 45.6967 168.56 45.69 168.42 45.69H166.97V49.11ZM174.15 51V40.2H176.56V51H174.15Z" fill="#3D5E38"/>
<g clip-path="url(#clip1_1142_4513)">
<path d="M21.3911 172.353C21.3911 172.353 16.9019 164.872 11.1966 163.198C11.1966 163.198 -0.500119 168.096 -4.34136 178.65C-4.34136 178.65 -5.66868 181.638 -5.92169 186.082C-6.01334 187.673 -6.44232 189.245 -7.64697 190.294C-7.67078 190.31 -7.69024 190.336 -7.71406 190.352C-6.26682 189.679 -3.96423 190.45 -2.53142 191.158C1.27755 193.045 4.90822 192.698 4.90822 192.698C14.4914 193.842 25.3043 184.688 25.3043 184.688C25.8991 180.083 22.782 174.551 21.3868 172.343L21.3911 172.353Z" fill="#FFFFC0"/>
<path d="M22.0654 177.961C23.8324 182.268 23.9276 185.778 23.9276 185.778L26.5357 183.806L26.1121 172.246L21.3205 166.596L16.1389 162.992L12.3453 162.644L10.1826 163.739C10.1826 163.739 14.6504 166.499 19.2334 172.847C20.047 173.973 20.7228 175.12 21.2745 176.233C18.3549 178.293 14.9304 180.197 11.6031 181.97C13.9034 181.947 18.953 179.881 22.0593 177.976L22.0654 177.961Z" fill="#FFFFC0"/>
<path d="M31.419 166.461C31.6063 164.763 33.8002 163.655 33.8002 163.655L33.8036 163.605L33.8512 163.573L33.7996 163.552L33.7948 163.059L33.3557 163.353L33.3041 163.331C33.3041 163.331 31.4084 164.889 29.7757 164.375C28.1503 163.864 23.4489 157.511 17.346 157.733C11.243 157.954 10.1662 163.043 10.1662 163.043C15.3744 163.618 20.8402 172.394 20.8402 172.394C22.0712 174.225 26.1418 180.794 24.8128 185.047C24.8128 185.047 29.8284 186.008 32.4939 180.51C35.1594 175.013 31.2274 168.148 31.4147 166.451L31.419 166.461Z" fill="#FFFFC0"/>
<path d="M23.1862 161.874C23.197 161.637 23.0284 161.439 22.8008 161.406C21.7054 161.241 18.7383 160.81 18.3473 160.839C17.9993 160.869 17.4736 163.392 17.1999 164.796C17.1024 165.308 17.4358 165.797 17.9502 165.887C19.4902 166.165 22.4361 166.648 22.6834 166.276C22.9605 165.873 23.1283 162.961 23.1862 161.874Z" fill="#748A5B"/>
<path d="M22.7629 168.29C22.7683 168.171 22.6892 168.07 22.5665 168.054C22.021 167.977 20.5353 167.756 20.3398 167.771C20.1694 167.787 19.9029 169.047 19.7698 169.751C19.7173 170.005 19.8929 170.249 20.1501 170.294C20.9186 170.437 22.3908 170.67 22.5167 170.489C22.6516 170.285 22.7391 168.831 22.7659 168.282L22.7629 168.29Z" fill="#FFFFC0"/>
<path d="M27.4854 169.966C27.5116 169.839 27.4251 169.734 27.289 169.73C26.6408 169.715 24.9006 169.674 24.6678 169.716C24.4602 169.76 23.9629 171.184 23.7077 171.976C23.615 172.265 23.7802 172.514 24.085 172.526C24.986 172.577 26.7142 172.647 26.8907 172.427C27.0836 172.187 27.3872 170.563 27.4958 169.962L27.4854 169.966Z" fill="#FFFFC0"/>
<path d="M27.6073 165.442C27.6436 165.164 27.4637 164.91 27.1918 164.859C26.3864 164.701 24.8675 164.561 24.486 165.051C24.1568 165.476 24.0148 166.537 23.9578 167.16C23.9349 167.426 24.1209 167.666 24.3854 167.714C25.0225 167.82 26.1608 167.985 26.6662 167.908C27.1997 167.825 27.4925 166.248 27.5969 165.447L27.6073 165.442Z" fill="#FFFFC0"/>
<path d="M31.534 167.232C31.6197 168.852 31.5529 173.157 28.5504 174.683C25.3352 176.329 23.1288 175.554 22.5773 175.302C24.0846 178.099 25.7491 182.089 24.8232 185.043C24.8232 185.043 29.8388 186.003 32.5043 180.506C34.9093 175.54 31.9939 169.599 31.537 167.224L31.534 167.232Z" fill="#FFFFC0"/>
<path d="M7.92992 176.744C8.95801 175.391 9.49771 173.674 9.01246 172.398C8.52721 171.123 6.86869 170.504 5.36742 171.267L4.66007 171.606C2.92303 173.134 1.3854 174.89 0.12937 176.778C-0.497134 177.719 -1.0761 178.817 -0.820017 179.705C-0.595746 180.504 0.269858 180.893 1.18497 180.845C2.10008 180.798 3.04923 180.395 3.94276 179.917C5.43833 179.125 6.90184 178.097 7.93294 176.736L7.92992 176.744Z" fill="#748A5B"/>
<g opacity="0.84">
<path d="M20.5505 158.615C20.5263 158.674 19.9607 158.52 19.0289 158.44C18.0971 158.359 16.7883 158.4 15.4348 158.845C14.0842 159.282 12.9961 160.025 12.2909 160.632C11.5828 161.246 11.2207 161.709 11.1678 161.671C11.1265 161.645 11.4152 161.109 12.0959 160.414C12.7662 159.724 13.8845 158.907 15.3079 158.44C16.7312 157.972 18.1151 157.979 19.067 158.136C20.0262 158.297 20.5747 158.556 20.5565 158.6L20.5505 158.615Z" fill="white"/>
</g>
<path d="M12.2347 168.654C11.904 168.2 11.3776 167.949 10.8251 167.826L10.8546 167.839C10.7882 167.811 10.7188 167.792 10.6507 167.789C10.6139 167.774 10.5783 167.777 10.5384 167.769L10.6434 167.786C10.3134 167.772 9.97563 167.987 9.71766 168.217C9.40299 168.501 9.27333 168.965 9.38982 169.375C9.55385 169.941 10.1194 170.285 10.6833 170.464C11.1335 170.606 11.66 170.666 12.0514 170.405C12.5962 170.042 12.6284 169.185 12.2451 168.649L12.2347 168.654Z" fill="#FAFAFA"/>
</g>
<path d="M60.838 163.668C60.838 163.668 47.2053 167.63 42.3167 177.072C42.3167 177.072 45.5324 201.094 60.8022 213.983C60.8022 213.983 65.0369 218.075 71.9902 221.026C74.4846 222.085 76.8073 223.746 78.021 226.524C78.0416 226.581 78.0634 226.628 78.0929 226.687C77.5909 223.681 79.7157 219.924 81.3921 217.716C85.8763 211.842 86.7453 205.045 86.7453 205.045C92.2933 188.265 81.9762 163.467 81.9762 163.467C74.8974 159.804 64.8901 162.366 60.838 163.668Z" fill="#FFFFC0"/>
<path d="M70.4532 165.298C77.9044 164.512 83.4538 166.28 83.4538 166.28L81.3579 160.528L63.0332 154.898L52.3091 160.351L44.6445 167.632L42.6303 174.239L43.5238 178.716C43.5238 178.716 49.5857 172.234 61.3212 167.537C63.4067 166.702 65.461 166.13 67.4298 165.745C69.5428 172.112 71.2074 179.29 72.7125 186.214C73.5646 182.088 72.2665 171.908 70.4632 165.29L70.4532 165.298Z" fill="#FFFFC0"/>
<path d="M56.2171 141.834C53.6121 140.557 52.7119 135.991 52.7119 135.991L52.6324 135.973L52.6015 135.852L52.5465 135.933L51.7714 135.664L52.0651 136.628L52.0101 136.709C52.0101 136.709 53.7317 141.001 52.2932 143.65C50.8547 146.298 39.0073 151.237 36.9959 162.386C34.9857 173.524 42.599 178.292 42.599 178.292C45.5237 169.228 61.4947 164.23 61.4947 164.23L61.4971 164.21C64.8662 163.02 76.8111 159.324 83.0006 164.093C83.0006 164.093 86.4675 155.579 78.8225 147.716C71.1775 139.852 58.8284 143.134 56.2247 141.846L56.2171 141.834Z" fill="#FFFFC0"/>
<path d="M45.9668 154.61C45.6026 154.454 45.215 154.65 45.0678 155.047C44.3792 156.938 42.5383 162.095 42.4346 162.817C42.3495 163.459 46.14 165.839 48.2584 167.105C49.0332 167.564 49.9378 167.233 50.2787 166.355C51.3191 163.725 53.2248 158.635 52.7377 157.979C52.2034 157.26 47.6506 155.317 45.9491 154.606L45.9668 154.61Z" fill="#FFFFC0"/>
<path d="M55.7662 158.654C55.5835 158.581 55.3903 158.674 55.3217 158.868C54.9813 159.82 54.0571 162.392 54.0046 162.758C53.9659 163.085 55.8572 164.269 56.9214 164.898C57.3037 165.131 57.7611 164.962 57.9321 164.518C58.4529 163.198 59.4089 160.664 59.1654 160.336C58.8988 159.971 56.6264 159.006 55.7751 158.656L55.7662 158.654Z" fill="#FFFFC0"/>
<path d="M60.3217 150.663C60.125 150.545 59.9295 150.648 59.8736 150.889C59.5985 152.05 58.848 155.213 58.8212 155.671C58.8005 156.078 60.8896 157.774 62.0542 158.691C62.4812 159.03 62.9321 158.858 63.0782 158.321C63.5074 156.71 64.2976 153.598 64.0113 153.153C63.702 152.672 61.2385 151.197 60.3217 150.663Z" fill="#FFFFC0"/>
<path d="M53.4061 148.143C52.985 147.921 52.5077 148.097 52.3149 148.569C51.749 149.955 50.939 152.633 51.5644 153.595C52.1131 154.434 53.7465 155.287 54.7078 155.726C55.1237 155.914 55.5856 155.714 55.7582 155.259C56.181 154.155 56.8795 152.189 56.9479 151.226C57.0235 150.202 54.6337 148.799 53.4061 148.143Z" fill="#748A5B"/>
<path d="M57.5415 141.596C60.1253 142.333 66.85 144.831 68.1051 151.043C69.4429 157.698 67.3812 161.218 66.7913 162.079C71.7655 160.933 78.6732 160.15 82.9565 163.443C82.9565 163.443 86.4076 155 78.7977 147.201C71.9193 140.157 61.4711 142.098 57.5591 141.6L57.5415 141.596Z" fill="#FFFFC0"/>
<path d="M62.549 190.912C60.7987 188.277 58.2811 186.34 56.0704 186.513C53.8596 186.686 52.2304 189.345 52.8499 192.513L53.114 193.982C54.8654 197.995 57.0555 201.771 59.5617 205.114C60.8071 206.773 62.334 208.443 63.8434 208.49C65.1891 208.532 66.1532 207.173 66.4346 205.491C66.7159 203.81 66.4466 201.846 66.0408 199.956C65.3656 196.796 64.2981 193.558 62.5478 190.922L62.549 190.912Z" fill="#748A5B"/>
<g opacity="0.84">
<path d="M39.6963 157.876C39.7687 157.925 39.2439 158.862 38.7253 160.521C38.1984 162.168 37.7468 164.618 37.9617 167.386C38.1765 170.153 39.0219 172.603 39.8194 174.267C40.6062 175.94 41.281 176.875 41.2171 176.923C41.1957 176.939 40.9948 176.732 40.6901 176.32C40.3759 175.906 39.9604 175.267 39.5183 174.429C38.6319 172.776 37.6973 170.251 37.4739 167.387C37.2411 164.519 37.778 162.005 38.4022 160.36C38.7101 159.531 39.0256 158.895 39.2668 158.485C39.5092 158.065 39.6689 157.859 39.6951 157.887L39.6963 157.876Z" fill="#748A5B"/>
</g>
<path d="M274.088 235.756C294.604 189.207 360.086 210.117 372.05 235.372L341.906 424.75L126 390.383L142.089 289.302C157.543 192.216 214.55 224.365 226.48 248.66C238.41 272.956 253.572 282.304 274.088 235.756Z" stroke="#FFFFC0" stroke-width="2" stroke-dasharray="11 11"/>
<g clip-path="url(#clip2_1142_4513)">
<path fill-rule="evenodd" clip-rule="evenodd" d="M278.812 107.391C281.337 107.11 283.234 104.905 283.098 102.337C282.956 99.6733 280.681 97.628 278.015 97.7686C277.179 97.8127 276.39 98.0293 275.896 98.179C275.314 98.3553 274.692 98.5821 274.072 98.8294C272.825 99.3262 271.387 99.9861 269.943 100.717C267.171 102.12 263.847 104.052 261.762 105.898C259.764 107.667 259.58 110.719 261.351 112.716C263.121 114.713 266.176 114.898 268.173 113.129C269.292 112.139 271.696 110.659 274.313 109.334C275.564 108.701 276.735 108.168 277.656 107.801C278.119 107.617 278.47 107.494 278.705 107.422C278.749 107.409 278.784 107.399 278.812 107.391ZM242.065 92.4427C239.446 91.9266 236.905 93.6297 236.389 96.2466C235.874 98.8635 237.579 101.403 240.198 101.919C241.527 102.181 243.099 103.063 244.687 104.561C246.248 106.032 247.507 107.803 248.249 109.259C249.461 111.636 252.371 112.581 254.749 111.371C257.128 110.161 258.073 107.253 256.861 104.876C255.632 102.465 253.713 99.7924 251.32 97.5365C248.956 95.3069 245.801 93.179 242.065 92.4427ZM245.612 123.47C248.274 123.671 250.593 121.677 250.793 119.017C250.993 116.358 248.997 114.039 246.335 113.838C238.871 113.276 232.173 116.506 228.422 119.875C226.437 121.657 226.274 124.711 228.059 126.695C229.843 128.679 232.899 128.843 234.884 127.06C237.015 125.146 241.202 123.138 245.612 123.47ZM268.102 118.201C265.648 117.151 262.807 118.288 261.758 120.74C260.708 123.192 261.847 126.031 264.301 127.081C268.945 129.067 272.011 132.604 273.5 135.042C274.891 137.319 277.865 138.039 280.143 136.65C282.422 135.261 283.141 132.289 281.751 130.012C279.515 126.352 275.062 121.178 268.102 118.201ZM255.844 121.881C258.464 122.397 260.169 124.937 259.653 127.554L257.39 139.038C256.874 141.655 254.333 143.358 251.714 142.842C249.095 142.325 247.39 139.786 247.906 137.169L250.169 125.685C250.684 123.068 253.225 121.365 255.844 121.881ZM213.394 89.8068C213.91 87.1899 212.205 84.6501 209.586 84.134C206.967 83.6179 204.426 85.3209 203.91 87.9378L203.364 90.7087L200.382 88.8462C198.118 87.4323 195.136 88.1196 193.722 90.3814C192.308 92.6431 192.996 95.6228 195.26 97.0367L198.797 99.2453L195.331 102.415C193.363 104.215 193.228 107.27 195.031 109.238C196.833 111.206 199.89 111.341 201.859 109.541L205.177 106.506L207.096 110.573C208.234 112.986 211.114 114.02 213.529 112.883C215.943 111.746 216.977 108.869 215.839 106.456L213.835 102.209L217.945 101.507C220.576 101.058 222.344 98.562 221.893 95.9329C221.443 93.3036 218.945 91.5365 216.314 91.9858L212.848 92.5777L213.394 89.8068ZM175.133 141.119L180.193 124.734L191.215 126.906L189.681 143.985L175.133 141.119ZM164.314 143.393L171.481 120.186C172.02 117.983 173.503 116.523 174.882 115.726C176.222 114.952 178.035 114.464 179.878 114.827L195.266 117.859C197.043 118.21 198.772 119.187 199.91 120.882C200.982 122.48 201.265 124.32 201.001 126.013L198.83 150.183L198.829 150.195L197.786 161.8C197.598 169.236 192.895 175.001 186.055 177.462C184.191 178.134 182.251 178.509 180.304 178.602L178.952 185.465L180.987 185.866C183.606 186.382 185.311 188.922 184.796 191.539C184.28 194.156 181.739 195.858 179.12 195.342L165.564 192.671C162.946 192.155 161.24 189.615 161.756 186.998C162.272 184.381 164.813 182.678 167.432 183.195L169.467 183.596L170.813 176.768C168.996 175.936 167.295 174.831 165.787 173.468C165.73 173.417 165.675 173.364 165.62 173.31C160.754 168.475 158.818 161.533 160.807 154.752L160.826 154.686L164.31 143.404L164.314 143.393ZM226.164 154.31C223.878 153.223 221.143 154.193 220.056 156.477C218.969 158.761 219.94 161.494 222.227 162.581C223.387 163.133 224.625 164.311 225.733 166.059C226.822 167.776 227.565 169.698 227.905 171.209C228.462 173.677 230.915 175.227 233.385 174.672C235.855 174.116 237.405 171.666 236.848 169.198C236.284 166.695 235.146 163.79 233.476 161.157C231.825 158.555 229.425 155.861 226.164 154.31ZM227.957 180.772C227.15 183.17 224.55 184.458 222.151 183.651C218.176 182.314 213.858 183.179 211.451 184.439C209.208 185.613 206.438 184.747 205.263 182.507C204.088 180.266 204.953 177.498 207.195 176.324C211.432 174.107 218.346 172.706 225.074 174.97C227.473 175.777 228.764 178.375 227.957 180.772ZM261.556 173.005C261.079 175.397 258.819 176.979 256.433 176.647C256.405 176.647 256.37 176.648 256.327 176.65C256.093 176.661 255.742 176.692 255.274 176.753C254.341 176.874 253.14 177.09 251.842 177.379C249.126 177.983 246.57 178.781 245.31 179.429C243.06 180.587 240.295 179.702 239.137 177.453C237.977 175.204 238.862 172.442 241.112 171.285C243.462 170.076 246.97 169.078 249.846 168.438C251.344 168.104 252.821 167.835 254.083 167.67C254.711 167.587 255.336 167.525 255.911 167.499C256.401 167.477 257.176 167.462 257.955 167.618C260.438 168.113 262.05 170.525 261.556 173.005ZM237.629 184.922C239.169 182.915 242.046 182.534 244.055 184.073C249.754 188.438 252.634 194.235 253.831 198.121C254.575 200.539 253.217 203.102 250.797 203.845C248.378 204.588 245.813 203.23 245.069 200.812C244.271 198.223 242.283 194.255 238.48 191.343C236.471 189.804 236.09 186.929 237.629 184.922ZM234.098 190.69C235.185 188.406 234.214 185.673 231.928 184.586C229.641 183.499 226.907 184.469 225.82 186.753L221.048 196.776C219.961 199.06 220.932 201.793 223.219 202.88C225.504 203.967 228.239 202.997 229.327 200.713L234.098 190.69Z" fill="#FFFFC0"/>
</g>
</g>
<defs>
<clipPath id="clip0_1142_4513">
<rect width="307" height="242" rx="20" fill="white"/>
</clipPath>
<clipPath id="clip1_1142_4513">
<rect width="34.8309" height="41" fill="white" transform="translate(6.59378 151.915) rotate(22.2772)"/>
</clipPath>
<clipPath id="clip2_1142_4513">
<rect width="116" height="115.907" fill="white" transform="translate(175.725 77) rotate(11.1479)"/>
</clipPath>
</defs>
</svg>
