<svg width="540" height="200" viewBox="0 0 540 200" fill="none" xmlns="http://www.w3.org/2000/svg">
<g clip-path="url(#clip0_1142_5892)">
<rect width="540" height="200" rx="20" fill="#FFFFC0"/>
<path d="M86.346 66.8336C74.1509 116.219 6.04636 106.896 -10.0872 84.0782L-13 -107.662L205.599 -110.982L207.154 -8.64021C208.647 89.6567 146.956 67.8033 131.021 45.9245C115.086 24.0458 98.5411 17.448 86.346 66.8336Z" stroke="#748A5B" stroke-width="2" stroke-dasharray="11 11"/>
<path d="M99.0878 199.756C119.604 153.207 185.086 174.117 197.05 199.372L166.906 388.75L-49 354.383L-32.9107 253.302C-17.4573 156.216 39.5496 188.365 51.4797 212.66C63.4098 236.956 78.5718 246.304 99.0878 199.756Z" stroke="#748A5B" stroke-width="2" stroke-dasharray="11 11"/>
<rect x="20.535" y="20.5771" width="128" height="47" rx="10" fill="#748A5B"/>
<path d="M45.935 51.5771V37.1771H48.345V43.1771H51.125V45.5771H48.345V51.5771H45.935ZM56.795 51.8771C55.8417 51.8771 54.9884 51.7005 54.235 51.3471C53.4884 50.9938 52.855 50.4871 52.335 49.8271C51.815 49.1671 51.4184 48.3771 51.145 47.4571C50.8717 46.5305 50.735 45.5038 50.735 44.3771C50.735 43.2438 50.8717 42.2171 51.145 41.2971C51.4184 40.3771 51.815 39.5871 52.335 38.9271C52.855 38.2671 53.4884 37.7605 54.235 37.4071C54.9884 37.0538 55.8417 36.8771 56.795 36.8771C57.7484 36.8771 58.6017 37.0538 59.355 37.4071C60.1084 37.7605 60.745 38.2671 61.265 38.9271C61.785 39.5871 62.1817 40.3771 62.455 41.2971C62.7284 42.2171 62.865 43.2438 62.865 44.3771C62.865 45.5171 62.7284 46.5471 62.455 47.4671C62.1817 48.3871 61.785 49.1771 61.265 49.8371C60.745 50.4971 60.1084 51.0038 59.355 51.3571C58.6017 51.7038 57.7484 51.8771 56.795 51.8771ZM56.795 49.6071C57.395 49.6071 57.915 49.4805 58.355 49.2271C58.795 48.9671 59.1584 48.6038 59.445 48.1371C59.7317 47.6638 59.9484 47.1105 60.095 46.4771C60.2417 45.8371 60.315 45.1371 60.315 44.3771C60.315 43.6171 60.2417 42.9205 60.095 42.2871C59.955 41.6471 59.7417 41.0938 59.455 40.6271C59.1684 40.1605 58.8017 39.8005 58.355 39.5471C57.915 39.2871 57.395 39.1571 56.795 39.1571C56.2017 39.1571 55.685 39.2871 55.245 39.5471C54.805 39.8005 54.4384 40.1605 54.145 40.6271C53.8584 41.0938 53.6417 41.6471 53.495 42.2871C53.355 42.9205 53.285 43.6171 53.285 44.3771C53.285 45.1371 53.355 45.8371 53.495 46.4771C53.6417 47.1105 53.8584 47.6638 54.145 48.1371C54.4317 48.6038 54.795 48.9671 55.235 49.2271C55.6817 49.4805 56.2017 49.6071 56.795 49.6071ZM69.3508 51.8971C68.3241 51.8838 67.4508 51.6538 66.7308 51.2071C66.0108 50.7605 65.4475 50.1305 65.0408 49.3171C64.6341 48.5038 64.3875 47.5438 64.3008 46.4371C64.2608 45.8705 64.2575 45.2371 64.2908 44.5371C64.3241 43.8371 64.3975 43.1538 64.5108 42.4871C64.6241 41.8205 64.7808 41.2538 64.9808 40.7871C65.1875 40.3205 65.4575 39.8905 65.7908 39.4971C66.1241 39.0971 66.4841 38.7638 66.8708 38.4971C67.3108 38.1905 67.7875 37.9538 68.3008 37.7871C68.8208 37.6205 69.3641 37.4938 69.9308 37.4071C70.4975 37.3138 71.0808 37.2305 71.6808 37.1571C72.2808 37.0838 72.8741 36.9905 73.4608 36.8771L73.6808 39.0071C73.3075 39.1005 72.8741 39.1738 72.3808 39.2271C71.8941 39.2738 71.3875 39.3271 70.8608 39.3871C70.3408 39.4471 69.8441 39.5338 69.3708 39.6471C68.8975 39.7605 68.4875 39.9271 68.1408 40.1471C67.6608 40.4405 67.2941 40.8605 67.0408 41.4071C66.7875 41.9538 66.6375 42.5305 66.5908 43.1371C67.0041 42.5238 67.5175 42.0938 68.1308 41.8471C68.7508 41.5938 69.3775 41.4671 70.0108 41.4671C70.9708 41.4671 71.7941 41.6938 72.4808 42.1471C73.1741 42.6005 73.7041 43.2171 74.0708 43.9971C74.4441 44.7705 74.6308 45.6338 74.6308 46.5871C74.6308 47.6538 74.4075 48.5871 73.9608 49.3871C73.5141 50.1871 72.8941 50.8071 72.1008 51.2471C71.3075 51.6871 70.3908 51.9038 69.3508 51.8971ZM69.4708 49.6371C70.3375 49.6371 70.9908 49.3705 71.4308 48.8371C71.8775 48.2971 72.1008 47.5805 72.1008 46.6871C72.1008 45.7738 71.8708 45.0538 71.4108 44.5271C70.9575 44.0005 70.3108 43.7371 69.4708 43.7371C68.6175 43.7371 67.9675 44.0005 67.5208 44.5271C67.0741 45.0538 66.8508 45.7738 66.8508 46.6871C66.8508 47.6205 67.0775 48.3471 67.5308 48.8671C67.9841 49.3805 68.6308 49.6371 69.4708 49.6371ZM86.1935 40.7771V51.5771H83.8835V44.5271L78.7435 51.5771H76.8135V40.7771H79.1235V47.6471L84.2835 40.7771H86.1935ZM88.0014 51.5771V49.5571C88.3948 49.6305 88.6981 49.6238 88.9114 49.5371C89.1248 49.4438 89.2848 49.2705 89.3914 49.0171C89.4981 48.7638 89.5914 48.4271 89.6714 48.0071C89.7781 47.4138 89.8714 46.7305 89.9514 45.9571C90.0381 45.1838 90.1114 44.3571 90.1714 43.4771C90.2381 42.5971 90.2981 41.6971 90.3514 40.7771H98.3014V51.5771H95.9014V43.0371H92.4714C92.4381 43.4705 92.3981 43.9571 92.3514 44.4971C92.3048 45.0305 92.2548 45.5705 92.2014 46.1171C92.1481 46.6638 92.0881 47.1838 92.0214 47.6771C91.9614 48.1638 91.8981 48.5805 91.8314 48.9271C91.6781 49.7071 91.4581 50.3238 91.1714 50.7771C90.8914 51.2305 90.4981 51.5205 89.9914 51.6471C89.4848 51.7805 88.8214 51.7571 88.0014 51.5771ZM106.021 51.8771C104.927 51.8771 103.967 51.6405 103.141 51.1671C102.314 50.6938 101.667 50.0371 101.201 49.1971C100.741 48.3571 100.511 47.3905 100.511 46.2971C100.511 45.1171 100.737 44.0938 101.191 43.2271C101.644 42.3538 102.274 41.6771 103.081 41.1971C103.887 40.7171 104.821 40.4771 105.881 40.4771C107.001 40.4771 107.951 40.7405 108.731 41.2671C109.517 41.7871 110.101 42.5238 110.481 43.4771C110.861 44.4305 111.004 45.5538 110.911 46.8471H108.521V45.9671C108.514 44.7938 108.307 43.9371 107.901 43.3971C107.494 42.8571 106.854 42.5871 105.981 42.5871C104.994 42.5871 104.261 42.8938 103.781 43.5071C103.301 44.1138 103.061 45.0038 103.061 46.1771C103.061 47.2705 103.301 48.1171 103.781 48.7171C104.261 49.3171 104.961 49.6171 105.881 49.6171C106.474 49.6171 106.984 49.4871 107.411 49.2271C107.844 48.9605 108.177 48.5771 108.411 48.0771L110.791 48.7971C110.377 49.7705 109.737 50.5271 108.871 51.0671C108.011 51.6071 107.061 51.8771 106.021 51.8771ZM102.301 46.8471V45.0271H109.731V46.8471H102.301ZM122.502 40.7771V51.5771H120.192V44.5271L115.052 51.5771H113.122V40.7771H115.432V47.6471L120.592 40.7771H122.502Z" fill="white"/>
<g clip-path="url(#clip1_1142_5892)">
<path d="M361.419 71.6242C364.954 70.8635 368.044 68.7335 370.013 65.7002C371.982 62.667 372.668 58.9774 371.923 55.4389C369.575 49.6134 365.792 44.4759 360.926 40.5037C360.025 39.7756 358.973 39.2573 357.847 38.9864C356.72 38.7155 355.547 38.6988 354.414 38.9375C353.28 39.1762 352.213 39.6643 351.292 40.3664C350.37 41.0686 349.616 41.9671 349.085 42.9968C346.324 48.6001 345.016 54.8075 345.281 61.0484C346.026 64.5869 348.142 67.6863 351.167 69.6683C354.191 71.6503 357.878 72.3535 361.419 71.6242Z" fill="#748A5B"/>
<path d="M438.387 55.419C441.922 54.6584 445.012 52.5284 446.98 49.4951C448.949 46.4618 449.636 42.7723 448.891 39.2338C446.542 33.4082 442.759 28.2707 437.894 24.2985C436.992 23.5704 435.94 23.0521 434.814 22.7812C433.687 22.5103 432.515 22.4936 431.381 22.7323C430.247 22.971 429.181 23.4592 428.259 24.1613C427.337 24.8634 426.584 25.7619 426.053 26.7916C423.202 32.3885 421.811 38.6152 422.011 44.8931C422.384 46.6654 423.106 48.3459 424.133 49.837C425.161 51.3282 426.475 52.6004 427.998 53.5796C429.522 54.5589 431.225 55.2258 433.008 55.5415C434.791 55.8573 436.619 55.8157 438.387 55.419Z" fill="#748A5B"/>
<path d="M399.903 63.5219C403.438 62.7612 406.528 60.6312 408.497 57.5979C410.465 54.5647 411.152 50.8751 410.407 47.3366C408.096 41.515 404.354 36.3698 399.529 32.3764C398.627 31.6483 397.575 31.13 396.449 30.8591C395.322 30.5882 394.15 30.5715 393.016 30.8103C391.882 31.049 390.816 31.5371 389.894 32.2392C388.972 32.9413 388.219 33.8398 387.688 34.8695C384.882 40.4697 383.533 46.6867 383.765 52.9461C384.51 56.4846 386.626 59.584 389.65 61.566C392.675 63.548 396.361 64.2512 399.903 63.5219Z" fill="#748A5B"/>
<path d="M457.084 85.4893C456.299 85.6546 455.48 85.5012 454.808 85.0629C454.136 84.6247 453.666 83.9374 453.5 83.1522L449.761 65.3905C449.43 63.8203 448.489 62.4457 447.145 61.5691C445.801 60.6926 444.164 60.3859 442.594 60.7165L436.673 61.963C435.103 62.2937 433.728 63.2345 432.852 64.5786C431.975 65.9227 431.668 67.5599 431.999 69.1302L435.739 86.8919C435.904 87.677 435.751 88.4956 435.312 89.1677C434.874 89.8397 434.187 90.3102 433.402 90.4755L418.6 93.5918C417.815 93.7571 416.997 93.6038 416.324 93.1655C415.652 92.7272 415.182 92.0399 415.017 91.2548L411.277 73.4931C410.946 71.9229 410.006 70.5483 408.662 69.6717C407.317 68.7952 405.68 68.4885 404.11 68.8191L398.189 70.0656C396.619 70.3962 395.245 71.3371 394.368 72.6812C393.491 74.0253 393.185 75.6625 393.515 77.2328L397.255 94.9945C397.42 95.7796 397.267 96.5982 396.829 97.2703C396.39 97.9423 395.703 98.4127 394.918 98.578L380.117 101.694C379.331 101.86 378.513 101.706 377.841 101.268C377.169 100.83 376.698 100.143 376.533 99.3574L372.793 81.5957C372.463 80.0255 371.522 78.6509 370.178 77.7743C368.834 76.8978 367.196 76.5911 365.626 76.9217L359.706 78.1682C358.135 78.4988 356.761 79.4397 355.884 80.7838C355.008 82.1279 354.701 83.7651 355.032 85.3353L358.771 103.097C358.937 103.882 358.783 104.701 358.345 105.373C357.907 106.045 357.219 106.515 356.434 106.681C352.509 107.507 349.072 109.859 346.881 113.219C344.689 116.58 343.923 120.673 344.749 124.598L345.198 126.73C345.862 129.564 347.526 132.063 349.884 133.77C352.242 135.477 355.137 136.276 358.036 136.022C360.512 135.755 362.867 134.818 364.849 133.311C366.831 131.804 368.364 129.785 369.282 127.471C369.76 126.237 370.537 125.141 371.543 124.282C372.549 123.422 373.753 122.826 375.047 122.547C376.421 122.246 377.849 122.289 379.203 122.673C380.557 123.056 381.795 123.769 382.806 124.747C384.405 126.26 386.346 127.363 388.464 127.96C390.582 128.558 392.814 128.634 394.968 128.18C397.121 127.727 399.133 126.758 400.83 125.357C402.527 123.956 403.859 122.164 404.712 120.135C405.294 118.922 406.147 117.86 407.205 117.029C408.263 116.199 409.498 115.623 410.814 115.346C412.131 115.068 413.493 115.098 414.796 115.431C416.099 115.764 417.308 116.393 418.33 117.268C419.928 118.781 421.87 119.883 423.988 120.481C426.106 121.079 428.337 121.155 430.491 120.701C432.645 120.248 434.656 119.279 436.353 117.878C438.051 116.476 439.383 114.685 440.236 112.656C440.773 111.4 441.604 110.292 442.659 109.425C443.713 108.557 444.961 107.955 446.296 107.67C447.593 107.403 448.935 107.463 450.202 107.844C451.469 108.225 452.622 108.914 453.557 109.851C455.331 111.598 457.547 112.828 459.969 113.408C462.39 113.988 464.923 113.896 467.296 113.141C470.112 112.231 472.497 110.321 473.999 107.771C475.502 105.222 476.018 102.21 475.451 99.3057L475.002 97.1743C474.175 93.2487 471.823 89.8123 468.463 87.6209C465.103 85.4295 461.01 84.6627 457.084 85.4893Z" fill="#748A5B"/>
<path d="M475.426 119.159C473.799 120.207 472.039 121.035 470.194 121.62C466.971 122.66 463.556 122.967 460.199 122.518C456.842 122.07 453.627 120.877 450.79 119.028C450.462 118.791 450.088 118.626 449.693 118.542C449.297 118.458 448.888 118.458 448.493 118.542C448.097 118.625 447.723 118.79 447.395 119.026C447.066 119.262 446.791 119.564 446.586 119.913C444.992 122.41 442.915 124.562 440.476 126.244C438.037 127.925 435.287 129.102 432.387 129.704C426.528 130.919 420.427 129.783 415.397 126.542C414.73 126.116 413.922 125.969 413.147 126.132C412.372 126.295 411.692 126.755 411.253 127.414C407.944 132.423 402.795 135.925 396.92 137.162C391.046 138.399 384.921 137.27 379.874 134.021C379.549 133.794 379.18 133.636 378.791 133.556C378.402 133.477 378.001 133.478 377.613 133.56C377.225 133.642 376.857 133.802 376.533 134.032C376.209 134.261 375.936 134.554 375.73 134.894C373.883 137.661 371.458 139.996 368.622 141.735C365.786 143.475 362.606 144.578 359.302 144.968C357.377 145.177 355.433 145.129 353.521 144.825C353.041 144.745 352.547 144.782 352.084 144.933C351.621 145.085 351.201 145.346 350.86 145.694C350.515 146.044 350.261 146.474 350.123 146.945C349.985 147.417 349.966 147.915 350.069 148.396L355.055 172.078C355.91 175.913 358.223 179.264 361.505 181.424C364.786 183.583 368.78 184.381 372.639 183.648L473.289 162.457C475.233 162.048 477.077 161.259 478.716 160.138C480.355 159.016 481.757 157.582 482.843 155.918C483.928 154.254 484.674 152.393 485.04 150.44C485.406 148.488 485.383 146.483 484.974 144.539L479.988 120.857C479.888 120.376 479.67 119.927 479.353 119.551C479.036 119.175 478.631 118.884 478.174 118.704C477.713 118.554 477.223 118.517 476.745 118.596C476.266 118.675 475.814 118.868 475.426 119.159Z" fill="#748A5B"/>
</g>
<g clip-path="url(#clip2_1142_5892)">
<path d="M43.6414 194.042C42.3699 193.659 41.1899 193.008 39.9137 192.639C38.6391 192.266 37.1744 192.207 36.0704 192.944C33.8763 194.406 34.3887 197.799 33.0603 200.077C32.1289 201.674 30.2596 202.614 28.4089 202.635C26.5581 202.656 24.7568 201.841 23.3757 200.614C22.4009 199.746 21.3539 198.584 20.0733 198.831C18.9778 199.037 18.3579 200.201 18.0547 201.274C17.7515 202.346 17.5675 203.536 16.769 204.313C15.4817 205.57 13.3049 205.095 11.768 204.157C10.2312 203.218 8.85682 201.888 7.09341 201.54C6.05177 201.336 4.96847 201.505 3.91362 201.39C2.85877 201.275 1.12593 202.034 0.808597 201.023C0.270049 200.359 0.780423 198.058 0.950517 197.188C1.15496 196.146 1.6431 195.165 1.75777 194.11C1.95593 192.324 1.09651 190.611 0.664517 188.869C0.232522 187.126 0.429249 184.907 2.01484 184.053C2.99525 183.523 4.1845 183.707 5.30294 183.737C6.41512 183.771 7.71147 183.525 8.24205 182.541C8.85738 181.391 8.06315 180.044 7.52689 178.853C6.7684 177.167 6.53224 175.205 7.10812 173.448C7.68399 171.69 9.1385 170.188 10.9426 169.776C13.5124 169.192 16.6011 170.697 18.6532 169.043C19.6886 168.212 20.0715 166.794 20.0968 165.465C20.122 164.136 19.8565 162.817 19.8708 161.49C19.8957 159.382 20.6674 157.259 22.1504 155.767C23.638 154.276 25.8517 153.484 27.9208 153.888C29.5723 154.21 31.063 155.243 32.7417 155.318C35.16 155.433 37.2238 153.548 38.5058 151.494C39.791 149.447 40.6201 147.097 42.2143 145.275C43.8086 143.453 46.5671 142.282 48.6651 143.49C51.0811 144.878 51.5653 148.732 54.2467 149.49C56.6126 150.157 58.6837 147.924 60.8816 146.823C64.7501 144.881 70.0902 147.069 71.4905 151.16C72.4752 153.864 71.946 157.215 69.9206 159.306C68.2078 161.074 65.4586 162.378 65.3886 164.837C65.3079 167.621 67.6738 169.474 68.2765 172.196C68.7968 174.557 68.0228 176.607 65.8031 177.58C63.5882 178.555 61.0997 178.642 58.7567 179.252C56.4184 179.863 53.9973 181.268 53.3819 183.604C52.9525 185.231 53.4881 186.96 53.3045 188.635C53.0703 190.728 51.6512 192.606 49.7822 193.577C47.9132 194.549 45.656 194.648 43.6367 194.04L43.6414 194.042Z" fill="#748A5B"/>
<path d="M22.8591 182.667C24.8238 178.848 25.172 174.29 23.8575 170.289C24.9698 174.35 24.3751 178.798 22.3024 182.367L22.8528 182.67L22.8591 182.667Z" fill="#404040"/>
<path d="M0.833308 201.872C19.2267 184.638 37.5587 170.517 57.9064 159.192C57.9064 159.192 44.2047 166.517 34.5999 172.976C23.443 180.478 -0.172268 201.361 -0.172268 201.361L0.838036 201.874L0.833308 201.872Z" fill="#404040"/>
<path d="M38.5877 171.167C43.2031 169.371 48.2965 168.752 53.2571 169.408C48.3273 168.543 43.1592 168.939 38.3707 170.575L38.5877 171.167Z" fill="#404040"/>
<path d="M13.6562 190.41C18.0206 187.77 23.1991 186.432 28.3547 186.644C23.2095 186.222 17.917 187.345 13.3406 189.864L13.6562 190.41Z" fill="#404040"/>
</g>
<g clip-path="url(#clip3_1142_5892)">
<path d="M307.728 34.5401C307.816 33.0694 307.59 31.5913 307.695 30.1214C307.795 28.6512 308.295 27.1038 309.485 26.2364C311.848 24.5121 315.184 26.3453 318.066 25.835C320.085 25.4768 321.779 23.8905 322.51 21.9716C323.241 20.0527 323.083 17.8651 322.334 15.9567C321.805 14.6096 320.996 13.0743 321.743 11.8352C322.377 10.7737 323.827 10.5742 325.06 10.6694C326.293 10.7645 327.601 11.0285 328.717 10.4949C330.519 9.63633 330.858 7.18769 330.47 5.22801C330.081 3.26833 329.223 1.32785 329.536 -0.641445C329.723 -1.80433 330.313 -2.86765 330.598 -4.00989C330.883 -5.15214 332.337 -6.66563 331.406 -7.38332C330.92 -8.19852 328.329 -8.54871 327.358 -8.70483C326.195 -8.89099 324.986 -8.75881 323.843 -9.0435C321.909 -9.52112 320.454 -11.0721 318.805 -12.1895C317.156 -13.3068 314.77 -13.9522 313.274 -12.6281C312.346 -11.8107 312.082 -10.502 311.685 -9.32569C311.295 -8.15471 310.541 -6.89933 309.314 -6.72374C307.881 -6.52351 306.783 -7.86654 305.748 -8.88117C304.283 -10.3167 302.331 -11.314 300.28 -11.3878C298.229 -11.4617 296.109 -10.5224 294.988 -8.8018C293.396 -6.34982 293.78 -2.55713 291.272 -1.05412C290.009 -0.294686 288.386 -0.439143 286.993 -0.921968C285.599 -1.40479 284.328 -2.18623 282.941 -2.67985C280.737 -3.46125 278.231 -3.47109 276.109 -2.49873C273.987 -1.52087 272.314 0.480523 271.942 2.78975C271.645 4.63273 272.149 6.58066 271.585 8.35733C270.777 10.9191 268.024 12.3457 265.395 12.894C262.771 13.448 260.006 13.4109 257.498 14.3728C254.99 15.3348 252.715 17.7585 253.168 20.4055C253.688 23.4529 257.516 25.4334 257.278 28.5157C257.066 31.2346 253.947 32.5356 251.96 34.4025C248.456 37.6865 248.688 44.0846 252.411 47.1099C254.849 49.171 258.541 49.9035 261.494 48.5956C263.991 47.4897 266.402 45.1268 268.989 45.9958C271.919 46.9784 272.942 50.1515 275.545 51.8219C277.804 53.2681 280.235 53.2472 282.098 51.3089C283.962 49.3762 285.006 46.8187 286.539 44.6127C288.071 42.4122 290.461 40.4295 293.129 40.6834C294.988 40.8597 296.583 42.0797 298.397 42.5303C300.666 43.088 303.165 42.33 304.892 40.756C306.619 39.182 307.587 36.8699 307.728 34.5345L307.728 34.5401Z" fill="#748A5B"/>
<path d="M303.845 8.54377C299.116 9.12667 294.237 7.74316 290.575 4.84185C294.378 7.5557 299.236 8.64019 303.747 7.8495L303.851 8.53849L303.845 8.54377Z" fill="#404040"/>
<path d="M332.28 -7.03226C307.289 5.5169 285.564 19.1951 265.977 36.0428C265.977 36.0428 278.853 24.5826 289.258 17.0565C301.342 8.31327 332.133 -8.27521 332.133 -8.27521L332.28 -7.02675L332.28 -7.03226Z" fill="#404040"/>
<path d="M285.846 20.5152C282.208 24.6329 279.613 29.6993 278.395 35.1154C279.383 29.6512 281.775 24.4218 285.313 20.0625L285.846 20.5152Z" fill="#404040"/>
<path d="M315.433 1.92792C311.013 5.46109 307.636 10.3405 305.881 15.7896C307.413 10.2705 310.61 5.19042 314.986 1.39038L315.433 1.92792Z" fill="#404040"/>
</g>
</g>
<defs>
<clipPath id="clip0_1142_5892">
<rect width="540" height="200" rx="20" fill="white"/>
</clipPath>
<clipPath id="clip1_1142_5892">
<rect width="145.209" height="145.209" fill="white" transform="translate(322 45.9172) rotate(-11.8897)"/>
</clipPath>
<clipPath id="clip2_1142_5892">
<rect width="61" height="72.8151" fill="white" transform="matrix(-0.95197 -0.306192 -0.306192 0.95197 76.3656 149.678)"/>
</clipPath>
<clipPath id="clip3_1142_5892">
<rect width="67.6759" height="80.7841" fill="white" transform="translate(249 51.618) rotate(-87.6306)"/>
</clipPath>
</defs>
</svg>
