<svg width="307" height="238" viewBox="0 0 307 238" fill="none" xmlns="http://www.w3.org/2000/svg">
<g clip-path="url(#clip0_1142_4547)">
<rect width="307" height="238" rx="20" fill="#FFFFC0"/>
<path d="M86.346 66.8336C74.1509 116.219 6.04636 106.896 -10.0872 84.0782L-13 -107.662L205.599 -110.982L207.154 -8.64021C208.647 89.6567 146.956 67.8033 131.021 45.9245C115.086 24.0458 98.5411 17.448 86.346 66.8336Z" stroke="#748A5B" stroke-width="2" stroke-dasharray="11 11"/>
<path d="M99.0878 260.756C119.604 214.207 185.086 235.117 197.05 260.372L166.906 449.75L-49 415.383L-32.9107 314.302C-17.4573 217.216 39.5496 249.365 51.4797 273.66C63.4098 297.956 78.5718 307.304 99.0878 260.756Z" stroke="#748A5B" stroke-width="2" stroke-dasharray="11 11"/>
<rect x="20.535" y="20.5771" width="128" height="47" rx="10" fill="#748A5B"/>
<path d="M45.935 51.5771V37.1771H48.345V43.1771H51.125V45.5771H48.345V51.5771H45.935ZM56.795 51.8771C55.8417 51.8771 54.9884 51.7005 54.235 51.3471C53.4884 50.9938 52.855 50.4871 52.335 49.8271C51.815 49.1671 51.4184 48.3771 51.145 47.4571C50.8717 46.5305 50.735 45.5038 50.735 44.3771C50.735 43.2438 50.8717 42.2171 51.145 41.2971C51.4184 40.3771 51.815 39.5871 52.335 38.9271C52.855 38.2671 53.4884 37.7605 54.235 37.4071C54.9884 37.0538 55.8417 36.8771 56.795 36.8771C57.7484 36.8771 58.6017 37.0538 59.355 37.4071C60.1084 37.7605 60.745 38.2671 61.265 38.9271C61.785 39.5871 62.1817 40.3771 62.455 41.2971C62.7284 42.2171 62.865 43.2438 62.865 44.3771C62.865 45.5171 62.7284 46.5471 62.455 47.4671C62.1817 48.3871 61.785 49.1771 61.265 49.8371C60.745 50.4971 60.1084 51.0038 59.355 51.3571C58.6017 51.7038 57.7484 51.8771 56.795 51.8771ZM56.795 49.6071C57.395 49.6071 57.915 49.4805 58.355 49.2271C58.795 48.9671 59.1584 48.6038 59.445 48.1371C59.7317 47.6638 59.9484 47.1105 60.095 46.4771C60.2417 45.8371 60.315 45.1371 60.315 44.3771C60.315 43.6171 60.2417 42.9205 60.095 42.2871C59.955 41.6471 59.7417 41.0938 59.455 40.6271C59.1684 40.1605 58.8017 39.8005 58.355 39.5471C57.915 39.2871 57.395 39.1571 56.795 39.1571C56.2017 39.1571 55.685 39.2871 55.245 39.5471C54.805 39.8005 54.4384 40.1605 54.145 40.6271C53.8584 41.0938 53.6417 41.6471 53.495 42.2871C53.355 42.9205 53.285 43.6171 53.285 44.3771C53.285 45.1371 53.355 45.8371 53.495 46.4771C53.6417 47.1105 53.8584 47.6638 54.145 48.1371C54.4317 48.6038 54.795 48.9671 55.235 49.2271C55.6817 49.4805 56.2017 49.6071 56.795 49.6071ZM69.3508 51.8971C68.3241 51.8838 67.4508 51.6538 66.7308 51.2071C66.0108 50.7605 65.4475 50.1305 65.0408 49.3171C64.6341 48.5038 64.3875 47.5438 64.3008 46.4371C64.2608 45.8705 64.2575 45.2371 64.2908 44.5371C64.3241 43.8371 64.3975 43.1538 64.5108 42.4871C64.6241 41.8205 64.7808 41.2538 64.9808 40.7871C65.1875 40.3205 65.4575 39.8905 65.7908 39.4971C66.1241 39.0971 66.4841 38.7638 66.8708 38.4971C67.3108 38.1905 67.7875 37.9538 68.3008 37.7871C68.8208 37.6205 69.3641 37.4938 69.9308 37.4071C70.4975 37.3138 71.0808 37.2305 71.6808 37.1571C72.2808 37.0838 72.8741 36.9905 73.4608 36.8771L73.6808 39.0071C73.3075 39.1005 72.8741 39.1738 72.3808 39.2271C71.8941 39.2738 71.3875 39.3271 70.8608 39.3871C70.3408 39.4471 69.8441 39.5338 69.3708 39.6471C68.8975 39.7605 68.4875 39.9271 68.1408 40.1471C67.6608 40.4405 67.2941 40.8605 67.0408 41.4071C66.7875 41.9538 66.6375 42.5305 66.5908 43.1371C67.0041 42.5238 67.5175 42.0938 68.1308 41.8471C68.7508 41.5938 69.3775 41.4671 70.0108 41.4671C70.9708 41.4671 71.7941 41.6938 72.4808 42.1471C73.1741 42.6005 73.7041 43.2171 74.0708 43.9971C74.4441 44.7705 74.6308 45.6338 74.6308 46.5871C74.6308 47.6538 74.4075 48.5871 73.9608 49.3871C73.5141 50.1871 72.8941 50.8071 72.1008 51.2471C71.3075 51.6871 70.3908 51.9038 69.3508 51.8971ZM69.4708 49.6371C70.3375 49.6371 70.9908 49.3705 71.4308 48.8371C71.8775 48.2971 72.1008 47.5805 72.1008 46.6871C72.1008 45.7738 71.8708 45.0538 71.4108 44.5271C70.9575 44.0005 70.3108 43.7371 69.4708 43.7371C68.6175 43.7371 67.9675 44.0005 67.5208 44.5271C67.0741 45.0538 66.8508 45.7738 66.8508 46.6871C66.8508 47.6205 67.0775 48.3471 67.5308 48.8671C67.9841 49.3805 68.6308 49.6371 69.4708 49.6371ZM86.1935 40.7771V51.5771H83.8835V44.5271L78.7435 51.5771H76.8135V40.7771H79.1235V47.6471L84.2835 40.7771H86.1935ZM88.0014 51.5771V49.5571C88.3948 49.6305 88.6981 49.6238 88.9114 49.5371C89.1248 49.4438 89.2848 49.2705 89.3914 49.0171C89.4981 48.7638 89.5914 48.4271 89.6714 48.0071C89.7781 47.4138 89.8714 46.7305 89.9514 45.9571C90.0381 45.1838 90.1114 44.3571 90.1714 43.4771C90.2381 42.5971 90.2981 41.6971 90.3514 40.7771H98.3014V51.5771H95.9014V43.0371H92.4714C92.4381 43.4705 92.3981 43.9571 92.3514 44.4971C92.3048 45.0305 92.2548 45.5705 92.2014 46.1171C92.1481 46.6638 92.0881 47.1838 92.0214 47.6771C91.9614 48.1638 91.8981 48.5805 91.8314 48.9271C91.6781 49.7071 91.4581 50.3238 91.1714 50.7771C90.8914 51.2305 90.4981 51.5205 89.9914 51.6471C89.4848 51.7805 88.8214 51.7571 88.0014 51.5771ZM106.021 51.8771C104.927 51.8771 103.967 51.6405 103.141 51.1671C102.314 50.6938 101.667 50.0371 101.201 49.1971C100.741 48.3571 100.511 47.3905 100.511 46.2971C100.511 45.1171 100.737 44.0938 101.191 43.2271C101.644 42.3538 102.274 41.6771 103.081 41.1971C103.887 40.7171 104.821 40.4771 105.881 40.4771C107.001 40.4771 107.951 40.7405 108.731 41.2671C109.517 41.7871 110.101 42.5238 110.481 43.4771C110.861 44.4305 111.004 45.5538 110.911 46.8471H108.521V45.9671C108.514 44.7938 108.307 43.9371 107.901 43.3971C107.494 42.8571 106.854 42.5871 105.981 42.5871C104.994 42.5871 104.261 42.8938 103.781 43.5071C103.301 44.1138 103.061 45.0038 103.061 46.1771C103.061 47.2705 103.301 48.1171 103.781 48.7171C104.261 49.3171 104.961 49.6171 105.881 49.6171C106.474 49.6171 106.984 49.4871 107.411 49.2271C107.844 48.9605 108.177 48.5771 108.411 48.0771L110.791 48.7971C110.377 49.7705 109.737 50.5271 108.871 51.0671C108.011 51.6071 107.061 51.8771 106.021 51.8771ZM102.301 46.8471V45.0271H109.731V46.8471H102.301ZM122.502 40.7771V51.5771H120.192V44.5271L115.052 51.5771H113.122V40.7771H115.432V47.6471L120.592 40.7771H122.502Z" fill="white"/>
<g clip-path="url(#clip1_1142_4547)">
<path d="M178.677 115.699C181.517 115.087 184 113.376 185.582 110.938C187.164 108.501 187.716 105.536 187.118 102.693C185.23 98.0112 182.19 93.8828 178.281 90.6908C177.556 90.1057 176.711 89.6892 175.806 89.4715C174.9 89.2538 173.958 89.2404 173.047 89.4322C172.136 89.624 171.279 90.0163 170.538 90.5805C169.798 91.1447 169.192 91.8667 168.765 92.6942C166.547 97.1969 165.495 102.185 165.708 107.2C166.307 110.044 168.007 112.534 170.438 114.127C172.868 115.72 175.831 116.285 178.677 115.699Z" fill="#748A5B"/>
<path d="M240.526 102.677C243.367 102.065 245.85 100.354 247.432 97.9162C249.014 95.4787 249.566 92.5138 248.967 89.6704C247.08 84.9891 244.04 80.8607 240.13 77.6686C239.406 77.0836 238.561 76.6671 237.655 76.4494C236.75 76.2317 235.808 76.2183 234.897 76.4101C233.986 76.6019 233.129 76.9942 232.388 77.5584C231.647 78.1226 231.042 78.8446 230.615 79.6721C228.324 84.1696 227.207 89.1733 227.367 94.2181C227.667 95.6423 228.247 96.9927 229.073 98.191C229.899 99.3892 230.954 100.412 232.179 101.198C233.403 101.985 234.771 102.521 236.204 102.775C237.637 103.029 239.106 102.995 240.526 102.677Z" fill="#748A5B"/>
<path d="M209.602 109.188C212.442 108.576 214.925 106.865 216.507 104.427C218.089 101.99 218.641 99.025 218.042 96.1815C216.185 91.5033 213.178 87.3687 209.301 84.1597C208.576 83.5747 207.731 83.1582 206.826 82.9405C205.92 82.7228 204.978 82.7094 204.067 82.9012C203.156 83.093 202.299 83.4853 201.558 84.0495C200.818 84.6137 200.212 85.3357 199.785 86.1632C197.531 90.6633 196.446 95.6592 196.633 100.689C197.232 103.533 198.932 106.023 201.363 107.616C203.793 109.209 206.755 109.774 209.602 109.188Z" fill="#748A5B"/>
<path d="M255.551 126.84C254.92 126.973 254.262 126.85 253.722 126.498C253.182 126.146 252.804 125.593 252.672 124.962L249.666 110.689C249.401 109.428 248.645 108.323 247.565 107.619C246.484 106.914 245.169 106.668 243.907 106.933L239.149 107.935C237.888 108.201 236.783 108.957 236.079 110.037C235.374 111.117 235.128 112.433 235.393 113.695L238.398 127.968C238.531 128.599 238.408 129.256 238.056 129.796C237.704 130.336 237.151 130.714 236.52 130.847L224.626 133.352C223.995 133.484 223.338 133.361 222.798 133.009C222.257 132.657 221.879 132.104 221.747 131.474L218.741 117.201C218.476 115.939 217.72 114.834 216.64 114.13C215.56 113.425 214.244 113.179 212.982 113.445L208.224 114.446C206.963 114.712 205.858 115.468 205.154 116.548C204.449 117.628 204.203 118.944 204.468 120.206L207.474 134.479C207.606 135.11 207.483 135.767 207.131 136.308C206.779 136.848 206.227 137.226 205.596 137.358L193.701 139.863C193.071 139.996 192.413 139.872 191.873 139.52C191.333 139.168 190.955 138.616 190.822 137.985L187.817 123.712C187.551 122.45 186.795 121.345 185.715 120.641C184.635 119.936 183.319 119.69 182.057 119.956L177.3 120.957C176.038 121.223 174.933 121.979 174.229 123.059C173.524 124.139 173.278 125.455 173.544 126.717L176.549 140.99C176.682 141.621 176.558 142.279 176.206 142.819C175.854 143.359 175.302 143.737 174.671 143.869C171.516 144.534 168.755 146.424 166.994 149.124C165.233 151.824 164.617 155.113 165.281 158.268L165.641 159.981C166.175 162.258 167.512 164.267 169.407 165.638C171.302 167.01 173.628 167.652 175.958 167.448C177.947 167.233 179.84 166.48 181.433 165.269C183.025 164.059 184.257 162.436 184.995 160.576C185.379 159.585 186.003 158.704 186.812 158.013C187.621 157.323 188.588 156.844 189.628 156.62C190.732 156.377 191.879 156.412 192.967 156.72C194.055 157.029 195.05 157.602 195.863 158.388C197.147 159.603 198.708 160.489 200.41 160.97C202.112 161.45 203.905 161.511 205.635 161.146C207.366 160.782 208.983 160.003 210.346 158.877C211.71 157.751 212.781 156.312 213.466 154.681C213.934 153.707 214.619 152.853 215.469 152.185C216.32 151.518 217.312 151.055 218.37 150.833C219.427 150.61 220.522 150.633 221.569 150.901C222.616 151.169 223.588 151.674 224.409 152.377C225.693 153.593 227.254 154.479 228.956 154.959C230.658 155.44 232.451 155.501 234.182 155.136C235.912 154.772 237.529 153.993 238.892 152.867C240.256 151.741 241.327 150.301 242.012 148.671C242.444 147.662 243.112 146.772 243.959 146.074C244.807 145.377 245.809 144.894 246.883 144.664C247.924 144.45 249.003 144.498 250.021 144.804C251.039 145.11 251.966 145.665 252.717 146.417C254.142 147.821 255.924 148.81 257.869 149.275C259.815 149.741 261.851 149.667 263.757 149.061C266.02 148.33 267.937 146.795 269.144 144.746C270.352 142.697 270.766 140.277 270.31 137.943L269.95 136.23C269.285 133.076 267.395 130.314 264.695 128.553C261.995 126.792 258.706 126.176 255.551 126.84Z" fill="#748A5B"/>
<path d="M270.29 153.897C268.983 154.739 267.569 155.405 266.086 155.875C263.496 156.71 260.752 156.957 258.054 156.596C255.357 156.236 252.774 155.278 250.493 153.792C250.23 153.602 249.93 153.469 249.612 153.401C249.294 153.334 248.965 153.334 248.647 153.401C248.329 153.468 248.029 153.6 247.765 153.79C247.501 153.98 247.28 154.223 247.115 154.503C245.834 156.509 244.165 158.239 242.205 159.59C240.246 160.941 238.035 161.887 235.705 162.371C230.997 163.347 226.094 162.434 222.053 159.829C221.516 159.487 220.867 159.369 220.244 159.5C219.622 159.631 219.075 160.001 218.722 160.531C216.063 164.556 211.925 167.37 207.205 168.364C202.484 169.358 197.563 168.451 193.507 165.84C193.245 165.657 192.949 165.53 192.636 165.466C192.324 165.403 192.002 165.404 191.69 165.469C191.377 165.535 191.082 165.664 190.822 165.848C190.562 166.033 190.342 166.268 190.176 166.541C188.693 168.765 186.744 170.641 184.465 172.039C182.186 173.436 179.63 174.323 176.975 174.637C175.428 174.804 173.866 174.766 172.33 174.522C171.944 174.457 171.547 174.487 171.175 174.609C170.803 174.73 170.465 174.94 170.191 175.22C169.914 175.501 169.71 175.847 169.599 176.226C169.488 176.605 169.473 177.005 169.556 177.391L173.562 196.422C174.249 199.503 176.108 202.197 178.745 203.932C181.382 205.667 184.591 206.308 187.693 205.719L268.573 188.69C270.135 188.361 271.617 187.728 272.934 186.827C274.252 185.925 275.378 184.773 276.25 183.436C277.122 182.099 277.722 180.603 278.016 179.034C278.31 177.465 278.292 175.854 277.963 174.292L273.956 155.261C273.876 154.875 273.701 154.514 273.446 154.212C273.192 153.91 272.866 153.676 272.499 153.531C272.129 153.41 271.734 153.381 271.35 153.444C270.966 153.508 270.602 153.663 270.29 153.897Z" fill="#748A5B"/>
</g>
<g clip-path="url(#clip2_1142_4547)">
<path d="M34.6414 243.042C33.3699 242.659 32.1899 242.008 30.9137 241.639C29.6391 241.266 28.1744 241.207 27.0704 241.944C24.8763 243.406 25.3887 246.799 24.0603 249.077C23.1289 250.674 21.2596 251.614 19.4089 251.635C17.5581 251.656 15.7568 250.841 14.3757 249.614C13.4009 248.746 12.3539 247.584 11.0733 247.831C9.97778 248.037 9.35789 249.201 9.0547 250.274C8.75151 251.346 8.5675 252.536 7.76897 253.313C6.48172 254.57 4.30494 254.095 2.76804 253.157C1.23115 252.218 -0.143183 250.888 -1.90659 250.54C-2.94823 250.336 -4.03153 250.505 -5.08638 250.39C-6.14123 250.275 -7.87407 251.034 -8.1914 250.023C-8.72995 249.359 -8.21958 247.058 -8.04948 246.188C-7.84504 245.146 -7.3569 244.165 -7.24223 243.11C-7.04407 241.324 -7.90349 239.611 -8.33548 237.869C-8.76748 236.126 -8.57075 233.907 -6.98516 233.053C-6.00475 232.523 -4.8155 232.707 -3.69706 232.737C-2.58488 232.771 -1.28853 232.525 -0.757946 231.541C-0.142623 230.391 -0.936854 229.044 -1.47311 227.853C-2.2316 226.167 -2.46776 224.205 -1.89188 222.448C-1.31601 220.69 0.138503 219.188 1.94263 218.776C4.51237 218.192 7.60111 219.697 9.65317 218.043C10.6886 217.212 11.0715 215.794 11.0968 214.465C11.122 213.136 10.8565 211.817 10.8708 210.49C10.8957 208.382 11.6674 206.259 13.1504 204.767C14.638 203.276 16.8517 202.484 18.9208 202.888C20.5723 203.21 22.063 204.243 23.7417 204.318C26.16 204.433 28.2238 202.548 29.5058 200.494C30.791 198.447 31.6201 196.097 33.2143 194.275C34.8086 192.453 37.5671 191.282 39.6651 192.49C42.0811 193.878 42.5653 197.732 45.2467 198.49C47.6126 199.157 49.6837 196.924 51.8816 195.823C55.7501 193.881 61.0902 196.069 62.4905 200.16C63.4752 202.864 62.946 206.215 60.9206 208.306C59.2078 210.074 56.4586 211.378 56.3886 213.837C56.3079 216.621 58.6738 218.474 59.2765 221.196C59.7968 223.557 59.0228 225.607 56.8031 226.58C54.5882 227.555 52.0997 227.642 49.7567 228.252C47.4184 228.863 44.9973 230.268 44.3819 232.604C43.9525 234.231 44.4881 235.96 44.3045 237.635C44.0703 239.728 42.6512 241.606 40.7822 242.577C38.9132 243.549 36.656 243.648 34.6367 243.04L34.6414 243.042Z" fill="#748A5B"/>
<path d="M13.859 231.667C15.8238 227.848 16.1719 223.29 14.8574 219.289C15.9697 223.35 15.375 227.798 13.3023 231.367L13.8528 231.67L13.859 231.667Z" fill="#404040"/>
<path d="M-8.16669 250.872C10.2267 233.638 28.5587 219.517 48.9064 208.192C48.9064 208.192 35.2047 215.517 25.5999 221.976C14.443 229.478 -9.17227 250.361 -9.17227 250.361L-8.16196 250.874L-8.16669 250.872Z" fill="#404040"/>
<path d="M29.5877 220.167C34.2032 218.371 39.2966 217.752 44.2571 218.408C39.3274 217.543 34.1593 217.939 29.3707 219.575L29.5877 220.167Z" fill="#404040"/>
<path d="M4.65625 239.41C9.02062 236.77 14.1992 235.432 19.3548 235.644C14.2095 235.222 8.91706 236.345 4.34069 238.864L4.65625 239.41Z" fill="#404040"/>
</g>
<g clip-path="url(#clip3_1142_4547)">
<path d="M228.096 251.978C229.011 251.995 229.921 251.817 230.835 251.844C231.75 251.868 232.722 252.139 233.29 252.854C234.42 254.275 233.369 256.391 233.759 258.165C234.033 259.407 235.06 260.417 236.269 260.821C237.478 261.225 238.83 261.071 239.994 260.558C240.816 260.195 241.747 259.654 242.535 260.085C243.209 260.452 243.37 261.345 243.343 262.112C243.315 262.879 243.185 263.697 243.545 264.375C244.123 265.471 245.65 265.618 246.856 265.327C248.061 265.036 249.242 264.454 250.471 264.598C251.197 264.683 251.871 265.022 252.587 265.17C253.303 265.317 254.278 266.18 254.699 265.584C255.193 265.262 255.343 263.646 255.415 263.04C255.501 262.314 255.388 261.568 255.535 260.852C255.781 259.64 256.706 258.699 257.356 257.648C258.007 256.596 258.346 255.1 257.486 254.207C256.956 253.652 256.137 253.522 255.398 253.306C254.662 253.094 253.864 252.659 253.724 251.902C253.563 251.019 254.367 250.303 254.97 249.636C255.822 248.691 256.391 247.455 256.384 246.181C256.377 244.907 255.74 243.617 254.645 242.966C253.083 242.042 250.742 242.377 249.745 240.861C249.242 240.097 249.29 239.087 249.553 238.21C249.817 237.334 250.269 236.526 250.54 235.653C250.968 234.266 250.909 232.712 250.252 231.421C249.591 230.13 248.307 229.144 246.866 228.973C245.715 228.836 244.52 229.199 243.404 228.894C241.795 228.459 240.84 226.789 240.432 225.173C240.022 223.56 239.974 221.845 239.313 220.314C238.652 218.784 237.091 217.435 235.461 217.784C233.585 218.185 232.455 220.609 230.538 220.54C228.846 220.479 227.959 218.578 226.751 217.394C224.625 215.305 220.663 215.613 218.883 218C217.667 219.564 217.308 221.872 218.195 223.67C218.945 225.19 220.472 226.624 219.999 228.251C219.465 230.093 217.524 230.808 216.555 232.465C215.716 233.903 215.791 235.41 217.041 236.516C218.287 237.622 219.9 238.204 221.307 239.097C222.711 239.991 224.002 241.422 223.912 243.083C223.851 244.24 223.135 245.26 222.902 246.397C222.615 247.818 223.149 249.348 224.169 250.379C225.19 251.409 226.648 251.95 228.1 251.978H228.096Z" fill="#748A5B"/>
<path d="M254.504 266.135C246.082 250.961 237.043 237.84 226.093 226.128C226.093 226.128 233.53 233.817 238.464 240.076C244.195 247.345 255.271 266.012 255.271 266.012L254.501 266.135H254.504Z" fill="#404040"/>
<path d="M236.232 238.049C233.585 235.899 230.377 234.42 226.987 233.804C230.401 234.276 233.705 235.625 236.499 237.707L236.232 238.049Z" fill="#404040"/>
</g>
<g clip-path="url(#clip4_1142_4547)">
<path d="M292.447 25.3654C292.502 24.4527 292.362 23.5354 292.427 22.6231C292.489 21.7107 292.799 20.7504 293.537 20.2121C295.004 19.142 297.074 20.2796 298.863 19.963C300.116 19.7407 301.167 18.7562 301.621 17.5653C302.075 16.3744 301.977 15.0168 301.512 13.8325C301.183 12.9965 300.681 12.0436 301.145 11.2746C301.538 10.6159 302.438 10.492 303.203 10.5511C303.968 10.6102 304.78 10.774 305.473 10.4428C306.591 9.91 306.802 8.39037 306.561 7.17418C306.32 5.958 305.787 4.75373 305.981 3.53157C306.097 2.80988 306.463 2.14998 306.64 1.4411C306.817 0.732219 307.719 -0.207065 307.141 -0.652465C306.84 -1.15838 305.232 -1.37571 304.629 -1.4726C303.908 -1.58813 303.157 -1.5061 302.448 -1.68278C301.247 -1.97919 300.345 -2.94176 299.322 -3.63518C298.298 -4.32861 296.817 -4.72913 295.889 -3.90743C295.313 -3.40012 295.149 -2.5879 294.903 -1.85791C294.66 -1.13119 294.193 -0.352103 293.431 -0.243128C292.542 -0.118865 291.86 -0.952356 291.218 -1.58203C290.309 -2.4729 289.098 -3.09187 287.825 -3.13768C286.552 -3.1835 285.236 -2.60058 284.541 -1.53278C283.553 -0.0110714 283.791 2.34269 282.234 3.27547C281.451 3.74677 280.443 3.65712 279.579 3.35748C278.714 3.05783 277.925 2.57287 277.064 2.26653C275.696 1.78159 274.141 1.77548 272.824 2.37893C271.507 2.9858 270.469 4.22787 270.238 5.66099C270.054 6.80475 270.367 8.01364 270.016 9.11626C269.515 10.7061 267.806 11.5915 266.175 11.9317C264.547 12.2756 262.831 12.2526 261.274 12.8495C259.718 13.4465 258.305 14.9506 258.587 16.5934C258.91 18.4846 261.285 19.7137 261.137 21.6266C261.006 23.314 259.071 24.1214 257.837 25.28C255.662 27.3181 255.806 31.2888 258.117 33.1663C259.63 34.4454 261.921 34.9 263.754 34.0883C265.304 33.402 266.8 31.9356 268.405 32.4749C270.224 33.0847 270.858 35.0539 272.474 36.0905C273.876 36.9881 275.385 36.9751 276.541 35.7722C277.698 34.5727 278.346 32.9856 279.297 31.6165C280.248 30.2509 281.731 29.0204 283.387 29.178C284.54 29.2874 285.53 30.0445 286.656 30.3241C288.064 30.6702 289.615 30.1999 290.687 29.223C291.759 28.2462 292.36 26.8113 292.447 25.362L292.447 25.3654Z" fill="#748A5B"/>
<path d="M290.037 9.23202C287.103 9.59377 284.075 8.73516 281.802 6.93459C284.162 8.61882 287.177 9.29186 289.976 8.80115L290.041 9.22874L290.037 9.23202Z" fill="#404040"/>
<path d="M307.684 -0.434513C292.174 7.35355 278.692 15.8423 266.536 26.2981C266.536 26.2981 274.527 19.1858 280.984 14.5151C288.484 9.08899 307.592 -1.20589 307.592 -1.20589L307.684 -0.431095L307.684 -0.434513Z" fill="#404040"/>
<path d="M278.867 16.6616C276.609 19.2171 274.999 22.3613 274.243 25.7225C274.856 22.3314 276.34 19.086 278.536 16.3807L278.867 16.6616Z" fill="#404040"/>
<path d="M297.229 5.12617C294.486 7.31887 292.39 10.3471 291.301 13.7288C292.251 10.3036 294.236 7.15089 296.951 4.79257L297.229 5.12617Z" fill="#404040"/>
</g>
</g>
<defs>
<clipPath id="clip0_1142_4547">
<rect width="307" height="238" rx="20" fill="white"/>
</clipPath>
<clipPath id="clip1_1142_4547">
<rect width="116.688" height="116.688" fill="white" transform="translate(147 95.041) rotate(-11.8897)"/>
</clipPath>
<clipPath id="clip2_1142_4547">
<rect width="61" height="72.8151" fill="white" transform="matrix(-0.95197 -0.306192 -0.306192 0.95197 67.3656 198.678)"/>
</clipPath>
<clipPath id="clip3_1142_4547">
<rect width="42" height="50.135" fill="white" transform="translate(216 216)"/>
</clipPath>
<clipPath id="clip4_1142_4547">
<rect width="42" height="50.135" fill="white" transform="translate(256 35.9641) rotate(-87.6306)"/>
</clipPath>
</defs>
</svg>
