<svg width="307" height="200" viewBox="0 0 307 200" fill="none" xmlns="http://www.w3.org/2000/svg">
<g clip-path="url(#clip0_1142_7271)">
<rect width="307" height="200" rx="20" fill="#FFFFC0"/>
<path d="M86.346 66.8334C74.1509 116.219 6.04636 106.896 -10.0872 84.078L-13 -107.662L205.599 -110.982L207.154 -8.64033C208.647 89.6566 146.956 67.8032 131.021 45.9244C115.086 24.0457 98.5411 17.4479 86.346 66.8334Z" stroke="#748A5B" stroke-width="2" stroke-dasharray="11 11"/>
<rect x="20.5352" y="20.5771" width="112" height="42" rx="10" fill="#748A5B"/>
<path d="M45.6552 47.5771V36.0571H47.5832V40.8571H49.8072V42.7771H47.5832V47.5771H45.6552ZM54.3432 47.8171C53.5805 47.8171 52.8978 47.6758 52.2952 47.3931C51.6978 47.1105 51.1912 46.7051 50.7752 46.1771C50.3592 45.6491 50.0418 45.0171 49.8232 44.2811C49.6045 43.5398 49.4952 42.7185 49.4952 41.8171C49.4952 40.9105 49.6045 40.0891 49.8232 39.3531C50.0418 38.6171 50.3592 37.9851 50.7752 37.4571C51.1912 36.9291 51.6978 36.5238 52.2952 36.2411C52.8978 35.9585 53.5805 35.8171 54.3432 35.8171C55.1058 35.8171 55.7885 35.9585 56.3912 36.2411C56.9938 36.5238 57.5032 36.9291 57.9192 37.4571C58.3352 37.9851 58.6525 38.6171 58.8712 39.3531C59.0898 40.0891 59.1992 40.9105 59.1992 41.8171C59.1992 42.7291 59.0898 43.5531 58.8712 44.2891C58.6525 45.0251 58.3352 45.6571 57.9192 46.1851C57.5032 46.7131 56.9938 47.1185 56.3912 47.4011C55.7885 47.6785 55.1058 47.8171 54.3432 47.8171ZM54.3432 46.0011C54.8232 46.0011 55.2392 45.8998 55.5912 45.6971C55.9432 45.4891 56.2338 45.1985 56.4632 44.8251C56.6925 44.4465 56.8658 44.0038 56.9832 43.4971C57.1005 42.9851 57.1592 42.4251 57.1592 41.8171C57.1592 41.2091 57.1005 40.6518 56.9832 40.1451C56.8712 39.6331 56.7005 39.1905 56.4712 38.8171C56.2418 38.4438 55.9485 38.1558 55.5912 37.9531C55.2392 37.7451 54.8232 37.6411 54.3432 37.6411C53.8685 37.6411 53.4552 37.7451 53.1032 37.9531C52.7512 38.1558 52.4578 38.4438 52.2232 38.8171C51.9938 39.1905 51.8205 39.6331 51.7032 40.1451C51.5912 40.6518 51.5352 41.2091 51.5352 41.8171C51.5352 42.4251 51.5912 42.9851 51.7032 43.4971C51.8205 44.0038 51.9938 44.4465 52.2232 44.8251C52.4525 45.1985 52.7432 45.4891 53.0952 45.6971C53.4525 45.8998 53.8685 46.0011 54.3432 46.0011ZM64.3878 47.8331C63.5664 47.8225 62.8678 47.6385 62.2918 47.2811C61.7158 46.9238 61.2651 46.4198 60.9398 45.7691C60.6144 45.1185 60.4171 44.3505 60.3478 43.4651C60.3158 43.0118 60.3131 42.5051 60.3398 41.9451C60.3664 41.3851 60.4251 40.8385 60.5158 40.3051C60.6064 39.7718 60.7318 39.3185 60.8918 38.9451C61.0571 38.5718 61.2731 38.2278 61.5398 37.9131C61.8064 37.5931 62.0944 37.3265 62.4038 37.1131C62.7558 36.8678 63.1371 36.6785 63.5478 36.5451C63.9638 36.4118 64.3984 36.3105 64.8518 36.2411C65.3051 36.1665 65.7718 36.0998 66.2518 36.0411C66.7318 35.9825 67.2064 35.9078 67.6758 35.8171L67.8518 37.5211C67.5531 37.5958 67.2064 37.6545 66.8118 37.6971C66.4224 37.7345 66.0171 37.7771 65.5958 37.8251C65.1798 37.8731 64.7824 37.9425 64.4038 38.0331C64.0251 38.1238 63.6971 38.2571 63.4198 38.4331C63.0358 38.6678 62.7424 39.0038 62.5398 39.4411C62.3371 39.8785 62.2171 40.3398 62.1798 40.8251C62.5104 40.3345 62.9211 39.9905 63.4118 39.7931C63.9078 39.5905 64.4091 39.4891 64.9158 39.4891C65.6838 39.4891 66.3424 39.6705 66.8918 40.0331C67.4464 40.3958 67.8704 40.8891 68.1638 41.5131C68.4624 42.1318 68.6118 42.8225 68.6118 43.5851C68.6118 44.4385 68.4331 45.1851 68.0758 45.8251C67.7184 46.4651 67.2224 46.9611 66.5878 47.3131C65.9531 47.6651 65.2198 47.8385 64.3878 47.8331ZM64.4838 46.0251C65.1771 46.0251 65.6998 45.8118 66.0518 45.3851C66.4091 44.9531 66.5878 44.3798 66.5878 43.6651C66.5878 42.9345 66.4038 42.3585 66.0358 41.9371C65.6731 41.5158 65.1558 41.3051 64.4838 41.3051C63.8011 41.3051 63.2811 41.5158 62.9238 41.9371C62.5664 42.3585 62.3878 42.9345 62.3878 43.6651C62.3878 44.4118 62.5691 44.9931 62.9318 45.4091C63.2944 45.8198 63.8118 46.0251 64.4838 46.0251ZM77.8619 38.9371V47.5771H76.0139V41.9371L71.9019 47.5771H70.3579V38.9371H72.2059V44.4331L76.3339 38.9371H77.8619ZM79.3083 47.5771V45.9611C79.6229 46.0198 79.8656 46.0145 80.0363 45.9451C80.2069 45.8705 80.3349 45.7318 80.4203 45.5291C80.5056 45.3265 80.5803 45.0571 80.6443 44.7211C80.7296 44.2465 80.8043 43.6998 80.8683 43.0811C80.9376 42.4625 80.9963 41.8011 81.0443 41.0971C81.0976 40.3931 81.1456 39.6731 81.1883 38.9371H87.5483V47.5771H85.6283V40.7451H82.8843C82.8576 41.0918 82.8256 41.4811 82.7883 41.9131C82.7509 42.3398 82.7109 42.7718 82.6683 43.2091C82.6256 43.6465 82.5776 44.0625 82.5243 44.4571C82.4763 44.8465 82.4256 45.1798 82.3723 45.4571C82.2496 46.0811 82.0736 46.5745 81.8443 46.9371C81.6203 47.2998 81.3056 47.5318 80.9003 47.6331C80.4949 47.7398 79.9643 47.7211 79.3083 47.5771ZM93.7238 47.8171C92.8491 47.8171 92.0811 47.6278 91.4198 47.2491C90.7584 46.8705 90.2411 46.3451 89.8678 45.6731C89.4998 45.0011 89.3158 44.2278 89.3158 43.3531C89.3158 42.4091 89.4971 41.5905 89.8598 40.8971C90.2224 40.1985 90.7264 39.6571 91.3718 39.2731C92.0171 38.8891 92.7638 38.6971 93.6118 38.6971C94.5078 38.6971 95.2678 38.9078 95.8918 39.3291C96.5211 39.7451 96.9878 40.3345 97.2918 41.0971C97.5958 41.8598 97.7104 42.7585 97.6358 43.7931H95.7238V43.0891C95.7184 42.1505 95.5531 41.4651 95.2278 41.0331C94.9024 40.6011 94.3904 40.3851 93.6918 40.3851C92.9024 40.3851 92.3158 40.6305 91.9318 41.1211C91.5478 41.6065 91.3558 42.3185 91.3558 43.2571C91.3558 44.1318 91.5478 44.8091 91.9318 45.2891C92.3158 45.7691 92.8758 46.0091 93.6118 46.0091C94.0864 46.0091 94.4944 45.9051 94.8358 45.6971C95.1824 45.4838 95.4491 45.1771 95.6358 44.7771L97.5398 45.3531C97.2091 46.1318 96.6971 46.7371 96.0038 47.1691C95.3158 47.6011 94.5558 47.8171 93.7238 47.8171ZM90.7478 43.7931V42.3371H96.6918V43.7931H90.7478ZM106.909 38.9371V47.5771H105.061V41.9371L100.949 47.5771H99.4048V38.9371H101.253V44.4331L105.381 38.9371H106.909Z" fill="white"/>
<g clip-path="url(#clip1_1142_7271)">
<path d="M178.677 96.6984C181.518 96.0872 184.001 94.3756 185.582 91.9381C187.164 89.5006 187.716 86.5357 187.118 83.6923C185.23 79.0109 182.191 74.8825 178.281 71.6905C177.556 71.1054 176.711 70.6889 175.806 70.4713C174.901 70.2536 173.958 70.2401 173.047 70.432C172.136 70.6238 171.279 71.016 170.538 71.5803C169.798 72.1445 169.192 72.8665 168.765 73.6939C166.547 78.1967 165.495 83.1848 165.708 88.1999C166.307 91.0434 168.007 93.534 170.438 95.1267C172.868 96.7194 175.831 97.2845 178.677 96.6984Z" fill="#748A5B"/>
<path d="M240.527 83.6764C243.367 83.0652 245.85 81.3536 247.432 78.9161C249.014 76.4786 249.566 73.5137 248.967 70.6703C247.08 65.9889 244.04 61.8605 240.13 58.6685C239.406 58.0834 238.561 57.6669 237.656 57.4492C236.75 57.2316 235.808 57.2181 234.897 57.41C233.986 57.6018 233.129 57.994 232.388 58.5583C231.648 59.1225 231.042 59.8445 230.615 60.6719C228.324 65.1695 227.207 70.1731 227.368 75.218C227.667 76.6421 228.247 77.9926 229.073 79.1908C229.899 80.3891 230.954 81.4114 232.179 82.1983C233.403 82.9852 234.771 83.5211 236.204 83.7749C237.637 84.0286 239.107 83.9952 240.527 83.6764Z" fill="#748A5B"/>
<path d="M209.602 90.1877C212.442 89.5764 214.925 87.8648 216.507 85.4273C218.089 82.9898 218.641 80.025 218.042 77.1815C216.185 72.5033 213.178 68.3687 209.301 65.1597C208.576 64.5747 207.731 64.1582 206.826 63.9405C205.92 63.7228 204.978 63.7094 204.067 63.9012C203.156 64.093 202.299 64.4853 201.558 65.0495C200.818 65.6137 200.212 66.3357 199.785 67.1632C197.531 71.6633 196.446 76.6592 196.633 81.6892C197.232 84.5327 198.932 87.0233 201.363 88.616C203.793 90.2087 206.755 90.7738 209.602 90.1877Z" fill="#748A5B"/>
<path d="M255.551 107.84C254.92 107.973 254.263 107.85 253.723 107.498C253.183 107.146 252.805 106.593 252.672 105.962L249.667 91.6893C249.401 90.4275 248.645 89.3229 247.565 88.6186C246.485 87.9142 245.169 87.6677 243.907 87.9334L239.15 88.9351C237.888 89.2008 236.783 89.9568 236.079 91.0369C235.374 92.117 235.128 93.4327 235.394 94.6945L238.399 108.967C238.531 109.598 238.408 110.256 238.056 110.796C237.704 111.336 237.152 111.714 236.521 111.847L224.626 114.351C223.996 114.484 223.338 114.361 222.798 114.009C222.258 113.657 221.88 113.104 221.747 112.473L218.742 98.2004C218.476 96.9386 217.72 95.834 216.64 95.1297C215.56 94.4253 214.244 94.1788 212.982 94.4445L208.225 95.4462C206.963 95.7119 205.858 96.4679 205.154 97.548C204.449 98.6281 204.203 99.9438 204.469 101.206L207.474 115.479C207.607 116.109 207.483 116.767 207.131 117.307C206.779 117.847 206.227 118.225 205.596 118.358L193.702 120.863C193.071 120.995 192.413 120.872 191.873 120.52C191.333 120.168 190.955 119.615 190.822 118.985L187.817 104.712C187.551 103.45 186.795 102.345 185.715 101.641C184.635 100.936 183.319 100.69 182.057 100.956L177.3 101.957C176.038 102.223 174.933 102.979 174.229 104.059C173.525 105.139 173.278 106.455 173.544 107.717L176.549 121.99C176.682 122.621 176.558 123.278 176.206 123.818C175.854 124.359 175.302 124.737 174.671 124.869C171.516 125.534 168.755 127.424 166.994 130.124C165.233 132.824 164.617 136.113 165.281 139.268L165.642 140.981C166.176 143.258 167.513 145.267 169.408 146.638C171.302 148.009 173.628 148.652 175.958 148.447C177.948 148.233 179.84 147.48 181.433 146.269C183.026 145.058 184.257 143.436 184.995 141.576C185.379 140.585 186.004 139.704 186.812 139.013C187.621 138.323 188.588 137.844 189.628 137.62C190.732 137.377 191.88 137.412 192.967 137.72C194.055 138.029 195.05 138.601 195.863 139.387C197.148 140.603 198.708 141.489 200.41 141.97C202.112 142.45 203.905 142.511 205.636 142.146C207.366 141.782 208.983 141.003 210.347 139.877C211.71 138.751 212.781 137.311 213.466 135.681C213.934 134.707 214.619 133.853 215.47 133.185C216.32 132.518 217.312 132.055 218.37 131.832C219.428 131.61 220.522 131.633 221.569 131.901C222.617 132.169 223.588 132.674 224.409 133.377C225.694 134.593 227.254 135.479 228.956 135.959C230.658 136.44 232.451 136.5 234.182 136.136C235.912 135.772 237.529 134.993 238.893 133.867C240.256 132.741 241.327 131.301 242.012 129.671C242.444 128.662 243.112 127.772 243.959 127.074C244.807 126.377 245.809 125.894 246.883 125.664C247.924 125.45 249.003 125.498 250.021 125.804C251.04 126.11 251.966 126.664 252.717 127.417C254.142 128.821 255.924 129.809 257.869 130.275C259.815 130.741 261.851 130.667 263.758 130.061C266.02 129.33 267.937 127.795 269.144 125.746C270.352 123.697 270.767 121.277 270.31 118.943L269.95 117.23C269.286 114.076 267.396 111.314 264.695 109.553C261.995 107.792 258.706 107.176 255.551 107.84Z" fill="#748A5B"/>
<path d="M270.291 134.896C268.983 135.739 267.569 136.404 266.086 136.875C263.496 137.71 260.752 137.957 258.054 137.596C255.357 137.236 252.774 136.278 250.494 134.792C250.23 134.601 249.93 134.468 249.612 134.401C249.294 134.334 248.965 134.334 248.647 134.401C248.329 134.468 248.029 134.6 247.765 134.79C247.501 134.98 247.28 135.223 247.116 135.503C245.835 137.509 244.165 139.239 242.205 140.59C240.246 141.941 238.035 142.887 235.705 143.371C230.997 144.347 226.094 143.434 222.053 140.829C221.516 140.487 220.867 140.369 220.244 140.5C219.622 140.631 219.075 141.001 218.722 141.531C216.063 145.555 211.925 148.37 207.205 149.364C202.485 150.358 197.563 149.451 193.507 146.84C193.245 146.657 192.949 146.53 192.637 146.466C192.324 146.403 192.002 146.404 191.69 146.469C191.378 146.535 191.082 146.664 190.822 146.848C190.562 147.033 190.342 147.268 190.176 147.541C188.693 149.765 186.744 151.641 184.465 153.039C182.186 154.436 179.63 155.323 176.975 155.637C175.428 155.804 173.866 155.766 172.33 155.522C171.944 155.457 171.547 155.487 171.175 155.609C170.803 155.73 170.465 155.94 170.192 156.22C169.914 156.501 169.711 156.846 169.599 157.225C169.488 157.604 169.473 158.005 169.556 158.391L173.562 177.422C174.249 180.503 176.108 183.196 178.745 184.932C181.383 186.667 184.591 187.308 187.693 186.719L268.573 169.69C270.135 169.361 271.617 168.728 272.935 167.826C274.252 166.925 275.378 165.773 276.25 164.436C277.122 163.099 277.722 161.603 278.016 160.034C278.31 158.465 278.292 156.854 277.963 155.292L273.957 136.261C273.876 135.874 273.701 135.514 273.446 135.212C273.192 134.91 272.866 134.676 272.499 134.531C272.129 134.41 271.735 134.381 271.35 134.444C270.966 134.508 270.602 134.663 270.291 134.896Z" fill="#748A5B"/>
</g>
<g clip-path="url(#clip2_1142_7271)">
<path d="M34.6414 206.042C33.3699 205.659 32.1899 205.008 30.9137 204.639C29.6391 204.266 28.1744 204.207 27.0704 204.944C24.8763 206.406 25.3887 209.799 24.0603 212.077C23.1289 213.674 21.2596 214.614 19.4089 214.635C17.5581 214.656 15.7568 213.842 14.3757 212.614C13.4009 211.747 12.3539 210.584 11.0733 210.831C9.97778 211.037 9.35789 212.201 9.0547 213.274C8.75151 214.346 8.5675 215.536 7.76897 216.313C6.48172 217.571 4.30494 217.095 2.76804 216.157C1.23115 215.218 -0.143183 213.888 -1.90659 213.541C-2.94823 213.336 -4.03153 213.505 -5.08638 213.39C-6.14123 213.275 -7.87407 214.034 -8.1914 213.024C-8.72995 212.359 -8.21958 210.058 -8.04948 209.188C-7.84504 208.146 -7.3569 207.165 -7.24223 206.11C-7.04407 204.324 -7.90349 202.611 -8.33548 200.869C-8.76748 199.126 -8.57075 196.907 -6.98516 196.054C-6.00475 195.523 -4.8155 195.707 -3.69706 195.737C-2.58488 195.771 -1.28853 195.525 -0.757946 194.541C-0.142623 193.391 -0.936854 192.044 -1.47311 190.853C-2.2316 189.167 -2.46776 187.206 -1.89188 185.448C-1.31601 183.69 0.138503 182.188 1.94263 181.776C4.51237 181.192 7.60111 182.698 9.65317 181.044C10.6886 180.212 11.0715 178.794 11.0968 177.465C11.122 176.136 10.8565 174.818 10.8708 173.49C10.8957 171.383 11.6674 169.259 13.1504 167.767C14.638 166.276 16.8517 165.484 18.9208 165.888C20.5723 166.21 22.063 167.244 23.7417 167.319C26.16 167.433 28.2238 165.548 29.5058 163.495C30.791 161.448 31.6201 159.097 33.2143 157.275C34.8086 155.453 37.5671 154.282 39.6651 155.49C42.0811 156.878 42.5653 160.732 45.2467 161.49C47.6126 162.157 49.6837 159.924 51.8816 158.824C55.7501 156.881 61.0902 159.069 62.4905 163.16C63.4752 165.864 62.946 169.215 60.9206 171.306C59.2078 173.074 56.4586 174.378 56.3886 176.837C56.3079 179.621 58.6738 181.474 59.2765 184.196C59.7968 186.557 59.0228 188.607 56.8031 189.58C54.5882 190.555 52.0997 190.643 49.7567 191.252C47.4184 191.864 44.9973 193.268 44.3819 195.604C43.9525 197.231 44.4881 198.96 44.3045 200.635C44.0703 202.728 42.6512 204.606 40.7822 205.577C38.9132 206.549 36.656 206.648 34.6367 206.04L34.6414 206.042Z" fill="#748A5B"/>
<path d="M13.8592 194.667C15.824 190.848 16.1721 186.29 14.8576 182.289C15.9699 186.35 15.3752 190.798 13.3025 194.367L13.853 194.67L13.8592 194.667Z" fill="#404040"/>
<path d="M-8.16657 213.872C10.2269 196.638 28.5588 182.517 48.9065 171.192C48.9065 171.192 35.2048 178.517 25.6 184.976C14.4431 192.478 -9.17215 213.361 -9.17215 213.361L-8.16184 213.874L-8.16657 213.872Z" fill="#404040"/>
<path d="M29.5879 183.167C34.2034 181.371 39.2967 180.752 44.2573 181.408C39.3276 180.543 34.1595 180.939 29.3709 182.575L29.5879 183.167Z" fill="#404040"/>
<path d="M4.65643 202.41C9.02081 199.77 14.1994 198.432 19.355 198.644C14.2097 198.222 8.91724 199.345 4.34087 201.864L4.65643 202.41Z" fill="#404040"/>
</g>
<g clip-path="url(#clip3_1142_7271)">
<path d="M292.447 25.3654C292.502 24.4527 292.362 23.5354 292.427 22.6231C292.488 21.7107 292.799 20.7504 293.537 20.2121C295.004 19.142 297.074 20.2796 298.863 19.963C300.116 19.7407 301.167 18.7562 301.621 17.5653C302.075 16.3744 301.976 15.0168 301.511 13.8325C301.183 12.9965 300.681 12.0436 301.144 11.2746C301.538 10.6159 302.438 10.492 303.203 10.5511C303.968 10.6102 304.78 10.774 305.473 10.4428C306.591 9.91 306.801 8.39037 306.56 7.17418C306.319 5.958 305.787 4.75373 305.981 3.53157C306.097 2.80988 306.463 2.14998 306.64 1.4411C306.817 0.732219 307.719 -0.207065 307.141 -0.652465C306.84 -1.15838 305.232 -1.37571 304.629 -1.4726C303.907 -1.58813 303.157 -1.5061 302.448 -1.68278C301.247 -1.97919 300.345 -2.94176 299.322 -3.63518C298.298 -4.32861 296.817 -4.72913 295.889 -3.90743C295.313 -3.40012 295.149 -2.5879 294.903 -1.85791C294.66 -1.13119 294.193 -0.352103 293.431 -0.243128C292.542 -0.118865 291.86 -0.952356 291.218 -1.58203C290.309 -2.4729 289.098 -3.09187 287.825 -3.13768C286.552 -3.1835 285.236 -2.60058 284.541 -1.53278C283.552 -0.0110714 283.791 2.34269 282.234 3.27547C281.451 3.74677 280.443 3.65712 279.579 3.35748C278.714 3.05783 277.925 2.57287 277.064 2.26653C275.696 1.78159 274.141 1.77548 272.824 2.37893C271.507 2.9858 270.468 4.22787 270.238 5.66099C270.053 6.80475 270.367 8.01364 270.016 9.11626C269.515 10.7061 267.806 11.5915 266.175 11.9317C264.546 12.2756 262.831 12.2526 261.274 12.8495C259.718 13.4465 258.305 14.9506 258.587 16.5934C258.91 18.4846 261.285 19.7137 261.137 21.6266C261.006 23.314 259.07 24.1214 257.837 25.28C255.662 27.3181 255.806 31.2888 258.117 33.1663C259.63 34.4454 261.921 34.9 263.754 34.0883C265.303 33.402 266.8 31.9356 268.405 32.4749C270.224 33.0847 270.858 35.0539 272.474 36.0905C273.876 36.9881 275.384 36.9751 276.541 35.7722C277.698 34.5727 278.346 32.9856 279.297 31.6165C280.248 30.2509 281.731 29.0204 283.386 29.178C284.54 29.2874 285.53 30.0445 286.656 30.3241C288.064 30.6702 289.615 30.1999 290.687 29.223C291.759 28.2462 292.36 26.8113 292.447 25.362L292.447 25.3654Z" fill="#748A5B"/>
<path d="M290.037 9.23202C287.103 9.59377 284.075 8.73516 281.802 6.93459C284.162 8.61882 287.177 9.29186 289.976 8.80115L290.041 9.22874L290.037 9.23202Z" fill="#404040"/>
<path d="M307.684 -0.434513C292.174 7.35355 278.692 15.8423 266.536 26.2981C266.536 26.2981 274.527 19.1858 280.984 14.5151C288.484 9.08899 307.592 -1.20589 307.592 -1.20589L307.684 -0.431095L307.684 -0.434513Z" fill="#404040"/>
<path d="M278.867 16.6616C276.609 19.2171 274.999 22.3613 274.243 25.7225C274.856 22.3314 276.341 19.086 278.536 16.3807L278.867 16.6616Z" fill="#404040"/>
<path d="M297.229 5.12617C294.486 7.31887 292.39 10.3471 291.301 13.7288C292.251 10.3036 294.236 7.15089 296.951 4.79257L297.229 5.12617Z" fill="#404040"/>
</g>
</g>
<defs>
<clipPath id="clip0_1142_7271">
<rect width="307" height="200" rx="20" fill="white"/>
</clipPath>
<clipPath id="clip1_1142_7271">
<rect width="116.688" height="116.688" fill="white" transform="translate(147 76.041) rotate(-11.8897)"/>
</clipPath>
<clipPath id="clip2_1142_7271">
<rect width="61" height="72.8151" fill="white" transform="matrix(-0.95197 -0.306192 -0.306192 0.95197 67.3657 161.678)"/>
</clipPath>
<clipPath id="clip3_1142_7271">
<rect width="42" height="50.135" fill="white" transform="translate(256 35.9641) rotate(-87.6306)"/>
</clipPath>
</defs>
</svg>
