<svg width="426" height="260" viewBox="0 0 426 260" fill="none" xmlns="http://www.w3.org/2000/svg">
<g clip-path="url(#clip0_170_451)">
<rect width="426" height="260" rx="20" fill="#FFFFC0"/>
<path d="M86.346 66.8336C74.1509 116.219 6.04636 106.896 -10.0872 84.0782L-13 -107.662L205.599 -110.982L207.154 -8.64021C208.647 89.6567 146.956 67.8033 131.021 45.9245C115.086 24.0458 98.5411 17.448 86.346 66.8336Z" stroke="#748A5B" stroke-width="2" stroke-dasharray="11 11"/>
<path d="M99.0878 260.756C119.604 214.207 185.086 235.117 197.05 260.372L166.906 449.75L-49 415.383L-32.9107 314.302C-17.4573 217.216 39.5496 249.365 51.4797 273.66C63.4098 297.956 78.5718 307.304 99.0878 260.756Z" stroke="#748A5B" stroke-width="2" stroke-dasharray="11 11"/>
<rect x="20.5352" y="40.5771" width="136" height="50" rx="10" fill="#748A5B"/>
<path d="M46.0752 73.5771V57.7371H48.7262V64.3371H51.7842V66.9771H48.7262V73.5771H46.0752ZM58.0212 73.9071C56.9725 73.9071 56.0338 73.7128 55.2052 73.3241C54.3838 72.9355 53.6872 72.3781 53.1152 71.6521C52.5432 70.9261 52.1068 70.0571 51.8062 69.0451C51.5055 68.0258 51.3552 66.8965 51.3552 65.6571C51.3552 64.4105 51.5055 63.2811 51.8062 62.2691C52.1068 61.2571 52.5432 60.3881 53.1152 59.6621C53.6872 58.9361 54.3838 58.3788 55.2052 57.9901C56.0338 57.6015 56.9725 57.4071 58.0212 57.4071C59.0698 57.4071 60.0085 57.6015 60.8372 57.9901C61.6658 58.3788 62.3662 58.9361 62.9382 59.6621C63.5102 60.3881 63.9465 61.2571 64.2472 62.2691C64.5478 63.2811 64.6982 64.4105 64.6982 65.6571C64.6982 66.9111 64.5478 68.0441 64.2472 69.0561C63.9465 70.0681 63.5102 70.9371 62.9382 71.6631C62.3662 72.3891 61.6658 72.9465 60.8372 73.3351C60.0085 73.7165 59.0698 73.9071 58.0212 73.9071ZM58.0212 71.4101C58.6812 71.4101 59.2532 71.2708 59.7372 70.9921C60.2212 70.7061 60.6208 70.3065 60.9362 69.7931C61.2515 69.2725 61.4898 68.6638 61.6512 67.9671C61.8125 67.2631 61.8932 66.4931 61.8932 65.6571C61.8932 64.8211 61.8125 64.0548 61.6512 63.3581C61.4972 62.6541 61.2625 62.0455 60.9472 61.5321C60.6318 61.0188 60.2285 60.6228 59.7372 60.3441C59.2532 60.0581 58.6812 59.9151 58.0212 59.9151C57.3685 59.9151 56.8002 60.0581 56.3162 60.3441C55.8322 60.6228 55.4288 61.0188 55.1062 61.5321C54.7908 62.0455 54.5525 62.6541 54.3912 63.3581C54.2372 64.0548 54.1602 64.8211 54.1602 65.6571C54.1602 66.4931 54.2372 67.2631 54.3912 67.9671C54.5525 68.6638 54.7908 69.2725 55.1062 69.7931C55.4215 70.3065 55.8212 70.7061 56.3052 70.9921C56.7965 71.2708 57.3685 71.4101 58.0212 71.4101ZM71.8325 73.9291C70.7032 73.9145 69.7425 73.6615 68.9505 73.1701C68.1585 72.6788 67.5388 71.9858 67.0915 71.0911C66.6442 70.1965 66.3728 69.1405 66.2775 67.9231C66.2335 67.2998 66.2298 66.6031 66.2665 65.8331C66.3032 65.0631 66.3838 64.3115 66.5085 63.5781C66.6332 62.8448 66.8055 62.2215 67.0255 61.7081C67.2528 61.1948 67.5498 60.7218 67.9165 60.2891C68.2832 59.8491 68.6792 59.4825 69.1045 59.1891C69.5885 58.8518 70.1128 58.5915 70.6775 58.4081C71.2495 58.2248 71.8472 58.0855 72.4705 57.9901C73.0938 57.8875 73.7355 57.7958 74.3955 57.7151C75.0555 57.6345 75.7082 57.5318 76.3535 57.4071L76.5955 59.7501C76.1848 59.8528 75.7082 59.9335 75.1655 59.9921C74.6302 60.0435 74.0728 60.1021 73.4935 60.1681C72.9215 60.2341 72.3752 60.3295 71.8545 60.4541C71.3338 60.5788 70.8828 60.7621 70.5015 61.0041C69.9735 61.3268 69.5702 61.7888 69.2915 62.3901C69.0128 62.9915 68.8478 63.6258 68.7965 64.2931C69.2512 63.6185 69.8158 63.1455 70.4905 62.8741C71.1725 62.5955 71.8618 62.4561 72.5585 62.4561C73.6145 62.4561 74.5202 62.7055 75.2755 63.2041C76.0382 63.7028 76.6212 64.3811 77.0245 65.2391C77.4352 66.0898 77.6405 67.0395 77.6405 68.0881C77.6405 69.2615 77.3948 70.2881 76.9035 71.1681C76.4122 72.0481 75.7302 72.7301 74.8575 73.2141C73.9848 73.6981 72.9765 73.9365 71.8325 73.9291ZM71.9645 71.4431C72.9178 71.4431 73.6365 71.1498 74.1205 70.5631C74.6118 69.9691 74.8575 69.1808 74.8575 68.1981C74.8575 67.1935 74.6045 66.4015 74.0985 65.8221C73.5998 65.2428 72.8885 64.9531 71.9645 64.9531C71.0258 64.9531 70.3108 65.2428 69.8195 65.8221C69.3282 66.4015 69.0825 67.1935 69.0825 68.1981C69.0825 69.2248 69.3318 70.0241 69.8305 70.5961C70.3292 71.1608 71.0405 71.4431 71.9645 71.4431ZM90.3594 61.6971V73.5771H87.8184V65.8221L82.1644 73.5771H80.0414V61.6971H82.5824V69.2541L88.2584 61.6971H90.3594ZM92.3482 73.5771V71.3551C92.7809 71.4358 93.1145 71.4285 93.3492 71.3331C93.5839 71.2305 93.7599 71.0398 93.8772 70.7611C93.9945 70.4825 94.0972 70.1121 94.1852 69.6501C94.3025 68.9975 94.4052 68.2458 94.4932 67.3951C94.5885 66.5445 94.6692 65.6351 94.7352 64.6671C94.8085 63.6991 94.8745 62.7091 94.9332 61.6971H103.678V73.5771H101.038V64.1831H97.2652C97.2285 64.6598 97.1845 65.1951 97.1332 65.7891C97.0819 66.3758 97.0269 66.9698 96.9682 67.5711C96.9095 68.1725 96.8435 68.7445 96.7702 69.2871C96.7042 69.8225 96.6345 70.2808 96.5612 70.6621C96.3925 71.5201 96.1505 72.1985 95.8352 72.6971C95.5272 73.1958 95.0945 73.5148 94.5372 73.6541C93.9799 73.8008 93.2502 73.7751 92.3482 73.5771ZM112.17 73.9071C110.967 73.9071 109.911 73.6468 109.002 73.1261C108.092 72.6055 107.381 71.8831 106.868 70.9591C106.362 70.0351 106.109 68.9718 106.109 67.7691C106.109 66.4711 106.358 65.3455 106.857 64.3921C107.355 63.4315 108.048 62.6871 108.936 62.1591C109.823 61.6311 110.85 61.3671 112.016 61.3671C113.248 61.3671 114.293 61.6568 115.151 62.2361C116.016 62.8081 116.658 63.6185 117.076 64.6671C117.494 65.7158 117.651 66.9515 117.549 68.3741H114.92V67.4061C114.912 66.1155 114.685 65.1731 114.238 64.5791C113.79 63.9851 113.086 63.6881 112.126 63.6881C111.04 63.6881 110.234 64.0255 109.706 64.7001C109.178 65.3675 108.914 66.3465 108.914 67.6371C108.914 68.8398 109.178 69.7711 109.706 70.4311C110.234 71.0911 111.004 71.4211 112.016 71.4211C112.668 71.4211 113.229 71.2781 113.699 70.9921C114.175 70.6988 114.542 70.2771 114.799 69.7271L117.417 70.5191C116.962 71.5898 116.258 72.4221 115.305 73.0161C114.359 73.6101 113.314 73.9071 112.17 73.9071ZM108.078 68.3741V66.3721H116.251V68.3741H108.078ZM130.299 61.6971V73.5771H127.758V65.8221L122.104 73.5771H119.981V61.6971H122.522V69.2541L128.198 61.6971H130.299Z" fill="white"/>
<g clip-path="url(#clip1_170_451)">
<path d="M236.101 104.941C239.338 104.245 242.168 102.294 243.971 99.5162C245.774 96.7383 246.403 93.3593 245.72 90.1187C243.57 84.7836 240.105 80.0786 235.649 76.4408C234.824 75.774 233.86 75.2993 232.829 75.0512C231.797 74.8031 230.723 74.7878 229.685 75.0065C228.646 75.2251 227.67 75.6721 226.826 76.3151C225.982 76.9581 225.291 77.781 224.805 78.724C222.276 83.8556 221.078 89.5404 221.321 95.256C222.003 98.4966 223.941 101.335 226.711 103.15C229.481 104.965 232.857 105.609 236.101 104.941Z" fill="#748A5B"/>
<path d="M306.588 90.1006C309.826 89.404 312.656 87.4533 314.459 84.6754C316.262 81.8975 316.891 78.5185 316.208 75.2779C314.057 69.9428 310.593 65.2378 306.137 61.6C305.312 60.9332 304.348 60.4585 303.316 60.2104C302.285 59.9623 301.211 59.947 300.173 60.1656C299.134 60.3842 298.158 60.8313 297.314 61.4743C296.47 62.1173 295.779 62.9402 295.293 63.8832C292.682 69.0089 291.409 74.7114 291.592 80.4608C291.933 82.0839 292.594 83.6229 293.535 84.9885C294.476 86.3542 295.68 87.5192 297.075 88.416C298.47 89.3129 300.029 89.9236 301.663 90.2128C303.296 90.502 304.97 90.4638 306.588 90.1006Z" fill="#748A5B"/>
<path d="M271.345 97.5211C274.582 96.8245 277.412 94.8738 279.215 92.0959C281.018 89.318 281.647 85.9391 280.965 82.6985C278.848 77.3669 275.421 72.6548 271.002 68.9977C270.176 68.3309 269.213 67.8562 268.181 67.6081C267.15 67.36 266.076 67.3447 265.037 67.5633C263.999 67.7819 263.022 68.229 262.178 68.872C261.334 69.515 260.644 70.3379 260.157 71.2809C257.588 76.4096 256.352 82.1032 256.565 87.8357C257.247 91.0763 259.185 93.9147 261.955 95.7299C264.725 97.545 268.101 98.1891 271.345 97.5211Z" fill="#748A5B"/>
<path d="M323.712 117.639C322.993 117.791 322.243 117.65 321.628 117.249C321.012 116.848 320.581 116.218 320.43 115.499L317.005 99.2327C316.703 97.7946 315.841 96.5357 314.61 95.733C313.379 94.9302 311.88 94.6493 310.442 94.9521L305.019 96.0937C303.581 96.3965 302.322 97.2581 301.52 98.4891C300.717 99.72 300.436 101.219 300.739 102.657L304.164 118.924C304.315 119.643 304.175 120.393 303.773 121.008C303.372 121.624 302.742 122.054 302.023 122.206L288.468 125.06C287.749 125.211 286.999 125.071 286.384 124.669C285.768 124.268 285.338 123.639 285.186 122.92L281.761 106.653C281.459 105.215 280.597 103.956 279.366 103.153C278.135 102.351 276.636 102.07 275.198 102.373L269.775 103.514C268.337 103.817 267.078 104.679 266.276 105.91C265.473 107.14 265.192 108.64 265.495 110.078L268.92 126.344C269.071 127.063 268.931 127.813 268.529 128.429C268.128 129.044 267.498 129.475 266.779 129.626L253.224 132.48C252.505 132.632 251.755 132.491 251.14 132.09C250.524 131.689 250.094 131.059 249.942 130.34L246.517 114.074C246.215 112.636 245.353 111.377 244.122 110.574C242.891 109.771 241.392 109.49 239.954 109.793L234.531 110.935C233.093 111.237 231.834 112.099 231.032 113.33C230.229 114.561 229.948 116.06 230.251 117.498L233.676 133.765C233.827 134.484 233.687 135.234 233.285 135.849C232.884 136.465 232.254 136.895 231.535 137.047C227.94 137.804 224.793 139.958 222.786 143.035C220.779 146.112 220.077 149.861 220.834 153.456L221.245 155.408C221.854 158.004 223.377 160.293 225.537 161.856C227.696 163.419 230.347 164.151 233.003 163.918C235.27 163.674 237.427 162.816 239.242 161.436C241.057 160.056 242.461 158.206 243.302 156.087C243.739 154.957 244.451 153.953 245.372 153.166C246.294 152.379 247.397 151.833 248.581 151.578C249.84 151.302 251.148 151.341 252.387 151.692C253.627 152.044 254.761 152.697 255.687 153.593C257.151 154.978 258.929 155.988 260.869 156.535C262.809 157.083 264.852 157.152 266.825 156.737C268.797 156.321 270.639 155.434 272.194 154.151C273.748 152.868 274.968 151.227 275.749 149.369C276.282 148.258 277.063 147.285 278.032 146.524C279.001 145.764 280.132 145.236 281.338 144.982C282.543 144.728 283.791 144.755 284.984 145.061C286.177 145.366 287.285 145.941 288.22 146.743C289.684 148.128 291.462 149.138 293.402 149.686C295.342 150.233 297.385 150.302 299.358 149.887C301.33 149.472 303.172 148.584 304.727 147.301C306.281 146.018 307.501 144.377 308.282 142.519C308.774 141.369 309.535 140.354 310.501 139.56C311.467 138.765 312.609 138.214 313.833 137.953C315.02 137.709 316.249 137.764 317.409 138.112C318.57 138.461 319.626 139.093 320.482 139.95C322.106 141.55 324.136 142.677 326.354 143.208C328.571 143.739 330.891 143.654 333.064 142.964C335.643 142.13 337.827 140.38 339.203 138.046C340.579 135.711 341.052 132.953 340.532 130.293L340.121 128.341C339.364 124.746 337.21 121.598 334.133 119.592C331.056 117.585 327.307 116.882 323.712 117.639Z" fill="#748A5B"/>
<path d="M340.51 148.474C339.019 149.435 337.408 150.193 335.718 150.729C332.766 151.681 329.639 151.962 326.565 151.551C323.49 151.14 320.546 150.048 317.948 148.355C317.647 148.138 317.305 147.986 316.943 147.91C316.58 147.833 316.206 147.833 315.844 147.909C315.481 147.985 315.139 148.136 314.838 148.353C314.538 148.569 314.285 148.846 314.098 149.165C312.638 151.452 310.735 153.423 308.502 154.963C306.269 156.503 303.75 157.58 301.093 158.132C295.728 159.245 290.14 158.204 285.535 155.236C284.923 154.846 284.183 154.711 283.474 154.86C282.764 155.01 282.141 155.431 281.739 156.035C278.709 160.622 273.993 163.829 268.613 164.962C263.233 166.095 257.624 165.061 253.002 162.085C252.704 161.877 252.366 161.732 252.01 161.66C251.654 161.587 251.287 161.588 250.931 161.663C250.575 161.738 250.239 161.885 249.942 162.095C249.645 162.305 249.395 162.574 249.206 162.884C247.515 165.419 245.295 167.557 242.697 169.15C240.1 170.743 237.187 171.753 234.161 172.111C232.399 172.302 230.619 172.258 228.868 171.98C228.427 171.906 227.976 171.94 227.551 172.079C227.127 172.218 226.742 172.457 226.43 172.776C226.114 173.096 225.882 173.49 225.756 173.922C225.629 174.354 225.612 174.81 225.706 175.25L230.272 196.939C231.055 200.451 233.173 203.52 236.179 205.497C239.184 207.475 242.841 208.206 246.376 207.535L338.553 188.127C340.333 187.753 342.022 187.031 343.523 186.003C345.024 184.976 346.308 183.663 347.302 182.139C348.296 180.615 348.979 178.911 349.314 177.123C349.649 175.335 349.629 173.498 349.254 171.718L344.688 150.029C344.596 149.589 344.396 149.178 344.106 148.834C343.816 148.489 343.445 148.223 343.027 148.057C342.604 147.92 342.155 147.886 341.717 147.959C341.279 148.031 340.865 148.208 340.51 148.474Z" fill="#748A5B"/>
</g>
<g clip-path="url(#clip2_170_451)">
<path d="M34.6414 243.042C33.3699 242.659 32.1899 242.008 30.9137 241.639C29.6391 241.266 28.1744 241.207 27.0704 241.944C24.8763 243.406 25.3887 246.799 24.0603 249.077C23.1289 250.674 21.2596 251.614 19.4089 251.635C17.5581 251.656 15.7568 250.841 14.3757 249.614C13.4009 248.746 12.3539 247.584 11.0733 247.831C9.97778 248.037 9.35789 249.201 9.0547 250.274C8.75151 251.346 8.5675 252.536 7.76897 253.313C6.48172 254.57 4.30494 254.095 2.76804 253.157C1.23115 252.218 -0.143183 250.888 -1.90659 250.54C-2.94823 250.336 -4.03153 250.505 -5.08638 250.39C-6.14123 250.275 -7.87407 251.034 -8.1914 250.023C-8.72995 249.359 -8.21958 247.058 -8.04948 246.188C-7.84504 245.146 -7.3569 244.165 -7.24223 243.11C-7.04407 241.324 -7.90349 239.611 -8.33548 237.869C-8.76748 236.126 -8.57075 233.907 -6.98516 233.053C-6.00475 232.523 -4.8155 232.707 -3.69706 232.737C-2.58488 232.771 -1.28853 232.525 -0.757946 231.541C-0.142623 230.391 -0.936854 229.044 -1.47311 227.853C-2.2316 226.167 -2.46776 224.205 -1.89188 222.448C-1.31601 220.69 0.138503 219.188 1.94263 218.776C4.51237 218.192 7.60111 219.697 9.65317 218.043C10.6886 217.212 11.0715 215.794 11.0968 214.465C11.122 213.136 10.8565 211.817 10.8708 210.49C10.8957 208.382 11.6674 206.259 13.1504 204.767C14.638 203.276 16.8517 202.484 18.9208 202.888C20.5723 203.21 22.063 204.243 23.7417 204.318C26.16 204.433 28.2238 202.548 29.5058 200.494C30.791 198.447 31.6201 196.097 33.2143 194.275C34.8086 192.453 37.5671 191.282 39.6651 192.49C42.0811 193.878 42.5653 197.732 45.2467 198.49C47.6126 199.157 49.6837 196.924 51.8816 195.823C55.7501 193.881 61.0902 196.069 62.4905 200.16C63.4752 202.864 62.946 206.215 60.9206 208.306C59.2078 210.074 56.4586 211.378 56.3886 213.837C56.3079 216.621 58.6738 218.474 59.2765 221.196C59.7968 223.557 59.0228 225.607 56.8031 226.58C54.5882 227.555 52.0997 227.642 49.7567 228.252C47.4184 228.863 44.9973 230.268 44.3819 232.604C43.9525 234.231 44.4881 235.96 44.3045 237.635C44.0703 239.728 42.6512 241.606 40.7822 242.577C38.9132 243.549 36.656 243.648 34.6367 243.04L34.6414 243.042Z" fill="#748A5B"/>
<path d="M13.8592 231.667C15.824 227.848 16.1721 223.29 14.8576 219.289C15.9699 223.35 15.3752 227.798 13.3025 231.367L13.853 231.67L13.8592 231.667Z" fill="#404040"/>
<path d="M-8.16681 250.872C10.2266 233.638 28.5586 219.517 48.9062 208.192C48.9062 208.192 35.2046 215.517 25.5998 221.976C14.4428 229.478 -9.17239 250.361 -9.17239 250.361L-8.16209 250.874L-8.16681 250.872Z" fill="#404040"/>
<path d="M29.5879 220.167C34.2034 218.371 39.2967 217.752 44.2573 218.408C39.3276 217.543 34.1595 217.939 29.3709 219.575L29.5879 220.167Z" fill="#404040"/>
<path d="M4.65643 239.41C9.02081 236.77 14.1994 235.432 19.355 235.644C14.2097 235.222 8.91724 236.345 4.34087 238.864L4.65643 239.41Z" fill="#404040"/>
</g>
<g clip-path="url(#clip3_170_451)">
<path d="M364.097 251.978C365.011 251.995 365.921 251.817 366.836 251.844C367.75 251.868 368.722 252.139 369.29 252.854C370.42 254.275 369.369 256.391 369.76 258.165C370.033 259.407 371.061 260.417 372.269 260.821C373.478 261.225 374.83 261.071 375.994 260.558C376.816 260.195 377.747 259.654 378.535 260.085C379.209 260.452 379.37 261.345 379.343 262.112C379.315 262.879 379.185 263.697 379.545 264.375C380.123 265.471 381.65 265.618 382.856 265.327C384.061 265.036 385.242 264.454 386.471 264.598C387.197 264.683 387.872 265.022 388.587 265.17C389.303 265.317 390.278 266.18 390.7 265.584C391.193 265.262 391.343 263.646 391.415 263.04C391.501 262.314 391.388 261.568 391.535 260.852C391.782 259.64 392.706 258.699 393.356 257.648C394.007 256.596 394.346 255.1 393.487 254.207C392.956 253.652 392.138 253.522 391.398 253.306C390.662 253.094 389.864 252.659 389.724 251.902C389.563 251.019 390.367 250.303 390.97 249.636C391.823 248.691 392.391 247.455 392.384 246.181C392.377 244.907 391.74 243.617 390.645 242.966C389.084 242.042 386.742 242.377 385.745 240.861C385.242 240.097 385.29 239.087 385.554 238.21C385.817 237.334 386.269 236.526 386.54 235.653C386.968 234.266 386.909 232.712 386.252 231.421C385.591 230.13 384.307 229.144 382.866 228.973C381.716 228.836 380.521 229.199 379.404 228.894C377.795 228.459 376.84 226.789 376.433 225.173C376.022 223.56 375.974 221.845 375.313 220.314C374.652 218.784 373.091 217.435 371.461 217.784C369.585 218.185 368.455 220.609 366.538 220.54C364.846 220.479 363.96 218.578 362.751 217.394C360.625 215.305 356.663 215.613 354.883 218C353.668 219.564 353.308 221.872 354.195 223.67C354.945 225.19 356.472 226.624 355.999 228.251C355.465 230.093 353.524 230.808 352.555 232.465C351.716 233.903 351.791 235.41 353.041 236.516C354.287 237.622 355.9 238.204 357.307 239.097C358.711 239.991 360.002 241.422 359.913 243.083C359.851 244.24 359.135 245.26 358.903 246.397C358.615 247.818 359.149 249.348 360.169 250.379C361.19 251.409 362.648 251.95 364.1 251.978H364.097Z" fill="#748A5B"/>
<path d="M380.116 248.903C379.634 245.986 380.366 242.925 382.071 240.58C380.486 243.007 379.938 246.047 380.544 248.824L380.12 248.906L380.116 248.903Z" fill="#404040"/>
<path d="M390.504 266.135C382.082 250.961 373.043 237.84 362.093 226.128C362.093 226.128 369.53 233.817 374.464 240.076C380.195 247.345 391.271 266.012 391.271 266.012L390.501 266.135H390.504Z" fill="#404040"/>
<path d="M372.232 238.049C369.585 235.899 366.377 234.42 362.987 233.804C366.401 234.276 369.705 235.625 372.499 237.707L372.232 238.049Z" fill="#404040"/>
<path d="M384.516 255.918C382.212 253.268 379.1 251.299 375.676 250.351C379.137 251.159 382.369 253.011 384.838 255.627L384.516 255.918Z" fill="#404040"/>
</g>
<g clip-path="url(#clip4_170_451)">
<path d="M386.447 25.3654C386.502 24.4527 386.362 23.5354 386.427 22.6231C386.488 21.7107 386.799 20.7504 387.537 20.2121C389.004 19.142 391.074 20.2796 392.863 19.963C394.116 19.7407 395.167 18.7562 395.621 17.5653C396.075 16.3744 395.976 15.0168 395.511 13.8325C395.183 12.9965 394.681 12.0436 395.144 11.2746C395.538 10.6159 396.438 10.492 397.203 10.5511C397.968 10.6102 398.78 10.774 399.473 10.4428C400.591 9.91 400.801 8.39037 400.56 7.17418C400.319 5.958 399.787 4.75373 399.981 3.53157C400.097 2.80988 400.463 2.14998 400.64 1.4411C400.817 0.732219 401.719 -0.207065 401.141 -0.652465C400.84 -1.15838 399.232 -1.37571 398.629 -1.4726C397.907 -1.58813 397.157 -1.5061 396.448 -1.68278C395.247 -1.97919 394.345 -2.94176 393.322 -3.63518C392.298 -4.32861 390.817 -4.72913 389.889 -3.90743C389.313 -3.40012 389.149 -2.5879 388.903 -1.85791C388.66 -1.13119 388.193 -0.352103 387.431 -0.243128C386.542 -0.118865 385.86 -0.952356 385.218 -1.58203C384.309 -2.4729 383.098 -3.09187 381.825 -3.13768C380.552 -3.1835 379.236 -2.60058 378.541 -1.53278C377.552 -0.0110714 377.791 2.34269 376.234 3.27547C375.451 3.74677 374.443 3.65712 373.579 3.35748C372.714 3.05783 371.925 2.57287 371.064 2.26653C369.696 1.78159 368.141 1.77548 366.824 2.37893C365.507 2.9858 364.468 4.22787 364.238 5.66099C364.053 6.80475 364.367 8.01364 364.016 9.11626C363.515 10.7061 361.806 11.5915 360.175 11.9317C358.546 12.2756 356.831 12.2526 355.274 12.8495C353.718 13.4465 352.305 14.9506 352.587 16.5934C352.91 18.4846 355.285 19.7137 355.137 21.6266C355.006 23.314 353.07 24.1214 351.837 25.28C349.662 27.3181 349.806 31.2888 352.117 33.1663C353.63 34.4454 355.921 34.9 357.754 34.0883C359.303 33.402 360.8 31.9356 362.405 32.4749C364.224 33.0847 364.858 35.0539 366.474 36.0905C367.876 36.9881 369.384 36.9751 370.541 35.7722C371.698 34.5727 372.346 32.9856 373.297 31.6165C374.248 30.2509 375.731 29.0204 377.386 29.178C378.54 29.2874 379.53 30.0445 380.656 30.3241C382.064 30.6702 383.615 30.1999 384.687 29.223C385.759 28.2462 386.36 26.8113 386.447 25.362L386.447 25.3654Z" fill="#748A5B"/>
<path d="M384.037 9.23202C381.103 9.59377 378.075 8.73516 375.802 6.93459C378.162 8.61882 381.177 9.29186 383.976 8.80115L384.041 9.22874L384.037 9.23202Z" fill="#404040"/>
<path d="M401.684 -0.434513C386.174 7.35355 372.692 15.8423 360.536 26.2981C360.536 26.2981 368.527 19.1858 374.984 14.5151C382.484 9.08899 401.592 -1.20589 401.592 -1.20589L401.684 -0.431095L401.684 -0.434513Z" fill="#404040"/>
<path d="M372.867 16.6616C370.609 19.2171 368.999 22.3613 368.243 25.7225C368.856 22.3314 370.34 19.086 372.536 16.3807L372.867 16.6616Z" fill="#404040"/>
<path d="M391.229 5.12617C388.486 7.31887 386.39 10.3471 385.301 13.7288C386.251 10.3036 388.236 7.15089 390.951 4.79257L391.229 5.12617Z" fill="#404040"/>
</g>
</g>
<defs>
<clipPath id="clip0_170_451">
<rect width="426" height="260" rx="20" fill="white"/>
</clipPath>
<clipPath id="clip1_170_451">
<rect width="132.985" height="132.985" fill="white" transform="translate(200 81.3987) rotate(-11.8897)"/>
</clipPath>
<clipPath id="clip2_170_451">
<rect width="61" height="72.8151" fill="white" transform="matrix(-0.95197 -0.306192 -0.306192 0.95197 67.3657 198.678)"/>
</clipPath>
<clipPath id="clip3_170_451">
<rect width="42" height="50.135" fill="white" transform="translate(352 216)"/>
</clipPath>
<clipPath id="clip4_170_451">
<rect width="42" height="50.135" fill="white" transform="translate(350 35.9641) rotate(-87.6306)"/>
</clipPath>
</defs>
</svg>
