<svg width="307" height="238" viewBox="0 0 307 238" fill="none" xmlns="http://www.w3.org/2000/svg">
<g clip-path="url(#clip0_1142_7302)">
<rect width="307" height="238" rx="20" fill="#748A5B"/>
<path d="M285.334 26.1713C234.39 24.2185 229.709 -44.5522 248.826 -65.0261L436.41 -106.8L484.064 107.19L383.94 129.487C287.773 150.902 296.692 85.8872 314.928 65.7988C333.163 45.7104 336.278 28.1242 285.334 26.1713Z" stroke="#FFFAFC" stroke-width="2" stroke-dasharray="11 11"/>
<path d="M459.118 85.4055C445.13 150.703 530.871 178.837 563.026 161.178L676.654 -63.454L420.555 -193L359.905 -73.1015C301.653 42.058 387.024 51.7179 418.405 35.0526C449.786 18.3874 473.106 20.1085 459.118 85.4055Z" stroke="#FFFAFC" stroke-width="2" stroke-dasharray="11 11"/>
<rect x="20" y="20" width="216" height="42" rx="10" fill="white"/>
<path d="M44.32 47V45.192C44.5653 45.208 44.7733 45.1867 44.944 45.128C45.1147 45.0693 45.2587 44.9627 45.376 44.808C45.4987 44.648 45.6053 44.4293 45.696 44.152C45.7867 43.8693 45.872 43.5173 45.952 43.096C46.08 42.4293 46.1867 41.728 46.272 40.992C46.3627 40.2507 46.4373 39.5253 46.496 38.816C46.5547 38.1067 46.6 37.4613 46.632 36.88C46.664 36.2933 46.688 35.8267 46.704 35.48H54.56V47H52.384V37.512H48.704C48.6827 37.8107 48.6533 38.2 48.616 38.68C48.584 39.16 48.5387 39.6907 48.48 40.272C48.4213 40.8533 48.3493 41.456 48.264 42.08C48.1787 42.704 48.0747 43.3093 47.952 43.896C47.84 44.4667 47.704 44.9733 47.544 45.416C47.384 45.8533 47.1707 46.2133 46.904 46.496C46.6427 46.7733 46.304 46.9573 45.888 47.048C45.472 47.1387 44.9493 47.1227 44.32 47ZM64.5995 47.24C63.9382 47.24 63.3328 47.1067 62.7835 46.84C62.2342 46.568 61.7728 46.1733 61.3995 45.656C61.0262 45.1387 60.7755 44.5093 60.6475 43.768H58.9675V47H56.7915V38.36H58.9675V41.592H60.6475C60.7755 40.84 61.0262 40.208 61.3995 39.696C61.7782 39.1787 62.2448 38.7867 62.7995 38.52C63.3595 38.2533 63.9755 38.12 64.6475 38.12C65.5008 38.12 66.2528 38.3173 66.9035 38.712C67.5542 39.1013 68.0635 39.64 68.4315 40.328C68.7995 41.0107 68.9835 41.7893 68.9835 42.664C68.9835 43.5653 68.7968 44.36 68.4235 45.048C68.0502 45.736 67.5328 46.2747 66.8715 46.664C66.2155 47.048 65.4582 47.24 64.5995 47.24ZM64.5835 45.208C65.2875 45.208 65.8128 44.9733 66.1595 44.504C66.5062 44.0293 66.6795 43.4213 66.6795 42.68C66.6795 41.9013 66.5035 41.2853 66.1515 40.832C65.8048 40.3787 65.2822 40.152 64.5835 40.152C63.8795 40.152 63.3622 40.384 63.0315 40.848C62.7008 41.312 62.5355 41.9173 62.5355 42.664C62.5355 43.448 62.7088 44.0693 63.0555 44.528C63.4022 44.9813 63.9115 45.208 64.5835 45.208ZM74.385 47.256C73.553 47.2453 72.849 47.0613 72.273 46.704C71.697 46.3413 71.2437 45.8427 70.913 45.208C70.5877 44.568 70.385 43.8267 70.305 42.984C70.2623 42.5307 70.2517 42.0213 70.273 41.456C70.2997 40.8853 70.361 40.3253 70.457 39.776C70.553 39.2267 70.689 38.7547 70.865 38.36C71.0357 37.992 71.2543 37.656 71.521 37.352C71.793 37.0427 72.081 36.7813 72.385 36.568C72.7423 36.3173 73.1263 36.1253 73.537 35.992C73.9477 35.8533 74.3797 35.7467 74.833 35.672C75.2863 35.5973 75.7557 35.5307 76.241 35.472C76.7317 35.4133 77.2277 35.336 77.729 35.24L77.921 37.16C77.617 37.24 77.2703 37.2987 76.881 37.336C76.4917 37.3733 76.0917 37.4133 75.681 37.456C75.2703 37.4933 74.8783 37.5547 74.505 37.64C74.1317 37.7253 73.809 37.8533 73.537 38.024C73.169 38.2533 72.8863 38.5733 72.689 38.984C72.497 39.3893 72.385 39.8 72.353 40.216C72.6837 39.736 73.0863 39.4053 73.561 39.224C74.041 39.0427 74.513 38.952 74.977 38.952C75.7397 38.952 76.393 39.136 76.937 39.504C77.4863 39.8667 77.9077 40.3573 78.201 40.976C78.4943 41.5893 78.641 42.2693 78.641 43.016C78.641 43.864 78.457 44.608 78.089 45.248C77.7263 45.888 77.225 46.3867 76.585 46.744C75.945 47.096 75.2117 47.2667 74.385 47.256ZM74.481 45.224C75.0997 45.224 75.5663 45.032 75.881 44.648C76.1957 44.264 76.353 43.752 76.353 43.112C76.353 42.456 76.1903 41.9413 75.865 41.568C75.545 41.1893 75.0837 41 74.481 41C73.8677 41 73.401 41.1893 73.081 41.568C72.7663 41.9413 72.609 42.456 72.609 43.112C72.609 43.7893 72.7717 44.312 73.097 44.68C73.4223 45.0427 73.8837 45.224 74.481 45.224ZM84.2893 47.24C83.4199 47.24 82.6573 47.0453 82.0013 46.656C81.3453 46.2667 80.8333 45.7307 80.4653 45.048C80.1026 44.36 79.9213 43.5707 79.9213 42.68C79.9213 41.7787 80.1079 40.9867 80.4813 40.304C80.8546 39.616 81.3693 39.08 82.0253 38.696C82.6813 38.312 83.4359 38.12 84.2893 38.12C85.1586 38.12 85.9213 38.3147 86.5773 38.704C87.2386 39.0933 87.7533 39.632 88.1213 40.32C88.4893 41.0027 88.6733 41.7893 88.6733 42.68C88.6733 43.576 88.4866 44.368 88.1133 45.056C87.7453 45.7387 87.2306 46.2747 86.5693 46.664C85.9133 47.048 85.1533 47.24 84.2893 47.24ZM84.2893 45.208C84.9879 45.208 85.5079 44.9733 85.8493 44.504C86.1959 44.0293 86.3693 43.4213 86.3693 42.68C86.3693 41.912 86.1933 41.2987 85.8413 40.84C85.4946 40.3813 84.9773 40.152 84.2893 40.152C83.8146 40.152 83.4253 40.2587 83.1213 40.472C82.8173 40.6853 82.5906 40.9813 82.4413 41.36C82.2973 41.7387 82.2253 42.1787 82.2253 42.68C82.2253 43.4533 82.3986 44.0693 82.7453 44.528C83.0973 44.9813 83.6119 45.208 84.2893 45.208ZM94.4485 47.24C93.5632 47.24 92.7818 47.0507 92.1045 46.672C91.4325 46.288 90.9045 45.7627 90.5205 45.096C90.1418 44.424 89.9525 43.656 89.9525 42.792C89.9525 41.848 90.1392 41.0267 90.5125 40.328C90.8858 39.6293 91.4005 39.088 92.0565 38.704C92.7125 38.3147 93.4672 38.12 94.3205 38.12C95.2272 38.12 95.9978 38.3333 96.6325 38.76C97.2672 39.1867 97.7365 39.7867 98.0405 40.56C98.3445 41.3333 98.4512 42.2427 98.3605 43.288H96.2085V42.488C96.2085 41.608 96.0672 40.976 95.7845 40.592C95.5072 40.2027 95.0512 40.008 94.4165 40.008C93.6752 40.008 93.1285 40.2347 92.7765 40.688C92.4298 41.136 92.2565 41.8 92.2565 42.68C92.2565 43.4853 92.4298 44.1093 92.7765 44.552C93.1285 44.9893 93.6432 45.208 94.3205 45.208C94.7472 45.208 95.1125 45.1147 95.4165 44.928C95.7205 44.7413 95.9525 44.472 96.1125 44.12L98.2885 44.744C97.9632 45.5333 97.4485 46.1467 96.7445 46.584C96.0458 47.0213 95.2805 47.24 94.4485 47.24ZM91.5845 43.288V41.672H97.3125V43.288H91.5845ZM103.354 47V38.36H105.114L108.122 43.96L111.13 38.36H112.89V47H110.81V42.696L108.506 47H107.738L105.434 42.696V47H103.354ZM119.152 47.24C118.266 47.24 117.485 47.0507 116.808 46.672C116.136 46.288 115.608 45.7627 115.224 45.096C114.845 44.424 114.656 43.656 114.656 42.792C114.656 41.848 114.842 41.0267 115.216 40.328C115.589 39.6293 116.104 39.088 116.76 38.704C117.416 38.3147 118.17 38.12 119.024 38.12C119.93 38.12 120.701 38.3333 121.336 38.76C121.97 39.1867 122.44 39.7867 122.744 40.56C123.048 41.3333 123.154 42.2427 123.064 43.288H120.912V42.488C120.912 41.608 120.77 40.976 120.488 40.592C120.21 40.2027 119.754 40.008 119.12 40.008C118.378 40.008 117.832 40.2347 117.48 40.688C117.133 41.136 116.96 41.8 116.96 42.68C116.96 43.4853 117.133 44.1093 117.48 44.552C117.832 44.9893 118.346 45.208 119.024 45.208C119.45 45.208 119.816 45.1147 120.12 44.928C120.424 44.7413 120.656 44.472 120.816 44.12L122.992 44.744C122.666 45.5333 122.152 46.1467 121.448 46.584C120.749 47.0213 119.984 47.24 119.152 47.24ZM116.288 43.288V41.672H122.016V43.288H116.288ZM129.11 47.24C128.251 47.24 127.534 47.04 126.958 46.64C126.382 46.24 125.947 45.696 125.654 45.008C125.366 44.32 125.222 43.544 125.222 42.68C125.222 41.816 125.366 41.04 125.654 40.352C125.942 39.664 126.366 39.12 126.926 38.72C127.486 38.32 128.177 38.12 128.998 38.12C129.825 38.12 130.545 38.3173 131.158 38.712C131.771 39.1067 132.246 39.648 132.582 40.336C132.923 41.0187 133.094 41.8 133.094 42.68C133.094 43.544 132.926 44.32 132.59 45.008C132.259 45.696 131.795 46.24 131.198 46.64C130.601 47.04 129.905 47.24 129.11 47.24ZM124.854 50.84V38.36H126.774V44.28H127.046V50.84H124.854ZM128.758 45.304C129.227 45.304 129.611 45.1867 129.91 44.952C130.209 44.7173 130.43 44.4027 130.574 44.008C130.718 43.608 130.79 43.1653 130.79 42.68C130.79 42.2 130.715 41.7627 130.566 41.368C130.417 40.968 130.185 40.6507 129.87 40.416C129.561 40.176 129.163 40.056 128.678 40.056C128.225 40.056 127.857 40.1653 127.574 40.384C127.297 40.6027 127.094 40.9093 126.966 41.304C126.838 41.6987 126.774 42.1573 126.774 42.68C126.774 43.2027 126.838 43.6613 126.966 44.056C127.094 44.4507 127.302 44.7573 127.59 44.976C127.883 45.1947 128.273 45.304 128.758 45.304ZM138.742 47.24C137.873 47.24 137.11 47.0453 136.454 46.656C135.798 46.2667 135.286 45.7307 134.918 45.048C134.556 44.36 134.374 43.5707 134.374 42.68C134.374 41.7787 134.561 40.9867 134.934 40.304C135.308 39.616 135.822 39.08 136.478 38.696C137.134 38.312 137.889 38.12 138.742 38.12C139.612 38.12 140.374 38.3147 141.03 38.704C141.692 39.0933 142.206 39.632 142.574 40.32C142.942 41.0027 143.126 41.7893 143.126 42.68C143.126 43.576 142.94 44.368 142.566 45.056C142.198 45.7387 141.684 46.2747 141.022 46.664C140.366 47.048 139.606 47.24 138.742 47.24ZM138.742 45.208C139.441 45.208 139.961 44.9733 140.302 44.504C140.649 44.0293 140.822 43.4213 140.822 42.68C140.822 41.912 140.646 41.2987 140.294 40.84C139.948 40.3813 139.43 40.152 138.742 40.152C138.268 40.152 137.878 40.2587 137.574 40.472C137.27 40.6853 137.044 40.9813 136.894 41.36C136.75 41.7387 136.678 42.1787 136.678 42.68C136.678 43.4533 136.852 44.0693 137.198 44.528C137.55 44.9813 138.065 45.208 138.742 45.208ZM144.87 47V38.36H152.582V47H150.406V40.392H147.046V47H144.87ZM159.063 47.24C158.204 47.24 157.487 47.04 156.911 46.64C156.335 46.24 155.9 45.696 155.607 45.008C155.319 44.32 155.175 43.544 155.175 42.68C155.175 41.816 155.319 41.04 155.607 40.352C155.895 39.664 156.319 39.12 156.879 38.72C157.439 38.32 158.13 38.12 158.951 38.12C159.778 38.12 160.498 38.3173 161.111 38.712C161.724 39.1067 162.199 39.648 162.535 40.336C162.876 41.0187 163.047 41.8 163.047 42.68C163.047 43.544 162.879 44.32 162.543 45.008C162.212 45.696 161.748 46.24 161.151 46.64C160.554 47.04 159.858 47.24 159.063 47.24ZM154.807 50.84V38.36H156.727V44.28H156.999V50.84H154.807ZM158.711 45.304C159.18 45.304 159.564 45.1867 159.863 44.952C160.162 44.7173 160.383 44.4027 160.527 44.008C160.671 43.608 160.743 43.1653 160.743 42.68C160.743 42.2 160.668 41.7627 160.519 41.368C160.37 40.968 160.138 40.6507 159.823 40.416C159.514 40.176 159.116 40.056 158.631 40.056C158.178 40.056 157.81 40.1653 157.527 40.384C157.25 40.6027 157.047 40.9093 156.919 41.304C156.791 41.6987 156.727 42.1573 156.727 42.68C156.727 43.2027 156.791 43.6613 156.919 44.056C157.047 44.4507 157.255 44.7573 157.543 44.976C157.836 45.1947 158.226 45.304 158.711 45.304ZM172.503 38.36V47H170.424V41.72L166.52 47H164.792V38.36H166.872V43.464L170.792 38.36H172.503ZM179.833 47V44.248H178.441C178.26 44.248 178.012 44.2453 177.697 44.24C177.388 44.2293 177.097 44.2 176.825 44.152C176.137 44.0293 175.572 43.7307 175.129 43.256C174.692 42.7813 174.473 42.136 174.473 41.32C174.473 40.5253 174.684 39.8853 175.105 39.4C175.526 38.9147 176.089 38.6053 176.793 38.472C177.081 38.4133 177.377 38.3813 177.681 38.376C177.99 38.3653 178.244 38.36 178.441 38.36H182.009V47H179.833ZM174.265 47L176.217 43.8H178.457L176.537 47H174.265ZM178.201 42.568H179.833V40.04H178.201C178.105 40.04 177.998 40.0453 177.881 40.056C177.769 40.0667 177.652 40.088 177.529 40.12C177.38 40.1627 177.241 40.2427 177.113 40.36C176.985 40.472 176.881 40.6107 176.801 40.776C176.721 40.936 176.681 41.112 176.681 41.304C176.681 41.608 176.772 41.8667 176.953 42.08C177.134 42.288 177.337 42.424 177.561 42.488C177.673 42.52 177.785 42.5413 177.897 42.552C178.014 42.5627 178.116 42.568 178.201 42.568ZM186.357 47V40.28H183.525V38.36H191.365V40.28H188.533V47H186.357ZM200.582 38.36V47H198.502V41.72L194.598 47H192.87V38.36H194.95V43.464L198.87 38.36H200.582ZM206.839 47.24C205.954 47.24 205.172 47.0507 204.495 46.672C203.823 46.288 203.295 45.7627 202.911 45.096C202.532 44.424 202.343 43.656 202.343 42.792C202.343 41.848 202.53 41.0267 202.903 40.328C203.276 39.6293 203.791 39.088 204.447 38.704C205.103 38.3147 205.858 38.12 206.711 38.12C207.618 38.12 208.388 38.3333 209.023 38.76C209.658 39.1867 210.127 39.7867 210.431 40.56C210.735 41.3333 210.842 42.2427 210.751 43.288H208.599V42.488C208.599 41.608 208.458 40.976 208.175 40.592C207.898 40.2027 207.442 40.008 206.807 40.008C206.066 40.008 205.519 40.2347 205.167 40.688C204.82 41.136 204.647 41.8 204.647 42.68C204.647 43.4853 204.82 44.1093 205.167 44.552C205.519 44.9893 206.034 45.208 206.711 45.208C207.138 45.208 207.503 45.1147 207.807 44.928C208.111 44.7413 208.343 44.472 208.503 44.12L210.679 44.744C210.354 45.5333 209.839 46.1467 209.135 46.584C208.436 47.0213 207.671 47.24 206.839 47.24ZM203.975 43.288V41.672H209.703V43.288H203.975Z" fill="#748A5B"/>
<path d="M20.54 95.16V90.714C20.93 90.714 21.26 90.618 21.53 90.426C21.806 90.228 22.031 89.952 22.205 89.598C22.379 89.238 22.517 88.818 22.619 88.338C22.721 87.858 22.796 87.336 22.844 86.772C22.904 86.052 22.958 85.344 23.006 84.648C23.054 83.946 23.102 83.22 23.15 82.47C23.198 81.714 23.252 80.898 23.312 80.022L31.916 80.04V90.714H32.906V95.16H30.458V93H22.988V95.16H20.54ZM24.194 90.714H29.468V82.326L25.544 82.308C25.502 82.902 25.466 83.448 25.436 83.946C25.412 84.444 25.382 84.948 25.346 85.458C25.31 85.968 25.262 86.538 25.202 87.168C25.142 87.798 25.082 88.317 25.022 88.725C24.962 89.127 24.869 89.478 24.743 89.778C24.623 90.078 24.44 90.39 24.194 90.714ZM40.445 93.27C39.149 93.27 38.03 92.988 37.088 92.424C36.152 91.86 35.429 91.071 34.919 90.057C34.415 89.043 34.163 87.864 34.163 86.52C34.163 85.176 34.415 83.997 34.919 82.983C35.429 81.969 36.152 81.18 37.088 80.616C38.03 80.052 39.149 79.77 40.445 79.77C41.741 79.77 42.857 80.052 43.793 80.616C44.735 81.18 45.458 81.969 45.962 82.983C46.472 83.997 46.727 85.176 46.727 86.52C46.727 87.864 46.472 89.043 45.962 90.057C45.458 91.071 44.735 91.86 43.793 92.424C42.857 92.988 41.741 93.27 40.445 93.27ZM40.445 90.966C41.267 90.978 41.951 90.801 42.497 90.435C43.043 90.069 43.451 89.55 43.721 88.878C43.997 88.206 44.135 87.42 44.135 86.52C44.135 85.62 43.997 84.84 43.721 84.18C43.451 83.52 43.043 83.007 42.497 82.641C41.951 82.275 41.267 82.086 40.445 82.074C39.623 82.062 38.939 82.239 38.393 82.605C37.847 82.971 37.436 83.49 37.16 84.162C36.89 84.834 36.755 85.62 36.755 86.52C36.755 87.42 36.89 88.2 37.16 88.86C37.436 89.52 37.847 90.033 38.393 90.399C38.939 90.765 39.623 90.954 40.445 90.966ZM51.7672 92.982V90.858L57.2032 86.034C57.6112 85.674 57.8992 85.335 58.0672 85.017C58.2352 84.699 58.3192 84.402 58.3192 84.126C58.3192 83.73 58.2382 83.379 58.0762 83.073C57.9142 82.761 57.6862 82.518 57.3922 82.344C57.0982 82.164 56.7532 82.074 56.3572 82.074C55.9432 82.074 55.5772 82.17 55.2592 82.362C54.9472 82.548 54.7042 82.797 54.5302 83.109C54.3562 83.415 54.2752 83.748 54.2872 84.108H51.7672C51.7672 83.22 51.9622 82.452 52.3522 81.804C52.7422 81.156 53.2852 80.655 53.9812 80.301C54.6772 79.947 55.4872 79.77 56.4112 79.77C57.2572 79.77 58.0132 79.956 58.6792 80.328C59.3512 80.694 59.8792 81.207 60.2632 81.867C60.6472 82.527 60.8392 83.292 60.8392 84.162C60.8392 84.804 60.7492 85.338 60.5692 85.764C60.3892 86.184 60.1222 86.574 59.7682 86.934C59.4142 87.288 58.9792 87.69 58.4632 88.14L54.9532 91.218L54.7552 90.678H60.8392V92.982H51.7672ZM67.7965 93.27C66.8365 93.27 65.9965 93.069 65.2765 92.667C64.5565 92.265 63.9955 91.704 63.5935 90.984C63.1915 90.264 62.9905 89.424 62.9905 88.464V84.576C62.9905 83.616 63.1915 82.776 63.5935 82.056C63.9955 81.336 64.5565 80.775 65.2765 80.373C65.9965 79.971 66.8365 79.77 67.7965 79.77C68.7565 79.77 69.5965 79.971 70.3165 80.373C71.0365 80.775 71.5975 81.336 71.9995 82.056C72.4015 82.776 72.6025 83.616 72.6025 84.576V88.464C72.6025 89.424 72.4015 90.264 71.9995 90.984C71.5975 91.704 71.0365 92.265 70.3165 92.667C69.5965 93.069 68.7565 93.27 67.7965 93.27ZM67.7965 90.948C68.2285 90.948 68.6185 90.846 68.9665 90.642C69.3145 90.438 69.5905 90.162 69.7945 89.814C69.9985 89.466 70.1005 89.076 70.1005 88.644V84.378C70.1005 83.946 69.9985 83.556 69.7945 83.208C69.5905 82.86 69.3145 82.584 68.9665 82.38C68.6185 82.176 68.2285 82.074 67.7965 82.074C67.3645 82.074 66.9745 82.176 66.6265 82.38C66.2785 82.584 66.0025 82.86 65.7985 83.208C65.5945 83.556 65.4925 83.946 65.4925 84.378V88.644C65.4925 89.076 65.5945 89.466 65.7985 89.814C66.0025 90.162 66.2785 90.438 66.6265 90.642C66.9745 90.846 67.3645 90.948 67.7965 90.948ZM86.0849 93V87.348L86.4269 87.906C86.0969 88.2 85.6259 88.428 85.0139 88.59C84.4079 88.746 83.7749 88.824 83.1149 88.824C82.0349 88.824 81.1739 88.611 80.5319 88.185C79.8899 87.753 79.4279 87.159 79.1459 86.403C78.8639 85.641 78.7229 84.762 78.7229 83.766V80.04H81.2069V83.028C81.2069 83.418 81.2219 83.817 81.2519 84.225C81.2819 84.633 81.3689 85.011 81.5129 85.359C81.6629 85.707 81.9089 85.989 82.2509 86.205C82.5929 86.415 83.0729 86.52 83.6909 86.52C84.3569 86.52 84.9209 86.406 85.3829 86.178C85.8449 85.944 86.1689 85.698 86.3549 85.44L86.0849 86.538V80.04H88.5509V93H86.0849ZM91.0627 93V80.04H99.5227V82.326H93.5107V85.098H98.4427V87.384H93.5107V90.714H99.5227V93H91.0627ZM100.78 93V90.966C101.056 90.984 101.29 90.96 101.482 90.894C101.674 90.828 101.836 90.708 101.968 90.534C102.106 90.354 102.226 90.108 102.328 89.796C102.43 89.478 102.526 89.082 102.616 88.608C102.76 87.858 102.88 87.069 102.976 86.241C103.078 85.407 103.162 84.591 103.228 83.793C103.294 82.995 103.345 82.269 103.381 81.615C103.417 80.955 103.444 80.43 103.462 80.04H112.3V93H109.852V82.326H105.712C105.688 82.662 105.655 83.1 105.613 83.64C105.577 84.18 105.526 84.777 105.46 85.431C105.394 86.085 105.313 86.763 105.217 87.465C105.121 88.167 105.004 88.848 104.866 89.508C104.74 90.15 104.587 90.72 104.407 91.218C104.227 91.71 103.987 92.115 103.687 92.433C103.393 92.745 103.012 92.952 102.544 93.054C102.076 93.156 101.488 93.138 100.78 93ZM120.39 93.27C119.094 93.27 117.975 92.988 117.033 92.424C116.097 91.86 115.374 91.071 114.864 90.057C114.36 89.043 114.108 87.864 114.108 86.52C114.108 85.176 114.36 83.997 114.864 82.983C115.374 81.969 116.097 81.18 117.033 80.616C117.975 80.052 119.094 79.77 120.39 79.77C121.686 79.77 122.802 80.052 123.738 80.616C124.68 81.18 125.403 81.969 125.907 82.983C126.417 83.997 126.672 85.176 126.672 86.52C126.672 87.864 126.417 89.043 125.907 90.057C125.403 91.071 124.68 91.86 123.738 92.424C122.802 92.988 121.686 93.27 120.39 93.27ZM120.39 90.966C121.212 90.978 121.896 90.801 122.442 90.435C122.988 90.069 123.396 89.55 123.666 88.878C123.942 88.206 124.08 87.42 124.08 86.52C124.08 85.62 123.942 84.84 123.666 84.18C123.396 83.52 122.988 83.007 122.442 82.641C121.896 82.275 121.212 82.086 120.39 82.074C119.568 82.062 118.884 82.239 118.338 82.605C117.792 82.971 117.381 83.49 117.105 84.162C116.835 84.834 116.7 85.62 116.7 86.52C116.7 87.42 116.835 88.2 117.105 88.86C117.381 89.52 117.792 90.033 118.338 90.399C118.884 90.765 119.568 90.954 120.39 90.966ZM128.469 93V80.04H133.653C134.577 80.04 135.324 80.226 135.894 80.598C136.464 80.964 136.881 81.426 137.145 81.984C137.409 82.542 137.541 83.106 137.541 83.676C137.541 84.402 137.376 85.005 137.046 85.485C136.722 85.965 136.275 86.286 135.705 86.448V85.998C136.515 86.166 137.121 86.541 137.523 87.123C137.931 87.705 138.135 88.356 138.135 89.076C138.135 89.85 137.991 90.531 137.703 91.119C137.421 91.707 136.989 92.169 136.407 92.505C135.825 92.835 135.093 93 134.211 93H128.469ZM130.953 90.696H133.959C134.289 90.696 134.583 90.627 134.841 90.489C135.099 90.345 135.3 90.147 135.444 89.895C135.594 89.637 135.669 89.334 135.669 88.986C135.669 88.68 135.606 88.407 135.48 88.167C135.354 87.927 135.162 87.738 134.904 87.6C134.652 87.456 134.337 87.384 133.959 87.384H130.953V90.696ZM130.953 85.098H133.617C133.893 85.098 134.139 85.05 134.355 84.954C134.571 84.858 134.742 84.711 134.868 84.513C134.994 84.309 135.057 84.048 135.057 83.73C135.057 83.334 134.934 83.001 134.688 82.731C134.442 82.461 134.085 82.326 133.617 82.326H130.953V85.098ZM139.93 93V80.04H148.39V82.326H142.378V85.098H147.31V87.384H142.378V90.714H148.39V93H139.93ZM150.547 93V80.04H152.995V86.016L157.927 80.04H160.915L155.497 86.43L161.257 93H158.161L152.995 87.096V93H150.547Z" fill="white"/>
<g clip-path="url(#clip1_1142_7302)">
<g clip-path="url(#clip2_1142_7302)">
<path d="M274.254 195.538C276.024 195.155 277.678 194.358 279.081 193.213L285.424 187.937C287.206 187.837 288.879 187.05 290.091 185.742C291.304 184.434 291.963 182.706 291.928 180.923C291.842 179.142 291.099 177.457 289.844 176.192C288.589 174.926 286.909 174.17 285.13 174.07L268.478 172.54C268.174 172.513 267.894 172.365 267.7 172.131C267.505 171.897 267.411 171.595 267.439 171.292L268.174 163.286C268.191 163.042 268.292 162.811 268.459 162.633C268.627 162.455 268.852 162.34 269.094 162.309C272.897 161.508 276.348 159.521 278.95 156.635C281.553 153.749 283.174 150.112 283.579 146.248L283.79 143.96C283.901 142.747 283.526 141.539 282.747 140.602C281.968 139.666 280.848 139.077 279.635 138.965C278.422 138.854 277.214 139.229 276.277 140.008C275.34 140.787 274.751 141.906 274.64 143.12L274.43 145.407C274.303 146.709 273.899 147.969 273.246 149.102C272.593 150.236 271.706 151.217 270.643 151.979C270.152 152.303 269.225 151.849 269.225 151.849L270.065 142.7C270.177 141.486 269.802 140.278 269.023 139.342C268.243 138.405 267.124 137.816 265.911 137.705C264.697 137.593 263.49 137.968 262.553 138.747C261.616 139.526 261.027 140.646 260.916 141.859L260.075 151.009C260.075 151.009 259.035 151.282 258.657 150.878C257.751 149.935 257.057 148.809 256.622 147.575C256.186 146.342 256.019 145.03 256.131 143.726L256.341 141.439C256.452 140.226 256.077 139.018 255.298 138.081C254.519 137.144 253.4 136.555 252.186 136.444C250.973 136.332 249.765 136.708 248.829 137.487C247.892 138.266 247.303 139.385 247.192 140.598L246.981 142.886C246.635 146.788 247.544 150.699 249.577 154.047C251.61 157.396 254.659 160.007 258.281 161.501C258.486 161.564 258.668 161.688 258.8 161.857C258.933 162.026 259.012 162.231 259.025 162.445L258.306 170.268C258.278 170.572 258.131 170.851 257.897 171.046C257.663 171.241 257.361 171.335 257.057 171.307L199.233 165.995C197.436 165.772 195.622 166.233 194.149 167.285C192.676 168.338 191.653 169.906 191.283 171.678C190.924 173.425 191.256 175.244 192.211 176.751C193.165 178.258 194.667 179.337 196.4 179.76L201.759 186.203C202.93 187.584 204.411 188.669 206.082 189.368C206.227 189.424 206.36 189.508 206.472 189.616C206.584 189.725 206.672 189.854 206.733 189.998C206.793 190.142 206.823 190.296 206.822 190.452C206.82 190.607 206.788 190.761 206.725 190.904L192.806 219.381C192.489 220.042 192.335 220.768 192.356 221.501C192.377 222.233 192.573 222.949 192.927 223.591C193.312 224.265 193.861 224.831 194.523 225.235C195.185 225.64 195.939 225.87 196.715 225.905C197.49 225.939 198.262 225.776 198.957 225.432C199.653 225.087 200.25 224.572 200.692 223.935L222.724 192.004C222.84 191.833 222.999 191.696 223.186 191.607C223.373 191.519 223.58 191.483 223.785 191.502L256.358 194.494C256.564 194.512 256.761 194.586 256.928 194.707C257.096 194.828 257.227 194.992 257.31 195.181L273.156 230.591C273.489 231.334 274.012 231.976 274.674 232.45C275.336 232.924 276.111 233.214 276.922 233.29C277.653 233.349 278.388 233.233 279.065 232.95C279.742 232.667 280.342 232.226 280.813 231.664C281.285 231.103 281.615 230.436 281.776 229.72C281.938 229.004 281.925 228.26 281.74 227.55L273.342 196.931C273.306 196.779 273.302 196.622 273.329 196.468C273.356 196.315 273.414 196.169 273.499 196.039C273.584 195.908 273.695 195.797 273.825 195.711C273.955 195.625 274.101 195.566 274.254 195.538Z" fill="white"/>
<path d="M204.944 161.076C205.127 161.41 205.39 161.692 205.709 161.899C206.028 162.105 206.394 162.229 206.773 162.259L228.091 164.218C228.469 164.257 228.851 164.201 229.203 164.057C229.554 163.912 229.864 163.682 230.105 163.388L236.093 155.957C236.558 155.298 236.842 154.529 236.916 153.726C236.99 152.922 236.851 152.114 236.513 151.382C236.191 150.616 235.668 149.951 234.998 149.459C234.328 148.967 233.538 148.666 232.71 148.587L204.85 146.028C204.047 145.934 203.233 146.053 202.491 146.373C201.749 146.694 201.104 147.205 200.622 147.854C200.189 148.536 199.944 149.32 199.91 150.127C199.876 150.933 200.056 151.735 200.431 152.45L204.944 161.076Z" fill="white"/>
<path d="M252.607 131.87C253.82 131.981 255.028 131.606 255.965 130.827C256.902 130.048 257.491 128.928 257.602 127.715C257.492 125.525 256.794 123.406 255.582 121.578C255.365 121.259 255.08 120.991 254.747 120.795C254.414 120.599 254.042 120.479 253.657 120.444C253.272 120.408 252.884 120.459 252.521 120.591C252.158 120.723 251.828 120.934 251.557 121.209C250.031 122.758 248.933 124.675 248.369 126.775C248.3 127.39 248.356 128.013 248.534 128.605C248.712 129.198 249.007 129.749 249.403 130.225C249.799 130.701 250.286 131.092 250.837 131.375C251.388 131.657 251.99 131.826 252.607 131.87Z" fill="white"/>
<path d="M266.331 133.13C267.545 133.242 268.752 132.867 269.689 132.087C270.626 131.308 271.215 130.189 271.326 128.976C271.216 126.786 270.518 124.666 269.306 122.839C269.089 122.519 268.804 122.252 268.471 122.056C268.138 121.86 267.766 121.739 267.381 121.704C266.996 121.669 266.608 121.719 266.245 121.851C265.882 121.984 265.553 122.195 265.281 122.469C263.755 124.018 262.658 125.936 262.094 128.035C262.025 128.65 262.081 129.273 262.258 129.866C262.436 130.459 262.731 131.01 263.127 131.486C263.523 131.961 264.011 132.352 264.561 132.635C265.112 132.918 265.714 133.086 266.331 133.13Z" fill="white"/>
<path d="M280.056 134.391C281.269 134.502 282.477 134.127 283.414 133.348C284.35 132.569 284.939 131.45 285.051 130.236C284.94 128.047 284.242 125.927 283.031 124.1C282.813 123.78 282.528 123.513 282.195 123.316C281.862 123.12 281.49 123 281.105 122.965C280.72 122.929 280.332 122.98 279.969 123.112C279.606 123.244 279.277 123.455 279.005 123.73C277.48 125.279 276.382 127.197 275.818 129.296C275.749 129.911 275.805 130.534 275.982 131.127C276.16 131.72 276.456 132.271 276.851 132.746C277.247 133.222 277.735 133.613 278.286 133.896C278.836 134.178 279.438 134.347 280.056 134.391Z" fill="white"/>
</g>
</g>
<g clip-path="url(#clip3_1142_7302)">
<path d="M31.5685 249.253C32.8963 249.278 34.219 249.019 35.5467 249.059C36.8744 249.094 38.2866 249.487 39.1121 250.526C40.7531 252.59 39.2265 255.663 39.7934 258.239C40.1912 260.044 41.683 261.511 43.4384 262.097C45.1937 262.684 47.1579 262.46 48.8486 261.714C50.0421 261.187 51.3947 260.402 52.5384 261.028C53.518 261.56 53.7517 262.858 53.7119 263.972C53.6722 265.086 53.4832 266.274 54.0053 267.259C54.8457 268.85 57.0635 269.064 58.8139 268.641C60.5643 268.219 62.2799 267.373 64.0651 267.582C65.1193 267.707 66.0989 268.199 67.1382 268.413C68.1775 268.627 69.5947 269.88 70.2064 269.014C70.9224 268.547 71.1412 266.2 71.2456 265.32C71.37 264.265 71.2059 263.181 71.4197 262.142C71.7777 260.382 73.1203 259.014 74.0652 257.488C75.01 255.961 75.5023 253.788 74.2541 252.49C73.4834 251.685 72.2949 251.496 71.2208 251.182C70.1516 250.874 68.993 250.242 68.7891 249.143C68.5554 247.861 69.724 246.821 70.5992 245.852C71.8374 244.479 72.6629 242.684 72.6529 240.834C72.643 238.984 71.7181 237.11 70.1268 236.165C67.8592 234.822 64.4579 235.309 63.0109 233.107C62.2799 231.998 62.3495 230.531 62.7324 229.258C63.1153 227.985 63.7717 226.811 64.1645 225.543C64.7861 223.529 64.7016 221.272 63.7468 219.397C62.7871 217.522 60.9223 216.09 58.8288 215.841C57.158 215.642 55.4225 216.17 53.8014 215.727C51.4643 215.095 50.0769 212.669 49.4851 210.322C48.8884 207.98 48.8188 205.488 47.8591 203.265C46.8993 201.043 44.6318 199.083 42.2648 199.591C39.5398 200.172 37.8988 203.693 35.1141 203.594C32.6576 203.504 31.3696 200.744 29.6143 199.024C26.5262 195.99 20.7728 196.438 18.187 199.904C16.4217 202.176 15.8996 205.528 17.1875 208.139C18.2765 210.347 20.4944 212.43 19.8081 214.792C19.0324 217.467 16.2129 218.507 14.8056 220.914C13.5873 223.002 13.6967 225.19 15.5117 226.796C17.3218 228.402 19.6639 229.248 21.7077 230.546C23.7465 231.844 25.6212 233.922 25.4919 236.334C25.4024 238.015 24.3631 239.496 24.025 241.147C23.6073 243.211 24.383 245.434 25.8649 246.931C27.3467 248.427 29.4651 249.213 31.5735 249.253H31.5685Z" fill="#FFFAFC"/>
<path d="M54.8357 244.788C54.1346 240.551 55.1987 236.105 57.6751 232.699C55.3728 236.225 54.5772 240.64 55.4573 244.673L54.8407 244.793L54.8357 244.788Z" fill="#404040"/>
<path d="M69.9228 269.815C57.69 247.776 44.5621 228.721 28.6594 211.709C28.6594 211.709 39.4601 222.878 46.6258 231.968C54.95 242.525 71.0367 269.636 71.0367 269.636L69.9178 269.815H69.9228Z" fill="#404040"/>
<path d="M43.3835 229.024C39.5397 225.901 34.8802 223.753 29.9573 222.858C34.915 223.544 39.7137 225.503 43.7714 228.527L43.3835 229.024Z" fill="#404040"/>
</g>
<g clip-path="url(#clip4_1142_7302)">
<path d="M107.87 259.359C106.743 259.38 105.62 259.161 104.493 259.195C103.366 259.224 102.167 259.558 101.466 260.44C100.073 262.192 101.369 264.801 100.888 266.988C100.55 268.52 99.2838 269.765 97.7937 270.263C96.3035 270.762 94.636 270.572 93.2007 269.938C92.1875 269.491 91.0393 268.824 90.0684 269.356C89.2367 269.808 89.0383 270.909 89.0721 271.855C89.1059 272.801 89.2663 273.809 88.823 274.645C88.1096 275.996 86.2268 276.178 84.7408 275.819C83.2549 275.46 81.7985 274.742 80.283 274.92C79.388 275.025 78.5564 275.443 77.6741 275.625C76.7918 275.806 75.5887 276.87 75.0694 276.136C74.4616 275.739 74.2758 273.746 74.1872 272.999C74.0816 272.104 74.2209 271.184 74.0394 270.301C73.7355 268.807 72.5957 267.646 71.7936 266.35C70.9915 265.054 70.5736 263.209 71.6332 262.108C72.2875 261.424 73.2964 261.263 74.2083 260.997C75.1159 260.736 76.0995 260.199 76.2726 259.266C76.471 258.177 75.4789 257.295 74.7359 256.472C73.6848 255.307 72.984 253.783 72.9925 252.212C73.0009 250.642 73.7861 249.051 75.137 248.248C77.062 247.109 79.9495 247.522 81.1779 245.652C81.7985 244.711 81.7394 243.465 81.4143 242.385C81.0893 241.304 80.532 240.308 80.1985 239.231C79.6709 237.522 79.7426 235.605 80.5531 234.014C81.3679 232.422 82.9509 231.206 84.7282 230.995C86.1466 230.826 87.6199 231.274 88.9961 230.898C90.9802 230.362 92.158 228.302 92.6603 226.309C93.1669 224.321 93.226 222.206 94.0408 220.319C94.8555 218.432 96.7805 216.769 98.7899 217.199C101.103 217.693 102.496 220.682 104.86 220.598C106.946 220.522 108.039 218.179 109.529 216.718C112.151 214.143 117.035 214.523 119.23 217.465C120.729 219.395 121.172 222.24 120.079 224.456C119.154 226.331 117.272 228.099 117.854 230.105C118.513 232.376 120.906 233.258 122.101 235.301C123.135 237.074 123.042 238.932 121.501 240.295C119.965 241.659 117.977 242.376 116.242 243.478C114.511 244.58 112.919 246.345 113.029 248.392C113.105 249.819 113.987 251.077 114.274 252.478C114.629 254.23 113.97 256.117 112.712 257.388C111.454 258.659 109.656 259.326 107.866 259.359H107.87Z" fill="#FFFAFC"/>
<path d="M75.3103 276.815C85.6951 258.105 96.8398 241.929 110.34 227.487C110.34 227.487 101.171 236.969 95.0879 244.685C88.0211 253.648 74.3646 276.663 74.3646 276.663L75.3145 276.815H75.3103Z" fill="#404040"/>
<path d="M97.84 242.186C101.103 239.535 105.059 237.712 109.238 236.952C105.029 237.534 100.955 239.197 97.5108 241.764L97.84 242.186Z" fill="#404040"/>
</g>
<path d="M50 109.573C70.2349 107.77 90.7497 108.317 111.045 107.581C120.632 107.234 122.466 107.104 130.963 106.659C132.341 106.587 138.478 105.527 140.295 106.253C141.813 106.861 137.136 107.099 135.573 107.581C134.089 108.039 120.217 111.611 129.819 114.221C136.623 116.07 150.342 116.412 156.487 116.655C165.438 117.009 174.491 117.313 183.45 117.54" stroke="white" stroke-width="3" stroke-linecap="round"/>
</g>
<defs>
<clipPath id="clip0_1142_7302">
<rect width="307" height="238" rx="20" fill="white"/>
</clipPath>
<clipPath id="clip1_1142_7302">
<rect width="106" height="124" fill="white" transform="translate(194.407 111) rotate(5.24824)"/>
</clipPath>
<clipPath id="clip2_1142_7302">
<rect width="110.256" height="110.256" fill="white" transform="translate(191.898 114.759) rotate(5.24824)"/>
</clipPath>
<clipPath id="clip3_1142_7302">
<rect width="61" height="72.8151" fill="white" transform="translate(14 197)"/>
</clipPath>
<clipPath id="clip4_1142_7302">
<rect width="51.7849" height="61.8151" fill="white" transform="matrix(-1 0 0 1 122.785 215)"/>
</clipPath>
</defs>
</svg>
