<svg width="307" height="238" viewBox="0 0 307 238" fill="none" xmlns="http://www.w3.org/2000/svg">
<g clip-path="url(#clip0_1142_4578)">
<rect width="307" height="238" rx="20" fill="#748A5B"/>
<path d="M331.884 99.3636C238.083 95.7679 229.464 -30.8554 264.663 -68.5528L610.05 -145.468L697.792 248.539L513.44 289.593C336.374 329.024 352.795 209.315 386.372 172.327C419.949 135.34 425.684 102.959 331.884 99.3636Z" stroke="#FFFAFC" stroke-width="2" stroke-dasharray="11 11"/>
<path d="M459.118 85.4056C445.13 150.703 530.871 178.837 563.026 161.178L676.655 -63.4539L420.555 -193L359.906 -73.1014C301.653 42.0581 387.024 51.718 418.405 35.0527C449.787 18.3875 473.106 20.1086 459.118 85.4056Z" stroke="#FFFAFC" stroke-width="2" stroke-dasharray="11 11"/>
<rect x="20" y="20" width="117" height="47" rx="10" fill="white"/>
<path d="M44.4 51V48.74C44.7067 48.76 44.9667 48.7333 45.18 48.66C45.3933 48.5867 45.5733 48.4533 45.72 48.26C45.8733 48.06 46.0067 47.7867 46.12 47.44C46.2333 47.0867 46.34 46.6467 46.44 46.12C46.6 45.2867 46.7333 44.41 46.84 43.49C46.9533 42.5633 47.0467 41.6567 47.12 40.77C47.1933 39.8833 47.25 39.0767 47.29 38.35C47.33 37.6167 47.36 37.0333 47.38 36.6H57.2V51H54.48V39.14H49.88C49.8533 39.5133 49.8167 40 49.77 40.6C49.73 41.2 49.6733 41.8633 49.6 42.59C49.5267 43.3167 49.4367 44.07 49.33 44.85C49.2233 45.63 49.0933 46.3867 48.94 47.12C48.8 47.8333 48.63 48.4667 48.43 49.02C48.23 49.5667 47.9633 50.0167 47.63 50.37C47.3033 50.7167 46.88 50.9467 46.36 51.06C45.84 51.1733 45.1867 51.1533 44.4 51ZM69.7494 51.3C68.9227 51.3 68.166 51.1333 67.4794 50.8C66.7927 50.46 66.216 49.9667 65.7494 49.32C65.2827 48.6733 64.9694 47.8867 64.8094 46.96H62.7094V51H59.9894V40.2H62.7094V44.24H64.8094C64.9694 43.3 65.2827 42.51 65.7494 41.87C66.2227 41.2233 66.806 40.7333 67.4994 40.4C68.1994 40.0667 68.9694 39.9 69.8094 39.9C70.876 39.9 71.816 40.1467 72.6294 40.64C73.4427 41.1267 74.0794 41.8 74.5394 42.66C74.9994 43.5133 75.2294 44.4867 75.2294 45.58C75.2294 46.7067 74.996 47.7 74.5294 48.56C74.0627 49.42 73.416 50.0933 72.5894 50.58C71.7694 51.06 70.8227 51.3 69.7494 51.3ZM69.7294 48.76C70.6094 48.76 71.266 48.4667 71.6994 47.88C72.1327 47.2867 72.3494 46.5267 72.3494 45.6C72.3494 44.6267 72.1294 43.8567 71.6894 43.29C71.256 42.7233 70.6027 42.44 69.7294 42.44C68.8494 42.44 68.2027 42.73 67.7894 43.31C67.376 43.89 67.1694 44.6467 67.1694 45.58C67.1694 46.56 67.386 47.3367 67.8194 47.91C68.2527 48.4767 68.8894 48.76 69.7294 48.76ZM81.9813 51.32C80.9413 51.3067 80.0613 51.0767 79.3413 50.63C78.6213 50.1767 78.0546 49.5533 77.6413 48.76C77.2346 47.96 76.9813 47.0333 76.8813 45.98C76.8279 45.4133 76.8146 44.7767 76.8413 44.07C76.8746 43.3567 76.9513 42.6567 77.0713 41.97C77.1913 41.2833 77.3613 40.6933 77.5813 40.2C77.7946 39.74 78.0679 39.32 78.4013 38.94C78.7413 38.5533 79.1013 38.2267 79.4813 37.96C79.9279 37.6467 80.4079 37.4067 80.9213 37.24C81.4346 37.0667 81.9746 36.9333 82.5413 36.84C83.1079 36.7467 83.6946 36.6633 84.3013 36.59C84.9146 36.5167 85.5346 36.42 86.1613 36.3L86.4013 38.7C86.0213 38.8 85.5879 38.8733 85.1013 38.92C84.6146 38.9667 84.1146 39.0167 83.6013 39.07C83.0879 39.1167 82.5979 39.1933 82.1313 39.3C81.6646 39.4067 81.2613 39.5667 80.9213 39.78C80.4613 40.0667 80.1079 40.4667 79.8613 40.98C79.6213 41.4867 79.4813 42 79.4413 42.52C79.8546 41.92 80.3579 41.5067 80.9513 41.28C81.5513 41.0533 82.1413 40.94 82.7213 40.94C83.6746 40.94 84.4913 41.17 85.1713 41.63C85.8579 42.0833 86.3846 42.6967 86.7513 43.47C87.1179 44.2367 87.3013 45.0867 87.3013 46.02C87.3013 47.08 87.0713 48.01 86.6113 48.81C86.1579 49.61 85.5313 50.2333 84.7313 50.68C83.9313 51.12 83.0146 51.3333 81.9813 51.32ZM82.1013 48.78C82.8746 48.78 83.4579 48.54 83.8513 48.06C84.2446 47.58 84.4413 46.94 84.4413 46.14C84.4413 45.32 84.2379 44.6767 83.8313 44.21C83.4313 43.7367 82.8546 43.5 82.1013 43.5C81.3346 43.5 80.7513 43.7367 80.3513 44.21C79.9579 44.6767 79.7613 45.32 79.7613 46.14C79.7613 46.9867 79.9646 47.64 80.3713 48.1C80.7779 48.5533 81.3546 48.78 82.1013 48.78ZM94.3616 51.3C93.2749 51.3 92.3216 51.0567 91.5016 50.57C90.6816 50.0833 90.0416 49.4133 89.5816 48.56C89.1282 47.7 88.9016 46.7133 88.9016 45.6C88.9016 44.4733 89.1349 43.4833 89.6016 42.63C90.0682 41.77 90.7116 41.1 91.5316 40.62C92.3516 40.14 93.2949 39.9 94.3616 39.9C95.4482 39.9 96.4016 40.1433 97.2216 40.63C98.0482 41.1167 98.6916 41.79 99.1516 42.65C99.6116 43.5033 99.8416 44.4867 99.8416 45.6C99.8416 46.72 99.6082 47.71 99.1416 48.57C98.6816 49.4233 98.0382 50.0933 97.2116 50.58C96.3916 51.06 95.4416 51.3 94.3616 51.3ZM94.3616 48.76C95.2349 48.76 95.8849 48.4667 96.3116 47.88C96.7449 47.2867 96.9616 46.5267 96.9616 45.6C96.9616 44.64 96.7416 43.8733 96.3016 43.3C95.8682 42.7267 95.2216 42.44 94.3616 42.44C93.7682 42.44 93.2816 42.5733 92.9016 42.84C92.5216 43.1067 92.2382 43.4767 92.0516 43.95C91.8716 44.4233 91.7816 44.9733 91.7816 45.6C91.7816 46.5667 91.9982 47.3367 92.4316 47.91C92.8716 48.4767 93.5149 48.76 94.3616 48.76ZM107.061 51.3C105.954 51.3 104.977 51.0633 104.131 50.59C103.291 50.11 102.631 49.4533 102.151 48.62C101.677 47.78 101.441 46.82 101.441 45.74C101.441 44.56 101.674 43.5333 102.141 42.66C102.607 41.7867 103.251 41.11 104.071 40.63C104.891 40.1433 105.834 39.9 106.901 39.9C108.034 39.9 108.997 40.1667 109.791 40.7C110.584 41.2333 111.171 41.9833 111.551 42.95C111.931 43.9167 112.064 45.0533 111.951 46.36H109.261V45.36C109.261 44.26 109.084 43.47 108.731 42.99C108.384 42.5033 107.814 42.26 107.021 42.26C106.094 42.26 105.411 42.5433 104.971 43.11C104.537 43.67 104.321 44.5 104.321 45.6C104.321 46.6067 104.537 47.3867 104.971 47.94C105.411 48.4867 106.054 48.76 106.901 48.76C107.434 48.76 107.891 48.6433 108.271 48.41C108.651 48.1767 108.941 47.84 109.141 47.4L111.861 48.18C111.454 49.1667 110.811 49.9333 109.931 50.48C109.057 51.0267 108.101 51.3 107.061 51.3ZM103.481 46.36V44.34H110.641V46.36H103.481Z" fill="#748A5B"/>
<path d="M21.26 102V89.04H26.444C27.368 89.04 28.115 89.226 28.685 89.598C29.255 89.964 29.672 90.426 29.936 90.984C30.2 91.542 30.332 92.106 30.332 92.676C30.332 93.402 30.167 94.005 29.837 94.485C29.513 94.965 29.066 95.286 28.496 95.448V94.998C29.306 95.166 29.912 95.541 30.314 96.123C30.722 96.705 30.926 97.356 30.926 98.076C30.926 98.85 30.782 99.531 30.494 100.119C30.212 100.707 29.78 101.169 29.198 101.505C28.616 101.835 27.884 102 27.002 102H21.26ZM23.744 99.696H26.75C27.08 99.696 27.374 99.627 27.632 99.489C27.89 99.345 28.091 99.147 28.235 98.895C28.385 98.637 28.46 98.334 28.46 97.986C28.46 97.68 28.397 97.407 28.271 97.167C28.145 96.927 27.953 96.738 27.695 96.6C27.443 96.456 27.128 96.384 26.75 96.384H23.744V99.696ZM23.744 94.098H26.408C26.684 94.098 26.93 94.05 27.146 93.954C27.362 93.858 27.533 93.711 27.659 93.513C27.785 93.309 27.848 93.048 27.848 92.73C27.848 92.334 27.725 92.001 27.479 91.731C27.233 91.461 26.876 91.326 26.408 91.326H23.744V94.098ZM31.8209 102L35.7809 89.04H39.4349L43.3949 102H40.8749L37.3469 90.57H37.8149L34.3409 102H31.8209ZM34.1969 99.3V97.014H41.0369V99.3H34.1969ZM45.008 102V89.04H47.456V99.714H51.164V89.04H53.612V99.714H57.32V89.04H59.768V102H45.008ZM62.2873 102V89.04H70.7473V91.326H64.7353V94.098H69.6673V96.384H64.7353V99.714H70.7473V102H62.2873ZM76.508 102V89.04H78.704L82.988 97.644L87.272 89.04H89.468V102H87.182V94.26L83.42 102H82.556L78.794 94.26V102H76.508ZM91.9944 102V89.04H100.454V91.326H94.4424V94.098H99.3744V96.384H94.4424V99.714H100.454V102H91.9944ZM102.612 102V89.04H108.084C108.21 89.04 108.378 89.046 108.588 89.058C108.804 89.064 108.996 89.082 109.164 89.112C109.938 89.232 110.571 89.487 111.063 89.877C111.561 90.267 111.927 90.759 112.161 91.353C112.395 91.941 112.512 92.598 112.512 93.324C112.512 94.05 112.392 94.71 112.152 95.304C111.918 95.892 111.552 96.381 111.054 96.771C110.562 97.161 109.932 97.416 109.164 97.536C108.996 97.56 108.804 97.578 108.588 97.59C108.372 97.602 108.204 97.608 108.084 97.608H105.06V102H102.612ZM105.06 95.322H107.976C108.102 95.322 108.24 95.316 108.39 95.304C108.54 95.292 108.678 95.268 108.804 95.232C109.134 95.142 109.389 94.992 109.569 94.782C109.749 94.566 109.872 94.329 109.938 94.071C110.01 93.807 110.046 93.558 110.046 93.324C110.046 93.09 110.01 92.844 109.938 92.586C109.872 92.322 109.749 92.085 109.569 91.875C109.389 91.659 109.134 91.506 108.804 91.416C108.678 91.38 108.54 91.356 108.39 91.344C108.24 91.332 108.102 91.326 107.976 91.326H105.06V95.322ZM119.881 102.27C118.585 102.27 117.466 101.988 116.524 101.424C115.588 100.86 114.865 100.071 114.355 99.057C113.851 98.043 113.599 96.864 113.599 95.52C113.599 94.176 113.851 92.997 114.355 91.983C114.865 90.969 115.588 90.18 116.524 89.616C117.466 89.052 118.585 88.77 119.881 88.77C121.177 88.77 122.293 89.052 123.229 89.616C124.171 90.18 124.894 90.969 125.398 91.983C125.908 92.997 126.163 94.176 126.163 95.52C126.163 96.864 125.908 98.043 125.398 99.057C124.894 100.071 124.171 100.86 123.229 101.424C122.293 101.988 121.177 102.27 119.881 102.27ZM119.881 99.966C120.703 99.978 121.387 99.801 121.933 99.435C122.479 99.069 122.887 98.55 123.157 97.878C123.433 97.206 123.571 96.42 123.571 95.52C123.571 94.62 123.433 93.84 123.157 93.18C122.887 92.52 122.479 92.007 121.933 91.641C121.387 91.275 120.703 91.086 119.881 91.074C119.059 91.062 118.375 91.239 117.829 91.605C117.283 91.971 116.872 92.49 116.596 93.162C116.326 93.834 116.191 94.62 116.191 95.52C116.191 96.42 116.326 97.2 116.596 97.86C116.872 98.52 117.283 99.033 117.829 99.399C118.375 99.765 119.059 99.954 119.881 99.966ZM127.959 102V89.04H138.651V102H136.203V91.326H130.407V102H127.959ZM141.178 102V89.04H146.65C146.776 89.04 146.944 89.046 147.154 89.058C147.37 89.064 147.562 89.082 147.73 89.112C148.504 89.232 149.137 89.487 149.629 89.877C150.127 90.267 150.493 90.759 150.727 91.353C150.961 91.941 151.078 92.598 151.078 93.324C151.078 94.05 150.958 94.71 150.718 95.304C150.484 95.892 150.118 96.381 149.62 96.771C149.128 97.161 148.498 97.416 147.73 97.536C147.562 97.56 147.37 97.578 147.154 97.59C146.938 97.602 146.77 97.608 146.65 97.608H143.626V102H141.178ZM143.626 95.322H146.542C146.668 95.322 146.806 95.316 146.956 95.304C147.106 95.292 147.244 95.268 147.37 95.232C147.7 95.142 147.955 94.992 148.135 94.782C148.315 94.566 148.438 94.329 148.504 94.071C148.576 93.807 148.612 93.558 148.612 93.324C148.612 93.09 148.576 92.844 148.504 92.586C148.438 92.322 148.315 92.085 148.135 91.875C147.955 91.659 147.7 91.506 147.37 91.416C147.244 91.38 147.106 91.356 146.956 91.344C146.806 91.332 146.668 91.326 146.542 91.326H143.626V95.322ZM163.487 102H161.003V93.36L155.369 102H152.885V89.04H155.369V97.68L161.003 89.04H163.487V102ZM175.538 102H173.09V97.608H170.066L168.986 97.536C167.834 97.356 166.988 96.882 166.448 96.114C165.908 95.34 165.638 94.41 165.638 93.324C165.638 92.598 165.755 91.941 165.989 91.353C166.229 90.759 166.595 90.267 167.087 89.877C167.579 89.487 168.212 89.232 168.986 89.112C169.16 89.082 169.352 89.064 169.562 89.058C169.772 89.046 169.94 89.04 170.066 89.04H175.538V102ZM168.23 102H165.458L168.266 96.24L170.786 96.726L168.23 102ZM173.09 95.322V91.326H170.174C170.048 91.326 169.91 91.332 169.76 91.344C169.61 91.356 169.472 91.38 169.346 91.416C169.016 91.506 168.761 91.659 168.581 91.875C168.401 92.085 168.275 92.322 168.203 92.586C168.137 92.844 168.104 93.09 168.104 93.324C168.104 93.558 168.137 93.807 168.203 94.071C168.275 94.329 168.401 94.566 168.581 94.782C168.761 94.992 169.016 95.142 169.346 95.232C169.472 95.268 169.61 95.292 169.76 95.304C169.91 95.316 170.048 95.322 170.174 95.322H173.09ZM181.063 102V91.326H176.977V89.04H187.597V91.326H183.511V102H181.063ZM199.645 102H197.161V93.36L191.527 102H189.043V89.04H191.527V97.68L197.161 89.04H199.645V102ZM202.156 102V89.04H210.616V91.326H204.604V94.098H209.536V96.384H204.604V99.714H210.616V102H202.156Z" fill="white"/>
<path d="M20.54 132.16V127.714C20.93 127.714 21.26 127.618 21.53 127.426C21.806 127.228 22.031 126.952 22.205 126.598C22.379 126.238 22.517 125.818 22.619 125.338C22.721 124.858 22.796 124.336 22.844 123.772C22.904 123.052 22.958 122.344 23.006 121.648C23.054 120.946 23.102 120.22 23.15 119.47C23.198 118.714 23.252 117.898 23.312 117.022L31.916 117.04V127.714H32.906V132.16H30.458V130H22.988V132.16H20.54ZM24.194 127.714H29.468V119.326L25.544 119.308C25.502 119.902 25.466 120.448 25.436 120.946C25.412 121.444 25.382 121.948 25.346 122.458C25.31 122.968 25.262 123.538 25.202 124.168C25.142 124.798 25.082 125.317 25.022 125.725C24.962 126.127 24.869 126.478 24.743 126.778C24.623 127.078 24.44 127.39 24.194 127.714ZM40.445 130.27C39.149 130.27 38.03 129.988 37.088 129.424C36.152 128.86 35.429 128.071 34.919 127.057C34.415 126.043 34.163 124.864 34.163 123.52C34.163 122.176 34.415 120.997 34.919 119.983C35.429 118.969 36.152 118.18 37.088 117.616C38.03 117.052 39.149 116.77 40.445 116.77C41.741 116.77 42.857 117.052 43.793 117.616C44.735 118.18 45.458 118.969 45.962 119.983C46.472 120.997 46.727 122.176 46.727 123.52C46.727 124.864 46.472 126.043 45.962 127.057C45.458 128.071 44.735 128.86 43.793 129.424C42.857 129.988 41.741 130.27 40.445 130.27ZM40.445 127.966C41.267 127.978 41.951 127.801 42.497 127.435C43.043 127.069 43.451 126.55 43.721 125.878C43.997 125.206 44.135 124.42 44.135 123.52C44.135 122.62 43.997 121.84 43.721 121.18C43.451 120.52 43.043 120.007 42.497 119.641C41.951 119.275 41.267 119.086 40.445 119.074C39.623 119.062 38.939 119.239 38.393 119.605C37.847 119.971 37.436 120.49 37.16 121.162C36.89 121.834 36.755 122.62 36.755 123.52C36.755 124.42 36.89 125.2 37.16 125.86C37.436 126.52 37.847 127.033 38.393 127.399C38.939 127.765 39.623 127.954 40.445 127.966ZM51.7672 129.982V127.858L57.2032 123.034C57.6112 122.674 57.8992 122.335 58.0672 122.017C58.2352 121.699 58.3192 121.402 58.3192 121.126C58.3192 120.73 58.2382 120.379 58.0762 120.073C57.9142 119.761 57.6862 119.518 57.3922 119.344C57.0982 119.164 56.7532 119.074 56.3572 119.074C55.9432 119.074 55.5772 119.17 55.2592 119.362C54.9472 119.548 54.7042 119.797 54.5302 120.109C54.3562 120.415 54.2752 120.748 54.2872 121.108H51.7672C51.7672 120.22 51.9622 119.452 52.3522 118.804C52.7422 118.156 53.2852 117.655 53.9812 117.301C54.6772 116.947 55.4872 116.77 56.4112 116.77C57.2572 116.77 58.0132 116.956 58.6792 117.328C59.3512 117.694 59.8792 118.207 60.2632 118.867C60.6472 119.527 60.8392 120.292 60.8392 121.162C60.8392 121.804 60.7492 122.338 60.5692 122.764C60.3892 123.184 60.1222 123.574 59.7682 123.934C59.4142 124.288 58.9792 124.69 58.4632 125.14L54.9532 128.218L54.7552 127.678H60.8392V129.982H51.7672ZM67.7965 130.27C66.8365 130.27 65.9965 130.069 65.2765 129.667C64.5565 129.265 63.9955 128.704 63.5935 127.984C63.1915 127.264 62.9905 126.424 62.9905 125.464V121.576C62.9905 120.616 63.1915 119.776 63.5935 119.056C63.9955 118.336 64.5565 117.775 65.2765 117.373C65.9965 116.971 66.8365 116.77 67.7965 116.77C68.7565 116.77 69.5965 116.971 70.3165 117.373C71.0365 117.775 71.5975 118.336 71.9995 119.056C72.4015 119.776 72.6025 120.616 72.6025 121.576V125.464C72.6025 126.424 72.4015 127.264 71.9995 127.984C71.5975 128.704 71.0365 129.265 70.3165 129.667C69.5965 130.069 68.7565 130.27 67.7965 130.27ZM67.7965 127.948C68.2285 127.948 68.6185 127.846 68.9665 127.642C69.3145 127.438 69.5905 127.162 69.7945 126.814C69.9985 126.466 70.1005 126.076 70.1005 125.644V121.378C70.1005 120.946 69.9985 120.556 69.7945 120.208C69.5905 119.86 69.3145 119.584 68.9665 119.38C68.6185 119.176 68.2285 119.074 67.7965 119.074C67.3645 119.074 66.9745 119.176 66.6265 119.38C66.2785 119.584 66.0025 119.86 65.7985 120.208C65.5945 120.556 65.4925 120.946 65.4925 121.378V125.644C65.4925 126.076 65.5945 126.466 65.7985 126.814C66.0025 127.162 66.2785 127.438 66.6265 127.642C66.9745 127.846 67.3645 127.948 67.7965 127.948ZM86.0849 130V124.348L86.4269 124.906C86.0969 125.2 85.6259 125.428 85.0139 125.59C84.4079 125.746 83.7749 125.824 83.1149 125.824C82.0349 125.824 81.1739 125.611 80.5319 125.185C79.8899 124.753 79.4279 124.159 79.1459 123.403C78.8639 122.641 78.7229 121.762 78.7229 120.766V117.04H81.2069V120.028C81.2069 120.418 81.2219 120.817 81.2519 121.225C81.2819 121.633 81.3689 122.011 81.5129 122.359C81.6629 122.707 81.9089 122.989 82.2509 123.205C82.5929 123.415 83.0729 123.52 83.6909 123.52C84.3569 123.52 84.9209 123.406 85.3829 123.178C85.8449 122.944 86.1689 122.698 86.3549 122.44L86.0849 123.538V117.04H88.5509V130H86.0849ZM91.0627 130V117.04H99.5227V119.326H93.5107V122.098H98.4427V124.384H93.5107V127.714H99.5227V130H91.0627ZM100.78 130V127.966C101.056 127.984 101.29 127.96 101.482 127.894C101.674 127.828 101.836 127.708 101.968 127.534C102.106 127.354 102.226 127.108 102.328 126.796C102.43 126.478 102.526 126.082 102.616 125.608C102.76 124.858 102.88 124.069 102.976 123.241C103.078 122.407 103.162 121.591 103.228 120.793C103.294 119.995 103.345 119.269 103.381 118.615C103.417 117.955 103.444 117.43 103.462 117.04H112.3V130H109.852V119.326H105.712C105.688 119.662 105.655 120.1 105.613 120.64C105.577 121.18 105.526 121.777 105.46 122.431C105.394 123.085 105.313 123.763 105.217 124.465C105.121 125.167 105.004 125.848 104.866 126.508C104.74 127.15 104.587 127.72 104.407 128.218C104.227 128.71 103.987 129.115 103.687 129.433C103.393 129.745 103.012 129.952 102.544 130.054C102.076 130.156 101.488 130.138 100.78 130ZM120.39 130.27C119.094 130.27 117.975 129.988 117.033 129.424C116.097 128.86 115.374 128.071 114.864 127.057C114.36 126.043 114.108 124.864 114.108 123.52C114.108 122.176 114.36 120.997 114.864 119.983C115.374 118.969 116.097 118.18 117.033 117.616C117.975 117.052 119.094 116.77 120.39 116.77C121.686 116.77 122.802 117.052 123.738 117.616C124.68 118.18 125.403 118.969 125.907 119.983C126.417 120.997 126.672 122.176 126.672 123.52C126.672 124.864 126.417 126.043 125.907 127.057C125.403 128.071 124.68 128.86 123.738 129.424C122.802 129.988 121.686 130.27 120.39 130.27ZM120.39 127.966C121.212 127.978 121.896 127.801 122.442 127.435C122.988 127.069 123.396 126.55 123.666 125.878C123.942 125.206 124.08 124.42 124.08 123.52C124.08 122.62 123.942 121.84 123.666 121.18C123.396 120.52 122.988 120.007 122.442 119.641C121.896 119.275 121.212 119.086 120.39 119.074C119.568 119.062 118.884 119.239 118.338 119.605C117.792 119.971 117.381 120.49 117.105 121.162C116.835 121.834 116.7 122.62 116.7 123.52C116.7 124.42 116.835 125.2 117.105 125.86C117.381 126.52 117.792 127.033 118.338 127.399C118.884 127.765 119.568 127.954 120.39 127.966ZM128.469 130V117.04H133.653C134.577 117.04 135.324 117.226 135.894 117.598C136.464 117.964 136.881 118.426 137.145 118.984C137.409 119.542 137.541 120.106 137.541 120.676C137.541 121.402 137.376 122.005 137.046 122.485C136.722 122.965 136.275 123.286 135.705 123.448V122.998C136.515 123.166 137.121 123.541 137.523 124.123C137.931 124.705 138.135 125.356 138.135 126.076C138.135 126.85 137.991 127.531 137.703 128.119C137.421 128.707 136.989 129.169 136.407 129.505C135.825 129.835 135.093 130 134.211 130H128.469ZM130.953 127.696H133.959C134.289 127.696 134.583 127.627 134.841 127.489C135.099 127.345 135.3 127.147 135.444 126.895C135.594 126.637 135.669 126.334 135.669 125.986C135.669 125.68 135.606 125.407 135.48 125.167C135.354 124.927 135.162 124.738 134.904 124.6C134.652 124.456 134.337 124.384 133.959 124.384H130.953V127.696ZM130.953 122.098H133.617C133.893 122.098 134.139 122.05 134.355 121.954C134.571 121.858 134.742 121.711 134.868 121.513C134.994 121.309 135.057 121.048 135.057 120.73C135.057 120.334 134.934 120.001 134.688 119.731C134.442 119.461 134.085 119.326 133.617 119.326H130.953V122.098ZM139.93 130V117.04H148.39V119.326H142.378V122.098H147.31V124.384H142.378V127.714H148.39V130H139.93ZM150.547 130V117.04H152.995V123.016L157.927 117.04H160.915L155.497 123.43L161.257 130H158.161L152.995 124.096V130H150.547Z" fill="white"/>
<g clip-path="url(#clip1_1142_4578)">
<g clip-path="url(#clip2_1142_4578)">
<path d="M293.134 209.414C295.299 208.944 297.322 207.97 299.039 206.57L306.799 200.116C308.978 199.993 311.024 199.031 312.508 197.43C313.992 195.83 314.797 193.717 314.754 191.535C314.649 189.357 313.741 187.295 312.205 185.747C310.67 184.199 308.615 183.275 306.438 183.152L286.068 181.281C285.697 181.247 285.355 181.067 285.117 180.78C284.878 180.494 284.764 180.125 284.798 179.754L285.697 169.96C285.718 169.662 285.841 169.379 286.046 169.161C286.251 168.943 286.526 168.804 286.823 168.766C291.474 167.785 295.695 165.355 298.879 161.825C302.063 158.294 304.046 153.845 304.542 149.118L304.799 146.319C304.935 144.835 304.477 143.358 303.523 142.212C302.57 141.066 301.201 140.346 299.717 140.209C298.233 140.073 296.755 140.532 295.609 141.485C294.463 142.438 293.743 143.807 293.607 145.291L293.35 148.089C293.194 149.682 292.701 151.223 291.902 152.61C291.103 153.996 290.017 155.196 288.717 156.129C288.116 156.525 286.982 155.97 286.982 155.97L288.01 144.777C288.147 143.293 287.688 141.816 286.735 140.67C285.782 139.524 284.413 138.803 282.928 138.667C281.444 138.531 279.967 138.99 278.821 139.943C277.675 140.896 276.954 142.265 276.818 143.749L275.79 154.942C275.79 154.942 274.518 155.276 274.055 154.782C272.947 153.628 272.098 152.25 271.565 150.742C271.032 149.233 270.827 147.628 270.965 146.033L271.222 143.235C271.358 141.751 270.899 140.273 269.946 139.127C268.993 137.982 267.624 137.261 266.14 137.125C264.655 136.989 263.178 137.447 262.032 138.401C260.886 139.354 260.166 140.723 260.029 142.207L259.772 145.005C259.348 149.778 260.461 154.562 262.948 158.659C265.434 162.755 269.165 165.95 273.595 167.776C273.846 167.854 274.068 168.006 274.23 168.212C274.393 168.419 274.489 168.67 274.505 168.932L273.626 178.502C273.592 178.873 273.412 179.215 273.125 179.453C272.839 179.692 272.469 179.806 272.098 179.772L201.362 173.275C199.165 173.002 196.945 173.565 195.144 174.853C193.342 176.14 192.091 178.058 191.638 180.226C191.199 182.363 191.605 184.588 192.773 186.432C193.94 188.276 195.777 189.595 197.897 190.112L204.453 197.995C205.886 199.684 207.697 201.011 209.741 201.866C209.919 201.934 210.081 202.037 210.218 202.17C210.355 202.302 210.463 202.461 210.537 202.637C210.611 202.812 210.648 203.001 210.646 203.191C210.644 203.382 210.604 203.57 210.527 203.744L193.501 238.581C193.114 239.388 192.925 240.277 192.95 241.173C192.976 242.069 193.216 242.945 193.649 243.73C194.119 244.554 194.791 245.247 195.601 245.742C196.411 246.237 197.334 246.518 198.282 246.561C199.231 246.603 200.174 246.404 201.025 245.982C201.876 245.561 202.606 244.931 203.148 244.151L230.099 205.091C230.24 204.881 230.435 204.713 230.664 204.605C230.892 204.497 231.146 204.453 231.397 204.476L271.242 208.136C271.494 208.159 271.735 208.249 271.94 208.397C272.145 208.545 272.306 208.745 272.407 208.977L291.792 252.293C292.198 253.202 292.839 253.987 293.648 254.567C294.458 255.147 295.407 255.502 296.398 255.594C297.293 255.667 298.192 255.525 299.02 255.179C299.848 254.833 300.581 254.294 301.158 253.606C301.735 252.919 302.139 252.103 302.336 251.228C302.534 250.352 302.518 249.442 302.291 248.574L292.018 211.117C291.975 210.932 291.97 210.739 292.003 210.552C292.036 210.364 292.107 210.185 292.211 210.026C292.315 209.867 292.451 209.73 292.61 209.625C292.768 209.52 292.947 209.448 293.134 209.414Z" fill="white"/>
<path d="M208.349 167.258C208.573 167.665 208.894 168.011 209.285 168.263C209.675 168.516 210.122 168.667 210.586 168.705L236.664 171.1C237.127 171.148 237.594 171.08 238.024 170.903C238.454 170.726 238.833 170.445 239.128 170.085L246.453 160.995C247.022 160.189 247.369 159.248 247.459 158.265C247.55 157.283 247.38 156.294 246.967 155.398C246.573 154.461 245.932 153.648 245.113 153.046C244.294 152.444 243.327 152.076 242.314 151.98L208.234 148.849C207.251 148.734 206.256 148.879 205.348 149.272C204.44 149.664 203.651 150.289 203.062 151.083C202.532 151.917 202.232 152.876 202.191 153.863C202.15 154.85 202.369 155.83 202.828 156.705L208.349 167.258Z" fill="white"/>
<path d="M266.654 131.529C268.138 131.666 269.616 131.207 270.762 130.254C271.907 129.301 272.628 127.931 272.764 126.447C272.629 123.768 271.775 121.175 270.293 118.94C270.027 118.549 269.678 118.222 269.271 117.982C268.864 117.742 268.409 117.595 267.938 117.552C267.467 117.509 266.993 117.57 266.548 117.732C266.104 117.894 265.701 118.152 265.369 118.488C263.503 120.383 262.16 122.729 261.47 125.297C261.386 126.049 261.454 126.811 261.671 127.536C261.888 128.261 262.25 128.935 262.734 129.517C263.218 130.099 263.815 130.578 264.489 130.923C265.162 131.269 265.899 131.475 266.654 131.529Z" fill="white"/>
<path d="M283.442 133.071C284.927 133.208 286.404 132.749 287.55 131.796C288.696 130.843 289.416 129.473 289.553 127.989C289.417 125.311 288.564 122.718 287.082 120.482C286.816 120.091 286.467 119.764 286.06 119.524C285.652 119.284 285.197 119.137 284.726 119.094C284.255 119.051 283.781 119.112 283.337 119.274C282.893 119.436 282.49 119.694 282.157 120.03C280.291 121.925 278.948 124.271 278.259 126.839C278.174 127.591 278.242 128.353 278.46 129.078C278.677 129.804 279.038 130.477 279.523 131.06C280.007 131.642 280.604 132.12 281.277 132.466C281.951 132.811 282.687 133.017 283.442 133.071Z" fill="white"/>
<path d="M300.231 134.614C301.715 134.75 303.193 134.291 304.339 133.338C305.485 132.385 306.205 131.016 306.341 129.531C306.206 126.853 305.353 124.26 303.871 122.024C303.605 121.634 303.256 121.306 302.848 121.066C302.441 120.826 301.986 120.679 301.515 120.636C301.044 120.593 300.57 120.654 300.126 120.816C299.681 120.978 299.279 121.236 298.946 121.572C297.08 123.467 295.737 125.813 295.047 128.381C294.963 129.134 295.031 129.895 295.249 130.62C295.466 131.346 295.827 132.02 296.311 132.602C296.796 133.184 297.392 133.662 298.066 134.008C298.739 134.354 299.476 134.56 300.231 134.614Z" fill="white"/>
</g>
</g>
<g clip-path="url(#clip3_1142_4578)">
<path d="M31.5685 249.253C32.8963 249.278 34.219 249.019 35.5467 249.059C36.8744 249.094 38.2866 249.487 39.1121 250.526C40.7531 252.59 39.2265 255.663 39.7934 258.239C40.1912 260.044 41.683 261.511 43.4384 262.097C45.1937 262.684 47.1579 262.46 48.8486 261.715C50.0421 261.187 51.3947 260.402 52.5384 261.028C53.518 261.56 53.7517 262.858 53.7119 263.972C53.6722 265.086 53.4832 266.275 54.0053 267.259C54.8457 268.85 57.0635 269.064 58.8139 268.642C60.5643 268.219 62.2799 267.374 64.0651 267.582C65.1193 267.707 66.0989 268.199 67.1382 268.413C68.1775 268.627 69.5947 269.88 70.2064 269.015C70.9224 268.547 71.1412 266.2 71.2456 265.32C71.37 264.266 71.2059 263.182 71.4197 262.142C71.7777 260.382 73.1203 259.014 74.0652 257.488C75.01 255.961 75.5023 253.788 74.2541 252.49C73.4834 251.685 72.2949 251.496 71.2208 251.182C70.1516 250.874 68.993 250.243 68.7891 249.144C68.5554 247.861 69.724 246.821 70.5992 245.852C71.8374 244.479 72.6629 242.684 72.6529 240.834C72.643 238.984 71.7181 237.11 70.1268 236.165C67.8592 234.822 64.4579 235.31 63.0109 233.107C62.2799 231.998 62.3495 230.531 62.7324 229.258C63.1153 227.985 63.7717 226.811 64.1645 225.543C64.7861 223.529 64.7016 221.272 63.7468 219.397C62.7871 217.522 60.9223 216.09 58.8288 215.842C57.158 215.643 55.4225 216.17 53.8014 215.727C51.4643 215.096 50.0769 212.669 49.4851 210.322C48.8884 207.98 48.8188 205.488 47.8591 203.266C46.8993 201.043 44.6318 199.084 42.2648 199.591C39.5398 200.173 37.8988 203.693 35.1141 203.594C32.6576 203.504 31.3696 200.744 29.6143 199.024C26.5262 195.991 20.7728 196.438 18.187 199.904C16.4217 202.177 15.8996 205.528 17.1875 208.139C18.2765 210.347 20.4944 212.43 19.8081 214.792C19.0324 217.468 16.2129 218.507 14.8056 220.914C13.5873 223.002 13.6967 225.19 15.5117 226.796C17.3218 228.403 19.6639 229.248 21.7077 230.546C23.7465 231.844 25.6212 233.922 25.4919 236.334C25.4024 238.015 24.3631 239.497 24.025 241.148C23.6073 243.211 24.383 245.434 25.8649 246.931C27.3467 248.428 29.4651 249.213 31.5735 249.253H31.5685Z" fill="#FFFAFC"/>
<path d="M54.8357 244.788C54.1346 240.551 55.1987 236.105 57.6751 232.699C55.3728 236.225 54.5772 240.64 55.4573 244.673L54.8407 244.793L54.8357 244.788Z" fill="#404040"/>
<path d="M69.9228 269.815C57.69 247.776 44.5621 228.721 28.6594 211.709C28.6594 211.709 39.4601 222.878 46.6258 231.968C54.95 242.525 71.0367 269.636 71.0367 269.636L69.9178 269.815H69.9228Z" fill="#404040"/>
<path d="M43.3837 229.024C39.5398 225.901 34.8804 223.753 29.9574 222.858C34.9152 223.544 39.7138 225.504 43.7715 228.527L43.3837 229.024Z" fill="#404040"/>
</g>
<g clip-path="url(#clip4_1142_4578)">
<path d="M107.87 259.359C106.743 259.381 105.62 259.161 104.493 259.195C103.366 259.224 102.167 259.558 101.466 260.44C100.073 262.192 101.369 264.801 100.888 266.988C100.55 268.52 99.2838 269.765 97.7937 270.264C96.3035 270.762 94.636 270.572 93.2007 269.939C92.1875 269.491 91.0393 268.824 90.0684 269.356C89.2367 269.808 89.0383 270.909 89.0721 271.855C89.1059 272.801 89.2663 273.81 88.823 274.645C88.1096 275.996 86.2268 276.178 84.7408 275.819C83.2549 275.46 81.7985 274.743 80.283 274.92C79.388 275.025 78.5564 275.443 77.6741 275.625C76.7918 275.806 75.5887 276.87 75.0694 276.136C74.4616 275.739 74.2758 273.746 74.1872 272.999C74.0816 272.104 74.2209 271.184 74.0394 270.302C73.7355 268.807 72.5957 267.646 71.7936 266.35C70.9915 265.054 70.5736 263.209 71.6332 262.108C72.2875 261.424 73.2964 261.263 74.2083 260.997C75.1159 260.736 76.0995 260.2 76.2726 259.267C76.471 258.177 75.4789 257.295 74.7359 256.472C73.6848 255.307 72.984 253.783 72.9925 252.213C73.0009 250.642 73.7861 249.051 75.137 248.249C77.062 247.109 79.9495 247.522 81.1779 245.652C81.7985 244.711 81.7394 243.466 81.4143 242.385C81.0893 241.304 80.532 240.308 80.1985 239.231C79.6709 237.522 79.7426 235.605 80.5531 234.014C81.3679 232.422 82.9509 231.206 84.7282 230.995C86.1466 230.827 87.6199 231.274 88.9961 230.898C90.9802 230.362 92.158 228.302 92.6603 226.31C93.1669 224.321 93.226 222.206 94.0408 220.319C94.8555 218.432 96.7805 216.769 98.7899 217.2C101.103 217.693 102.496 220.682 104.86 220.598C106.946 220.522 108.039 218.179 109.529 216.718C112.151 214.143 117.035 214.523 119.23 217.466C120.729 219.395 121.172 222.24 120.079 224.456C119.154 226.331 117.272 228.099 117.854 230.105C118.513 232.376 120.906 233.258 122.101 235.301C123.135 237.074 123.042 238.932 121.501 240.295C119.965 241.659 117.977 242.376 116.242 243.478C114.511 244.58 112.919 246.345 113.029 248.392C113.105 249.819 113.987 251.077 114.274 252.478C114.629 254.23 113.97 256.117 112.712 257.388C111.454 258.659 109.656 259.326 107.866 259.359H107.87Z" fill="#FFFAFC"/>
<path d="M75.3101 276.815C85.695 258.106 96.8397 241.929 110.34 227.487C110.34 227.487 101.171 236.969 95.0878 244.685C88.021 253.648 74.3645 276.663 74.3645 276.663L75.3144 276.815H75.3101Z" fill="#404040"/>
<path d="M97.8402 242.186C101.103 239.535 105.059 237.712 109.238 236.952C105.029 237.534 100.956 239.198 97.5109 241.764L97.8402 242.186Z" fill="#404040"/>
</g>
<path d="M50 144.573C70.2349 142.77 90.7497 143.317 111.045 142.581C120.632 142.234 122.466 142.104 130.963 141.659C132.341 141.587 138.478 140.527 140.295 141.253C141.813 141.861 137.136 142.099 135.573 142.581C134.089 143.039 120.217 146.611 129.819 149.221C136.623 151.07 150.342 151.412 156.487 151.655C165.438 152.009 174.491 152.313 183.45 152.54" stroke="white" stroke-width="3" stroke-linecap="round"/>
</g>
<defs>
<clipPath id="clip0_1142_4578">
<rect width="307" height="238" rx="20" fill="white"/>
</clipPath>
<clipPath id="clip1_1142_4578">
<rect width="119.838" height="136.204" fill="white" transform="translate(195.459 106) rotate(5.24824)"/>
</clipPath>
<clipPath id="clip2_1142_4578">
<rect width="134.874" height="134.874" fill="white" transform="translate(192.39 110.598) rotate(5.24824)"/>
</clipPath>
<clipPath id="clip3_1142_4578">
<rect width="61" height="72.8151" fill="white" transform="translate(14 197)"/>
</clipPath>
<clipPath id="clip4_1142_4578">
<rect width="51.7849" height="61.8151" fill="white" transform="matrix(-1 0 0 1 122.785 215)"/>
</clipPath>
</defs>
</svg>
