<svg width="540" height="200" viewBox="0 0 540 200" fill="none" xmlns="http://www.w3.org/2000/svg">
<g clip-path="url(#clip0_1142_5923)">
<rect width="540" height="200" rx="20" fill="#748A5B"/>
<path d="M331.884 99.3636C238.083 95.7679 229.464 -30.8554 264.663 -68.5528L610.05 -145.468L697.792 248.539L513.44 289.593C336.374 329.024 352.795 209.315 386.372 172.327C419.949 135.34 425.684 102.959 331.884 99.3636Z" stroke="#FFFAFC" stroke-width="2" stroke-dasharray="11 11"/>
<path d="M509.118 39.4055C495.13 104.703 580.871 132.837 613.026 115.178L726.655 -109.454L470.555 -239L409.906 -119.102C351.653 -3.94202 437.024 5.71791 468.405 -10.9474C499.787 -27.6126 523.106 -25.8915 509.118 39.4055Z" stroke="#FFFAFC" stroke-width="2" stroke-dasharray="11 11"/>
<rect x="20" y="20" width="258" height="47" rx="10" fill="white"/>
<path d="M44.4 51V48.74C44.7067 48.76 44.9667 48.7333 45.18 48.66C45.3933 48.5867 45.5733 48.4533 45.72 48.26C45.8733 48.06 46.0067 47.7867 46.12 47.44C46.2333 47.0867 46.34 46.6467 46.44 46.12C46.6 45.2867 46.7333 44.41 46.84 43.49C46.9533 42.5633 47.0467 41.6567 47.12 40.77C47.1933 39.8833 47.25 39.0767 47.29 38.35C47.33 37.6167 47.36 37.0333 47.38 36.6H57.2V51H54.48V39.14H49.88C49.8533 39.5133 49.8167 40 49.77 40.6C49.73 41.2 49.6733 41.8633 49.6 42.59C49.5267 43.3167 49.4367 44.07 49.33 44.85C49.2233 45.63 49.0933 46.3867 48.94 47.12C48.8 47.8333 48.63 48.4667 48.43 49.02C48.23 49.5667 47.9633 50.0167 47.63 50.37C47.3033 50.7167 46.88 50.9467 46.36 51.06C45.84 51.1733 45.1867 51.1533 44.4 51ZM69.7494 51.3C68.9227 51.3 68.166 51.1333 67.4794 50.8C66.7927 50.46 66.216 49.9667 65.7494 49.32C65.2827 48.6733 64.9694 47.8867 64.8094 46.96H62.7094V51H59.9894V40.2H62.7094V44.24H64.8094C64.9694 43.3 65.2827 42.51 65.7494 41.87C66.2227 41.2233 66.806 40.7333 67.4994 40.4C68.1994 40.0667 68.9694 39.9 69.8094 39.9C70.876 39.9 71.816 40.1467 72.6294 40.64C73.4427 41.1267 74.0794 41.8 74.5394 42.66C74.9994 43.5133 75.2294 44.4867 75.2294 45.58C75.2294 46.7067 74.996 47.7 74.5294 48.56C74.0627 49.42 73.416 50.0933 72.5894 50.58C71.7694 51.06 70.8227 51.3 69.7494 51.3ZM69.7294 48.76C70.6094 48.76 71.266 48.4667 71.6994 47.88C72.1327 47.2867 72.3494 46.5267 72.3494 45.6C72.3494 44.6267 72.1294 43.8567 71.6894 43.29C71.256 42.7233 70.6027 42.44 69.7294 42.44C68.8494 42.44 68.2027 42.73 67.7894 43.31C67.376 43.89 67.1694 44.6467 67.1694 45.58C67.1694 46.56 67.386 47.3367 67.8194 47.91C68.2527 48.4767 68.8894 48.76 69.7294 48.76ZM81.9813 51.32C80.9413 51.3067 80.0613 51.0767 79.3413 50.63C78.6213 50.1767 78.0546 49.5533 77.6413 48.76C77.2346 47.96 76.9813 47.0333 76.8813 45.98C76.8279 45.4133 76.8146 44.7767 76.8413 44.07C76.8746 43.3567 76.9513 42.6567 77.0713 41.97C77.1913 41.2833 77.3613 40.6933 77.5813 40.2C77.7946 39.74 78.0679 39.32 78.4013 38.94C78.7413 38.5533 79.1013 38.2267 79.4813 37.96C79.9279 37.6467 80.4079 37.4067 80.9213 37.24C81.4346 37.0667 81.9746 36.9333 82.5413 36.84C83.1079 36.7467 83.6946 36.6633 84.3013 36.59C84.9146 36.5167 85.5346 36.42 86.1613 36.3L86.4013 38.7C86.0213 38.8 85.5879 38.8733 85.1013 38.92C84.6146 38.9667 84.1146 39.0167 83.6013 39.07C83.0879 39.1167 82.5979 39.1933 82.1313 39.3C81.6646 39.4067 81.2613 39.5667 80.9213 39.78C80.4613 40.0667 80.1079 40.4667 79.8613 40.98C79.6213 41.4867 79.4813 42 79.4413 42.52C79.8546 41.92 80.3579 41.5067 80.9513 41.28C81.5513 41.0533 82.1413 40.94 82.7213 40.94C83.6746 40.94 84.4913 41.17 85.1713 41.63C85.8579 42.0833 86.3846 42.6967 86.7513 43.47C87.1179 44.2367 87.3013 45.0867 87.3013 46.02C87.3013 47.08 87.0713 48.01 86.6113 48.81C86.1579 49.61 85.5313 50.2333 84.7313 50.68C83.9313 51.12 83.0146 51.3333 81.9813 51.32ZM82.1013 48.78C82.8746 48.78 83.4579 48.54 83.8513 48.06C84.2446 47.58 84.4413 46.94 84.4413 46.14C84.4413 45.32 84.2379 44.6767 83.8313 44.21C83.4313 43.7367 82.8546 43.5 82.1013 43.5C81.3346 43.5 80.7513 43.7367 80.3513 44.21C79.9579 44.6767 79.7613 45.32 79.7613 46.14C79.7613 46.9867 79.9646 47.64 80.3713 48.1C80.7779 48.5533 81.3546 48.78 82.1013 48.78ZM94.3616 51.3C93.2749 51.3 92.3216 51.0567 91.5016 50.57C90.6816 50.0833 90.0416 49.4133 89.5816 48.56C89.1282 47.7 88.9016 46.7133 88.9016 45.6C88.9016 44.4733 89.1349 43.4833 89.6016 42.63C90.0682 41.77 90.7116 41.1 91.5316 40.62C92.3516 40.14 93.2949 39.9 94.3616 39.9C95.4482 39.9 96.4016 40.1433 97.2216 40.63C98.0482 41.1167 98.6916 41.79 99.1516 42.65C99.6116 43.5033 99.8416 44.4867 99.8416 45.6C99.8416 46.72 99.6082 47.71 99.1416 48.57C98.6816 49.4233 98.0382 50.0933 97.2116 50.58C96.3916 51.06 95.4416 51.3 94.3616 51.3ZM94.3616 48.76C95.2349 48.76 95.8849 48.4667 96.3116 47.88C96.7449 47.2867 96.9616 46.5267 96.9616 45.6C96.9616 44.64 96.7416 43.8733 96.3016 43.3C95.8682 42.7267 95.2216 42.44 94.3616 42.44C93.7682 42.44 93.2816 42.5733 92.9016 42.84C92.5216 43.1067 92.2382 43.4767 92.0516 43.95C91.8716 44.4233 91.7816 44.9733 91.7816 45.6C91.7816 46.5667 91.9982 47.3367 92.4316 47.91C92.8716 48.4767 93.5149 48.76 94.3616 48.76ZM107.061 51.3C105.954 51.3 104.977 51.0633 104.131 50.59C103.291 50.11 102.631 49.4533 102.151 48.62C101.677 47.78 101.441 46.82 101.441 45.74C101.441 44.56 101.674 43.5333 102.141 42.66C102.607 41.7867 103.251 41.11 104.071 40.63C104.891 40.1433 105.834 39.9 106.901 39.9C108.034 39.9 108.997 40.1667 109.791 40.7C110.584 41.2333 111.171 41.9833 111.551 42.95C111.931 43.9167 112.064 45.0533 111.951 46.36H109.261V45.36C109.261 44.26 109.084 43.47 108.731 42.99C108.384 42.5033 107.814 42.26 107.021 42.26C106.094 42.26 105.411 42.5433 104.971 43.11C104.537 43.67 104.321 44.5 104.321 45.6C104.321 46.6067 104.537 47.3867 104.971 47.94C105.411 48.4867 106.054 48.76 106.901 48.76C107.434 48.76 107.891 48.6433 108.271 48.41C108.651 48.1767 108.941 47.84 109.141 47.4L111.861 48.18C111.454 49.1667 110.811 49.9333 109.931 50.48C109.057 51.0267 108.101 51.3 107.061 51.3ZM103.481 46.36V44.34H110.641V46.36H103.481ZM118.193 51V40.2H120.393L124.153 47.2L127.913 40.2H130.113V51H127.513V45.62L124.633 51H123.673L120.793 45.62V51H118.193ZM137.94 51.3C136.833 51.3 135.856 51.0633 135.01 50.59C134.17 50.11 133.51 49.4533 133.03 48.62C132.556 47.78 132.32 46.82 132.32 45.74C132.32 44.56 132.553 43.5333 133.02 42.66C133.486 41.7867 134.13 41.11 134.95 40.63C135.77 40.1433 136.713 39.9 137.78 39.9C138.913 39.9 139.876 40.1667 140.67 40.7C141.463 41.2333 142.05 41.9833 142.43 42.95C142.81 43.9167 142.943 45.0533 142.83 46.36H140.14V45.36C140.14 44.26 139.963 43.47 139.61 42.99C139.263 42.5033 138.693 42.26 137.9 42.26C136.973 42.26 136.29 42.5433 135.85 43.11C135.416 43.67 135.2 44.5 135.2 45.6C135.2 46.6067 135.416 47.3867 135.85 47.94C136.29 48.4867 136.933 48.76 137.78 48.76C138.313 48.76 138.77 48.6433 139.15 48.41C139.53 48.1767 139.82 47.84 140.02 47.4L142.74 48.18C142.333 49.1667 141.69 49.9333 140.81 50.48C139.936 51.0267 138.98 51.3 137.94 51.3ZM134.36 46.36V44.34H141.52V46.36H134.36ZM150.388 51.3C149.314 51.3 148.418 51.05 147.698 50.55C146.978 50.05 146.434 49.37 146.068 48.51C145.708 47.65 145.528 46.68 145.528 45.6C145.528 44.52 145.708 43.55 146.068 42.69C146.428 41.83 146.958 41.15 147.658 40.65C148.358 40.15 149.221 39.9 150.248 39.9C151.281 39.9 152.181 40.1467 152.948 40.64C153.714 41.1333 154.308 41.81 154.728 42.67C155.154 43.5233 155.368 44.5 155.368 45.6C155.368 46.68 155.158 47.65 154.738 48.51C154.324 49.37 153.744 50.05 152.998 50.55C152.251 51.05 151.381 51.3 150.388 51.3ZM145.068 55.8V40.2H147.468V47.6H147.808V55.8H145.068ZM149.948 48.88C150.534 48.88 151.014 48.7333 151.388 48.44C151.761 48.1467 152.038 47.7533 152.218 47.26C152.398 46.76 152.488 46.2067 152.488 45.6C152.488 45 152.394 44.4533 152.208 43.96C152.021 43.46 151.731 43.0633 151.338 42.77C150.951 42.47 150.454 42.32 149.848 42.32C149.281 42.32 148.821 42.4567 148.468 42.73C148.121 43.0033 147.868 43.3867 147.708 43.88C147.548 44.3733 147.468 44.9467 147.468 45.6C147.468 46.2533 147.548 46.8267 147.708 47.32C147.868 47.8133 148.128 48.1967 148.488 48.47C148.854 48.7433 149.341 48.88 149.948 48.88ZM162.428 51.3C161.341 51.3 160.388 51.0567 159.568 50.57C158.748 50.0833 158.108 49.4133 157.648 48.56C157.195 47.7 156.968 46.7133 156.968 45.6C156.968 44.4733 157.201 43.4833 157.668 42.63C158.135 41.77 158.778 41.1 159.598 40.62C160.418 40.14 161.361 39.9 162.428 39.9C163.515 39.9 164.468 40.1433 165.288 40.63C166.115 41.1167 166.758 41.79 167.218 42.65C167.678 43.5033 167.908 44.4867 167.908 45.6C167.908 46.72 167.675 47.71 167.208 48.57C166.748 49.4233 166.105 50.0933 165.278 50.58C164.458 51.06 163.508 51.3 162.428 51.3ZM162.428 48.76C163.301 48.76 163.951 48.4667 164.378 47.88C164.811 47.2867 165.028 46.5267 165.028 45.6C165.028 44.64 164.808 43.8733 164.368 43.3C163.935 42.7267 163.288 42.44 162.428 42.44C161.835 42.44 161.348 42.5733 160.968 42.84C160.588 43.1067 160.305 43.4767 160.118 43.95C159.938 44.4233 159.848 44.9733 159.848 45.6C159.848 46.5667 160.065 47.3367 160.498 47.91C160.938 48.4767 161.581 48.76 162.428 48.76ZM170.087 51V40.2H179.727V51H177.007V42.74H172.807V51H170.087ZM187.829 51.3C186.756 51.3 185.859 51.05 185.139 50.55C184.419 50.05 183.876 49.37 183.509 48.51C183.149 47.65 182.969 46.68 182.969 45.6C182.969 44.52 183.149 43.55 183.509 42.69C183.869 41.83 184.399 41.15 185.099 40.65C185.799 40.15 186.662 39.9 187.689 39.9C188.722 39.9 189.622 40.1467 190.389 40.64C191.156 41.1333 191.749 41.81 192.169 42.67C192.596 43.5233 192.809 44.5 192.809 45.6C192.809 46.68 192.599 47.65 192.179 48.51C191.766 49.37 191.186 50.05 190.439 50.55C189.692 51.05 188.822 51.3 187.829 51.3ZM182.509 55.8V40.2H184.909V47.6H185.249V55.8H182.509ZM187.389 48.88C187.976 48.88 188.456 48.7333 188.829 48.44C189.202 48.1467 189.479 47.7533 189.659 47.26C189.839 46.76 189.929 46.2067 189.929 45.6C189.929 45 189.836 44.4533 189.649 43.96C189.462 43.46 189.172 43.0633 188.779 42.77C188.392 42.47 187.896 42.32 187.289 42.32C186.722 42.32 186.262 42.4567 185.909 42.73C185.562 43.0033 185.309 43.3867 185.149 43.88C184.989 44.3733 184.909 44.9467 184.909 45.6C184.909 46.2533 184.989 46.8267 185.149 47.32C185.309 47.8133 185.569 48.1967 185.929 48.47C186.296 48.7433 186.782 48.88 187.389 48.88ZM204.629 40.2V51H202.029V44.4L197.149 51H194.989V40.2H197.589V46.58L202.489 40.2H204.629ZM213.791 51V47.56H212.051C211.825 47.56 211.515 47.5567 211.121 47.55C210.735 47.5367 210.371 47.5 210.031 47.44C209.171 47.2867 208.465 46.9133 207.911 46.32C207.365 45.7267 207.091 44.92 207.091 43.9C207.091 42.9067 207.355 42.1067 207.881 41.5C208.408 40.8933 209.111 40.5067 209.991 40.34C210.351 40.2667 210.721 40.2267 211.101 40.22C211.488 40.2067 211.805 40.2 212.051 40.2H216.511V51H213.791ZM206.831 51L209.271 47H212.071L209.671 51H206.831ZM211.751 45.46H213.791V42.3H211.751C211.631 42.3 211.498 42.3067 211.351 42.32C211.211 42.3333 211.065 42.36 210.911 42.4C210.725 42.4533 210.551 42.5533 210.391 42.7C210.231 42.84 210.101 43.0133 210.001 43.22C209.901 43.42 209.851 43.64 209.851 43.88C209.851 44.26 209.965 44.5833 210.191 44.85C210.418 45.11 210.671 45.28 210.951 45.36C211.091 45.4 211.231 45.4267 211.371 45.44C211.518 45.4533 211.645 45.46 211.751 45.46ZM221.946 51V42.6H218.406V40.2H228.206V42.6H224.666V51H221.946ZM239.727 40.2V51H237.127V44.4L232.247 51H230.087V40.2H232.687V46.58L237.587 40.2H239.727ZM247.549 51.3C246.442 51.3 245.466 51.0633 244.619 50.59C243.779 50.11 243.119 49.4533 242.639 48.62C242.166 47.78 241.929 46.82 241.929 45.74C241.929 44.56 242.162 43.5333 242.629 42.66C243.096 41.7867 243.739 41.11 244.559 40.63C245.379 40.1433 246.322 39.9 247.389 39.9C248.522 39.9 249.486 40.1667 250.279 40.7C251.072 41.2333 251.659 41.9833 252.039 42.95C252.419 43.9167 252.552 45.0533 252.439 46.36H249.749V45.36C249.749 44.26 249.572 43.47 249.219 42.99C248.872 42.5033 248.302 42.26 247.509 42.26C246.582 42.26 245.899 42.5433 245.459 43.11C245.026 43.67 244.809 44.5 244.809 45.6C244.809 46.6067 245.026 47.3867 245.459 47.94C245.899 48.4867 246.542 48.76 247.389 48.76C247.922 48.76 248.379 48.6433 248.759 48.41C249.139 48.1767 249.429 47.84 249.629 47.4L252.349 48.18C251.942 49.1667 251.299 49.9333 250.419 50.48C249.546 51.0267 248.589 51.3 247.549 51.3ZM243.969 46.36V44.34H251.129V46.36H243.969Z" fill="#748A5B"/>
<path d="M20.54 104.16V99.714C20.93 99.714 21.26 99.618 21.53 99.426C21.806 99.228 22.031 98.952 22.205 98.598C22.379 98.238 22.517 97.818 22.619 97.338C22.721 96.858 22.796 96.336 22.844 95.772C22.904 95.052 22.958 94.344 23.006 93.648C23.054 92.946 23.102 92.22 23.15 91.47C23.198 90.714 23.252 89.898 23.312 89.022L31.916 89.04V99.714H32.906V104.16H30.458V102H22.988V104.16H20.54ZM24.194 99.714H29.468V91.326L25.544 91.308C25.502 91.902 25.466 92.448 25.436 92.946C25.412 93.444 25.382 93.948 25.346 94.458C25.31 94.968 25.262 95.538 25.202 96.168C25.142 96.798 25.082 97.317 25.022 97.725C24.962 98.127 24.869 98.478 24.743 98.778C24.623 99.078 24.44 99.39 24.194 99.714ZM40.445 102.27C39.149 102.27 38.03 101.988 37.088 101.424C36.152 100.86 35.429 100.071 34.919 99.057C34.415 98.043 34.163 96.864 34.163 95.52C34.163 94.176 34.415 92.997 34.919 91.983C35.429 90.969 36.152 90.18 37.088 89.616C38.03 89.052 39.149 88.77 40.445 88.77C41.741 88.77 42.857 89.052 43.793 89.616C44.735 90.18 45.458 90.969 45.962 91.983C46.472 92.997 46.727 94.176 46.727 95.52C46.727 96.864 46.472 98.043 45.962 99.057C45.458 100.071 44.735 100.86 43.793 101.424C42.857 101.988 41.741 102.27 40.445 102.27ZM40.445 99.966C41.267 99.978 41.951 99.801 42.497 99.435C43.043 99.069 43.451 98.55 43.721 97.878C43.997 97.206 44.135 96.42 44.135 95.52C44.135 94.62 43.997 93.84 43.721 93.18C43.451 92.52 43.043 92.007 42.497 91.641C41.951 91.275 41.267 91.086 40.445 91.074C39.623 91.062 38.939 91.239 38.393 91.605C37.847 91.971 37.436 92.49 37.16 93.162C36.89 93.834 36.755 94.62 36.755 95.52C36.755 96.42 36.89 97.2 37.16 97.86C37.436 98.52 37.847 99.033 38.393 99.399C38.939 99.765 39.623 99.954 40.445 99.966ZM51.7672 101.982V99.858L57.2032 95.034C57.6112 94.674 57.8992 94.335 58.0672 94.017C58.2352 93.699 58.3192 93.402 58.3192 93.126C58.3192 92.73 58.2382 92.379 58.0762 92.073C57.9142 91.761 57.6862 91.518 57.3922 91.344C57.0982 91.164 56.7532 91.074 56.3572 91.074C55.9432 91.074 55.5772 91.17 55.2592 91.362C54.9472 91.548 54.7042 91.797 54.5302 92.109C54.3562 92.415 54.2752 92.748 54.2872 93.108H51.7672C51.7672 92.22 51.9622 91.452 52.3522 90.804C52.7422 90.156 53.2852 89.655 53.9812 89.301C54.6772 88.947 55.4872 88.77 56.4112 88.77C57.2572 88.77 58.0132 88.956 58.6792 89.328C59.3512 89.694 59.8792 90.207 60.2632 90.867C60.6472 91.527 60.8392 92.292 60.8392 93.162C60.8392 93.804 60.7492 94.338 60.5692 94.764C60.3892 95.184 60.1222 95.574 59.7682 95.934C59.4142 96.288 58.9792 96.69 58.4632 97.14L54.9532 100.218L54.7552 99.678H60.8392V101.982H51.7672ZM67.7965 102.27C66.8365 102.27 65.9965 102.069 65.2765 101.667C64.5565 101.265 63.9955 100.704 63.5935 99.984C63.1915 99.264 62.9905 98.424 62.9905 97.464V93.576C62.9905 92.616 63.1915 91.776 63.5935 91.056C63.9955 90.336 64.5565 89.775 65.2765 89.373C65.9965 88.971 66.8365 88.77 67.7965 88.77C68.7565 88.77 69.5965 88.971 70.3165 89.373C71.0365 89.775 71.5975 90.336 71.9995 91.056C72.4015 91.776 72.6025 92.616 72.6025 93.576V97.464C72.6025 98.424 72.4015 99.264 71.9995 99.984C71.5975 100.704 71.0365 101.265 70.3165 101.667C69.5965 102.069 68.7565 102.27 67.7965 102.27ZM67.7965 99.948C68.2285 99.948 68.6185 99.846 68.9665 99.642C69.3145 99.438 69.5905 99.162 69.7945 98.814C69.9985 98.466 70.1005 98.076 70.1005 97.644V93.378C70.1005 92.946 69.9985 92.556 69.7945 92.208C69.5905 91.86 69.3145 91.584 68.9665 91.38C68.6185 91.176 68.2285 91.074 67.7965 91.074C67.3645 91.074 66.9745 91.176 66.6265 91.38C66.2785 91.584 66.0025 91.86 65.7985 92.208C65.5945 92.556 65.4925 92.946 65.4925 93.378V97.644C65.4925 98.076 65.5945 98.466 65.7985 98.814C66.0025 99.162 66.2785 99.438 66.6265 99.642C66.9745 99.846 67.3645 99.948 67.7965 99.948ZM86.0849 102V96.348L86.4269 96.906C86.0969 97.2 85.6259 97.428 85.0139 97.59C84.4079 97.746 83.7749 97.824 83.1149 97.824C82.0349 97.824 81.1739 97.611 80.5319 97.185C79.8899 96.753 79.4279 96.159 79.1459 95.403C78.8639 94.641 78.7229 93.762 78.7229 92.766V89.04H81.2069V92.028C81.2069 92.418 81.2219 92.817 81.2519 93.225C81.2819 93.633 81.3689 94.011 81.5129 94.359C81.6629 94.707 81.9089 94.989 82.2509 95.205C82.5929 95.415 83.0729 95.52 83.6909 95.52C84.3569 95.52 84.9209 95.406 85.3829 95.178C85.8449 94.944 86.1689 94.698 86.3549 94.44L86.0849 95.538V89.04H88.5509V102H86.0849ZM91.0627 102V89.04H99.5227V91.326H93.5107V94.098H98.4427V96.384H93.5107V99.714H99.5227V102H91.0627ZM100.78 102V99.966C101.056 99.984 101.29 99.96 101.482 99.894C101.674 99.828 101.836 99.708 101.968 99.534C102.106 99.354 102.226 99.108 102.328 98.796C102.43 98.478 102.526 98.082 102.616 97.608C102.76 96.858 102.88 96.069 102.976 95.241C103.078 94.407 103.162 93.591 103.228 92.793C103.294 91.995 103.345 91.269 103.381 90.615C103.417 89.955 103.444 89.43 103.462 89.04H112.3V102H109.852V91.326H105.712C105.688 91.662 105.655 92.1 105.613 92.64C105.577 93.18 105.526 93.777 105.46 94.431C105.394 95.085 105.313 95.763 105.217 96.465C105.121 97.167 105.004 97.848 104.866 98.508C104.74 99.15 104.587 99.72 104.407 100.218C104.227 100.71 103.987 101.115 103.687 101.433C103.393 101.745 103.012 101.952 102.544 102.054C102.076 102.156 101.488 102.138 100.78 102ZM120.39 102.27C119.094 102.27 117.975 101.988 117.033 101.424C116.097 100.86 115.374 100.071 114.864 99.057C114.36 98.043 114.108 96.864 114.108 95.52C114.108 94.176 114.36 92.997 114.864 91.983C115.374 90.969 116.097 90.18 117.033 89.616C117.975 89.052 119.094 88.77 120.39 88.77C121.686 88.77 122.802 89.052 123.738 89.616C124.68 90.18 125.403 90.969 125.907 91.983C126.417 92.997 126.672 94.176 126.672 95.52C126.672 96.864 126.417 98.043 125.907 99.057C125.403 100.071 124.68 100.86 123.738 101.424C122.802 101.988 121.686 102.27 120.39 102.27ZM120.39 99.966C121.212 99.978 121.896 99.801 122.442 99.435C122.988 99.069 123.396 98.55 123.666 97.878C123.942 97.206 124.08 96.42 124.08 95.52C124.08 94.62 123.942 93.84 123.666 93.18C123.396 92.52 122.988 92.007 122.442 91.641C121.896 91.275 121.212 91.086 120.39 91.074C119.568 91.062 118.884 91.239 118.338 91.605C117.792 91.971 117.381 92.49 117.105 93.162C116.835 93.834 116.7 94.62 116.7 95.52C116.7 96.42 116.835 97.2 117.105 97.86C117.381 98.52 117.792 99.033 118.338 99.399C118.884 99.765 119.568 99.954 120.39 99.966ZM128.469 102V89.04H133.653C134.577 89.04 135.324 89.226 135.894 89.598C136.464 89.964 136.881 90.426 137.145 90.984C137.409 91.542 137.541 92.106 137.541 92.676C137.541 93.402 137.376 94.005 137.046 94.485C136.722 94.965 136.275 95.286 135.705 95.448V94.998C136.515 95.166 137.121 95.541 137.523 96.123C137.931 96.705 138.135 97.356 138.135 98.076C138.135 98.85 137.991 99.531 137.703 100.119C137.421 100.707 136.989 101.169 136.407 101.505C135.825 101.835 135.093 102 134.211 102H128.469ZM130.953 99.696H133.959C134.289 99.696 134.583 99.627 134.841 99.489C135.099 99.345 135.3 99.147 135.444 98.895C135.594 98.637 135.669 98.334 135.669 97.986C135.669 97.68 135.606 97.407 135.48 97.167C135.354 96.927 135.162 96.738 134.904 96.6C134.652 96.456 134.337 96.384 133.959 96.384H130.953V99.696ZM130.953 94.098H133.617C133.893 94.098 134.139 94.05 134.355 93.954C134.571 93.858 134.742 93.711 134.868 93.513C134.994 93.309 135.057 93.048 135.057 92.73C135.057 92.334 134.934 92.001 134.688 91.731C134.442 91.461 134.085 91.326 133.617 91.326H130.953V94.098ZM139.93 102V89.04H148.39V91.326H142.378V94.098H147.31V96.384H142.378V99.714H148.39V102H139.93ZM150.547 102V89.04H152.995V95.016L157.927 89.04H160.915L155.497 95.43L161.257 102H158.161L152.995 96.096V102H150.547Z" fill="white"/>
<g clip-path="url(#clip1_1142_5923)">
<g clip-path="url(#clip2_1142_5923)">
<path d="M462.76 135.72C465.35 135.159 467.771 133.993 469.824 132.318L479.108 124.596C481.715 124.45 484.163 123.298 485.938 121.384C487.713 119.469 488.676 116.941 488.626 114.33C488.499 111.725 487.413 109.258 485.576 107.407C483.739 105.555 481.281 104.449 478.677 104.302L454.307 102.063C453.863 102.023 453.453 101.807 453.168 101.464C452.883 101.122 452.746 100.68 452.787 100.236L453.863 88.5194C453.887 88.1621 454.035 87.8243 454.28 87.5637C454.526 87.303 454.854 87.1357 455.209 87.0902C460.774 85.9171 465.824 83.0098 469.633 78.7862C473.442 74.5627 475.814 69.2403 476.408 63.5841L476.715 60.2365C476.879 58.4609 476.33 56.6932 475.189 55.3223C474.049 53.9514 472.411 53.0896 470.635 52.9265C468.86 52.7634 467.092 53.3123 465.721 54.4526C464.35 55.5928 463.488 57.2309 463.325 59.0066L463.018 62.3541C462.832 64.2594 462.241 66.1031 461.286 67.7618C460.33 69.4205 459.031 70.8561 457.476 71.9724C456.757 72.4465 455.4 71.7817 455.4 71.7817L456.63 58.3916C456.793 56.6159 456.244 54.8482 455.104 53.4773C453.964 52.1064 452.326 51.2446 450.55 51.0815C448.775 50.9184 447.007 51.4674 445.636 52.6076C444.265 53.7478 443.403 55.386 443.24 57.1616L442.01 70.5517C442.01 70.5517 440.488 70.9521 439.935 70.3611C438.609 68.9802 437.593 67.332 436.956 65.527C436.318 63.7219 436.073 61.8015 436.238 59.8942L436.545 56.5466C436.708 54.771 436.159 53.0033 435.019 51.6324C433.879 50.2615 432.241 49.3997 430.465 49.2366C428.689 49.0735 426.922 49.6224 425.551 50.7627C424.18 51.9029 423.318 53.541 423.155 55.3167L422.847 58.6642C422.34 64.3748 423.671 70.098 426.646 74.9988C429.621 79.8996 434.084 83.7215 439.384 85.9067C439.685 85.9992 439.95 86.1811 440.144 86.4282C440.339 86.6752 440.453 86.9756 440.473 87.2894L439.421 98.738C439.38 99.1819 439.165 99.5914 438.822 99.8765C438.479 100.162 438.037 100.299 437.594 100.258L352.968 92.4846C350.339 92.158 347.683 92.8318 345.528 94.3723C343.373 95.9129 341.876 98.2075 341.334 100.801C340.808 103.358 341.295 106.02 342.691 108.225C344.088 110.431 346.286 112.01 348.822 112.629L356.665 122.059C358.379 124.08 360.547 125.667 362.991 126.691C363.204 126.772 363.399 126.895 363.562 127.053C363.726 127.212 363.856 127.402 363.944 127.612C364.032 127.822 364.077 128.048 364.075 128.276C364.073 128.504 364.024 128.729 363.933 128.938L343.563 170.614C343.099 171.581 342.873 172.644 342.904 173.716C342.935 174.787 343.222 175.836 343.74 176.774C344.303 177.761 345.106 178.589 346.075 179.181C347.045 179.774 348.148 180.111 349.283 180.161C350.418 180.211 351.547 179.973 352.565 179.469C353.583 178.965 354.456 178.211 355.104 177.278L387.348 130.548C387.517 130.297 387.75 130.097 388.023 129.967C388.296 129.838 388.6 129.785 388.901 129.813L436.57 134.192C436.871 134.219 437.159 134.326 437.404 134.503C437.649 134.68 437.842 134.92 437.962 135.197L461.154 187.019C461.64 188.107 462.407 189.046 463.375 189.74C464.343 190.434 465.479 190.858 466.665 190.969C467.735 191.056 468.811 190.885 469.801 190.472C470.792 190.058 471.669 189.413 472.36 188.59C473.05 187.768 473.533 186.792 473.769 185.744C474.005 184.697 473.987 183.608 473.715 182.569L461.425 137.758C461.373 137.536 461.367 137.306 461.406 137.081C461.446 136.857 461.531 136.643 461.656 136.452C461.78 136.262 461.943 136.099 462.133 135.973C462.323 135.847 462.536 135.761 462.76 135.72Z" fill="white"/>
<path d="M361.326 85.286C361.594 85.7735 361.979 86.1869 362.446 86.489C362.913 86.7912 363.448 86.9727 364.003 87.0172L395.202 89.883C395.755 89.9403 396.314 89.8593 396.828 89.6473C397.343 89.4353 397.797 89.0989 398.149 88.6684L406.912 77.7932C407.593 76.8294 408.009 75.7033 408.117 74.528C408.225 73.3528 408.021 72.1698 407.527 71.0981C407.056 69.9767 406.29 69.0042 405.31 68.284C404.329 67.5638 403.172 67.123 401.961 67.0085L361.188 63.2633C360.013 63.1249 358.822 63.2991 357.736 63.7683C356.65 64.2376 355.706 64.9852 355.002 65.9357C354.368 66.9333 354.008 68.0802 353.959 69.261C353.91 70.4418 354.173 71.6147 354.721 72.6615L361.326 85.286Z" fill="white"/>
<path d="M431.08 42.5422C432.856 42.7053 434.623 42.1564 435.994 41.0161C437.365 39.8759 438.227 38.2378 438.39 36.4621C438.228 33.2575 437.207 30.1554 435.434 27.4811C435.116 27.0135 434.699 26.622 434.211 26.3349C433.724 26.0478 433.179 25.872 432.616 25.8203C432.053 25.7685 431.485 25.8421 430.954 26.0357C430.422 26.2293 429.941 26.538 429.543 26.9399C427.311 29.2069 425.704 32.0134 424.878 35.0859C424.777 35.9861 424.859 36.8973 425.119 37.765C425.379 38.6327 425.811 39.439 426.391 40.1353C426.97 40.8317 427.684 41.4039 428.49 41.8175C429.296 42.2311 430.177 42.4776 431.08 42.5422Z" fill="white"/>
<path d="M451.165 44.3871C452.941 44.5502 454.708 44.0012 456.079 42.861C457.45 41.7207 458.312 40.0826 458.475 38.307C458.313 35.1023 457.292 32.0002 455.519 29.3259C455.201 28.8583 454.783 28.4669 454.296 28.1797C453.809 27.8926 453.264 27.7169 452.701 27.6651C452.138 27.6134 451.57 27.687 451.039 27.8805C450.507 28.0741 450.025 28.3829 449.628 28.7847C447.395 31.0518 445.789 33.8582 444.963 36.9308C444.862 37.8309 444.944 38.7422 445.204 39.6099C445.464 40.4776 445.896 41.2838 446.476 41.9802C447.055 42.6766 447.769 43.2487 448.575 43.6623C449.38 44.0759 450.262 44.3224 451.165 44.3871Z" fill="white"/>
<path d="M471.251 46.2321C473.026 46.3952 474.794 45.8463 476.165 44.7061C477.536 43.5658 478.398 41.9277 478.561 40.1521C478.399 36.9474 477.378 33.8453 475.605 31.171C475.287 30.7034 474.869 30.312 474.382 30.0248C473.895 29.7377 473.35 29.562 472.787 29.5102C472.224 29.4585 471.656 29.5321 471.125 29.7256C470.593 29.9192 470.111 30.228 469.713 30.6298C467.481 32.8969 465.874 35.7033 465.049 38.7759C464.948 39.676 465.03 40.5873 465.29 41.455C465.55 42.3227 465.982 43.1289 466.561 43.8253C467.141 44.5217 467.855 45.0938 468.66 45.5074C469.466 45.921 470.347 46.1675 471.251 46.2321Z" fill="white"/>
</g>
</g>
<g clip-path="url(#clip3_1142_5923)">
<path d="M29.2645 207.927C30.4181 207.949 31.5674 207.722 32.721 207.757C33.8745 207.787 35.1016 208.133 35.8188 209.046C37.2446 210.86 35.9182 213.561 36.4107 215.825C36.7563 217.412 38.0525 218.701 39.5777 219.217C41.1028 219.732 42.8094 219.536 44.2784 218.88C45.3153 218.417 46.4905 217.726 47.4842 218.277C48.3354 218.745 48.5384 219.885 48.5039 220.864C48.4693 221.844 48.3051 222.888 48.7588 223.753C49.489 225.152 51.4159 225.34 52.9367 224.969C54.4576 224.597 55.9482 223.854 57.4992 224.038C58.4152 224.147 59.2663 224.58 60.1693 224.767C61.0723 224.955 62.3037 226.057 62.8351 225.296C63.4572 224.886 63.6474 222.823 63.7381 222.049C63.8461 221.122 63.7035 220.17 63.8893 219.256C64.2004 217.709 65.3669 216.507 66.1878 215.165C67.0087 213.823 67.4365 211.913 66.352 210.773C65.6823 210.064 64.6497 209.898 63.7165 209.623C62.7876 209.352 61.7809 208.797 61.6037 207.831C61.4007 206.703 62.416 205.79 63.1764 204.938C64.2522 203.731 64.9694 202.154 64.9608 200.528C64.9522 198.902 64.1485 197.254 62.766 196.424C60.7958 195.243 57.8406 195.672 56.5833 193.736C55.9482 192.761 56.0086 191.472 56.3413 190.353C56.674 189.234 57.2443 188.202 57.5856 187.088C58.1257 185.318 58.0523 183.333 57.2227 181.686C56.3889 180.038 54.7687 178.779 52.9497 178.561C51.498 178.386 49.9901 178.849 48.5816 178.46C46.551 177.905 45.3456 175.772 44.8314 173.709C44.313 171.651 44.2525 169.461 43.4186 167.507C42.5847 165.553 40.6146 163.831 38.558 164.277C36.1904 164.789 34.7646 167.883 32.3451 167.796C30.2107 167.717 29.0917 165.291 27.5666 163.779C24.8835 161.113 19.8847 161.506 17.638 164.553C16.1042 166.55 15.6505 169.496 16.7695 171.79C17.7157 173.731 19.6427 175.562 19.0465 177.638C18.3725 179.99 15.9227 180.903 14.7 183.019C13.6415 184.854 13.7365 186.777 15.3135 188.189C16.8862 189.601 18.9212 190.344 20.6969 191.485C22.4683 192.625 24.0972 194.452 23.9848 196.572C23.9071 198.049 23.0041 199.352 22.7103 200.803C22.3474 202.617 23.0214 204.571 24.3089 205.886C25.5964 207.202 27.437 207.892 29.2689 207.927H29.2645Z" fill="#FFFAFC"/>
<path d="M49.4802 204.002C48.871 200.279 49.7956 196.371 51.9472 193.377C49.9468 196.476 49.2555 200.357 50.0203 203.902L49.4845 204.007L49.4802 204.002Z" fill="#404040"/>
<path d="M62.5887 226C51.9602 206.629 40.554 189.881 26.7369 174.928C26.7369 174.928 36.1211 184.745 42.347 192.735C49.5796 202.014 63.5565 225.843 63.5565 225.843L62.5844 226H62.5887Z" fill="#404040"/>
<path d="M39.5301 190.147C36.1903 187.402 32.142 185.514 27.8646 184.728C32.1722 185.331 36.3415 187.053 39.8671 189.71L39.5301 190.147Z" fill="#404040"/>
</g>
<g clip-path="url(#clip4_1142_5923)">
<path d="M230.87 215.359C229.743 215.38 228.62 215.161 227.493 215.195C226.366 215.224 225.167 215.558 224.466 216.44C223.073 218.192 224.369 220.801 223.888 222.988C223.55 224.52 222.284 225.765 220.794 226.263C219.303 226.762 217.636 226.572 216.201 225.938C215.188 225.491 214.039 224.824 213.068 225.356C212.237 225.808 212.038 226.909 212.072 227.855C212.106 228.801 212.266 229.809 211.823 230.645C211.11 231.996 209.227 232.178 207.741 231.819C206.255 231.46 204.798 230.742 203.283 230.92C202.388 231.025 201.556 231.443 200.674 231.625C199.792 231.806 198.589 232.87 198.069 232.136C197.462 231.739 197.276 229.746 197.187 228.999C197.082 228.104 197.221 227.184 197.039 226.301C196.735 224.807 195.596 223.646 194.794 222.35C193.991 221.054 193.574 219.209 194.633 218.108C195.287 217.424 196.296 217.263 197.208 216.997C198.116 216.736 199.099 216.199 199.273 215.266C199.471 214.177 198.479 213.295 197.736 212.472C196.685 211.307 195.984 209.783 195.992 208.212C196.001 206.642 196.786 205.051 198.137 204.248C200.062 203.109 202.949 203.522 204.178 201.652C204.798 200.711 204.739 199.465 204.414 198.385C204.089 197.304 203.532 196.308 203.199 195.231C202.671 193.522 202.743 191.605 203.553 190.014C204.368 188.422 205.951 187.206 207.728 186.995C209.147 186.826 210.62 187.274 211.996 186.898C213.98 186.362 215.158 184.302 215.66 182.309C216.167 180.321 216.226 178.206 217.041 176.319C217.856 174.432 219.781 172.769 221.79 173.199C224.103 173.693 225.496 176.682 227.86 176.598C229.946 176.522 231.039 174.179 232.529 172.718C235.151 170.143 240.035 170.523 242.23 173.465C243.729 175.395 244.172 178.24 243.079 180.456C242.154 182.331 240.272 184.099 240.854 186.105C241.513 188.376 243.906 189.258 245.101 191.301C246.135 193.074 246.042 194.932 244.501 196.295C242.965 197.659 240.977 198.376 239.242 199.478C237.511 200.58 235.919 202.345 236.029 204.392C236.105 205.819 236.987 207.077 237.274 208.478C237.629 210.23 236.97 212.117 235.712 213.388C234.454 214.659 232.656 215.326 230.866 215.359H230.87Z" fill="#FFFAFC"/>
<path d="M198.31 232.815C208.695 214.105 219.84 197.929 233.34 183.487C233.34 183.487 224.171 192.969 218.088 200.685C211.021 209.648 197.365 232.663 197.365 232.663L198.314 232.815H198.31Z" fill="#404040"/>
<path d="M220.84 198.186C224.103 195.535 228.059 193.712 232.238 192.952C228.029 193.534 223.956 195.197 220.511 197.764L220.84 198.186Z" fill="#404040"/>
</g>
<path d="M29 120.573C49.2349 118.77 69.7497 119.317 90.0448 118.581C99.6324 118.234 101.466 118.104 109.963 117.659C111.341 117.587 117.478 116.527 119.295 117.253C120.813 117.861 116.136 118.099 114.573 118.581C113.089 119.039 99.217 122.611 108.819 125.221C115.623 127.07 129.342 127.412 135.487 127.655C144.438 128.009 153.491 128.313 162.45 128.54" stroke="white" stroke-width="3" stroke-linecap="round"/>
</g>
<defs>
<clipPath id="clip0_1142_5923">
<rect width="540" height="200" rx="20" fill="white"/>
</clipPath>
<clipPath id="clip1_1142_5923">
<rect width="143.37" height="175.397" fill="white" transform="translate(345.905 12) rotate(5.24824)"/>
</clipPath>
<clipPath id="clip2_1142_5923">
<rect width="161.358" height="161.358" fill="white" transform="translate(342.234 17.5013) rotate(5.24824)"/>
</clipPath>
<clipPath id="clip3_1142_5923">
<rect width="53" height="64" fill="white" transform="translate(14 162)"/>
</clipPath>
<clipPath id="clip4_1142_5923">
<rect width="51.7849" height="61.8151" fill="white" transform="matrix(-1 0 0 1 245.785 171)"/>
</clipPath>
</defs>
</svg>
