<svg width="426" height="260" viewBox="0 0 426 260" fill="none" xmlns="http://www.w3.org/2000/svg">
<g clip-path="url(#clip0_170_410)">
<rect width="426" height="260" rx="20" fill="#748A5B"/>
<path d="M331.884 99.3636C238.083 95.7679 229.464 -30.8554 264.663 -68.5528L610.05 -145.468L697.792 248.539L513.44 289.593C336.374 329.024 352.795 209.315 386.372 172.327C419.949 135.34 425.684 102.959 331.884 99.3636Z" stroke="#FFFAFC" stroke-width="2" stroke-dasharray="11 11"/>
<path d="M459.118 85.4056C445.13 150.703 530.871 178.837 563.026 161.178L676.654 -63.4539L420.555 -193L359.905 -73.1014C301.653 42.0581 387.024 51.718 418.405 35.0527C449.786 18.3875 473.106 20.1086 459.118 85.4056Z" stroke="#FFFAFC" stroke-width="2" stroke-dasharray="11 11"/>
<rect x="20" y="40" width="258" height="47" rx="10" fill="white"/>
<path d="M44.4 71V68.74C44.7067 68.76 44.9667 68.7333 45.18 68.66C45.3933 68.5867 45.5733 68.4533 45.72 68.26C45.8733 68.06 46.0067 67.7867 46.12 67.44C46.2333 67.0867 46.34 66.6467 46.44 66.12C46.6 65.2867 46.7333 64.41 46.84 63.49C46.9533 62.5633 47.0467 61.6567 47.12 60.77C47.1933 59.8833 47.25 59.0767 47.29 58.35C47.33 57.6167 47.36 57.0333 47.38 56.6H57.2V71H54.48V59.14H49.88C49.8533 59.5133 49.8167 60 49.77 60.6C49.73 61.2 49.6733 61.8633 49.6 62.59C49.5267 63.3167 49.4367 64.07 49.33 64.85C49.2233 65.63 49.0933 66.3867 48.94 67.12C48.8 67.8333 48.63 68.4667 48.43 69.02C48.23 69.5667 47.9633 70.0167 47.63 70.37C47.3033 70.7167 46.88 70.9467 46.36 71.06C45.84 71.1733 45.1867 71.1533 44.4 71ZM69.7494 71.3C68.9227 71.3 68.166 71.1333 67.4794 70.8C66.7927 70.46 66.216 69.9667 65.7494 69.32C65.2827 68.6733 64.9694 67.8867 64.8094 66.96H62.7094V71H59.9894V60.2H62.7094V64.24H64.8094C64.9694 63.3 65.2827 62.51 65.7494 61.87C66.2227 61.2233 66.806 60.7333 67.4994 60.4C68.1994 60.0667 68.9694 59.9 69.8094 59.9C70.876 59.9 71.816 60.1467 72.6294 60.64C73.4427 61.1267 74.0794 61.8 74.5394 62.66C74.9994 63.5133 75.2294 64.4867 75.2294 65.58C75.2294 66.7067 74.996 67.7 74.5294 68.56C74.0627 69.42 73.416 70.0933 72.5894 70.58C71.7694 71.06 70.8227 71.3 69.7494 71.3ZM69.7294 68.76C70.6094 68.76 71.266 68.4667 71.6994 67.88C72.1327 67.2867 72.3494 66.5267 72.3494 65.6C72.3494 64.6267 72.1294 63.8567 71.6894 63.29C71.256 62.7233 70.6027 62.44 69.7294 62.44C68.8494 62.44 68.2027 62.73 67.7894 63.31C67.376 63.89 67.1694 64.6467 67.1694 65.58C67.1694 66.56 67.386 67.3367 67.8194 67.91C68.2527 68.4767 68.8894 68.76 69.7294 68.76ZM81.9813 71.32C80.9413 71.3067 80.0613 71.0767 79.3413 70.63C78.6213 70.1767 78.0546 69.5533 77.6413 68.76C77.2346 67.96 76.9813 67.0333 76.8813 65.98C76.8279 65.4133 76.8146 64.7767 76.8413 64.07C76.8746 63.3567 76.9513 62.6567 77.0713 61.97C77.1913 61.2833 77.3613 60.6933 77.5813 60.2C77.7946 59.74 78.0679 59.32 78.4013 58.94C78.7413 58.5533 79.1013 58.2267 79.4813 57.96C79.9279 57.6467 80.4079 57.4067 80.9213 57.24C81.4346 57.0667 81.9746 56.9333 82.5413 56.84C83.1079 56.7467 83.6946 56.6633 84.3013 56.59C84.9146 56.5167 85.5346 56.42 86.1613 56.3L86.4013 58.7C86.0213 58.8 85.5879 58.8733 85.1013 58.92C84.6146 58.9667 84.1146 59.0167 83.6013 59.07C83.0879 59.1167 82.5979 59.1933 82.1313 59.3C81.6646 59.4067 81.2613 59.5667 80.9213 59.78C80.4613 60.0667 80.1079 60.4667 79.8613 60.98C79.6213 61.4867 79.4813 62 79.4413 62.52C79.8546 61.92 80.3579 61.5067 80.9513 61.28C81.5513 61.0533 82.1413 60.94 82.7213 60.94C83.6746 60.94 84.4913 61.17 85.1713 61.63C85.8579 62.0833 86.3846 62.6967 86.7513 63.47C87.1179 64.2367 87.3013 65.0867 87.3013 66.02C87.3013 67.08 87.0713 68.01 86.6113 68.81C86.1579 69.61 85.5313 70.2333 84.7313 70.68C83.9313 71.12 83.0146 71.3333 81.9813 71.32ZM82.1013 68.78C82.8746 68.78 83.4579 68.54 83.8513 68.06C84.2446 67.58 84.4413 66.94 84.4413 66.14C84.4413 65.32 84.2379 64.6767 83.8313 64.21C83.4313 63.7367 82.8546 63.5 82.1013 63.5C81.3346 63.5 80.7513 63.7367 80.3513 64.21C79.9579 64.6767 79.7613 65.32 79.7613 66.14C79.7613 66.9867 79.9646 67.64 80.3713 68.1C80.7779 68.5533 81.3546 68.78 82.1013 68.78ZM94.3616 71.3C93.2749 71.3 92.3216 71.0567 91.5016 70.57C90.6816 70.0833 90.0416 69.4133 89.5816 68.56C89.1282 67.7 88.9016 66.7133 88.9016 65.6C88.9016 64.4733 89.1349 63.4833 89.6016 62.63C90.0682 61.77 90.7116 61.1 91.5316 60.62C92.3516 60.14 93.2949 59.9 94.3616 59.9C95.4482 59.9 96.4016 60.1433 97.2216 60.63C98.0482 61.1167 98.6916 61.79 99.1516 62.65C99.6116 63.5033 99.8416 64.4867 99.8416 65.6C99.8416 66.72 99.6082 67.71 99.1416 68.57C98.6816 69.4233 98.0382 70.0933 97.2116 70.58C96.3916 71.06 95.4416 71.3 94.3616 71.3ZM94.3616 68.76C95.2349 68.76 95.8849 68.4667 96.3116 67.88C96.7449 67.2867 96.9616 66.5267 96.9616 65.6C96.9616 64.64 96.7416 63.8733 96.3016 63.3C95.8682 62.7267 95.2216 62.44 94.3616 62.44C93.7682 62.44 93.2816 62.5733 92.9016 62.84C92.5216 63.1067 92.2382 63.4767 92.0516 63.95C91.8716 64.4233 91.7816 64.9733 91.7816 65.6C91.7816 66.5667 91.9982 67.3367 92.4316 67.91C92.8716 68.4767 93.5149 68.76 94.3616 68.76ZM107.061 71.3C105.954 71.3 104.977 71.0633 104.131 70.59C103.291 70.11 102.631 69.4533 102.151 68.62C101.677 67.78 101.441 66.82 101.441 65.74C101.441 64.56 101.674 63.5333 102.141 62.66C102.607 61.7867 103.251 61.11 104.071 60.63C104.891 60.1433 105.834 59.9 106.901 59.9C108.034 59.9 108.997 60.1667 109.791 60.7C110.584 61.2333 111.171 61.9833 111.551 62.95C111.931 63.9167 112.064 65.0533 111.951 66.36H109.261V65.36C109.261 64.26 109.084 63.47 108.731 62.99C108.384 62.5033 107.814 62.26 107.021 62.26C106.094 62.26 105.411 62.5433 104.971 63.11C104.537 63.67 104.321 64.5 104.321 65.6C104.321 66.6067 104.537 67.3867 104.971 67.94C105.411 68.4867 106.054 68.76 106.901 68.76C107.434 68.76 107.891 68.6433 108.271 68.41C108.651 68.1767 108.941 67.84 109.141 67.4L111.861 68.18C111.454 69.1667 110.811 69.9333 109.931 70.48C109.057 71.0267 108.101 71.3 107.061 71.3ZM103.481 66.36V64.34H110.641V66.36H103.481ZM118.193 71V60.2H120.393L124.153 67.2L127.913 60.2H130.113V71H127.513V65.62L124.633 71H123.673L120.793 65.62V71H118.193ZM137.94 71.3C136.833 71.3 135.856 71.0633 135.01 70.59C134.17 70.11 133.51 69.4533 133.03 68.62C132.556 67.78 132.32 66.82 132.32 65.74C132.32 64.56 132.553 63.5333 133.02 62.66C133.486 61.7867 134.13 61.11 134.95 60.63C135.77 60.1433 136.713 59.9 137.78 59.9C138.913 59.9 139.876 60.1667 140.67 60.7C141.463 61.2333 142.05 61.9833 142.43 62.95C142.81 63.9167 142.943 65.0533 142.83 66.36H140.14V65.36C140.14 64.26 139.963 63.47 139.61 62.99C139.263 62.5033 138.693 62.26 137.9 62.26C136.973 62.26 136.29 62.5433 135.85 63.11C135.416 63.67 135.2 64.5 135.2 65.6C135.2 66.6067 135.416 67.3867 135.85 67.94C136.29 68.4867 136.933 68.76 137.78 68.76C138.313 68.76 138.77 68.6433 139.15 68.41C139.53 68.1767 139.82 67.84 140.02 67.4L142.74 68.18C142.333 69.1667 141.69 69.9333 140.81 70.48C139.936 71.0267 138.98 71.3 137.94 71.3ZM134.36 66.36V64.34H141.52V66.36H134.36ZM150.388 71.3C149.314 71.3 148.418 71.05 147.698 70.55C146.978 70.05 146.434 69.37 146.068 68.51C145.708 67.65 145.528 66.68 145.528 65.6C145.528 64.52 145.708 63.55 146.068 62.69C146.428 61.83 146.958 61.15 147.658 60.65C148.358 60.15 149.221 59.9 150.248 59.9C151.281 59.9 152.181 60.1467 152.948 60.64C153.714 61.1333 154.308 61.81 154.728 62.67C155.154 63.5233 155.368 64.5 155.368 65.6C155.368 66.68 155.158 67.65 154.738 68.51C154.324 69.37 153.744 70.05 152.998 70.55C152.251 71.05 151.381 71.3 150.388 71.3ZM145.068 75.8V60.2H147.468V67.6H147.808V75.8H145.068ZM149.948 68.88C150.534 68.88 151.014 68.7333 151.388 68.44C151.761 68.1467 152.038 67.7533 152.218 67.26C152.398 66.76 152.488 66.2067 152.488 65.6C152.488 65 152.394 64.4533 152.208 63.96C152.021 63.46 151.731 63.0633 151.338 62.77C150.951 62.47 150.454 62.32 149.848 62.32C149.281 62.32 148.821 62.4567 148.468 62.73C148.121 63.0033 147.868 63.3867 147.708 63.88C147.548 64.3733 147.468 64.9467 147.468 65.6C147.468 66.2533 147.548 66.8267 147.708 67.32C147.868 67.8133 148.128 68.1967 148.488 68.47C148.854 68.7433 149.341 68.88 149.948 68.88ZM162.428 71.3C161.341 71.3 160.388 71.0567 159.568 70.57C158.748 70.0833 158.108 69.4133 157.648 68.56C157.195 67.7 156.968 66.7133 156.968 65.6C156.968 64.4733 157.201 63.4833 157.668 62.63C158.135 61.77 158.778 61.1 159.598 60.62C160.418 60.14 161.361 59.9 162.428 59.9C163.515 59.9 164.468 60.1433 165.288 60.63C166.115 61.1167 166.758 61.79 167.218 62.65C167.678 63.5033 167.908 64.4867 167.908 65.6C167.908 66.72 167.675 67.71 167.208 68.57C166.748 69.4233 166.105 70.0933 165.278 70.58C164.458 71.06 163.508 71.3 162.428 71.3ZM162.428 68.76C163.301 68.76 163.951 68.4667 164.378 67.88C164.811 67.2867 165.028 66.5267 165.028 65.6C165.028 64.64 164.808 63.8733 164.368 63.3C163.935 62.7267 163.288 62.44 162.428 62.44C161.835 62.44 161.348 62.5733 160.968 62.84C160.588 63.1067 160.305 63.4767 160.118 63.95C159.938 64.4233 159.848 64.9733 159.848 65.6C159.848 66.5667 160.065 67.3367 160.498 67.91C160.938 68.4767 161.581 68.76 162.428 68.76ZM170.087 71V60.2H179.727V71H177.007V62.74H172.807V71H170.087ZM187.829 71.3C186.756 71.3 185.859 71.05 185.139 70.55C184.419 70.05 183.876 69.37 183.509 68.51C183.149 67.65 182.969 66.68 182.969 65.6C182.969 64.52 183.149 63.55 183.509 62.69C183.869 61.83 184.399 61.15 185.099 60.65C185.799 60.15 186.662 59.9 187.689 59.9C188.722 59.9 189.622 60.1467 190.389 60.64C191.156 61.1333 191.749 61.81 192.169 62.67C192.596 63.5233 192.809 64.5 192.809 65.6C192.809 66.68 192.599 67.65 192.179 68.51C191.766 69.37 191.186 70.05 190.439 70.55C189.692 71.05 188.822 71.3 187.829 71.3ZM182.509 75.8V60.2H184.909V67.6H185.249V75.8H182.509ZM187.389 68.88C187.976 68.88 188.456 68.7333 188.829 68.44C189.202 68.1467 189.479 67.7533 189.659 67.26C189.839 66.76 189.929 66.2067 189.929 65.6C189.929 65 189.836 64.4533 189.649 63.96C189.462 63.46 189.172 63.0633 188.779 62.77C188.392 62.47 187.896 62.32 187.289 62.32C186.722 62.32 186.262 62.4567 185.909 62.73C185.562 63.0033 185.309 63.3867 185.149 63.88C184.989 64.3733 184.909 64.9467 184.909 65.6C184.909 66.2533 184.989 66.8267 185.149 67.32C185.309 67.8133 185.569 68.1967 185.929 68.47C186.296 68.7433 186.782 68.88 187.389 68.88ZM204.629 60.2V71H202.029V64.4L197.149 71H194.989V60.2H197.589V66.58L202.489 60.2H204.629ZM213.791 71V67.56H212.051C211.825 67.56 211.515 67.5567 211.121 67.55C210.735 67.5367 210.371 67.5 210.031 67.44C209.171 67.2867 208.465 66.9133 207.911 66.32C207.365 65.7267 207.091 64.92 207.091 63.9C207.091 62.9067 207.355 62.1067 207.881 61.5C208.408 60.8933 209.111 60.5067 209.991 60.34C210.351 60.2667 210.721 60.2267 211.101 60.22C211.488 60.2067 211.805 60.2 212.051 60.2H216.511V71H213.791ZM206.831 71L209.271 67H212.071L209.671 71H206.831ZM211.751 65.46H213.791V62.3H211.751C211.631 62.3 211.498 62.3067 211.351 62.32C211.211 62.3333 211.065 62.36 210.911 62.4C210.725 62.4533 210.551 62.5533 210.391 62.7C210.231 62.84 210.101 63.0133 210.001 63.22C209.901 63.42 209.851 63.64 209.851 63.88C209.851 64.26 209.965 64.5833 210.191 64.85C210.418 65.11 210.671 65.28 210.951 65.36C211.091 65.4 211.231 65.4267 211.371 65.44C211.518 65.4533 211.645 65.46 211.751 65.46ZM221.946 71V62.6H218.406V60.2H228.206V62.6H224.666V71H221.946ZM239.727 60.2V71H237.127V64.4L232.247 71H230.087V60.2H232.687V66.58L237.587 60.2H239.727ZM247.549 71.3C246.442 71.3 245.466 71.0633 244.619 70.59C243.779 70.11 243.119 69.4533 242.639 68.62C242.166 67.78 241.929 66.82 241.929 65.74C241.929 64.56 242.162 63.5333 242.629 62.66C243.096 61.7867 243.739 61.11 244.559 60.63C245.379 60.1433 246.322 59.9 247.389 59.9C248.522 59.9 249.486 60.1667 250.279 60.7C251.072 61.2333 251.659 61.9833 252.039 62.95C252.419 63.9167 252.552 65.0533 252.439 66.36H249.749V65.36C249.749 64.26 249.572 63.47 249.219 62.99C248.872 62.5033 248.302 62.26 247.509 62.26C246.582 62.26 245.899 62.5433 245.459 63.11C245.026 63.67 244.809 64.5 244.809 65.6C244.809 66.6067 245.026 67.3867 245.459 67.94C245.899 68.4867 246.542 68.76 247.389 68.76C247.922 68.76 248.379 68.6433 248.759 68.41C249.139 68.1767 249.429 67.84 249.629 67.4L252.349 68.18C251.942 69.1667 251.299 69.9333 250.419 70.48C249.546 71.0267 248.589 71.3 247.549 71.3ZM243.969 66.36V64.34H251.129V66.36H243.969Z" fill="#748A5B"/>
<path d="M20.66 128.64V123.206C21.1367 123.206 21.54 123.089 21.87 122.854C22.2073 122.612 22.4823 122.275 22.695 121.842C22.9077 121.402 23.0763 120.889 23.201 120.302C23.3257 119.715 23.4173 119.077 23.476 118.388C23.5493 117.508 23.6153 116.643 23.674 115.792C23.7327 114.934 23.7913 114.047 23.85 113.13C23.9087 112.206 23.9747 111.209 24.048 110.138L34.564 110.16V123.206H35.774V128.64H32.782V126H23.652V128.64H20.66ZM25.126 123.206H31.572V112.954L26.776 112.932C26.7247 113.658 26.6807 114.325 26.644 114.934C26.6147 115.543 26.578 116.159 26.534 116.782C26.49 117.405 26.4313 118.102 26.358 118.872C26.2847 119.642 26.2113 120.276 26.138 120.775C26.0647 121.266 25.951 121.695 25.797 122.062C25.6503 122.429 25.4267 122.81 25.126 123.206ZM44.9884 126.33C43.4044 126.33 42.0367 125.985 40.8854 125.296C39.7414 124.607 38.8577 123.642 38.2344 122.403C37.6184 121.164 37.3104 119.723 37.3104 118.08C37.3104 116.437 37.6184 114.996 38.2344 113.757C38.8577 112.518 39.7414 111.553 40.8854 110.864C42.0367 110.175 43.4044 109.83 44.9884 109.83C46.5724 109.83 47.9364 110.175 49.0804 110.864C50.2317 111.553 51.1154 112.518 51.7314 113.757C52.3547 114.996 52.6664 116.437 52.6664 118.08C52.6664 119.723 52.3547 121.164 51.7314 122.403C51.1154 123.642 50.2317 124.607 49.0804 125.296C47.9364 125.985 46.5724 126.33 44.9884 126.33ZM44.9884 123.514C45.9931 123.529 46.8291 123.312 47.4964 122.865C48.1637 122.418 48.6624 121.783 48.9924 120.962C49.3297 120.141 49.4984 119.18 49.4984 118.08C49.4984 116.98 49.3297 116.027 48.9924 115.22C48.6624 114.413 48.1637 113.786 47.4964 113.339C46.8291 112.892 45.9931 112.661 44.9884 112.646C43.9837 112.631 43.1477 112.848 42.4804 113.295C41.8131 113.742 41.3107 114.377 40.9734 115.198C40.6434 116.019 40.4784 116.98 40.4784 118.08C40.4784 119.18 40.6434 120.133 40.9734 120.94C41.3107 121.747 41.8131 122.374 42.4804 122.821C43.1477 123.268 43.9837 123.499 44.9884 123.514ZM58.8266 125.978V123.382L65.4706 117.486C65.9692 117.046 66.3212 116.632 66.5266 116.243C66.7319 115.854 66.8346 115.491 66.8346 115.154C66.8346 114.67 66.7356 114.241 66.5376 113.867C66.3396 113.486 66.0609 113.189 65.7016 112.976C65.3422 112.756 64.9206 112.646 64.4366 112.646C63.9306 112.646 63.4832 112.763 63.0946 112.998C62.7132 113.225 62.4162 113.53 62.2036 113.911C61.9909 114.285 61.8919 114.692 61.9066 115.132H58.8266C58.8266 114.047 59.0649 113.108 59.5416 112.316C60.0182 111.524 60.6819 110.912 61.5326 110.479C62.3832 110.046 63.3732 109.83 64.5026 109.83C65.5366 109.83 66.4606 110.057 67.2746 110.512C68.0959 110.959 68.7412 111.586 69.2106 112.393C69.6799 113.2 69.9146 114.135 69.9146 115.198C69.9146 115.983 69.8046 116.635 69.5846 117.156C69.3646 117.669 69.0382 118.146 68.6056 118.586C68.1729 119.019 67.6412 119.51 67.0106 120.06L62.7206 123.822L62.4786 123.162H69.9146V125.978H58.8266ZM78.4179 126.33C77.2446 126.33 76.2179 126.084 75.3379 125.593C74.4579 125.102 73.7722 124.416 73.2809 123.536C72.7896 122.656 72.5439 121.629 72.5439 120.456V115.704C72.5439 114.531 72.7896 113.504 73.2809 112.624C73.7722 111.744 74.4579 111.058 75.3379 110.567C76.2179 110.076 77.2446 109.83 78.4179 109.83C79.5912 109.83 80.6179 110.076 81.4979 110.567C82.3779 111.058 83.0636 111.744 83.5549 112.624C84.0462 113.504 84.2919 114.531 84.2919 115.704V120.456C84.2919 121.629 84.0462 122.656 83.5549 123.536C83.0636 124.416 82.3779 125.102 81.4979 125.593C80.6179 126.084 79.5912 126.33 78.4179 126.33ZM78.4179 123.492C78.9459 123.492 79.4226 123.367 79.8479 123.118C80.2732 122.869 80.6106 122.531 80.8599 122.106C81.1092 121.681 81.2339 121.204 81.2339 120.676V115.462C81.2339 114.934 81.1092 114.457 80.8599 114.032C80.6106 113.607 80.2732 113.269 79.8479 113.02C79.4226 112.771 78.9459 112.646 78.4179 112.646C77.8899 112.646 77.4132 112.771 76.9879 113.02C76.5626 113.269 76.2252 113.607 75.9759 114.032C75.7266 114.457 75.6019 114.934 75.6019 115.462V120.676C75.6019 121.204 75.7266 121.681 75.9759 122.106C76.2252 122.531 76.5626 122.869 76.9879 123.118C77.4132 123.367 77.8899 123.492 78.4179 123.492ZM100.77 126V119.092L101.188 119.774C100.785 120.133 100.209 120.412 99.4614 120.61C98.7208 120.801 97.9471 120.896 97.1404 120.896C95.8204 120.896 94.7681 120.636 93.9834 120.115C93.1988 119.587 92.6341 118.861 92.2894 117.937C91.9448 117.006 91.7724 115.931 91.7724 114.714V110.16H94.8084V113.812C94.8084 114.289 94.8268 114.776 94.8634 115.275C94.9001 115.774 95.0064 116.236 95.1824 116.661C95.3658 117.086 95.6664 117.431 96.0844 117.695C96.5024 117.952 97.0891 118.08 97.8444 118.08C98.6584 118.08 99.3478 117.941 99.9124 117.662C100.477 117.376 100.873 117.075 101.1 116.76L100.77 118.102V110.16H103.784V126H100.77ZM106.854 126V110.16H117.194V112.954H109.846V116.342H115.874V119.136H109.846V123.206H117.194V126H106.854ZM118.731 126V123.514C119.068 123.536 119.354 123.507 119.589 123.426C119.824 123.345 120.022 123.199 120.183 122.986C120.352 122.766 120.498 122.465 120.623 122.084C120.748 121.695 120.865 121.211 120.975 120.632C121.151 119.715 121.298 118.751 121.415 117.739C121.54 116.72 121.642 115.722 121.723 114.747C121.804 113.772 121.866 112.884 121.91 112.085C121.954 111.278 121.987 110.637 122.009 110.16H132.811V126H129.819V112.954H124.759C124.73 113.365 124.689 113.9 124.638 114.56C124.594 115.22 124.532 115.95 124.451 116.749C124.37 117.548 124.271 118.377 124.154 119.235C124.037 120.093 123.894 120.925 123.725 121.732C123.571 122.517 123.384 123.213 123.164 123.822C122.944 124.423 122.651 124.918 122.284 125.307C121.925 125.688 121.459 125.941 120.887 126.066C120.315 126.191 119.596 126.169 118.731 126ZM142.699 126.33C141.115 126.33 139.748 125.985 138.596 125.296C137.452 124.607 136.569 123.642 135.945 122.403C135.329 121.164 135.021 119.723 135.021 118.08C135.021 116.437 135.329 114.996 135.945 113.757C136.569 112.518 137.452 111.553 138.596 110.864C139.748 110.175 141.115 109.83 142.699 109.83C144.283 109.83 145.647 110.175 146.791 110.864C147.943 111.553 148.826 112.518 149.442 113.757C150.066 114.996 150.377 116.437 150.377 118.08C150.377 119.723 150.066 121.164 149.442 122.403C148.826 123.642 147.943 124.607 146.791 125.296C145.647 125.985 144.283 126.33 142.699 126.33ZM142.699 123.514C143.704 123.529 144.54 123.312 145.207 122.865C145.875 122.418 146.373 121.783 146.703 120.962C147.041 120.141 147.209 119.18 147.209 118.08C147.209 116.98 147.041 116.027 146.703 115.22C146.373 114.413 145.875 113.786 145.207 113.339C144.54 112.892 143.704 112.661 142.699 112.646C141.695 112.631 140.859 112.848 140.191 113.295C139.524 113.742 139.022 114.377 138.684 115.198C138.354 116.019 138.189 116.98 138.189 118.08C138.189 119.18 138.354 120.133 138.684 120.94C139.022 121.747 139.524 122.374 140.191 122.821C140.859 123.268 141.695 123.499 142.699 123.514ZM152.573 126V110.16H158.909C160.039 110.16 160.952 110.387 161.648 110.842C162.345 111.289 162.855 111.854 163.177 112.536C163.5 113.218 163.661 113.907 163.661 114.604C163.661 115.491 163.46 116.228 163.056 116.815C162.66 117.402 162.114 117.794 161.417 117.992V117.442C162.407 117.647 163.148 118.106 163.639 118.817C164.138 119.528 164.387 120.324 164.387 121.204C164.387 122.15 164.211 122.982 163.859 123.701C163.515 124.42 162.987 124.984 162.275 125.395C161.564 125.798 160.669 126 159.591 126H152.573ZM155.609 123.184H159.283C159.687 123.184 160.046 123.1 160.361 122.931C160.677 122.755 160.922 122.513 161.098 122.205C161.282 121.89 161.373 121.519 161.373 121.094C161.373 120.72 161.296 120.386 161.142 120.093C160.988 119.8 160.754 119.569 160.438 119.4C160.13 119.224 159.745 119.136 159.283 119.136H155.609V123.184ZM155.609 116.342H158.865C159.203 116.342 159.503 116.283 159.767 116.166C160.031 116.049 160.24 115.869 160.394 115.627C160.548 115.378 160.625 115.059 160.625 114.67C160.625 114.186 160.475 113.779 160.174 113.449C159.874 113.119 159.437 112.954 158.865 112.954H155.609V116.342ZM166.581 126V110.16H176.921V112.954H169.573V116.342H175.601V119.136H169.573V123.206H176.921V126H166.581ZM179.558 126V110.16H182.55V117.464L188.578 110.16H192.23L185.608 117.97L192.648 126H188.864L182.55 118.784V126H179.558Z" fill="white"/>
<g clip-path="url(#clip1_170_410)">
<g clip-path="url(#clip2_170_410)">
<path d="M379.819 233.414C381.984 232.944 384.007 231.97 385.723 230.57L393.483 224.116C395.662 223.993 397.709 223.031 399.192 221.43C400.676 219.83 401.481 217.717 401.439 215.535C401.333 213.357 400.425 211.295 398.89 209.747C397.354 208.199 395.3 207.275 393.123 207.152L372.753 205.281C372.382 205.247 372.039 205.067 371.801 204.78C371.563 204.494 371.448 204.125 371.482 203.754L372.382 193.96C372.402 193.662 372.525 193.379 372.731 193.161C372.936 192.943 373.21 192.804 373.507 192.766C378.159 191.785 382.38 189.355 385.564 185.825C388.747 182.294 390.73 177.845 391.226 173.118L391.484 170.319C391.62 168.835 391.161 167.358 390.208 166.212C389.255 165.066 387.886 164.346 386.401 164.209C384.917 164.073 383.44 164.532 382.294 165.485C381.148 166.438 380.427 167.807 380.291 169.291L380.034 172.089C379.879 173.682 379.385 175.223 378.586 176.61C377.787 177.996 376.702 179.196 375.402 180.129C374.801 180.525 373.667 179.97 373.667 179.97L374.695 168.777C374.831 167.293 374.372 165.816 373.419 164.67C372.466 163.524 371.097 162.803 369.613 162.667C368.129 162.531 366.651 162.99 365.505 163.943C364.359 164.896 363.639 166.265 363.503 167.749L362.474 178.942C362.474 178.942 361.202 179.276 360.74 178.782C359.631 177.628 358.782 176.25 358.249 174.742C357.717 173.233 357.512 171.628 357.649 170.033L357.906 167.235C358.043 165.751 357.584 164.273 356.631 163.127C355.678 161.982 354.308 161.261 352.824 161.125C351.34 160.989 349.862 161.447 348.716 162.401C347.571 163.354 346.85 164.723 346.714 166.207L346.457 169.005C346.033 173.778 347.145 178.562 349.632 182.659C352.119 186.755 355.849 189.95 360.28 191.776C360.531 191.854 360.752 192.006 360.915 192.212C361.077 192.419 361.173 192.67 361.189 192.932L360.31 202.502C360.276 202.873 360.096 203.215 359.81 203.453C359.523 203.692 359.154 203.806 358.783 203.772L288.047 197.275C285.849 197.002 283.629 197.565 281.828 198.853C280.027 200.14 278.775 202.058 278.322 204.226C277.883 206.363 278.29 208.588 279.457 210.432C280.624 212.276 282.461 213.595 284.581 214.112L291.137 221.995C292.57 223.684 294.382 225.011 296.425 225.866C296.603 225.934 296.765 226.037 296.902 226.17C297.039 226.302 297.148 226.461 297.221 226.637C297.295 226.812 297.332 227.001 297.331 227.191C297.329 227.382 297.289 227.57 297.212 227.744L280.186 262.581C279.798 263.388 279.609 264.277 279.635 265.173C279.661 266.069 279.9 266.945 280.333 267.73C280.804 268.554 281.475 269.247 282.285 269.742C283.096 270.237 284.018 270.518 284.967 270.561C285.915 270.603 286.859 270.404 287.71 269.982C288.561 269.561 289.291 268.931 289.832 268.151L316.784 229.091C316.925 228.881 317.12 228.713 317.348 228.605C317.577 228.497 317.83 228.453 318.082 228.476L357.927 232.136C358.179 232.159 358.42 232.249 358.624 232.397C358.829 232.545 358.991 232.745 359.091 232.977L378.476 276.293C378.882 277.202 379.523 277.987 380.333 278.567C381.142 279.147 382.091 279.502 383.083 279.594C383.977 279.667 384.876 279.525 385.704 279.179C386.532 278.833 387.266 278.294 387.843 277.606C388.42 276.919 388.824 276.103 389.021 275.228C389.218 274.352 389.203 273.442 388.976 272.574L378.703 235.117C378.659 234.932 378.654 234.739 378.687 234.552C378.72 234.364 378.791 234.185 378.895 234.026C379 233.867 379.135 233.73 379.294 233.625C379.453 233.52 379.631 233.448 379.819 233.414Z" fill="white"/>
<path d="M295.033 191.258C295.257 191.665 295.579 192.011 295.969 192.263C296.36 192.516 296.807 192.667 297.27 192.705L323.348 195.1C323.811 195.148 324.278 195.08 324.708 194.903C325.138 194.726 325.517 194.445 325.812 194.085L333.137 184.995C333.706 184.189 334.053 183.248 334.144 182.265C334.234 181.283 334.064 180.294 333.651 179.398C333.257 178.461 332.617 177.648 331.797 177.046C330.978 176.444 330.011 176.076 328.999 175.98L294.918 172.849C293.936 172.734 292.94 172.879 292.032 173.272C291.124 173.664 290.336 174.289 289.746 175.083C289.217 175.917 288.916 176.876 288.875 177.863C288.834 178.85 289.054 179.83 289.512 180.705L295.033 191.258Z" fill="white"/>
<path d="M353.338 155.529C354.823 155.666 356.3 155.207 357.446 154.254C358.592 153.301 359.312 151.931 359.449 150.447C359.313 147.768 358.46 145.175 356.978 142.94C356.712 142.549 356.363 142.222 355.956 141.982C355.548 141.742 355.093 141.595 354.622 141.552C354.152 141.509 353.677 141.57 353.233 141.732C352.789 141.894 352.386 142.152 352.053 142.488C350.188 144.383 348.844 146.729 348.155 149.297C348.07 150.049 348.139 150.811 348.356 151.536C348.573 152.261 348.935 152.935 349.419 153.517C349.903 154.099 350.5 154.578 351.173 154.923C351.847 155.269 352.583 155.475 353.338 155.529Z" fill="white"/>
<path d="M370.127 157.071C371.611 157.208 373.088 156.749 374.234 155.796C375.38 154.843 376.1 153.473 376.237 151.989C376.102 149.311 375.248 146.718 373.766 144.482C373.5 144.091 373.151 143.764 372.744 143.524C372.337 143.284 371.881 143.137 371.41 143.094C370.94 143.051 370.465 143.112 370.021 143.274C369.577 143.436 369.174 143.694 368.841 144.03C366.976 145.925 365.633 148.271 364.943 150.839C364.858 151.591 364.927 152.353 365.144 153.078C365.361 153.804 365.723 154.477 366.207 155.06C366.691 155.642 367.288 156.12 367.961 156.466C368.635 156.811 369.371 157.017 370.127 157.071Z" fill="white"/>
<path d="M386.916 158.614C388.4 158.75 389.877 158.291 391.023 157.338C392.169 156.385 392.89 155.016 393.026 153.531C392.891 150.853 392.037 148.26 390.555 146.024C390.289 145.634 389.94 145.306 389.533 145.066C389.126 144.826 388.67 144.679 388.2 144.636C387.729 144.593 387.254 144.654 386.81 144.816C386.366 144.978 385.963 145.236 385.63 145.572C383.765 147.467 382.422 149.813 381.732 152.381C381.647 153.134 381.716 153.895 381.933 154.62C382.15 155.346 382.512 156.02 382.996 156.602C383.48 157.184 384.077 157.662 384.75 158.008C385.424 158.354 386.16 158.56 386.916 158.614Z" fill="white"/>
</g>
</g>
<g clip-path="url(#clip3_170_410)">
<path d="M31.5685 249.253C32.8963 249.278 34.219 249.019 35.5467 249.059C36.8744 249.094 38.2866 249.487 39.1121 250.526C40.7531 252.59 39.2265 255.663 39.7934 258.239C40.1912 260.044 41.683 261.511 43.4384 262.097C45.1937 262.684 47.1579 262.46 48.8486 261.715C50.0421 261.187 51.3947 260.402 52.5384 261.028C53.518 261.56 53.7517 262.858 53.7119 263.972C53.6722 265.086 53.4832 266.275 54.0053 267.259C54.8457 268.85 57.0635 269.064 58.8139 268.642C60.5643 268.219 62.2799 267.374 64.0651 267.582C65.1193 267.707 66.0989 268.199 67.1382 268.413C68.1775 268.627 69.5947 269.88 70.2064 269.015C70.9224 268.547 71.1412 266.2 71.2456 265.32C71.37 264.266 71.2059 263.182 71.4197 262.142C71.7777 260.382 73.1203 259.014 74.0652 257.488C75.01 255.961 75.5023 253.788 74.2541 252.49C73.4834 251.685 72.2949 251.496 71.2208 251.182C70.1516 250.874 68.993 250.243 68.7891 249.144C68.5554 247.861 69.724 246.821 70.5992 245.852C71.8374 244.479 72.6629 242.684 72.6529 240.834C72.643 238.984 71.7181 237.11 70.1268 236.165C67.8592 234.822 64.4579 235.31 63.0109 233.107C62.2799 231.998 62.3495 230.531 62.7324 229.258C63.1153 227.985 63.7717 226.811 64.1645 225.543C64.7861 223.529 64.7016 221.272 63.7468 219.397C62.7871 217.522 60.9223 216.09 58.8288 215.842C57.158 215.643 55.4225 216.17 53.8014 215.727C51.4643 215.096 50.0769 212.669 49.4851 210.322C48.8884 207.98 48.8188 205.488 47.8591 203.266C46.8993 201.043 44.6318 199.084 42.2648 199.591C39.5398 200.173 37.8988 203.693 35.1141 203.594C32.6576 203.504 31.3696 200.744 29.6143 199.024C26.5262 195.991 20.7728 196.438 18.187 199.904C16.4217 202.177 15.8996 205.528 17.1875 208.139C18.2765 210.347 20.4944 212.43 19.8081 214.792C19.0324 217.468 16.2129 218.507 14.8056 220.914C13.5873 223.002 13.6967 225.19 15.5117 226.796C17.3218 228.403 19.6639 229.248 21.7077 230.546C23.7465 231.844 25.6212 233.922 25.4919 236.334C25.4024 238.015 24.3631 239.497 24.025 241.148C23.6073 243.211 24.383 245.434 25.8649 246.931C27.3467 248.428 29.4651 249.213 31.5735 249.253H31.5685Z" fill="#FFFAFC"/>
<path d="M54.8357 244.788C54.1346 240.551 55.1987 236.105 57.6751 232.699C55.3728 236.225 54.5772 240.64 55.4573 244.673L54.8407 244.793L54.8357 244.788Z" fill="#404040"/>
<path d="M69.9231 269.815C57.6902 247.776 44.5623 228.721 28.6597 211.709C28.6597 211.709 39.4604 222.878 46.626 231.968C54.9503 242.525 71.0369 269.636 71.0369 269.636L69.9181 269.815H69.9231Z" fill="#404040"/>
<path d="M43.3838 229.024C39.5399 225.901 34.8805 223.753 29.9575 222.858C34.9153 223.544 39.7139 225.504 43.7717 228.527L43.3838 229.024Z" fill="#404040"/>
<path d="M61.2257 254.977C57.8791 251.128 53.3589 248.268 48.3862 246.891C53.4136 248.065 58.1078 250.755 61.6932 254.554L61.2257 254.977Z" fill="#404040"/>
</g>
<g clip-path="url(#clip4_170_410)">
<path d="M107.87 259.359C106.743 259.381 105.62 259.161 104.493 259.195C103.366 259.224 102.167 259.558 101.466 260.44C100.073 262.192 101.369 264.801 100.888 266.988C100.55 268.52 99.2836 269.765 97.7934 270.264C96.3032 270.762 94.6358 270.572 93.2004 269.939C92.1873 269.491 91.0391 268.824 90.0681 269.356C89.2365 269.808 89.0381 270.909 89.0718 271.855C89.1056 272.801 89.266 273.81 88.8228 274.645C88.1093 275.996 86.2266 276.178 84.7406 275.819C83.2546 275.46 81.7982 274.743 80.2827 274.92C79.3878 275.025 78.5561 275.443 77.6739 275.625C76.7916 275.806 75.5884 276.87 75.0692 276.136C74.4613 275.739 74.2756 273.746 74.1869 272.999C74.0814 272.104 74.2207 271.184 74.0392 270.302C73.7352 268.807 72.5954 267.646 71.7933 266.35C70.9912 265.054 70.5733 263.209 71.6329 262.108C72.2872 261.424 73.2962 261.263 74.208 260.997C75.1156 260.736 76.0992 260.2 76.2723 259.267C76.4707 258.177 75.4787 257.295 74.7357 256.472C73.6846 255.307 72.9838 253.783 72.9922 252.213C73.0007 250.642 73.7859 249.051 75.1367 248.249C77.0617 247.109 79.9492 247.522 81.1777 245.652C81.7982 244.711 81.7391 243.466 81.4141 242.385C81.089 241.304 80.5318 240.308 80.1983 239.231C79.6706 237.522 79.7424 235.605 80.5529 234.014C81.3676 232.422 82.9507 231.206 84.7279 230.995C86.1464 230.827 87.6197 231.274 88.9959 230.898C90.98 230.362 92.1577 228.302 92.6601 226.31C93.1667 224.321 93.2258 222.206 94.0405 220.319C94.8553 218.432 96.7803 216.769 98.7897 217.2C101.103 217.693 102.496 220.682 104.86 220.598C106.946 220.522 108.039 218.179 109.529 216.718C112.151 214.143 117.035 214.523 119.23 217.466C120.729 219.395 121.172 222.24 120.079 224.456C119.154 226.331 117.271 228.099 117.854 230.105C118.512 232.376 120.906 233.258 122.101 235.301C123.135 237.074 123.042 238.932 121.501 240.295C119.965 241.659 117.976 242.376 116.241 243.478C114.51 244.58 112.919 246.345 113.029 248.392C113.105 249.819 113.987 251.077 114.274 252.478C114.629 254.23 113.97 256.117 112.712 257.388C111.454 258.659 109.656 259.326 107.866 259.359H107.87Z" fill="#FFFAFC"/>
<path d="M88.1176 255.568C88.7129 251.972 87.8095 248.198 85.7072 245.306C87.6617 248.299 88.3371 252.048 87.5899 255.471L88.1134 255.573L88.1176 255.568Z" fill="#404040"/>
<path d="M75.31 276.815C85.6949 258.106 96.8396 241.929 110.34 227.487C110.34 227.487 101.171 236.969 95.0876 244.685C88.0209 253.648 74.3644 276.663 74.3644 276.663L75.3142 276.815H75.31Z" fill="#404040"/>
<path d="M97.8398 242.186C101.103 239.535 105.059 237.712 109.238 236.952C105.029 237.534 100.955 239.198 97.5105 241.764L97.8398 242.186Z" fill="#404040"/>
<path d="M82.6934 264.218C85.5345 260.951 89.3718 258.523 93.5933 257.354C89.3253 258.35 85.3403 260.634 82.2966 263.859L82.6934 264.218Z" fill="#404040"/>
</g>
<path d="M62 143.573C82.2349 141.77 102.75 142.317 123.045 141.581C132.632 141.234 134.466 141.104 142.963 140.659C144.341 140.587 150.478 139.527 152.295 140.253C153.813 140.861 149.136 141.099 147.573 141.581C146.089 142.039 132.217 145.611 141.819 148.221C148.623 150.07 162.342 150.412 168.487 150.655C177.438 151.009 186.491 151.313 195.45 151.54" stroke="white" stroke-width="3" stroke-linecap="round"/>
</g>
<defs>
<clipPath id="clip0_170_410">
<rect width="426" height="260" rx="20" fill="white"/>
</clipPath>
<clipPath id="clip1_170_410">
<rect width="130" height="143.684" fill="white" transform="translate(282.143 130) rotate(5.24824)"/>
</clipPath>
<clipPath id="clip2_170_410">
<rect width="134.874" height="134.874" fill="white" transform="translate(279.075 134.598) rotate(5.24824)"/>
</clipPath>
<clipPath id="clip3_170_410">
<rect width="61" height="72.8151" fill="white" transform="translate(14 197)"/>
</clipPath>
<clipPath id="clip4_170_410">
<rect width="51.7849" height="61.8151" fill="white" transform="matrix(-1 0 0 1 122.785 215)"/>
</clipPath>
</defs>
</svg>
