<svg width="307" height="238" viewBox="0 0 307 238" fill="none" xmlns="http://www.w3.org/2000/svg">
<g clip-path="url(#clip0_1142_4578)">
<rect width="307" height="238" rx="20" fill="#748A5B"/>
<path d="M331.884 99.3636C238.083 95.7679 229.464 -30.8554 264.663 -68.5528L610.05 -145.468L697.792 248.539L513.44 289.593C336.374 329.024 352.795 209.315 386.372 172.327C419.949 135.34 425.684 102.959 331.884 99.3636Z" stroke="#FFFAFC" stroke-width="2" stroke-dasharray="11 11"/>
<path d="M459.118 85.4056C445.13 150.703 530.871 178.837 563.026 161.178L676.655 -63.4539L420.555 -193L359.905 -73.1014C301.653 42.0581 387.024 51.718 418.405 35.0527C449.787 18.3875 473.106 20.1086 459.118 85.4056Z" stroke="#FFFAFC" stroke-width="2" stroke-dasharray="11 11"/>
<rect x="20" y="20" width="258" height="47" rx="10" fill="white"/>
<path d="M44.4 51V48.74C44.7067 48.76 44.9667 48.7333 45.18 48.66C45.3933 48.5867 45.5733 48.4533 45.72 48.26C45.8733 48.06 46.0067 47.7867 46.12 47.44C46.2333 47.0867 46.34 46.6467 46.44 46.12C46.6 45.2867 46.7333 44.41 46.84 43.49C46.9533 42.5633 47.0467 41.6567 47.12 40.77C47.1933 39.8833 47.25 39.0767 47.29 38.35C47.33 37.6167 47.36 37.0333 47.38 36.6H57.2V51H54.48V39.14H49.88C49.8533 39.5133 49.8167 40 49.77 40.6C49.73 41.2 49.6733 41.8633 49.6 42.59C49.5267 43.3167 49.4367 44.07 49.33 44.85C49.2233 45.63 49.0933 46.3867 48.94 47.12C48.8 47.8333 48.63 48.4667 48.43 49.02C48.23 49.5667 47.9633 50.0167 47.63 50.37C47.3033 50.7167 46.88 50.9467 46.36 51.06C45.84 51.1733 45.1867 51.1533 44.4 51ZM69.7494 51.3C68.9227 51.3 68.166 51.1333 67.4794 50.8C66.7927 50.46 66.216 49.9667 65.7494 49.32C65.2827 48.6733 64.9694 47.8867 64.8094 46.96H62.7094V51H59.9894V40.2H62.7094V44.24H64.8094C64.9694 43.3 65.2827 42.51 65.7494 41.87C66.2227 41.2233 66.806 40.7333 67.4994 40.4C68.1994 40.0667 68.9694 39.9 69.8094 39.9C70.876 39.9 71.816 40.1467 72.6294 40.64C73.4427 41.1267 74.0794 41.8 74.5394 42.66C74.9994 43.5133 75.2294 44.4867 75.2294 45.58C75.2294 46.7067 74.996 47.7 74.5294 48.56C74.0627 49.42 73.416 50.0933 72.5894 50.58C71.7694 51.06 70.8227 51.3 69.7494 51.3ZM69.7294 48.76C70.6094 48.76 71.266 48.4667 71.6994 47.88C72.1327 47.2867 72.3494 46.5267 72.3494 45.6C72.3494 44.6267 72.1294 43.8567 71.6894 43.29C71.256 42.7233 70.6027 42.44 69.7294 42.44C68.8494 42.44 68.2027 42.73 67.7894 43.31C67.376 43.89 67.1694 44.6467 67.1694 45.58C67.1694 46.56 67.386 47.3367 67.8194 47.91C68.2527 48.4767 68.8894 48.76 69.7294 48.76ZM81.9813 51.32C80.9413 51.3067 80.0613 51.0767 79.3413 50.63C78.6213 50.1767 78.0546 49.5533 77.6413 48.76C77.2346 47.96 76.9813 47.0333 76.8813 45.98C76.8279 45.4133 76.8146 44.7767 76.8413 44.07C76.8746 43.3567 76.9513 42.6567 77.0713 41.97C77.1913 41.2833 77.3613 40.6933 77.5813 40.2C77.7946 39.74 78.0679 39.32 78.4013 38.94C78.7413 38.5533 79.1013 38.2267 79.4813 37.96C79.9279 37.6467 80.4079 37.4067 80.9213 37.24C81.4346 37.0667 81.9746 36.9333 82.5413 36.84C83.1079 36.7467 83.6946 36.6633 84.3013 36.59C84.9146 36.5167 85.5346 36.42 86.1613 36.3L86.4013 38.7C86.0213 38.8 85.5879 38.8733 85.1013 38.92C84.6146 38.9667 84.1146 39.0167 83.6013 39.07C83.0879 39.1167 82.5979 39.1933 82.1313 39.3C81.6646 39.4067 81.2613 39.5667 80.9213 39.78C80.4613 40.0667 80.1079 40.4667 79.8613 40.98C79.6213 41.4867 79.4813 42 79.4413 42.52C79.8546 41.92 80.3579 41.5067 80.9513 41.28C81.5513 41.0533 82.1413 40.94 82.7213 40.94C83.6746 40.94 84.4913 41.17 85.1713 41.63C85.8579 42.0833 86.3846 42.6967 86.7513 43.47C87.1179 44.2367 87.3013 45.0867 87.3013 46.02C87.3013 47.08 87.0713 48.01 86.6113 48.81C86.1579 49.61 85.5313 50.2333 84.7313 50.68C83.9313 51.12 83.0146 51.3333 81.9813 51.32ZM82.1013 48.78C82.8746 48.78 83.4579 48.54 83.8513 48.06C84.2446 47.58 84.4413 46.94 84.4413 46.14C84.4413 45.32 84.2379 44.6767 83.8313 44.21C83.4313 43.7367 82.8546 43.5 82.1013 43.5C81.3346 43.5 80.7513 43.7367 80.3513 44.21C79.9579 44.6767 79.7613 45.32 79.7613 46.14C79.7613 46.9867 79.9646 47.64 80.3713 48.1C80.7779 48.5533 81.3546 48.78 82.1013 48.78ZM94.3616 51.3C93.2749 51.3 92.3216 51.0567 91.5016 50.57C90.6816 50.0833 90.0416 49.4133 89.5816 48.56C89.1282 47.7 88.9016 46.7133 88.9016 45.6C88.9016 44.4733 89.1349 43.4833 89.6016 42.63C90.0682 41.77 90.7116 41.1 91.5316 40.62C92.3516 40.14 93.2949 39.9 94.3616 39.9C95.4482 39.9 96.4016 40.1433 97.2216 40.63C98.0482 41.1167 98.6916 41.79 99.1516 42.65C99.6116 43.5033 99.8416 44.4867 99.8416 45.6C99.8416 46.72 99.6082 47.71 99.1416 48.57C98.6816 49.4233 98.0382 50.0933 97.2116 50.58C96.3916 51.06 95.4416 51.3 94.3616 51.3ZM94.3616 48.76C95.2349 48.76 95.8849 48.4667 96.3116 47.88C96.7449 47.2867 96.9616 46.5267 96.9616 45.6C96.9616 44.64 96.7416 43.8733 96.3016 43.3C95.8682 42.7267 95.2216 42.44 94.3616 42.44C93.7682 42.44 93.2816 42.5733 92.9016 42.84C92.5216 43.1067 92.2382 43.4767 92.0516 43.95C91.8716 44.4233 91.7816 44.9733 91.7816 45.6C91.7816 46.5667 91.9982 47.3367 92.4316 47.91C92.8716 48.4767 93.5149 48.76 94.3616 48.76ZM107.061 51.3C105.954 51.3 104.977 51.0633 104.131 50.59C103.291 50.11 102.631 49.4533 102.151 48.62C101.677 47.78 101.441 46.82 101.441 45.74C101.441 44.56 101.674 43.5333 102.141 42.66C102.607 41.7867 103.251 41.11 104.071 40.63C104.891 40.1433 105.834 39.9 106.901 39.9C108.034 39.9 108.997 40.1667 109.791 40.7C110.584 41.2333 111.171 41.9833 111.551 42.95C111.931 43.9167 112.064 45.0533 111.951 46.36H109.261V45.36C109.261 44.26 109.084 43.47 108.731 42.99C108.384 42.5033 107.814 42.26 107.021 42.26C106.094 42.26 105.411 42.5433 104.971 43.11C104.537 43.67 104.321 44.5 104.321 45.6C104.321 46.6067 104.537 47.3867 104.971 47.94C105.411 48.4867 106.054 48.76 106.901 48.76C107.434 48.76 107.891 48.6433 108.271 48.41C108.651 48.1767 108.941 47.84 109.141 47.4L111.861 48.18C111.454 49.1667 110.811 49.9333 109.931 50.48C109.057 51.0267 108.101 51.3 107.061 51.3ZM103.481 46.36V44.34H110.641V46.36H103.481ZM118.193 51V40.2H120.393L124.153 47.2L127.913 40.2H130.113V51H127.513V45.62L124.633 51H123.673L120.793 45.62V51H118.193ZM137.94 51.3C136.833 51.3 135.856 51.0633 135.01 50.59C134.17 50.11 133.51 49.4533 133.03 48.62C132.556 47.78 132.32 46.82 132.32 45.74C132.32 44.56 132.553 43.5333 133.02 42.66C133.486 41.7867 134.13 41.11 134.95 40.63C135.77 40.1433 136.713 39.9 137.78 39.9C138.913 39.9 139.876 40.1667 140.67 40.7C141.463 41.2333 142.05 41.9833 142.43 42.95C142.81 43.9167 142.943 45.0533 142.83 46.36H140.14V45.36C140.14 44.26 139.963 43.47 139.61 42.99C139.263 42.5033 138.693 42.26 137.9 42.26C136.973 42.26 136.29 42.5433 135.85 43.11C135.416 43.67 135.2 44.5 135.2 45.6C135.2 46.6067 135.416 47.3867 135.85 47.94C136.29 48.4867 136.933 48.76 137.78 48.76C138.313 48.76 138.77 48.6433 139.15 48.41C139.53 48.1767 139.82 47.84 140.02 47.4L142.74 48.18C142.333 49.1667 141.69 49.9333 140.81 50.48C139.936 51.0267 138.98 51.3 137.94 51.3ZM134.36 46.36V44.34H141.52V46.36H134.36ZM150.388 51.3C149.314 51.3 148.418 51.05 147.698 50.55C146.978 50.05 146.434 49.37 146.068 48.51C145.708 47.65 145.528 46.68 145.528 45.6C145.528 44.52 145.708 43.55 146.068 42.69C146.428 41.83 146.958 41.15 147.658 40.65C148.358 40.15 149.221 39.9 150.248 39.9C151.281 39.9 152.181 40.1467 152.948 40.64C153.714 41.1333 154.308 41.81 154.728 42.67C155.154 43.5233 155.368 44.5 155.368 45.6C155.368 46.68 155.158 47.65 154.738 48.51C154.324 49.37 153.744 50.05 152.998 50.55C152.251 51.05 151.381 51.3 150.388 51.3ZM145.068 55.8V40.2H147.468V47.6H147.808V55.8H145.068ZM149.948 48.88C150.534 48.88 151.014 48.7333 151.388 48.44C151.761 48.1467 152.038 47.7533 152.218 47.26C152.398 46.76 152.488 46.2067 152.488 45.6C152.488 45 152.394 44.4533 152.208 43.96C152.021 43.46 151.731 43.0633 151.338 42.77C150.951 42.47 150.454 42.32 149.848 42.32C149.281 42.32 148.821 42.4567 148.468 42.73C148.121 43.0033 147.868 43.3867 147.708 43.88C147.548 44.3733 147.468 44.9467 147.468 45.6C147.468 46.2533 147.548 46.8267 147.708 47.32C147.868 47.8133 148.128 48.1967 148.488 48.47C148.854 48.7433 149.341 48.88 149.948 48.88ZM162.428 51.3C161.341 51.3 160.388 51.0567 159.568 50.57C158.748 50.0833 158.108 49.4133 157.648 48.56C157.195 47.7 156.968 46.7133 156.968 45.6C156.968 44.4733 157.201 43.4833 157.668 42.63C158.135 41.77 158.778 41.1 159.598 40.62C160.418 40.14 161.361 39.9 162.428 39.9C163.515 39.9 164.468 40.1433 165.288 40.63C166.115 41.1167 166.758 41.79 167.218 42.65C167.678 43.5033 167.908 44.4867 167.908 45.6C167.908 46.72 167.675 47.71 167.208 48.57C166.748 49.4233 166.105 50.0933 165.278 50.58C164.458 51.06 163.508 51.3 162.428 51.3ZM162.428 48.76C163.301 48.76 163.951 48.4667 164.378 47.88C164.811 47.2867 165.028 46.5267 165.028 45.6C165.028 44.64 164.808 43.8733 164.368 43.3C163.935 42.7267 163.288 42.44 162.428 42.44C161.835 42.44 161.348 42.5733 160.968 42.84C160.588 43.1067 160.305 43.4767 160.118 43.95C159.938 44.4233 159.848 44.9733 159.848 45.6C159.848 46.5667 160.065 47.3367 160.498 47.91C160.938 48.4767 161.581 48.76 162.428 48.76ZM170.087 51V40.2H179.727V51H177.007V42.74H172.807V51H170.087ZM187.829 51.3C186.756 51.3 185.859 51.05 185.139 50.55C184.419 50.05 183.876 49.37 183.509 48.51C183.149 47.65 182.969 46.68 182.969 45.6C182.969 44.52 183.149 43.55 183.509 42.69C183.869 41.83 184.399 41.15 185.099 40.65C185.799 40.15 186.662 39.9 187.689 39.9C188.722 39.9 189.622 40.1467 190.389 40.64C191.156 41.1333 191.749 41.81 192.169 42.67C192.596 43.5233 192.809 44.5 192.809 45.6C192.809 46.68 192.599 47.65 192.179 48.51C191.766 49.37 191.186 50.05 190.439 50.55C189.692 51.05 188.822 51.3 187.829 51.3ZM182.509 55.8V40.2H184.909V47.6H185.249V55.8H182.509ZM187.389 48.88C187.976 48.88 188.456 48.7333 188.829 48.44C189.202 48.1467 189.479 47.7533 189.659 47.26C189.839 46.76 189.929 46.2067 189.929 45.6C189.929 45 189.836 44.4533 189.649 43.96C189.462 43.46 189.172 43.0633 188.779 42.77C188.392 42.47 187.896 42.32 187.289 42.32C186.722 42.32 186.262 42.4567 185.909 42.73C185.562 43.0033 185.309 43.3867 185.149 43.88C184.989 44.3733 184.909 44.9467 184.909 45.6C184.909 46.2533 184.989 46.8267 185.149 47.32C185.309 47.8133 185.569 48.1967 185.929 48.47C186.296 48.7433 186.782 48.88 187.389 48.88ZM204.629 40.2V51H202.029V44.4L197.149 51H194.989V40.2H197.589V46.58L202.489 40.2H204.629ZM213.791 51V47.56H212.051C211.825 47.56 211.515 47.5567 211.121 47.55C210.735 47.5367 210.371 47.5 210.031 47.44C209.171 47.2867 208.465 46.9133 207.911 46.32C207.365 45.7267 207.091 44.92 207.091 43.9C207.091 42.9067 207.355 42.1067 207.881 41.5C208.408 40.8933 209.111 40.5067 209.991 40.34C210.351 40.2667 210.721 40.2267 211.101 40.22C211.488 40.2067 211.805 40.2 212.051 40.2H216.511V51H213.791ZM206.831 51L209.271 47H212.071L209.671 51H206.831ZM211.751 45.46H213.791V42.3H211.751C211.631 42.3 211.498 42.3067 211.351 42.32C211.211 42.3333 211.065 42.36 210.911 42.4C210.725 42.4533 210.551 42.5533 210.391 42.7C210.231 42.84 210.101 43.0133 210.001 43.22C209.901 43.42 209.851 43.64 209.851 43.88C209.851 44.26 209.965 44.5833 210.191 44.85C210.418 45.11 210.671 45.28 210.951 45.36C211.091 45.4 211.231 45.4267 211.371 45.44C211.518 45.4533 211.645 45.46 211.751 45.46ZM221.946 51V42.6H218.406V40.2H228.206V42.6H224.666V51H221.946ZM239.727 40.2V51H237.127V44.4L232.247 51H230.087V40.2H232.687V46.58L237.587 40.2H239.727ZM247.549 51.3C246.442 51.3 245.466 51.0633 244.619 50.59C243.779 50.11 243.119 49.4533 242.639 48.62C242.166 47.78 241.929 46.82 241.929 45.74C241.929 44.56 242.162 43.5333 242.629 42.66C243.096 41.7867 243.739 41.11 244.559 40.63C245.379 40.1433 246.322 39.9 247.389 39.9C248.522 39.9 249.486 40.1667 250.279 40.7C251.072 41.2333 251.659 41.9833 252.039 42.95C252.419 43.9167 252.552 45.0533 252.439 46.36H249.749V45.36C249.749 44.26 249.572 43.47 249.219 42.99C248.872 42.5033 248.302 42.26 247.509 42.26C246.582 42.26 245.899 42.5433 245.459 43.11C245.026 43.67 244.809 44.5 244.809 45.6C244.809 46.6067 245.026 47.3867 245.459 47.94C245.899 48.4867 246.542 48.76 247.389 48.76C247.922 48.76 248.379 48.6433 248.759 48.41C249.139 48.1767 249.429 47.84 249.629 47.4L252.349 48.18C251.942 49.1667 251.299 49.9333 250.419 50.48C249.546 51.0267 248.589 51.3 247.549 51.3ZM243.969 46.36V44.34H251.129V46.36H243.969Z" fill="#748A5B"/>
<path d="M20.54 103.16V98.714C20.93 98.714 21.26 98.618 21.53 98.426C21.806 98.228 22.031 97.952 22.205 97.598C22.379 97.238 22.517 96.818 22.619 96.338C22.721 95.858 22.796 95.336 22.844 94.772C22.904 94.052 22.958 93.344 23.006 92.648C23.054 91.946 23.102 91.22 23.15 90.47C23.198 89.714 23.252 88.898 23.312 88.022L31.916 88.04V98.714H32.906V103.16H30.458V101H22.988V103.16H20.54ZM24.194 98.714H29.468V90.326L25.544 90.308C25.502 90.902 25.466 91.448 25.436 91.946C25.412 92.444 25.382 92.948 25.346 93.458C25.31 93.968 25.262 94.538 25.202 95.168C25.142 95.798 25.082 96.317 25.022 96.725C24.962 97.127 24.869 97.478 24.743 97.778C24.623 98.078 24.44 98.39 24.194 98.714ZM40.445 101.27C39.149 101.27 38.03 100.988 37.088 100.424C36.152 99.86 35.429 99.071 34.919 98.057C34.415 97.043 34.163 95.864 34.163 94.52C34.163 93.176 34.415 91.997 34.919 90.983C35.429 89.969 36.152 89.18 37.088 88.616C38.03 88.052 39.149 87.77 40.445 87.77C41.741 87.77 42.857 88.052 43.793 88.616C44.735 89.18 45.458 89.969 45.962 90.983C46.472 91.997 46.727 93.176 46.727 94.52C46.727 95.864 46.472 97.043 45.962 98.057C45.458 99.071 44.735 99.86 43.793 100.424C42.857 100.988 41.741 101.27 40.445 101.27ZM40.445 98.966C41.267 98.978 41.951 98.801 42.497 98.435C43.043 98.069 43.451 97.55 43.721 96.878C43.997 96.206 44.135 95.42 44.135 94.52C44.135 93.62 43.997 92.84 43.721 92.18C43.451 91.52 43.043 91.007 42.497 90.641C41.951 90.275 41.267 90.086 40.445 90.074C39.623 90.062 38.939 90.239 38.393 90.605C37.847 90.971 37.436 91.49 37.16 92.162C36.89 92.834 36.755 93.62 36.755 94.52C36.755 95.42 36.89 96.2 37.16 96.86C37.436 97.52 37.847 98.033 38.393 98.399C38.939 98.765 39.623 98.954 40.445 98.966ZM51.7672 100.982V98.858L57.2032 94.034C57.6112 93.674 57.8992 93.335 58.0672 93.017C58.2352 92.699 58.3192 92.402 58.3192 92.126C58.3192 91.73 58.2382 91.379 58.0762 91.073C57.9142 90.761 57.6862 90.518 57.3922 90.344C57.0982 90.164 56.7532 90.074 56.3572 90.074C55.9432 90.074 55.5772 90.17 55.2592 90.362C54.9472 90.548 54.7042 90.797 54.5302 91.109C54.3562 91.415 54.2752 91.748 54.2872 92.108H51.7672C51.7672 91.22 51.9622 90.452 52.3522 89.804C52.7422 89.156 53.2852 88.655 53.9812 88.301C54.6772 87.947 55.4872 87.77 56.4112 87.77C57.2572 87.77 58.0132 87.956 58.6792 88.328C59.3512 88.694 59.8792 89.207 60.2632 89.867C60.6472 90.527 60.8392 91.292 60.8392 92.162C60.8392 92.804 60.7492 93.338 60.5692 93.764C60.3892 94.184 60.1222 94.574 59.7682 94.934C59.4142 95.288 58.9792 95.69 58.4632 96.14L54.9532 99.218L54.7552 98.678H60.8392V100.982H51.7672ZM67.7965 101.27C66.8365 101.27 65.9965 101.069 65.2765 100.667C64.5565 100.265 63.9955 99.704 63.5935 98.984C63.1915 98.264 62.9905 97.424 62.9905 96.464V92.576C62.9905 91.616 63.1915 90.776 63.5935 90.056C63.9955 89.336 64.5565 88.775 65.2765 88.373C65.9965 87.971 66.8365 87.77 67.7965 87.77C68.7565 87.77 69.5965 87.971 70.3165 88.373C71.0365 88.775 71.5975 89.336 71.9995 90.056C72.4015 90.776 72.6025 91.616 72.6025 92.576V96.464C72.6025 97.424 72.4015 98.264 71.9995 98.984C71.5975 99.704 71.0365 100.265 70.3165 100.667C69.5965 101.069 68.7565 101.27 67.7965 101.27ZM67.7965 98.948C68.2285 98.948 68.6185 98.846 68.9665 98.642C69.3145 98.438 69.5905 98.162 69.7945 97.814C69.9985 97.466 70.1005 97.076 70.1005 96.644V92.378C70.1005 91.946 69.9985 91.556 69.7945 91.208C69.5905 90.86 69.3145 90.584 68.9665 90.38C68.6185 90.176 68.2285 90.074 67.7965 90.074C67.3645 90.074 66.9745 90.176 66.6265 90.38C66.2785 90.584 66.0025 90.86 65.7985 91.208C65.5945 91.556 65.4925 91.946 65.4925 92.378V96.644C65.4925 97.076 65.5945 97.466 65.7985 97.814C66.0025 98.162 66.2785 98.438 66.6265 98.642C66.9745 98.846 67.3645 98.948 67.7965 98.948ZM86.0849 101V95.348L86.4269 95.906C86.0969 96.2 85.6259 96.428 85.0139 96.59C84.4079 96.746 83.7749 96.824 83.1149 96.824C82.0349 96.824 81.1739 96.611 80.5319 96.185C79.8899 95.753 79.4279 95.159 79.1459 94.403C78.8639 93.641 78.7229 92.762 78.7229 91.766V88.04H81.2069V91.028C81.2069 91.418 81.2219 91.817 81.2519 92.225C81.2819 92.633 81.3689 93.011 81.5129 93.359C81.6629 93.707 81.9089 93.989 82.2509 94.205C82.5929 94.415 83.0729 94.52 83.6909 94.52C84.3569 94.52 84.9209 94.406 85.3829 94.178C85.8449 93.944 86.1689 93.698 86.3549 93.44L86.0849 94.538V88.04H88.5509V101H86.0849ZM91.0627 101V88.04H99.5227V90.326H93.5107V93.098H98.4427V95.384H93.5107V98.714H99.5227V101H91.0627ZM100.78 101V98.966C101.056 98.984 101.29 98.96 101.482 98.894C101.674 98.828 101.836 98.708 101.968 98.534C102.106 98.354 102.226 98.108 102.328 97.796C102.43 97.478 102.526 97.082 102.616 96.608C102.76 95.858 102.88 95.069 102.976 94.241C103.078 93.407 103.162 92.591 103.228 91.793C103.294 90.995 103.345 90.269 103.381 89.615C103.417 88.955 103.444 88.43 103.462 88.04H112.3V101H109.852V90.326H105.712C105.688 90.662 105.655 91.1 105.613 91.64C105.577 92.18 105.526 92.777 105.46 93.431C105.394 94.085 105.313 94.763 105.217 95.465C105.121 96.167 105.004 96.848 104.866 97.508C104.74 98.15 104.587 98.72 104.407 99.218C104.227 99.71 103.987 100.115 103.687 100.433C103.393 100.745 103.012 100.952 102.544 101.054C102.076 101.156 101.488 101.138 100.78 101ZM120.39 101.27C119.094 101.27 117.975 100.988 117.033 100.424C116.097 99.86 115.374 99.071 114.864 98.057C114.36 97.043 114.108 95.864 114.108 94.52C114.108 93.176 114.36 91.997 114.864 90.983C115.374 89.969 116.097 89.18 117.033 88.616C117.975 88.052 119.094 87.77 120.39 87.77C121.686 87.77 122.802 88.052 123.738 88.616C124.68 89.18 125.403 89.969 125.907 90.983C126.417 91.997 126.672 93.176 126.672 94.52C126.672 95.864 126.417 97.043 125.907 98.057C125.403 99.071 124.68 99.86 123.738 100.424C122.802 100.988 121.686 101.27 120.39 101.27ZM120.39 98.966C121.212 98.978 121.896 98.801 122.442 98.435C122.988 98.069 123.396 97.55 123.666 96.878C123.942 96.206 124.08 95.42 124.08 94.52C124.08 93.62 123.942 92.84 123.666 92.18C123.396 91.52 122.988 91.007 122.442 90.641C121.896 90.275 121.212 90.086 120.39 90.074C119.568 90.062 118.884 90.239 118.338 90.605C117.792 90.971 117.381 91.49 117.105 92.162C116.835 92.834 116.7 93.62 116.7 94.52C116.7 95.42 116.835 96.2 117.105 96.86C117.381 97.52 117.792 98.033 118.338 98.399C118.884 98.765 119.568 98.954 120.39 98.966ZM128.469 101V88.04H133.653C134.577 88.04 135.324 88.226 135.894 88.598C136.464 88.964 136.881 89.426 137.145 89.984C137.409 90.542 137.541 91.106 137.541 91.676C137.541 92.402 137.376 93.005 137.046 93.485C136.722 93.965 136.275 94.286 135.705 94.448V93.998C136.515 94.166 137.121 94.541 137.523 95.123C137.931 95.705 138.135 96.356 138.135 97.076C138.135 97.85 137.991 98.531 137.703 99.119C137.421 99.707 136.989 100.169 136.407 100.505C135.825 100.835 135.093 101 134.211 101H128.469ZM130.953 98.696H133.959C134.289 98.696 134.583 98.627 134.841 98.489C135.099 98.345 135.3 98.147 135.444 97.895C135.594 97.637 135.669 97.334 135.669 96.986C135.669 96.68 135.606 96.407 135.48 96.167C135.354 95.927 135.162 95.738 134.904 95.6C134.652 95.456 134.337 95.384 133.959 95.384H130.953V98.696ZM130.953 93.098H133.617C133.893 93.098 134.139 93.05 134.355 92.954C134.571 92.858 134.742 92.711 134.868 92.513C134.994 92.309 135.057 92.048 135.057 91.73C135.057 91.334 134.934 91.001 134.688 90.731C134.442 90.461 134.085 90.326 133.617 90.326H130.953V93.098ZM139.93 101V88.04H148.39V90.326H142.378V93.098H147.31V95.384H142.378V98.714H148.39V101H139.93ZM150.547 101V88.04H152.995V94.016L157.927 88.04H160.915L155.497 94.43L161.257 101H158.161L152.995 95.096V101H150.547Z" fill="white"/>
<g clip-path="url(#clip1_1142_4578)">
<g clip-path="url(#clip2_1142_4578)">
<path d="M293.134 209.414C295.299 208.944 297.322 207.97 299.039 206.57L306.799 200.116C308.978 199.993 311.024 199.031 312.508 197.43C313.992 195.83 314.797 193.717 314.754 191.535C314.649 189.357 313.741 187.295 312.205 185.747C310.67 184.199 308.615 183.275 306.438 183.152L286.068 181.281C285.697 181.247 285.355 181.067 285.117 180.78C284.878 180.494 284.764 180.125 284.798 179.754L285.697 169.96C285.718 169.662 285.841 169.379 286.046 169.161C286.251 168.943 286.526 168.804 286.823 168.766C291.474 167.785 295.695 165.355 298.879 161.825C302.063 158.294 304.046 153.845 304.542 149.118L304.799 146.319C304.935 144.835 304.477 143.358 303.523 142.212C302.57 141.066 301.201 140.346 299.717 140.209C298.233 140.073 296.755 140.532 295.609 141.485C294.463 142.438 293.743 143.807 293.607 145.291L293.35 148.089C293.194 149.682 292.701 151.223 291.902 152.61C291.103 153.996 290.017 155.196 288.717 156.129C288.116 156.525 286.982 155.97 286.982 155.97L288.01 144.777C288.147 143.293 287.688 141.816 286.735 140.67C285.782 139.524 284.413 138.803 282.928 138.667C281.444 138.531 279.967 138.99 278.821 139.943C277.675 140.896 276.954 142.265 276.818 143.749L275.79 154.942C275.79 154.942 274.518 155.276 274.055 154.782C272.947 153.628 272.098 152.25 271.565 150.742C271.032 149.233 270.827 147.628 270.965 146.033L271.222 143.235C271.358 141.751 270.899 140.273 269.946 139.127C268.993 137.982 267.624 137.261 266.14 137.125C264.656 136.989 263.178 137.447 262.032 138.401C260.886 139.354 260.166 140.723 260.029 142.207L259.772 145.005C259.348 149.778 260.461 154.562 262.948 158.659C265.434 162.755 269.165 165.95 273.595 167.776C273.846 167.854 274.068 168.006 274.23 168.212C274.393 168.419 274.489 168.67 274.505 168.932L273.626 178.502C273.592 178.873 273.412 179.215 273.125 179.453C272.839 179.692 272.469 179.806 272.098 179.772L201.362 173.275C199.165 173.002 196.945 173.565 195.144 174.853C193.342 176.14 192.091 178.058 191.638 180.226C191.199 182.363 191.605 184.588 192.773 186.432C193.94 188.276 195.777 189.595 197.897 190.112L204.453 197.995C205.886 199.684 207.697 201.011 209.741 201.866C209.919 201.934 210.081 202.037 210.218 202.17C210.355 202.302 210.463 202.461 210.537 202.637C210.611 202.812 210.648 203.001 210.646 203.191C210.644 203.382 210.604 203.57 210.527 203.744L193.501 238.581C193.114 239.388 192.925 240.277 192.95 241.173C192.976 242.069 193.216 242.945 193.649 243.73C194.119 244.554 194.791 245.247 195.601 245.742C196.411 246.237 197.334 246.518 198.282 246.561C199.231 246.603 200.174 246.404 201.025 245.982C201.876 245.561 202.606 244.931 203.148 244.151L230.099 205.091C230.24 204.881 230.435 204.713 230.664 204.605C230.892 204.497 231.146 204.453 231.397 204.476L271.242 208.136C271.494 208.159 271.735 208.249 271.94 208.397C272.145 208.545 272.306 208.745 272.407 208.977L291.792 252.293C292.198 253.202 292.839 253.987 293.648 254.567C294.458 255.147 295.407 255.502 296.398 255.594C297.293 255.667 298.192 255.525 299.02 255.179C299.848 254.833 300.581 254.294 301.158 253.606C301.735 252.919 302.139 252.103 302.336 251.228C302.534 250.352 302.518 249.442 302.291 248.574L292.018 211.117C291.975 210.932 291.97 210.739 292.003 210.552C292.036 210.364 292.107 210.185 292.211 210.026C292.315 209.867 292.451 209.73 292.61 209.625C292.768 209.52 292.947 209.448 293.134 209.414Z" fill="white"/>
<path d="M208.349 167.258C208.573 167.665 208.894 168.011 209.285 168.263C209.675 168.516 210.122 168.667 210.586 168.705L236.664 171.1C237.127 171.148 237.594 171.08 238.024 170.903C238.454 170.726 238.833 170.445 239.128 170.085L246.453 160.995C247.022 160.189 247.369 159.248 247.459 158.265C247.55 157.283 247.38 156.294 246.967 155.398C246.573 154.461 245.932 153.648 245.113 153.046C244.294 152.444 243.327 152.076 242.314 151.98L208.234 148.849C207.251 148.734 206.256 148.879 205.348 149.272C204.44 149.664 203.651 150.289 203.062 151.083C202.532 151.917 202.232 152.876 202.191 153.863C202.15 154.85 202.369 155.83 202.828 156.705L208.349 167.258Z" fill="white"/>
<path d="M266.654 131.529C268.138 131.666 269.616 131.207 270.762 130.254C271.908 129.301 272.628 127.931 272.764 126.447C272.629 123.768 271.776 121.175 270.293 118.94C270.028 118.549 269.679 118.222 269.271 117.982C268.864 117.742 268.409 117.595 267.938 117.552C267.467 117.509 266.993 117.57 266.548 117.732C266.104 117.894 265.701 118.152 265.369 118.488C263.503 120.383 262.16 122.729 261.47 125.297C261.386 126.049 261.454 126.811 261.671 127.536C261.889 128.261 262.25 128.935 262.734 129.517C263.218 130.099 263.815 130.578 264.489 130.923C265.162 131.269 265.899 131.475 266.654 131.529Z" fill="white"/>
<path d="M283.442 133.071C284.927 133.208 286.404 132.749 287.55 131.796C288.696 130.843 289.416 129.473 289.553 127.989C289.417 125.311 288.564 122.718 287.082 120.482C286.816 120.091 286.467 119.764 286.06 119.524C285.652 119.284 285.197 119.137 284.726 119.094C284.256 119.051 283.781 119.112 283.337 119.274C282.893 119.436 282.49 119.694 282.157 120.03C280.291 121.925 278.948 124.271 278.259 126.839C278.174 127.591 278.243 128.353 278.46 129.078C278.677 129.804 279.038 130.477 279.523 131.06C280.007 131.642 280.604 132.12 281.277 132.466C281.951 132.811 282.687 133.017 283.442 133.071Z" fill="white"/>
<path d="M300.231 134.614C301.715 134.75 303.193 134.291 304.339 133.338C305.485 132.385 306.205 131.016 306.341 129.531C306.206 126.853 305.353 124.26 303.871 122.024C303.605 121.634 303.256 121.306 302.848 121.066C302.441 120.826 301.986 120.679 301.515 120.636C301.044 120.593 300.57 120.654 300.126 120.816C299.682 120.978 299.279 121.236 298.946 121.572C297.08 123.467 295.737 125.813 295.047 128.381C294.963 129.134 295.031 129.895 295.249 130.62C295.466 131.346 295.827 132.02 296.311 132.602C296.796 133.184 297.392 133.662 298.066 134.008C298.74 134.354 299.476 134.56 300.231 134.614Z" fill="white"/>
</g>
</g>
<g clip-path="url(#clip3_1142_4578)">
<path d="M31.5685 249.253C32.8962 249.278 34.219 249.019 35.5467 249.059C36.8744 249.094 38.2866 249.487 39.1121 250.526C40.7531 252.59 39.2265 255.663 39.7934 258.239C40.1912 260.044 41.683 261.511 43.4383 262.097C45.1937 262.684 47.1579 262.46 48.8486 261.715C50.0421 261.187 51.3946 260.402 52.5384 261.028C53.518 261.56 53.7517 262.858 53.7119 263.972C53.6721 265.086 53.4832 266.275 54.0053 267.259C54.8457 268.85 57.0635 269.064 58.8139 268.642C60.5643 268.219 62.2799 267.374 64.0651 267.582C65.1193 267.707 66.0989 268.199 67.1382 268.413C68.1775 268.627 69.5947 269.88 70.2063 269.015C70.9224 268.547 71.1412 266.2 71.2456 265.32C71.3699 264.266 71.2058 263.182 71.4197 262.142C71.7777 260.382 73.1203 259.014 74.0651 257.488C75.01 255.961 75.5023 253.788 74.2541 252.49C73.4833 251.685 72.2949 251.496 71.2208 251.182C70.1516 250.874 68.993 250.243 68.7891 249.144C68.5554 247.861 69.724 246.821 70.5992 245.852C71.8374 244.479 72.6628 242.684 72.6529 240.834C72.643 238.984 71.718 237.11 70.1268 236.165C67.8592 234.822 64.4579 235.31 63.0108 233.107C62.2799 231.998 62.3495 230.531 62.7324 229.258C63.1153 227.985 63.7717 226.811 64.1645 225.543C64.7861 223.529 64.7016 221.272 63.7468 219.397C62.7871 217.522 60.9223 216.09 58.8288 215.842C57.158 215.643 55.4225 216.17 53.8014 215.727C51.4643 215.096 50.0769 212.669 49.4851 210.322C48.8884 207.98 48.8188 205.488 47.8591 203.266C46.8993 201.043 44.6318 199.084 42.2648 199.591C39.5398 200.173 37.8988 203.693 35.1141 203.594C32.6575 203.504 31.3696 200.744 29.6143 199.024C26.5262 195.991 20.7728 196.438 18.187 199.904C16.4217 202.177 15.8996 205.528 17.1875 208.139C18.2765 210.347 20.4943 212.43 19.8081 214.792C19.0324 217.468 16.2129 218.507 14.8056 220.914C13.5873 223.002 13.6967 225.19 15.5117 226.796C17.3218 228.403 19.6639 229.248 21.7077 230.546C23.7465 231.844 25.6212 233.922 25.4919 236.334C25.4024 238.015 24.3631 239.497 24.025 241.148C23.6072 243.211 24.383 245.434 25.8649 246.931C27.3467 248.428 29.4651 249.213 31.5735 249.253H31.5685Z" fill="#FFFAFC"/>
<path d="M54.8357 244.788C54.1346 240.551 55.1987 236.105 57.6751 232.699C55.3728 236.225 54.5771 240.64 55.4573 244.673L54.8407 244.793L54.8357 244.788Z" fill="#404040"/>
<path d="M69.9229 269.815C57.6901 247.776 44.5622 228.721 28.6595 211.709C28.6595 211.709 39.4602 222.878 46.6258 231.968C54.9501 242.525 71.0368 269.636 71.0368 269.636L69.9179 269.815H69.9229Z" fill="#404040"/>
<path d="M43.3836 229.024C39.5398 225.901 34.8803 223.753 29.9574 222.858C34.9152 223.544 39.7138 225.504 43.7715 228.527L43.3836 229.024Z" fill="#404040"/>
</g>
<g clip-path="url(#clip4_1142_4578)">
<path d="M107.87 259.359C106.743 259.381 105.62 259.161 104.493 259.195C103.366 259.224 102.167 259.558 101.466 260.44C100.073 262.192 101.369 264.801 100.888 266.988C100.55 268.52 99.2838 269.765 97.7937 270.264C96.3035 270.762 94.636 270.572 93.2007 269.939C92.1875 269.491 91.0393 268.824 90.0683 269.356C89.2367 269.808 89.0383 270.909 89.0721 271.855C89.1059 272.801 89.2663 273.81 88.823 274.645C88.1096 275.996 86.2268 276.178 84.7408 275.819C83.2549 275.46 81.7985 274.743 80.283 274.92C79.388 275.025 78.5564 275.443 77.6741 275.625C76.7918 275.806 75.5887 276.87 75.0694 276.136C74.4615 275.739 74.2758 273.746 74.1871 272.999C74.0816 272.104 74.2209 271.184 74.0394 270.302C73.7354 268.807 72.5957 267.646 71.7936 266.35C70.9915 265.054 70.5736 263.209 71.6332 262.108C72.2875 261.424 73.2964 261.263 74.2083 260.997C75.1159 260.736 76.0995 260.2 76.2726 259.267C76.471 258.177 75.4789 257.295 74.7359 256.472C73.6848 255.307 72.984 253.783 72.9925 252.213C73.0009 250.642 73.7861 249.051 75.137 248.249C77.062 247.109 79.9495 247.522 81.1779 245.652C81.7985 244.711 81.7394 243.466 81.4143 242.385C81.0893 241.304 80.532 240.308 80.1985 239.231C79.6709 237.522 79.7426 235.605 80.5531 234.014C81.3679 232.422 82.9509 231.206 84.7282 230.995C86.1466 230.827 87.6199 231.274 88.9961 230.898C90.9802 230.362 92.158 228.302 92.6603 226.31C93.1669 224.321 93.226 222.206 94.0408 220.319C94.8555 218.432 96.7805 216.769 98.7899 217.2C101.103 217.693 102.496 220.682 104.86 220.598C106.946 220.522 108.039 218.179 109.529 216.718C112.151 214.143 117.035 214.523 119.23 217.466C120.729 219.395 121.172 222.24 120.079 224.456C119.154 226.331 117.272 228.099 117.854 230.105C118.513 232.376 120.906 233.258 122.101 235.301C123.135 237.074 123.042 238.932 121.501 240.295C119.965 241.659 117.977 242.376 116.242 243.478C114.511 244.58 112.919 246.345 113.029 248.392C113.105 249.819 113.987 251.077 114.274 252.478C114.629 254.23 113.97 256.117 112.712 257.388C111.454 258.659 109.656 259.326 107.866 259.359H107.87Z" fill="#FFFAFC"/>
<path d="M75.3102 276.815C85.695 258.106 96.8397 241.929 110.34 227.487C110.34 227.487 101.171 236.969 95.0878 244.685C88.021 253.648 74.3645 276.663 74.3645 276.663L75.3144 276.815H75.3102Z" fill="#404040"/>
<path d="M97.8401 242.186C101.103 239.535 105.059 237.712 109.238 236.952C105.029 237.534 100.956 239.198 97.5108 241.764L97.8401 242.186Z" fill="#404040"/>
</g>
<path d="M45 119.573C65.2349 117.77 85.7497 118.317 106.045 117.581C115.632 117.234 117.466 117.104 125.963 116.659C127.341 116.587 133.478 115.527 135.295 116.253C136.813 116.861 132.136 117.099 130.573 117.581C129.089 118.039 115.217 121.611 124.819 124.221C131.623 126.07 145.342 126.412 151.487 126.655C160.438 127.009 169.491 127.313 178.45 127.54" stroke="white" stroke-width="3" stroke-linecap="round"/>
</g>
<defs>
<clipPath id="clip0_1142_4578">
<rect width="307" height="238" rx="20" fill="white"/>
</clipPath>
<clipPath id="clip1_1142_4578">
<rect width="119.838" height="136.204" fill="white" transform="translate(195.459 106) rotate(5.24824)"/>
</clipPath>
<clipPath id="clip2_1142_4578">
<rect width="134.874" height="134.874" fill="white" transform="translate(192.39 110.598) rotate(5.24824)"/>
</clipPath>
<clipPath id="clip3_1142_4578">
<rect width="61" height="72.8151" fill="white" transform="translate(14 197)"/>
</clipPath>
<clipPath id="clip4_1142_4578">
<rect width="51.7849" height="61.8151" fill="white" transform="matrix(-1 0 0 1 122.785 215)"/>
</clipPath>
</defs>
</svg>
