<svg width="307" height="238" viewBox="0 0 307 238" fill="none" xmlns="http://www.w3.org/2000/svg">
<g clip-path="url(#clip0_1142_7302)">
<rect width="307" height="238" rx="20" fill="#748A5B"/>
<path d="M285.334 26.1713C234.39 24.2185 229.709 -44.5522 248.826 -65.0261L436.41 -106.8L484.064 107.19L383.94 129.487C287.773 150.902 296.692 85.8872 314.928 65.7988C333.163 45.7104 336.278 28.1242 285.334 26.1713Z" stroke="#FFFAFC" stroke-width="2" stroke-dasharray="11 11"/>
<path d="M459.118 85.4055C445.13 150.703 530.871 178.837 563.026 161.178L676.655 -63.454L420.555 -193L359.906 -73.1015C301.653 42.058 387.024 51.7179 418.405 35.0526C449.787 18.3874 473.106 20.1085 459.118 85.4055Z" stroke="#FFFAFC" stroke-width="2" stroke-dasharray="11 11"/>
<rect x="20" y="20" width="104" height="42" rx="10" fill="white"/>
<path d="M44.32 47V45.192C44.5653 45.208 44.7733 45.1867 44.944 45.128C45.1147 45.0693 45.2587 44.9627 45.376 44.808C45.4987 44.648 45.6053 44.4293 45.696 44.152C45.7867 43.8693 45.872 43.5173 45.952 43.096C46.08 42.4293 46.1867 41.728 46.272 40.992C46.3627 40.2507 46.4373 39.5253 46.496 38.816C46.5547 38.1067 46.6 37.4613 46.632 36.88C46.664 36.2933 46.688 35.8267 46.704 35.48H54.56V47H52.384V37.512H48.704C48.6827 37.8107 48.6533 38.2 48.616 38.68C48.584 39.16 48.5387 39.6907 48.48 40.272C48.4213 40.8533 48.3493 41.456 48.264 42.08C48.1787 42.704 48.0747 43.3093 47.952 43.896C47.84 44.4667 47.704 44.9733 47.544 45.416C47.384 45.8533 47.1707 46.2133 46.904 46.496C46.6427 46.7733 46.304 46.9573 45.888 47.048C45.472 47.1387 44.9493 47.1227 44.32 47ZM64.5995 47.24C63.9382 47.24 63.3328 47.1067 62.7835 46.84C62.2342 46.568 61.7728 46.1733 61.3995 45.656C61.0262 45.1387 60.7755 44.5093 60.6475 43.768H58.9675V47H56.7915V38.36H58.9675V41.592H60.6475C60.7755 40.84 61.0262 40.208 61.3995 39.696C61.7782 39.1787 62.2448 38.7867 62.7995 38.52C63.3595 38.2533 63.9755 38.12 64.6475 38.12C65.5008 38.12 66.2528 38.3173 66.9035 38.712C67.5542 39.1013 68.0635 39.64 68.4315 40.328C68.7995 41.0107 68.9835 41.7893 68.9835 42.664C68.9835 43.5653 68.7968 44.36 68.4235 45.048C68.0502 45.736 67.5328 46.2747 66.8715 46.664C66.2155 47.048 65.4582 47.24 64.5995 47.24ZM64.5835 45.208C65.2875 45.208 65.8128 44.9733 66.1595 44.504C66.5062 44.0293 66.6795 43.4213 66.6795 42.68C66.6795 41.9013 66.5035 41.2853 66.1515 40.832C65.8048 40.3787 65.2822 40.152 64.5835 40.152C63.8795 40.152 63.3622 40.384 63.0315 40.848C62.7008 41.312 62.5355 41.9173 62.5355 42.664C62.5355 43.448 62.7088 44.0693 63.0555 44.528C63.4022 44.9813 63.9115 45.208 64.5835 45.208ZM74.385 47.256C73.553 47.2453 72.849 47.0613 72.273 46.704C71.697 46.3413 71.2437 45.8427 70.913 45.208C70.5877 44.568 70.385 43.8267 70.305 42.984C70.2623 42.5307 70.2517 42.0213 70.273 41.456C70.2997 40.8853 70.361 40.3253 70.457 39.776C70.553 39.2267 70.689 38.7547 70.865 38.36C71.0357 37.992 71.2543 37.656 71.521 37.352C71.793 37.0427 72.081 36.7813 72.385 36.568C72.7423 36.3173 73.1263 36.1253 73.537 35.992C73.9477 35.8533 74.3797 35.7467 74.833 35.672C75.2863 35.5973 75.7557 35.5307 76.241 35.472C76.7317 35.4133 77.2277 35.336 77.729 35.24L77.921 37.16C77.617 37.24 77.2703 37.2987 76.881 37.336C76.4917 37.3733 76.0917 37.4133 75.681 37.456C75.2703 37.4933 74.8783 37.5547 74.505 37.64C74.1317 37.7253 73.809 37.8533 73.537 38.024C73.169 38.2533 72.8863 38.5733 72.689 38.984C72.497 39.3893 72.385 39.8 72.353 40.216C72.6837 39.736 73.0863 39.4053 73.561 39.224C74.041 39.0427 74.513 38.952 74.977 38.952C75.7397 38.952 76.393 39.136 76.937 39.504C77.4863 39.8667 77.9077 40.3573 78.201 40.976C78.4943 41.5893 78.641 42.2693 78.641 43.016C78.641 43.864 78.457 44.608 78.089 45.248C77.7263 45.888 77.225 46.3867 76.585 46.744C75.945 47.096 75.2117 47.2667 74.385 47.256ZM74.481 45.224C75.0997 45.224 75.5663 45.032 75.881 44.648C76.1957 44.264 76.353 43.752 76.353 43.112C76.353 42.456 76.1903 41.9413 75.865 41.568C75.545 41.1893 75.0837 41 74.481 41C73.8677 41 73.401 41.1893 73.081 41.568C72.7663 41.9413 72.609 42.456 72.609 43.112C72.609 43.7893 72.7717 44.312 73.097 44.68C73.4223 45.0427 73.8837 45.224 74.481 45.224ZM84.2893 47.24C83.4199 47.24 82.6573 47.0453 82.0013 46.656C81.3453 46.2667 80.8333 45.7307 80.4653 45.048C80.1026 44.36 79.9213 43.5707 79.9213 42.68C79.9213 41.7787 80.1079 40.9867 80.4813 40.304C80.8546 39.616 81.3693 39.08 82.0253 38.696C82.6813 38.312 83.4359 38.12 84.2893 38.12C85.1586 38.12 85.9213 38.3147 86.5773 38.704C87.2386 39.0933 87.7533 39.632 88.1213 40.32C88.4893 41.0027 88.6733 41.7893 88.6733 42.68C88.6733 43.576 88.4866 44.368 88.1133 45.056C87.7453 45.7387 87.2306 46.2747 86.5693 46.664C85.9133 47.048 85.1533 47.24 84.2893 47.24ZM84.2893 45.208C84.9879 45.208 85.5079 44.9733 85.8493 44.504C86.1959 44.0293 86.3693 43.4213 86.3693 42.68C86.3693 41.912 86.1933 41.2987 85.8413 40.84C85.4946 40.3813 84.9773 40.152 84.2893 40.152C83.8146 40.152 83.4253 40.2587 83.1213 40.472C82.8173 40.6853 82.5906 40.9813 82.4413 41.36C82.2973 41.7387 82.2253 42.1787 82.2253 42.68C82.2253 43.4533 82.3986 44.0693 82.7453 44.528C83.0973 44.9813 83.6119 45.208 84.2893 45.208ZM94.4485 47.24C93.5632 47.24 92.7818 47.0507 92.1045 46.672C91.4325 46.288 90.9045 45.7627 90.5205 45.096C90.1418 44.424 89.9525 43.656 89.9525 42.792C89.9525 41.848 90.1392 41.0267 90.5125 40.328C90.8858 39.6293 91.4005 39.088 92.0565 38.704C92.7125 38.3147 93.4672 38.12 94.3205 38.12C95.2272 38.12 95.9978 38.3333 96.6325 38.76C97.2672 39.1867 97.7365 39.7867 98.0405 40.56C98.3445 41.3333 98.4512 42.2427 98.3605 43.288H96.2085V42.488C96.2085 41.608 96.0672 40.976 95.7845 40.592C95.5072 40.2027 95.0512 40.008 94.4165 40.008C93.6752 40.008 93.1285 40.2347 92.7765 40.688C92.4298 41.136 92.2565 41.8 92.2565 42.68C92.2565 43.4853 92.4298 44.1093 92.7765 44.552C93.1285 44.9893 93.6432 45.208 94.3205 45.208C94.7472 45.208 95.1125 45.1147 95.4165 44.928C95.7205 44.7413 95.9525 44.472 96.1125 44.12L98.2885 44.744C97.9632 45.5333 97.4485 46.1467 96.7445 46.584C96.0458 47.0213 95.2805 47.24 94.4485 47.24ZM91.5845 43.288V41.672H97.3125V43.288H91.5845Z" fill="#748A5B"/>
<path d="M21.26 102V89.04H26.444C27.368 89.04 28.115 89.226 28.685 89.598C29.255 89.964 29.672 90.426 29.936 90.984C30.2 91.542 30.332 92.106 30.332 92.676C30.332 93.402 30.167 94.005 29.837 94.485C29.513 94.965 29.066 95.286 28.496 95.448V94.998C29.306 95.166 29.912 95.541 30.314 96.123C30.722 96.705 30.926 97.356 30.926 98.076C30.926 98.85 30.782 99.531 30.494 100.119C30.212 100.707 29.78 101.169 29.198 101.505C28.616 101.835 27.884 102 27.002 102H21.26ZM23.744 99.696H26.75C27.08 99.696 27.374 99.627 27.632 99.489C27.89 99.345 28.091 99.147 28.235 98.895C28.385 98.637 28.46 98.334 28.46 97.986C28.46 97.68 28.397 97.407 28.271 97.167C28.145 96.927 27.953 96.738 27.695 96.6C27.443 96.456 27.128 96.384 26.75 96.384H23.744V99.696ZM23.744 94.098H26.408C26.684 94.098 26.93 94.05 27.146 93.954C27.362 93.858 27.533 93.711 27.659 93.513C27.785 93.309 27.848 93.048 27.848 92.73C27.848 92.334 27.725 92.001 27.479 91.731C27.233 91.461 26.876 91.326 26.408 91.326H23.744V94.098ZM31.8209 102L35.7809 89.04H39.4349L43.3949 102H40.8749L37.3469 90.57H37.8149L34.3409 102H31.8209ZM34.1969 99.3V97.014H41.0369V99.3H34.1969ZM45.008 102V89.04H47.456V99.714H51.164V89.04H53.612V99.714H57.32V89.04H59.768V102H45.008ZM62.2873 102V89.04H70.7473V91.326H64.7353V94.098H69.6673V96.384H64.7353V99.714H70.7473V102H62.2873ZM76.508 102V89.04H78.704L82.988 97.644L87.272 89.04H89.468V102H87.182V94.26L83.42 102H82.556L78.794 94.26V102H76.508ZM91.9944 102V89.04H100.454V91.326H94.4424V94.098H99.3744V96.384H94.4424V99.714H100.454V102H91.9944ZM102.612 102V89.04H108.084C108.21 89.04 108.378 89.046 108.588 89.058C108.804 89.064 108.996 89.082 109.164 89.112C109.938 89.232 110.571 89.487 111.063 89.877C111.561 90.267 111.927 90.759 112.161 91.353C112.395 91.941 112.512 92.598 112.512 93.324C112.512 94.05 112.392 94.71 112.152 95.304C111.918 95.892 111.552 96.381 111.054 96.771C110.562 97.161 109.932 97.416 109.164 97.536C108.996 97.56 108.804 97.578 108.588 97.59C108.372 97.602 108.204 97.608 108.084 97.608H105.06V102H102.612ZM105.06 95.322H107.976C108.102 95.322 108.24 95.316 108.39 95.304C108.54 95.292 108.678 95.268 108.804 95.232C109.134 95.142 109.389 94.992 109.569 94.782C109.749 94.566 109.872 94.329 109.938 94.071C110.01 93.807 110.046 93.558 110.046 93.324C110.046 93.09 110.01 92.844 109.938 92.586C109.872 92.322 109.749 92.085 109.569 91.875C109.389 91.659 109.134 91.506 108.804 91.416C108.678 91.38 108.54 91.356 108.39 91.344C108.24 91.332 108.102 91.326 107.976 91.326H105.06V95.322ZM119.881 102.27C118.585 102.27 117.466 101.988 116.524 101.424C115.588 100.86 114.865 100.071 114.355 99.057C113.851 98.043 113.599 96.864 113.599 95.52C113.599 94.176 113.851 92.997 114.355 91.983C114.865 90.969 115.588 90.18 116.524 89.616C117.466 89.052 118.585 88.77 119.881 88.77C121.177 88.77 122.293 89.052 123.229 89.616C124.171 90.18 124.894 90.969 125.398 91.983C125.908 92.997 126.163 94.176 126.163 95.52C126.163 96.864 125.908 98.043 125.398 99.057C124.894 100.071 124.171 100.86 123.229 101.424C122.293 101.988 121.177 102.27 119.881 102.27ZM119.881 99.966C120.703 99.978 121.387 99.801 121.933 99.435C122.479 99.069 122.887 98.55 123.157 97.878C123.433 97.206 123.571 96.42 123.571 95.52C123.571 94.62 123.433 93.84 123.157 93.18C122.887 92.52 122.479 92.007 121.933 91.641C121.387 91.275 120.703 91.086 119.881 91.074C119.059 91.062 118.375 91.239 117.829 91.605C117.283 91.971 116.872 92.49 116.596 93.162C116.326 93.834 116.191 94.62 116.191 95.52C116.191 96.42 116.326 97.2 116.596 97.86C116.872 98.52 117.283 99.033 117.829 99.399C118.375 99.765 119.059 99.954 119.881 99.966ZM127.959 102V89.04H138.651V102H136.203V91.326H130.407V102H127.959ZM141.178 102V89.04H146.65C146.776 89.04 146.944 89.046 147.154 89.058C147.37 89.064 147.562 89.082 147.73 89.112C148.504 89.232 149.137 89.487 149.629 89.877C150.127 90.267 150.493 90.759 150.727 91.353C150.961 91.941 151.078 92.598 151.078 93.324C151.078 94.05 150.958 94.71 150.718 95.304C150.484 95.892 150.118 96.381 149.62 96.771C149.128 97.161 148.498 97.416 147.73 97.536C147.562 97.56 147.37 97.578 147.154 97.59C146.938 97.602 146.77 97.608 146.65 97.608H143.626V102H141.178ZM143.626 95.322H146.542C146.668 95.322 146.806 95.316 146.956 95.304C147.106 95.292 147.244 95.268 147.37 95.232C147.7 95.142 147.955 94.992 148.135 94.782C148.315 94.566 148.438 94.329 148.504 94.071C148.576 93.807 148.612 93.558 148.612 93.324C148.612 93.09 148.576 92.844 148.504 92.586C148.438 92.322 148.315 92.085 148.135 91.875C147.955 91.659 147.7 91.506 147.37 91.416C147.244 91.38 147.106 91.356 146.956 91.344C146.806 91.332 146.668 91.326 146.542 91.326H143.626V95.322ZM163.487 102H161.003V93.36L155.369 102H152.885V89.04H155.369V97.68L161.003 89.04H163.487V102ZM175.538 102H173.09V97.608H170.066L168.986 97.536C167.834 97.356 166.988 96.882 166.448 96.114C165.908 95.34 165.638 94.41 165.638 93.324C165.638 92.598 165.755 91.941 165.989 91.353C166.229 90.759 166.595 90.267 167.087 89.877C167.579 89.487 168.212 89.232 168.986 89.112C169.16 89.082 169.352 89.064 169.562 89.058C169.772 89.046 169.94 89.04 170.066 89.04H175.538V102ZM168.23 102H165.458L168.266 96.24L170.786 96.726L168.23 102ZM173.09 95.322V91.326H170.174C170.048 91.326 169.91 91.332 169.76 91.344C169.61 91.356 169.472 91.38 169.346 91.416C169.016 91.506 168.761 91.659 168.581 91.875C168.401 92.085 168.275 92.322 168.203 92.586C168.137 92.844 168.104 93.09 168.104 93.324C168.104 93.558 168.137 93.807 168.203 94.071C168.275 94.329 168.401 94.566 168.581 94.782C168.761 94.992 169.016 95.142 169.346 95.232C169.472 95.268 169.61 95.292 169.76 95.304C169.91 95.316 170.048 95.322 170.174 95.322H173.09ZM181.063 102V91.326H176.977V89.04H187.597V91.326H183.511V102H181.063ZM199.645 102H197.161V93.36L191.527 102H189.043V89.04H191.527V97.68L197.161 89.04H199.645V102ZM202.156 102V89.04H210.616V91.326H204.604V94.098H209.536V96.384H204.604V99.714H210.616V102H202.156Z" fill="white"/>
<path d="M20.54 132.16V127.714C20.93 127.714 21.26 127.618 21.53 127.426C21.806 127.228 22.031 126.952 22.205 126.598C22.379 126.238 22.517 125.818 22.619 125.338C22.721 124.858 22.796 124.336 22.844 123.772C22.904 123.052 22.958 122.344 23.006 121.648C23.054 120.946 23.102 120.22 23.15 119.47C23.198 118.714 23.252 117.898 23.312 117.022L31.916 117.04V127.714H32.906V132.16H30.458V130H22.988V132.16H20.54ZM24.194 127.714H29.468V119.326L25.544 119.308C25.502 119.902 25.466 120.448 25.436 120.946C25.412 121.444 25.382 121.948 25.346 122.458C25.31 122.968 25.262 123.538 25.202 124.168C25.142 124.798 25.082 125.317 25.022 125.725C24.962 126.127 24.869 126.478 24.743 126.778C24.623 127.078 24.44 127.39 24.194 127.714ZM40.445 130.27C39.149 130.27 38.03 129.988 37.088 129.424C36.152 128.86 35.429 128.071 34.919 127.057C34.415 126.043 34.163 124.864 34.163 123.52C34.163 122.176 34.415 120.997 34.919 119.983C35.429 118.969 36.152 118.18 37.088 117.616C38.03 117.052 39.149 116.77 40.445 116.77C41.741 116.77 42.857 117.052 43.793 117.616C44.735 118.18 45.458 118.969 45.962 119.983C46.472 120.997 46.727 122.176 46.727 123.52C46.727 124.864 46.472 126.043 45.962 127.057C45.458 128.071 44.735 128.86 43.793 129.424C42.857 129.988 41.741 130.27 40.445 130.27ZM40.445 127.966C41.267 127.978 41.951 127.801 42.497 127.435C43.043 127.069 43.451 126.55 43.721 125.878C43.997 125.206 44.135 124.42 44.135 123.52C44.135 122.62 43.997 121.84 43.721 121.18C43.451 120.52 43.043 120.007 42.497 119.641C41.951 119.275 41.267 119.086 40.445 119.074C39.623 119.062 38.939 119.239 38.393 119.605C37.847 119.971 37.436 120.49 37.16 121.162C36.89 121.834 36.755 122.62 36.755 123.52C36.755 124.42 36.89 125.2 37.16 125.86C37.436 126.52 37.847 127.033 38.393 127.399C38.939 127.765 39.623 127.954 40.445 127.966ZM51.7672 129.982V127.858L57.2032 123.034C57.6112 122.674 57.8992 122.335 58.0672 122.017C58.2352 121.699 58.3192 121.402 58.3192 121.126C58.3192 120.73 58.2382 120.379 58.0762 120.073C57.9142 119.761 57.6862 119.518 57.3922 119.344C57.0982 119.164 56.7532 119.074 56.3572 119.074C55.9432 119.074 55.5772 119.17 55.2592 119.362C54.9472 119.548 54.7042 119.797 54.5302 120.109C54.3562 120.415 54.2752 120.748 54.2872 121.108H51.7672C51.7672 120.22 51.9622 119.452 52.3522 118.804C52.7422 118.156 53.2852 117.655 53.9812 117.301C54.6772 116.947 55.4872 116.77 56.4112 116.77C57.2572 116.77 58.0132 116.956 58.6792 117.328C59.3512 117.694 59.8792 118.207 60.2632 118.867C60.6472 119.527 60.8392 120.292 60.8392 121.162C60.8392 121.804 60.7492 122.338 60.5692 122.764C60.3892 123.184 60.1222 123.574 59.7682 123.934C59.4142 124.288 58.9792 124.69 58.4632 125.14L54.9532 128.218L54.7552 127.678H60.8392V129.982H51.7672ZM67.7965 130.27C66.8365 130.27 65.9965 130.069 65.2765 129.667C64.5565 129.265 63.9955 128.704 63.5935 127.984C63.1915 127.264 62.9905 126.424 62.9905 125.464V121.576C62.9905 120.616 63.1915 119.776 63.5935 119.056C63.9955 118.336 64.5565 117.775 65.2765 117.373C65.9965 116.971 66.8365 116.77 67.7965 116.77C68.7565 116.77 69.5965 116.971 70.3165 117.373C71.0365 117.775 71.5975 118.336 71.9995 119.056C72.4015 119.776 72.6025 120.616 72.6025 121.576V125.464C72.6025 126.424 72.4015 127.264 71.9995 127.984C71.5975 128.704 71.0365 129.265 70.3165 129.667C69.5965 130.069 68.7565 130.27 67.7965 130.27ZM67.7965 127.948C68.2285 127.948 68.6185 127.846 68.9665 127.642C69.3145 127.438 69.5905 127.162 69.7945 126.814C69.9985 126.466 70.1005 126.076 70.1005 125.644V121.378C70.1005 120.946 69.9985 120.556 69.7945 120.208C69.5905 119.86 69.3145 119.584 68.9665 119.38C68.6185 119.176 68.2285 119.074 67.7965 119.074C67.3645 119.074 66.9745 119.176 66.6265 119.38C66.2785 119.584 66.0025 119.86 65.7985 120.208C65.5945 120.556 65.4925 120.946 65.4925 121.378V125.644C65.4925 126.076 65.5945 126.466 65.7985 126.814C66.0025 127.162 66.2785 127.438 66.6265 127.642C66.9745 127.846 67.3645 127.948 67.7965 127.948ZM86.0849 130V124.348L86.4269 124.906C86.0969 125.2 85.6259 125.428 85.0139 125.59C84.4079 125.746 83.7749 125.824 83.1149 125.824C82.0349 125.824 81.1739 125.611 80.5319 125.185C79.8899 124.753 79.4279 124.159 79.1459 123.403C78.8639 122.641 78.7229 121.762 78.7229 120.766V117.04H81.2069V120.028C81.2069 120.418 81.2219 120.817 81.2519 121.225C81.2819 121.633 81.3689 122.011 81.5129 122.359C81.6629 122.707 81.9089 122.989 82.2509 123.205C82.5929 123.415 83.0729 123.52 83.6909 123.52C84.3569 123.52 84.9209 123.406 85.3829 123.178C85.8449 122.944 86.1689 122.698 86.3549 122.44L86.0849 123.538V117.04H88.5509V130H86.0849ZM91.0627 130V117.04H99.5227V119.326H93.5107V122.098H98.4427V124.384H93.5107V127.714H99.5227V130H91.0627ZM100.78 130V127.966C101.056 127.984 101.29 127.96 101.482 127.894C101.674 127.828 101.836 127.708 101.968 127.534C102.106 127.354 102.226 127.108 102.328 126.796C102.43 126.478 102.526 126.082 102.616 125.608C102.76 124.858 102.88 124.069 102.976 123.241C103.078 122.407 103.162 121.591 103.228 120.793C103.294 119.995 103.345 119.269 103.381 118.615C103.417 117.955 103.444 117.43 103.462 117.04H112.3V130H109.852V119.326H105.712C105.688 119.662 105.655 120.1 105.613 120.64C105.577 121.18 105.526 121.777 105.46 122.431C105.394 123.085 105.313 123.763 105.217 124.465C105.121 125.167 105.004 125.848 104.866 126.508C104.74 127.15 104.587 127.72 104.407 128.218C104.227 128.71 103.987 129.115 103.687 129.433C103.393 129.745 103.012 129.952 102.544 130.054C102.076 130.156 101.488 130.138 100.78 130ZM120.39 130.27C119.094 130.27 117.975 129.988 117.033 129.424C116.097 128.86 115.374 128.071 114.864 127.057C114.36 126.043 114.108 124.864 114.108 123.52C114.108 122.176 114.36 120.997 114.864 119.983C115.374 118.969 116.097 118.18 117.033 117.616C117.975 117.052 119.094 116.77 120.39 116.77C121.686 116.77 122.802 117.052 123.738 117.616C124.68 118.18 125.403 118.969 125.907 119.983C126.417 120.997 126.672 122.176 126.672 123.52C126.672 124.864 126.417 126.043 125.907 127.057C125.403 128.071 124.68 128.86 123.738 129.424C122.802 129.988 121.686 130.27 120.39 130.27ZM120.39 127.966C121.212 127.978 121.896 127.801 122.442 127.435C122.988 127.069 123.396 126.55 123.666 125.878C123.942 125.206 124.08 124.42 124.08 123.52C124.08 122.62 123.942 121.84 123.666 121.18C123.396 120.52 122.988 120.007 122.442 119.641C121.896 119.275 121.212 119.086 120.39 119.074C119.568 119.062 118.884 119.239 118.338 119.605C117.792 119.971 117.381 120.49 117.105 121.162C116.835 121.834 116.7 122.62 116.7 123.52C116.7 124.42 116.835 125.2 117.105 125.86C117.381 126.52 117.792 127.033 118.338 127.399C118.884 127.765 119.568 127.954 120.39 127.966ZM128.469 130V117.04H133.653C134.577 117.04 135.324 117.226 135.894 117.598C136.464 117.964 136.881 118.426 137.145 118.984C137.409 119.542 137.541 120.106 137.541 120.676C137.541 121.402 137.376 122.005 137.046 122.485C136.722 122.965 136.275 123.286 135.705 123.448V122.998C136.515 123.166 137.121 123.541 137.523 124.123C137.931 124.705 138.135 125.356 138.135 126.076C138.135 126.85 137.991 127.531 137.703 128.119C137.421 128.707 136.989 129.169 136.407 129.505C135.825 129.835 135.093 130 134.211 130H128.469ZM130.953 127.696H133.959C134.289 127.696 134.583 127.627 134.841 127.489C135.099 127.345 135.3 127.147 135.444 126.895C135.594 126.637 135.669 126.334 135.669 125.986C135.669 125.68 135.606 125.407 135.48 125.167C135.354 124.927 135.162 124.738 134.904 124.6C134.652 124.456 134.337 124.384 133.959 124.384H130.953V127.696ZM130.953 122.098H133.617C133.893 122.098 134.139 122.05 134.355 121.954C134.571 121.858 134.742 121.711 134.868 121.513C134.994 121.309 135.057 121.048 135.057 120.73C135.057 120.334 134.934 120.001 134.688 119.731C134.442 119.461 134.085 119.326 133.617 119.326H130.953V122.098ZM139.93 130V117.04H148.39V119.326H142.378V122.098H147.31V124.384H142.378V127.714H148.39V130H139.93ZM150.547 130V117.04H152.995V123.016L157.927 117.04H160.915L155.497 123.43L161.257 130H158.161L152.995 124.096V130H150.547Z" fill="white"/>
<g clip-path="url(#clip1_1142_7302)">
<g clip-path="url(#clip2_1142_7302)">
<path d="M274.254 195.538C276.024 195.155 277.678 194.358 279.081 193.213L285.424 187.937C287.206 187.837 288.879 187.05 290.091 185.742C291.304 184.434 291.963 182.706 291.928 180.923C291.842 179.142 291.099 177.457 289.844 176.192C288.589 174.926 286.909 174.17 285.13 174.07L268.478 172.54C268.174 172.513 267.894 172.365 267.7 172.131C267.505 171.897 267.411 171.595 267.439 171.292L268.174 163.286C268.191 163.042 268.292 162.811 268.459 162.633C268.627 162.455 268.852 162.34 269.094 162.309C272.897 161.508 276.348 159.521 278.95 156.635C281.553 153.749 283.174 150.112 283.579 146.248L283.79 143.96C283.901 142.747 283.526 141.539 282.747 140.602C281.968 139.666 280.848 139.077 279.635 138.965C278.422 138.854 277.214 139.229 276.277 140.008C275.34 140.787 274.751 141.906 274.64 143.12L274.43 145.407C274.303 146.709 273.899 147.969 273.246 149.102C272.593 150.236 271.706 151.217 270.643 151.979C270.152 152.303 269.225 151.849 269.225 151.849L270.065 142.7C270.177 141.486 269.802 140.278 269.023 139.342C268.243 138.405 267.124 137.816 265.911 137.705C264.697 137.593 263.49 137.968 262.553 138.747C261.616 139.526 261.027 140.646 260.916 141.859L260.075 151.009C260.075 151.009 259.035 151.282 258.657 150.878C257.751 149.935 257.057 148.809 256.622 147.575C256.186 146.342 256.019 145.03 256.131 143.726L256.341 141.439C256.452 140.226 256.077 139.018 255.298 138.081C254.519 137.144 253.4 136.555 252.186 136.444C250.973 136.332 249.765 136.708 248.829 137.487C247.892 138.266 247.303 139.385 247.192 140.598L246.981 142.886C246.635 146.788 247.544 150.699 249.577 154.047C251.61 157.396 254.659 160.007 258.281 161.501C258.486 161.564 258.668 161.688 258.8 161.857C258.933 162.026 259.012 162.231 259.025 162.445L258.306 170.268C258.278 170.572 258.131 170.851 257.897 171.046C257.663 171.241 257.361 171.335 257.057 171.307L199.233 165.995C197.436 165.772 195.622 166.233 194.149 167.285C192.676 168.338 191.653 169.906 191.283 171.678C190.924 173.425 191.256 175.244 192.211 176.751C193.165 178.258 194.667 179.337 196.4 179.76L201.759 186.203C202.93 187.584 204.411 188.669 206.082 189.368C206.227 189.424 206.36 189.508 206.472 189.616C206.584 189.725 206.672 189.854 206.733 189.998C206.793 190.142 206.823 190.296 206.822 190.452C206.82 190.607 206.788 190.761 206.725 190.904L192.806 219.381C192.489 220.042 192.335 220.768 192.356 221.501C192.377 222.233 192.573 222.949 192.927 223.591C193.312 224.265 193.861 224.831 194.523 225.235C195.185 225.64 195.939 225.87 196.715 225.905C197.49 225.939 198.262 225.776 198.957 225.432C199.653 225.087 200.25 224.572 200.692 223.935L222.724 192.004C222.84 191.833 222.999 191.696 223.186 191.607C223.373 191.519 223.58 191.483 223.785 191.502L256.358 194.494C256.564 194.512 256.761 194.586 256.928 194.707C257.096 194.828 257.227 194.992 257.31 195.181L273.156 230.591C273.489 231.334 274.012 231.976 274.674 232.45C275.336 232.924 276.111 233.214 276.922 233.29C277.653 233.349 278.388 233.233 279.065 232.95C279.742 232.667 280.342 232.226 280.813 231.664C281.285 231.103 281.615 230.436 281.776 229.72C281.938 229.004 281.925 228.26 281.74 227.55L273.342 196.931C273.306 196.779 273.302 196.622 273.329 196.468C273.356 196.315 273.414 196.169 273.499 196.039C273.584 195.908 273.695 195.797 273.825 195.711C273.955 195.625 274.101 195.566 274.254 195.538Z" fill="white"/>
<path d="M204.944 161.076C205.127 161.41 205.39 161.692 205.709 161.899C206.028 162.105 206.394 162.229 206.773 162.259L228.091 164.218C228.469 164.257 228.851 164.201 229.203 164.057C229.554 163.912 229.864 163.682 230.105 163.388L236.093 155.957C236.558 155.298 236.842 154.529 236.916 153.726C236.99 152.922 236.851 152.114 236.513 151.382C236.191 150.616 235.668 149.951 234.998 149.459C234.328 148.967 233.538 148.666 232.71 148.587L204.85 146.028C204.047 145.934 203.233 146.053 202.491 146.373C201.749 146.694 201.104 147.205 200.622 147.854C200.189 148.536 199.944 149.32 199.91 150.127C199.876 150.933 200.056 151.735 200.431 152.45L204.944 161.076Z" fill="white"/>
<path d="M252.607 131.87C253.82 131.981 255.028 131.606 255.965 130.827C256.902 130.048 257.491 128.928 257.602 127.715C257.492 125.525 256.794 123.406 255.582 121.578C255.365 121.259 255.08 120.991 254.747 120.795C254.414 120.599 254.042 120.479 253.657 120.444C253.272 120.408 252.884 120.459 252.521 120.591C252.158 120.723 251.828 120.934 251.557 121.209C250.031 122.758 248.933 124.675 248.369 126.775C248.3 127.39 248.356 128.013 248.534 128.605C248.712 129.198 249.007 129.749 249.403 130.225C249.799 130.701 250.286 131.092 250.837 131.375C251.388 131.657 251.99 131.826 252.607 131.87Z" fill="white"/>
<path d="M266.331 133.13C267.545 133.242 268.752 132.867 269.689 132.087C270.626 131.308 271.215 130.189 271.326 128.976C271.216 126.786 270.518 124.666 269.306 122.839C269.089 122.519 268.804 122.252 268.471 122.056C268.138 121.86 267.766 121.739 267.381 121.704C266.996 121.669 266.608 121.719 266.245 121.851C265.882 121.984 265.553 122.195 265.281 122.469C263.755 124.018 262.658 125.936 262.094 128.035C262.025 128.65 262.081 129.273 262.258 129.866C262.436 130.459 262.731 131.01 263.127 131.486C263.523 131.961 264.011 132.352 264.561 132.635C265.112 132.918 265.714 133.086 266.331 133.13Z" fill="white"/>
<path d="M280.056 134.391C281.269 134.502 282.477 134.127 283.414 133.348C284.35 132.569 284.939 131.45 285.051 130.236C284.94 128.047 284.242 125.927 283.031 124.1C282.813 123.78 282.528 123.513 282.195 123.316C281.862 123.12 281.49 123 281.105 122.965C280.72 122.929 280.332 122.98 279.969 123.112C279.606 123.244 279.277 123.455 279.005 123.73C277.48 125.279 276.382 127.197 275.818 129.296C275.749 129.911 275.805 130.534 275.982 131.127C276.16 131.72 276.456 132.271 276.851 132.746C277.247 133.222 277.735 133.613 278.286 133.896C278.836 134.178 279.438 134.347 280.056 134.391Z" fill="white"/>
</g>
</g>
<g clip-path="url(#clip3_1142_7302)">
<path d="M31.5685 249.253C32.8963 249.278 34.219 249.019 35.5467 249.059C36.8744 249.094 38.2866 249.487 39.1121 250.526C40.7531 252.59 39.2265 255.663 39.7934 258.239C40.1912 260.044 41.683 261.511 43.4384 262.097C45.1937 262.684 47.1579 262.46 48.8486 261.714C50.0421 261.187 51.3947 260.402 52.5384 261.028C53.518 261.56 53.7517 262.858 53.7119 263.972C53.6722 265.086 53.4832 266.274 54.0053 267.259C54.8457 268.85 57.0635 269.064 58.8139 268.641C60.5643 268.219 62.2799 267.373 64.0651 267.582C65.1193 267.707 66.0989 268.199 67.1382 268.413C68.1775 268.627 69.5947 269.88 70.2064 269.014C70.9224 268.547 71.1412 266.2 71.2456 265.32C71.37 264.265 71.2059 263.181 71.4197 262.142C71.7777 260.382 73.1203 259.014 74.0652 257.488C75.01 255.961 75.5023 253.788 74.2541 252.49C73.4834 251.685 72.2949 251.496 71.2208 251.182C70.1516 250.874 68.993 250.242 68.7891 249.143C68.5554 247.861 69.724 246.821 70.5992 245.852C71.8374 244.479 72.6629 242.684 72.6529 240.834C72.643 238.984 71.7181 237.11 70.1268 236.165C67.8592 234.822 64.4579 235.309 63.0109 233.107C62.2799 231.998 62.3495 230.531 62.7324 229.258C63.1153 227.985 63.7717 226.811 64.1645 225.543C64.7861 223.529 64.7016 221.272 63.7468 219.397C62.7871 217.522 60.9223 216.09 58.8288 215.841C57.158 215.642 55.4225 216.17 53.8014 215.727C51.4643 215.095 50.0769 212.669 49.4851 210.322C48.8884 207.98 48.8188 205.488 47.8591 203.265C46.8993 201.043 44.6318 199.083 42.2648 199.591C39.5398 200.172 37.8988 203.693 35.1141 203.594C32.6576 203.504 31.3696 200.744 29.6143 199.024C26.5262 195.99 20.7728 196.438 18.187 199.904C16.4217 202.176 15.8996 205.528 17.1875 208.139C18.2765 210.347 20.4944 212.43 19.8081 214.792C19.0324 217.467 16.2129 218.507 14.8056 220.914C13.5873 223.002 13.6967 225.19 15.5117 226.796C17.3218 228.402 19.6639 229.248 21.7077 230.546C23.7465 231.844 25.6212 233.922 25.4919 236.334C25.4024 238.015 24.3631 239.496 24.025 241.147C23.6073 243.211 24.383 245.434 25.8649 246.931C27.3467 248.427 29.4651 249.213 31.5735 249.253H31.5685Z" fill="#FFFAFC"/>
<path d="M54.8357 244.788C54.1346 240.551 55.1987 236.105 57.6751 232.699C55.3728 236.225 54.5772 240.64 55.4573 244.673L54.8407 244.793L54.8357 244.788Z" fill="#404040"/>
<path d="M69.9228 269.815C57.69 247.776 44.5621 228.721 28.6594 211.709C28.6594 211.709 39.4601 222.878 46.6258 231.968C54.95 242.525 71.0367 269.636 71.0367 269.636L69.9178 269.815H69.9228Z" fill="#404040"/>
<path d="M43.3835 229.024C39.5397 225.901 34.8802 223.753 29.9573 222.858C34.915 223.544 39.7137 225.503 43.7714 228.527L43.3835 229.024Z" fill="#404040"/>
</g>
<g clip-path="url(#clip4_1142_7302)">
<path d="M107.87 259.359C106.743 259.38 105.62 259.161 104.493 259.195C103.366 259.224 102.167 259.558 101.466 260.44C100.073 262.192 101.369 264.801 100.888 266.988C100.55 268.52 99.2838 269.765 97.7937 270.263C96.3035 270.762 94.636 270.572 93.2007 269.938C92.1875 269.491 91.0393 268.824 90.0684 269.356C89.2367 269.808 89.0383 270.909 89.0721 271.855C89.1059 272.801 89.2663 273.809 88.823 274.645C88.1096 275.996 86.2268 276.178 84.7408 275.819C83.2549 275.46 81.7985 274.742 80.283 274.92C79.388 275.025 78.5564 275.443 77.6741 275.625C76.7918 275.806 75.5887 276.87 75.0694 276.136C74.4616 275.739 74.2758 273.746 74.1872 272.999C74.0816 272.104 74.2209 271.184 74.0394 270.301C73.7355 268.807 72.5957 267.646 71.7936 266.35C70.9915 265.054 70.5736 263.209 71.6332 262.108C72.2875 261.424 73.2964 261.263 74.2083 260.997C75.1159 260.736 76.0995 260.199 76.2726 259.266C76.471 258.177 75.4789 257.295 74.7359 256.472C73.6848 255.307 72.984 253.783 72.9925 252.212C73.0009 250.642 73.7861 249.051 75.137 248.248C77.062 247.109 79.9495 247.522 81.1779 245.652C81.7985 244.711 81.7394 243.465 81.4143 242.385C81.0893 241.304 80.532 240.308 80.1985 239.231C79.6709 237.522 79.7426 235.605 80.5531 234.014C81.3679 232.422 82.9509 231.206 84.7282 230.995C86.1466 230.826 87.6199 231.274 88.9961 230.898C90.9802 230.362 92.158 228.302 92.6603 226.309C93.1669 224.321 93.226 222.206 94.0408 220.319C94.8555 218.432 96.7805 216.769 98.7899 217.199C101.103 217.693 102.496 220.682 104.86 220.598C106.946 220.522 108.039 218.179 109.529 216.718C112.151 214.143 117.035 214.523 119.23 217.465C120.729 219.395 121.172 222.24 120.079 224.456C119.154 226.331 117.272 228.099 117.854 230.105C118.513 232.376 120.906 233.258 122.101 235.301C123.135 237.074 123.042 238.932 121.501 240.295C119.965 241.659 117.977 242.376 116.242 243.478C114.511 244.58 112.919 246.345 113.029 248.392C113.105 249.819 113.987 251.077 114.274 252.478C114.629 254.23 113.97 256.117 112.712 257.388C111.454 258.659 109.656 259.326 107.866 259.359H107.87Z" fill="#FFFAFC"/>
<path d="M75.3103 276.815C85.6951 258.105 96.8398 241.929 110.34 227.487C110.34 227.487 101.171 236.969 95.0879 244.685C88.0211 253.648 74.3646 276.663 74.3646 276.663L75.3145 276.815H75.3103Z" fill="#404040"/>
<path d="M97.84 242.186C101.103 239.535 105.059 237.712 109.238 236.952C105.029 237.534 100.955 239.197 97.5108 241.764L97.84 242.186Z" fill="#404040"/>
</g>
<path d="M50 144.573C70.2349 142.77 90.7497 143.317 111.045 142.581C120.632 142.234 122.466 142.104 130.963 141.659C132.341 141.587 138.478 140.527 140.295 141.253C141.813 141.861 137.136 142.099 135.573 142.581C134.089 143.039 120.217 146.611 129.819 149.221C136.623 151.07 150.342 151.412 156.487 151.655C165.438 152.009 174.491 152.313 183.45 152.54" stroke="white" stroke-width="3" stroke-linecap="round"/>
</g>
<defs>
<clipPath id="clip0_1142_7302">
<rect width="307" height="238" rx="20" fill="white"/>
</clipPath>
<clipPath id="clip1_1142_7302">
<rect width="106" height="124" fill="white" transform="translate(194.407 111) rotate(5.24824)"/>
</clipPath>
<clipPath id="clip2_1142_7302">
<rect width="110.256" height="110.256" fill="white" transform="translate(191.898 114.759) rotate(5.24824)"/>
</clipPath>
<clipPath id="clip3_1142_7302">
<rect width="61" height="72.8151" fill="white" transform="translate(14 197)"/>
</clipPath>
<clipPath id="clip4_1142_7302">
<rect width="51.7849" height="61.8151" fill="white" transform="matrix(-1 0 0 1 122.785 215)"/>
</clipPath>
</defs>
</svg>
