<svg width="40" height="40" viewBox="0 0 40 40" fill="none" xmlns="http://www.w3.org/2000/svg">
<path d="M0 19.1667C0 10.1314 0 5.61378 2.80689 2.80689C5.61378 0 10.1314 0 19.1667 0H20.8333C29.8686 0 34.3862 0 37.1931 2.80689C40 5.61378 40 10.1314 40 19.1667V20.8333C40 29.8686 40 34.3862 37.1931 37.1931C34.3862 40 29.8686 40 20.8333 40H19.1667C10.1314 40 5.61378 40 2.80689 37.1931C0 34.3862 0 29.8686 0 20.8333L0 19.1667Z" fill="#748A5B"/>
<path fill-rule="evenodd" clip-rule="evenodd" d="M10.4387 13.4165H7.62781C6.82469 13.4165 6.66406 13.7958 6.66406 14.2138C6.66406 14.9607 7.61702 18.6645 11.1012 23.5632C13.4239 26.9086 16.6965 28.7221 19.6744 28.7221C21.4612 28.7221 21.6822 28.3193 21.6822 27.6255V25.0971C21.6822 24.2915 21.8514 24.1307 22.4172 24.1307C22.8341 24.1307 23.5488 24.3398 25.2165 25.9528C27.1224 27.8645 27.4366 28.7221 28.5085 28.7221H31.3194C32.1226 28.7221 32.5241 28.3193 32.2925 27.5244C32.039 26.7323 31.129 25.5828 29.9216 24.2204C29.2664 23.4437 28.2837 22.6074 27.9859 22.1892C27.569 21.6515 27.6881 21.4125 27.9859 20.9347C27.9859 20.9347 31.4105 16.0957 31.7679 14.4529C31.9466 13.8555 31.7679 13.4165 30.9179 13.4165H28.107C27.3923 13.4165 27.0628 13.7958 26.8841 14.2138C26.8841 14.2138 25.4547 17.7087 23.4297 19.9788C22.7746 20.6359 22.4768 20.845 22.1194 20.845C21.9407 20.845 21.6821 20.6359 21.6821 20.0386V14.4529C21.6821 13.736 21.4747 13.4165 20.879 13.4165H16.4619C16.0153 13.4165 15.7467 13.7492 15.7467 14.0646C15.7467 14.7441 16.7592 14.9009 16.8636 16.8126V20.9646C16.8636 21.8748 16.6996 22.0399 16.3423 22.0399C15.3894 22.0399 13.0714 18.5294 11.6967 14.5126C11.4273 13.7319 11.157 13.4165 10.4387 13.4165Z" fill="white"/>
</svg>
