<svg width="40" height="40" viewBox="0 0 40 40" fill="none" xmlns="http://www.w3.org/2000/svg">
<g clip-path="url(#clip0_1428_951)">
<path d="M40 29.8493C40 30.0685 39.9932 30.5411 39.9795 30.911C39.9452 31.8082 39.8767 32.9658 39.7671 33.4931C39.6027 34.2877 39.363 35.0342 39.0411 35.6575C38.6644 36.3973 38.1849 37.0548 37.6096 37.6233C37.0411 38.1918 36.3836 38.6712 35.6438 39.0479C35.0205 39.3699 34.2671 39.6096 33.4658 39.774C32.9452 39.8767 31.7945 39.9521 30.9041 39.9795C30.5342 39.9932 30.0616 40 29.8425 40H10.1438C9.92466 40 9.45205 39.9932 9.08219 39.9795C8.18493 39.9452 7.0274 39.8767 6.5 39.7671C5.70548 39.6027 4.9589 39.363 4.33562 39.0411C3.59589 38.6644 2.93836 38.1849 2.36986 37.6096C1.80137 37.0411 1.32192 36.3836 0.945206 35.6438C0.623288 35.0205 0.383562 34.2671 0.219178 33.4658C0.116438 32.9452 0.0410959 31.7945 0.0136986 30.9041C0.00684932 30.5411 0 30.0685 0 29.8493V10.1507C0 9.93151 0.00684932 9.4589 0.0205479 9.08904C0.0547945 8.19178 0.123288 7.03425 0.232877 6.50685C0.39726 5.71233 0.636986 4.96575 0.958904 4.34247C1.33562 3.60274 1.81507 2.94521 2.38356 2.37671C2.95205 1.80822 3.60959 1.32877 4.34932 0.952055C4.9726 0.630137 5.72603 0.390411 6.5274 0.226027C7.04795 0.123288 8.19863 0.0479452 9.08904 0.0205479C9.4589 0.00684932 9.93151 0 10.1507 0H29.8493C30.0685 0 30.5411 0.00684932 30.911 0.0205479C31.8082 0.0547945 32.9658 0.123288 33.4931 0.232877C34.2877 0.39726 35.0342 0.636986 35.6575 0.958904C36.3973 1.33562 37.0548 1.81507 37.6233 2.39041C38.1918 2.9589 38.6712 3.61644 39.0479 4.35616C39.3699 4.97945 39.6096 5.73288 39.774 6.53425C39.8767 7.05479 39.9521 8.20548 39.9795 9.09589C39.9932 9.46575 40 9.93836 40 10.1575V29.8493Z" fill="#748A5B"/>
<path fill-rule="evenodd" clip-rule="evenodd" d="M30.5204 9.57554C27.8287 6.88376 24.2465 5.39746 20.4314 5.39746C12.5684 5.39746 6.17797 11.7947 6.17113 19.6509C6.17113 22.1646 6.82866 24.6166 8.07524 26.7742L6.05469 34.1646L13.6163 32.1851C15.6985 33.3221 18.041 33.918 20.4314 33.918H20.4382C28.2944 33.918 34.6917 27.5207 34.6985 19.6646C34.6985 15.8495 33.2122 12.2673 30.5204 9.57554ZM20.4382 31.5071C18.3081 31.5071 16.2191 30.9317 14.404 29.8564L13.9725 29.6029L9.48619 30.781L10.6848 26.4112L10.404 25.966C9.21907 24.0824 8.58893 21.8975 8.58893 19.6577C8.58893 13.1235 13.9109 7.80842 20.4451 7.80842C23.6095 7.80842 26.5889 9.0413 28.8218 11.281C31.0615 13.5207 32.2944 16.5002 32.2876 19.6646C32.2807 26.192 26.9656 31.5071 20.4382 31.5071ZM26.9382 22.6372C26.5821 22.4591 24.8287 21.5961 24.5067 21.4797C24.178 21.3632 23.9451 21.3016 23.7054 21.6577C23.4656 22.0139 22.7876 22.8153 22.5752 23.055C22.3698 23.2947 22.1574 23.3221 21.8013 23.144C21.4451 22.966 20.2944 22.5892 18.9382 21.3769C17.8766 20.4317 17.1643 19.2673 16.9588 18.9112C16.7533 18.555 16.9382 18.3632 17.1163 18.1851C17.2739 18.0276 17.4725 17.7673 17.6506 17.5618C17.8287 17.3564 17.8903 17.2057 18.0067 16.966C18.1232 16.7262 18.0684 16.5207 17.9793 16.3427C17.8903 16.1646 17.178 14.4112 16.8835 13.6988C16.5958 13.007 16.3013 13.0961 16.0821 13.0892C15.8766 13.0755 15.6369 13.0755 15.3972 13.0755C15.1574 13.0755 14.7739 13.1646 14.4451 13.5207C14.1163 13.8769 13.1985 14.7399 13.1985 16.4934C13.1985 18.2468 14.4725 19.9386 14.6506 20.1783C14.8287 20.418 17.1643 24.0139 20.7396 25.555C21.5889 25.9249 22.2533 26.144 22.7739 26.3084C23.63 26.5824 24.404 26.5413 25.0204 26.4523C25.7054 26.3495 27.13 25.5892 27.4246 24.7605C27.7191 23.9317 27.7191 23.2125 27.63 23.0687C27.5273 22.9043 27.2944 22.8153 26.9382 22.6372Z" fill="white"/>
</g>
<defs>
<clipPath id="clip0_1428_951">
<rect width="40" height="40" fill="white"/>
</clipPath>
</defs>
</svg>
