<svg width="40" height="40" viewBox="0 0 40 40" fill="none" xmlns="http://www.w3.org/2000/svg">
<g clip-path="url(#clip0_843_4733)">
<path d="M40 29.8493C40 30.0685 39.9932 30.5411 39.9795 30.911C39.9452 31.8082 39.8767 32.9658 39.7671 33.4931C39.6027 34.2877 39.363 35.0342 39.0411 35.6575C38.6644 36.3973 38.1849 37.0548 37.6096 37.6233C37.0411 38.1918 36.3836 38.6712 35.6438 39.0479C35.0205 39.3699 34.2671 39.6096 33.4658 39.774C32.9452 39.8767 31.7945 39.9521 30.9041 39.9795C30.5342 39.9932 30.0616 40 29.8425 40H10.1438C9.92466 40 9.45205 39.9932 9.08219 39.9795C8.18493 39.9452 7.0274 39.8767 6.5 39.7671C5.70548 39.6027 4.9589 39.363 4.33562 39.0411C3.59589 38.6644 2.93836 38.1849 2.36986 37.6096C1.80137 37.0411 1.32192 36.3836 0.945206 35.6438C0.623288 35.0205 0.383562 34.2671 0.219178 33.4658C0.116438 32.9452 0.0410959 31.7945 0.0136986 30.9041C0.00684932 30.5411 0 30.0685 0 29.8493V10.1507C0 9.93151 0.00684932 9.4589 0.0205479 9.08904C0.0547945 8.19178 0.123288 7.03425 0.232877 6.50685C0.39726 5.71233 0.636986 4.96575 0.958904 4.34247C1.33562 3.60274 1.81507 2.94521 2.38356 2.37671C2.95205 1.80822 3.60959 1.32877 4.34932 0.952055C4.9726 0.630137 5.72603 0.390411 6.5274 0.226027C7.04795 0.123288 8.19863 0.0479452 9.08904 0.0205479C9.4589 0.00684932 9.93151 0 10.1507 0H29.8493C30.0685 0 30.5411 0.00684932 30.911 0.0205479C31.8082 0.0547945 32.9658 0.123288 33.4931 0.232877C34.2877 0.39726 35.0342 0.636986 35.6575 0.958904C36.3973 1.33562 37.0548 1.81507 37.6233 2.39041C38.1918 2.9589 38.6712 3.61644 39.0479 4.35616C39.3699 4.97945 39.6096 5.73288 39.774 6.53425C39.8767 7.05479 39.9521 8.20548 39.9795 9.09589C39.9932 9.46575 40 9.93836 40 10.1575V29.8493Z" fill="#748A5B"/>
<path fill-rule="evenodd" clip-rule="evenodd" d="M30.5206 9.57554C27.8288 6.88376 24.2466 5.39746 20.4315 5.39746C12.5685 5.39746 6.1781 11.7947 6.17125 19.6509C6.17125 22.1646 6.82878 24.6166 8.07536 26.7742L6.05481 34.1646L13.6165 32.1851C15.6986 33.3221 18.0411 33.918 20.4315 33.918H20.4384C28.2945 33.918 34.6918 27.5207 34.6986 19.6646C34.6986 15.8495 33.2123 12.2673 30.5206 9.57554ZM20.4384 31.5071C18.3082 31.5071 16.2192 30.9317 14.4041 29.8564L13.9726 29.6029L9.48632 30.781L10.6849 26.4112L10.4041 25.966C9.21919 24.0824 8.58906 21.8975 8.58906 19.6577C8.58906 13.1235 13.911 7.80842 20.4452 7.80842C23.6096 7.80842 26.5891 9.0413 28.8219 11.281C31.0617 13.5207 32.2945 16.5002 32.2877 19.6646C32.2808 26.192 26.9658 31.5071 20.4384 31.5071ZM26.9384 22.6372C26.5822 22.4591 24.8288 21.5961 24.5069 21.4797C24.1781 21.3632 23.9452 21.3016 23.7055 21.6577C23.4658 22.0139 22.7877 22.8153 22.5754 23.055C22.3699 23.2947 22.1575 23.3221 21.8014 23.144C21.4452 22.966 20.2945 22.5892 18.9384 21.3769C17.8767 20.4317 17.1644 19.2673 16.9589 18.9112C16.7534 18.555 16.9384 18.3632 17.1165 18.1851C17.274 18.0276 17.4726 17.7673 17.6507 17.5618C17.8288 17.3564 17.8904 17.2057 18.0069 16.966C18.1233 16.7262 18.0685 16.5207 17.9795 16.3427C17.8904 16.1646 17.1781 14.4112 16.8836 13.6988C16.5959 13.007 16.3014 13.0961 16.0822 13.0892C15.8767 13.0755 15.637 13.0755 15.3973 13.0755C15.1575 13.0755 14.774 13.1646 14.4452 13.5207C14.1165 13.8769 13.1986 14.7399 13.1986 16.4934C13.1986 18.2468 14.4726 19.9386 14.6507 20.1783C14.8288 20.418 17.1644 24.0139 20.7397 25.555C21.5891 25.9249 22.2534 26.144 22.774 26.3084C23.6302 26.5824 24.4041 26.5413 25.0206 26.4523C25.7055 26.3495 27.1302 25.5892 27.4247 24.7605C27.7192 23.9317 27.7192 23.2125 27.6302 23.0687C27.5274 22.9043 27.2945 22.8153 26.9384 22.6372Z" fill="white"/>
</g>
<defs>
<clipPath id="clip0_843_4733">
<rect width="40" height="40" fill="white"/>
</clipPath>
</defs>
</svg>
