<svg width="39" height="52" viewBox="0 0 39 52" fill="none" xmlns="http://www.w3.org/2000/svg">
<g clip-path="url(#clip0_170_486)">
<path d="M21.3909 21.0313C21.3909 21.0313 16.9016 13.5504 11.1963 11.8764C11.1963 11.8764 -0.500394 16.7747 -4.34164 27.3287C-4.34164 27.3287 -5.66896 30.3164 -5.92196 34.7606C-6.01362 36.3509 -6.44259 37.9237 -7.64724 38.972C-7.67106 38.9881 -7.69052 39.0146 -7.71433 39.0307C-6.2671 38.3574 -3.9645 39.1284 -2.5317 39.836C1.27727 41.7237 4.90795 41.3764 4.90795 41.3764C14.4912 42.5202 25.304 33.3666 25.304 33.3666C25.8988 28.7609 22.7817 23.229 21.3865 21.0209L21.3909 21.0313Z" fill="#FFFFC0"/>
<path d="M22.0651 26.6391C23.8321 30.9461 23.9273 34.4563 23.9273 34.4563L26.5354 32.4842L26.1119 20.9239L21.3202 15.2744L16.1386 11.6702L12.345 11.322L10.1823 12.4171C10.1823 12.4171 14.6501 15.1776 19.2332 21.5254C20.0468 22.6512 20.7225 23.798 21.2743 24.9112C18.3546 26.9709 14.9301 28.8755 11.6028 30.6477C13.9031 30.6254 18.9527 28.5596 22.0591 26.6539L22.0651 26.6391Z" fill="#FFFFC0"/>
<path d="M31.4191 15.1392C31.6064 13.4416 33.8002 12.3334 33.8002 12.3334L33.8036 12.2831L33.8513 12.2509L33.7996 12.2298L33.7948 11.7369L33.3558 12.0307L33.3041 12.0096C33.3041 12.0096 31.4085 13.5672 29.7757 13.0534C28.1503 12.5425 23.4489 6.18929 17.346 6.41095C11.2431 6.63261 10.1662 11.7212 10.1662 11.7212C15.3745 12.2958 20.8402 21.0725 20.8402 21.0725C22.0713 22.9033 26.1418 29.4718 24.8129 33.725C24.8129 33.725 29.8285 34.6859 32.4939 29.1886C35.1594 23.6913 31.2275 16.8264 31.4148 15.1288L31.4191 15.1392Z" fill="#FFFFC0"/>
<path d="M23.186 10.5521C23.1968 10.3154 23.0283 10.1171 22.8006 10.0841C21.7052 9.91963 18.7382 9.48796 18.3472 9.51728C17.9991 9.54695 17.4734 12.0706 17.1998 13.4745C17.1023 13.9858 17.4357 14.4755 17.95 14.5656C19.49 14.8434 22.4359 15.3267 22.6832 14.9543C22.9604 14.551 23.1281 11.6395 23.186 10.5521Z" fill="#748A5B"/>
<path d="M22.7628 16.9679C22.7682 16.8495 22.6891 16.7482 22.5664 16.7324C22.0209 16.6553 20.5352 16.4343 20.3397 16.4489C20.1694 16.4653 19.9028 17.7256 19.7697 18.429C19.7173 18.6832 19.8928 18.9274 20.15 18.9724C20.9185 19.115 22.3908 19.3478 22.5166 19.1668C22.6515 18.9636 22.7391 17.5094 22.7658 16.9605L22.7628 16.9679Z" fill="#FFFFC0"/>
<path d="M27.4852 18.6441C27.5114 18.517 27.425 18.4127 27.2888 18.4086C26.6407 18.3929 24.9004 18.3518 24.6676 18.3943C24.4601 18.4384 23.9627 19.8626 23.7075 20.6538C23.6148 20.9432 23.78 21.1917 24.0848 21.2046C24.9858 21.255 26.714 21.3256 26.8905 21.1051C27.0834 20.8654 27.387 19.2413 27.4956 18.6398L27.4852 18.6441Z" fill="#FFFFC0"/>
<path d="M27.607 14.1204C27.6434 13.8424 27.4635 13.5878 27.1915 13.5367C26.3862 13.3791 24.8672 13.2392 24.4857 13.7289C24.1566 14.1539 24.0146 15.2155 23.9576 15.8381C23.9347 16.1044 24.1206 16.3442 24.3852 16.3923C25.0222 16.4982 26.1606 16.6631 26.6659 16.5859C27.1995 16.503 27.4923 14.9261 27.5966 14.1248L27.607 14.1204Z" fill="#FFFFC0"/>
<path d="M31.5341 15.9099C31.6198 17.5299 31.5529 21.835 28.5504 23.3612C25.3352 25.0071 23.1289 24.2324 22.5774 23.9806C24.0846 26.7773 25.7492 30.7667 24.8233 33.7208C24.8233 33.7208 29.8388 34.6816 32.5043 29.1843C34.9093 24.2177 31.994 18.2775 31.5371 15.9025L31.5341 15.9099Z" fill="#FFFFC0"/>
<path d="M7.92989 25.422C8.95798 24.0688 9.49768 22.3519 9.01243 21.0765C8.52718 19.801 6.86866 19.1819 5.36739 19.945L4.66004 20.284C2.923 21.8118 1.38537 23.5678 0.129339 25.4564C-0.497164 26.397 -1.07613 27.4949 -0.820048 28.3836C-0.595776 29.1818 0.269828 29.5708 1.18494 29.5237C2.10005 29.4765 3.0492 29.0729 3.94273 28.5948C5.4383 27.8036 6.90181 26.7752 7.93291 25.4146L7.92989 25.422Z" fill="#748A5B"/>
<g opacity="0.84">
<path d="M20.5503 7.29321C20.5261 7.35222 19.9605 7.19803 19.0287 7.11777C18.0969 7.0375 16.7881 7.07844 15.4345 7.52308C14.084 7.96034 12.9959 8.70321 12.2907 9.31013C11.5826 9.92442 11.2205 10.3877 11.1676 10.3487C11.1263 10.3232 11.415 9.78685 12.0957 9.09241C12.766 8.40231 13.8843 7.58569 15.3077 7.11795C16.731 6.65021 18.1148 6.65726 19.0667 6.81466C20.026 6.97507 20.5745 7.23421 20.5563 7.27846L20.5503 7.29321Z" fill="white"/>
</g>
<path d="M12.2345 17.3319C11.9038 16.8777 11.3775 16.6277 10.8249 16.5047L10.8544 16.5168C10.788 16.4896 10.7186 16.4697 10.6506 16.4677C10.6137 16.4526 10.5782 16.4553 10.5383 16.4475L10.6432 16.4647C10.3133 16.4501 9.97548 16.6649 9.71751 16.8951C9.40284 17.1796 9.27318 17.6433 9.38967 18.0528C9.55369 18.6196 10.1192 18.9632 10.6831 19.1426C11.1334 19.284 11.6598 19.3446 12.0513 19.0829C12.596 18.7203 12.6283 17.8636 12.2449 17.3276L12.2345 17.3319Z" fill="#FAFAFA"/>
</g>
<defs>
<clipPath id="clip0_170_486">
<rect width="34.8309" height="41" fill="white" transform="translate(6.59375 0.593628) rotate(22.2772)"/>
</clipPath>
</defs>
</svg>
