<svg width="148" height="148" viewBox="0 0 148 148" fill="none" xmlns="http://www.w3.org/2000/svg">
<g clip-path="url(#clip0_170_513)">
<path fill-rule="evenodd" clip-rule="evenodd" d="M136.395 23.7766C139.295 23.1676 141.251 20.3934 140.806 17.4251C140.345 14.3463 137.475 12.2245 134.396 12.686C133.43 12.8309 132.538 13.1708 131.982 13.3999C131.326 13.6699 130.629 14.0029 129.936 14.3597C128.544 15.0764 126.949 16.004 125.354 17.0146C122.293 18.9545 118.649 21.5715 116.434 23.9501C114.312 26.2283 114.439 29.7953 116.718 31.917C118.996 34.0388 122.563 33.9119 124.685 31.6335C125.872 30.3581 128.498 28.3695 131.389 26.5374C132.77 25.662 134.071 24.9119 135.098 24.3826C135.615 24.1163 136.009 23.9343 136.275 23.8247C136.324 23.8044 136.364 23.7886 136.395 23.7766ZM92.0654 10.5202C88.9672 10.2136 86.2072 12.4766 85.9005 15.5747C85.5939 18.6728 87.8568 21.4329 90.955 21.7396C92.528 21.8952 94.4515 22.7442 96.4619 24.3062C98.4377 25.8408 100.097 27.758 101.121 29.3659C102.793 31.9919 106.278 32.7652 108.904 31.093C111.53 29.4208 112.303 25.9364 110.631 23.3103C108.935 20.6468 106.408 17.7563 103.379 15.4029C100.385 13.077 96.4853 10.9577 92.0654 10.5202ZM99.6457 46.1725C102.759 46.1077 105.229 43.5318 105.164 40.4193C105.1 37.3067 102.524 34.836 99.4109 34.9008C90.683 35.0828 83.2665 39.5852 79.2882 43.9184C77.1823 46.2116 77.3346 49.7776 79.6277 51.8832C81.9208 53.9887 85.487 53.8366 87.5924 51.5434C89.8526 49.0817 94.4888 46.28 99.6457 46.1725ZM125.168 37.5344C122.201 36.5894 119.031 38.2281 118.086 41.1944C117.141 44.1608 118.779 47.3316 121.746 48.2766C127.359 50.0648 131.313 53.8311 133.314 56.4974C135.183 58.9874 138.716 59.4911 141.206 57.6223C143.697 55.7536 144.2 52.2201 142.331 49.7301C139.328 45.728 133.58 40.2141 125.168 37.5344ZM111.348 43.1815C114.446 43.4882 116.709 46.2483 116.402 49.3464L115.057 62.942C114.75 66.0402 111.99 68.3031 108.892 67.9965C105.794 67.6898 103.531 64.9298 103.838 61.8317L105.183 48.236C105.49 45.1379 108.25 42.8749 111.348 43.1815ZM58.4859 10.6653C58.7925 7.56717 56.5295 4.80706 53.4314 4.50044C50.3333 4.19382 47.5732 6.45678 47.2666 9.55491L46.9419 12.8353L43.272 11.005C40.4859 9.61558 37.101 10.7477 35.7116 13.5338C34.3221 16.3197 35.4542 19.7046 38.2403 21.0941L42.5922 23.2645L38.9231 27.3343C36.8384 29.6466 37.0229 33.211 39.3352 35.2957C41.6475 37.3804 45.2119 37.1958 47.2966 34.8835L50.8101 30.9864L53.4915 35.4966C55.0824 38.1727 58.5415 39.0524 61.2176 37.4614C63.8936 35.8705 64.7733 32.4114 63.1823 29.7353L60.3821 25.0252L65.0751 23.75C68.0793 22.9336 69.8529 19.8363 69.0366 16.832C68.2203 13.8276 65.123 12.0539 62.1187 12.8703L58.1612 13.9457L58.4859 10.6653ZM19.7937 74.5623L23.8394 54.9595L36.8779 56.25L37.0026 76.2655L19.7937 74.5623ZM7.48664 78.4158L13.2171 50.6503C13.5968 48.0304 15.1554 46.1685 16.6682 45.0881C18.1368 44.0393 20.1877 43.2689 22.3674 43.4846L40.5707 45.2862C42.6729 45.4943 44.7889 46.4361 46.2993 48.2783C47.7229 50.0146 48.2566 52.1217 48.139 54.1184L48.3155 82.443L48.3156 82.4566L48.4003 96.0561C49.0123 104.717 44.1953 111.941 36.5295 115.566C34.4404 116.555 32.2296 117.208 29.9801 117.533L29.1759 125.658L31.5837 125.897C34.6818 126.203 36.9448 128.963 36.6382 132.062C36.3316 135.16 33.5714 137.423 30.4733 137.116L14.4383 135.529C11.3402 135.222 9.07724 132.462 9.38387 129.364C9.6905 126.266 12.4506 124.003 15.5487 124.31L17.9566 124.548L18.7567 116.464C16.554 115.701 14.4566 114.607 12.5539 113.193C12.4821 113.14 12.4116 113.085 12.3425 113.028C6.15273 107.954 3.13055 100.106 4.68267 92.0047L4.69829 91.9263L7.48403 78.4285L7.48664 78.4158ZM80.5099 84.1792C77.7348 83.1721 74.6683 84.6054 73.6606 87.3804C72.6535 90.1556 74.0862 93.222 76.8619 94.2297C78.2705 94.7407 79.8395 95.9717 81.3213 97.8784C82.777 99.7513 83.8535 101.902 84.4176 103.619C85.3392 106.424 88.3603 107.951 91.1654 107.029C93.9706 106.107 95.497 103.087 94.5754 100.282C93.6408 97.4368 91.9956 94.1884 89.7625 91.3164C87.5561 88.4776 84.4688 85.6167 80.5099 84.1792ZM85.5442 114.724C84.8749 117.6 82.001 119.388 79.1256 118.719C74.361 117.609 69.4447 119.098 66.7909 120.831C64.3188 122.445 61.0065 121.75 59.392 119.278C57.7776 116.806 58.4731 113.493 60.9451 111.879C65.6161 108.829 73.4862 106.428 81.5498 108.305C84.4252 108.974 86.214 111.848 85.5442 114.724ZM123.684 101.941C123.398 104.773 120.95 106.864 118.143 106.745C118.111 106.749 118.071 106.754 118.021 106.76C117.751 106.799 117.347 106.874 116.809 106.998C115.741 107.243 114.37 107.628 112.896 108.109C109.81 109.115 106.931 110.328 105.541 111.222C103.057 112.819 99.7496 112.1 98.1532 109.616C96.5563 107.133 97.2751 103.825 99.7584 102.229C102.351 100.562 106.313 99.0104 109.58 97.9442C111.282 97.3893 112.966 96.9108 114.413 96.5782C115.133 96.4121 115.852 96.2697 116.517 96.1752C117.082 96.0946 117.981 95.991 118.903 96.0845C121.841 96.3815 123.981 99.0036 123.684 101.941ZM97.2369 118.463C98.8001 115.959 102.098 115.195 104.603 116.758C111.705 121.191 115.696 127.604 117.519 131.986C118.653 134.712 117.363 137.841 114.636 138.976C111.911 140.109 108.782 138.819 107.647 136.093C106.433 133.174 103.681 128.787 98.9415 125.828C96.4372 124.265 95.6737 120.968 97.2369 118.463ZM93.7809 125.56C94.7887 122.785 93.3554 119.718 90.5803 118.711C87.8046 117.703 84.7381 119.137 83.731 121.912L79.3099 134.091C78.3028 136.866 79.7355 139.932 82.5112 140.94C85.2862 141.947 88.3527 140.514 89.3604 137.739L93.7809 125.56Z" fill="#FFFFC0"/>
</g>
<defs>
<clipPath id="clip0_170_513">
<rect width="135.29" height="135.29" fill="white" transform="translate(13.3247) rotate(5.6522)"/>
</clipPath>
</defs>
</svg>
