<svg width="91" height="80" viewBox="0 0 91 80" fill="none" xmlns="http://www.w3.org/2000/svg">
<path d="M44.9649 32.9403C44.9649 32.9403 26.3925 38.0301 19.3896 48.702C19.3896 48.702 22.7038 75.0251 42.7659 88.4321C42.7659 88.4321 48.3076 92.7213 57.5678 95.6082C60.8899 96.644 63.9543 98.3534 65.474 101.353C65.4994 101.415 65.5268 101.465 65.5641 101.529C65.0149 98.2408 68.0438 93.9844 70.4012 91.4609C76.7056 84.7458 78.1693 77.2037 78.1693 77.2037C86.3759 58.4034 73.5086 31.5999 73.5086 31.5999C64.1092 27.9344 50.4906 31.29 44.9649 32.9403Z" fill="#FFFFC0"/>
<path d="M57.0265 34.6621C67.2735 33.3771 74.8026 35.0689 74.8026 35.0689L72.1805 28.7058L47.3095 23.3537L32.3732 30.0687L21.5507 38.6772L18.5021 46.2237L19.5317 51.216C19.5317 51.216 28.1227 43.5926 44.4124 37.6741C47.3072 36.6223 50.1478 35.8673 52.863 35.3283C55.4818 42.3825 57.4505 50.3728 59.2118 58.0865C60.5595 53.3964 59.2238 42.0061 57.0405 34.6524L57.0265 34.6621Z" fill="#FFFFC0"/>
<path d="M38.0978 9.56744C34.6039 8.28301 33.5744 3.24427 33.5744 3.24427L33.4669 3.22849L33.4301 3.09447L33.3516 3.18819L32.3073 2.92971L32.6658 3.98792L32.5874 4.08165C32.5874 4.08165 34.7476 8.77182 32.6734 11.8C30.5992 14.8281 14.2445 20.9642 11.0229 33.4942C7.80325 46.0127 17.97 50.9189 17.97 50.9189C22.3461 40.6631 44.3215 34.2409 44.3215 34.2409L44.3256 34.2181C48.9672 32.7126 65.4009 27.9562 73.6278 32.9402C73.6278 32.9402 78.7189 23.2688 68.6424 14.9147C58.566 6.56062 41.5996 10.8764 38.1077 9.58058L38.0978 9.56744Z" fill="#FFFFC0"/>
<path d="M23.2683 23.6746C22.782 23.5215 22.249 23.7584 22.0326 24.2052C21.0195 26.3325 18.3068 32.1321 18.1355 32.9356C17.9927 33.65 23.0215 36.0802 25.8347 37.3683C26.8637 37.8344 28.1024 37.4209 28.6015 36.432C30.1225 33.4689 32.9202 27.7402 32.2889 27.0406C31.5965 26.2738 25.5171 24.3664 23.2444 23.6711L23.2683 23.6746Z" fill="#FFFFC0"/>
<path d="M36.7315 28.0759C36.4873 28.005 36.2218 28.1178 36.1207 28.3364C35.619 29.4066 34.2577 32.2999 34.171 32.7074C34.1045 33.0711 36.614 34.2797 38.0277 34.9189C38.5352 35.1568 39.1616 34.9452 39.4121 34.4451C40.1737 32.9578 41.5764 30.1056 41.2608 29.7559C40.9156 29.3667 37.8808 28.4196 36.7434 28.0776L36.7315 28.0759Z" fill="#FFFFC0"/>
<path d="M43.1279 19.5064C42.8687 19.3868 42.6017 19.5108 42.5162 19.7779C42.0972 21.0683 40.9543 24.5832 40.8988 25.0878C40.8536 25.5357 43.5882 27.289 45.1137 28.2355C45.6729 28.5856 46.2861 28.3726 46.5052 27.7755C47.1504 25.9822 48.3445 22.5215 47.9789 22.0482C47.5837 21.5357 44.3369 20.0452 43.1279 19.5064Z" fill="#FFFFC0"/>
<path d="M33.4732 16.7697C32.9143 16.5477 32.2625 16.767 31.982 17.2974C31.1589 18.8563 29.9509 21.8517 30.7541 22.8794C31.459 23.776 33.6274 24.6308 34.9063 25.0634C35.4596 25.2496 36.0917 25.0041 36.3442 24.4929C36.9621 23.2538 37.989 21.0483 38.1225 19.9831C38.2684 18.8497 35.1023 17.4287 33.4732 16.7697Z" fill="#748A5B"/>
<path d="M39.7721 9.91814C43.2827 10.6096 52.3938 13.0615 53.8439 19.9921C55.3879 27.4172 52.4077 31.4931 51.5614 32.4943C58.4315 30.9358 67.9365 29.6822 73.6657 33.1614C73.6657 33.1614 78.7655 23.4646 68.6718 15.0887C59.548 7.52347 45.138 10.2724 39.7961 9.92166L39.7721 9.91814Z" fill="#FFFFC0"/>
<path d="M46.1578 62.4521C43.9069 59.637 40.5899 57.6338 37.5972 57.9412C34.6044 58.2487 32.2906 61.2688 32.9916 64.7312L33.2855 66.3375C35.479 70.6723 38.2751 74.7222 41.5165 78.2775C43.1274 80.042 45.118 81.8039 47.1542 81.7761C48.9697 81.7509 50.3298 80.2006 50.7816 78.3305C51.2334 76.4603 50.9538 74.3079 50.4865 72.2445C49.7098 68.7943 48.4067 65.2784 46.1558 62.4634L46.1578 62.4521Z" fill="#748A5B"/>
<g opacity="0.84">
<path d="M14.8121 27.1861C14.8988 27.2336 14.1896 28.2936 13.4424 30.1388C12.6858 31.9711 11.9715 34.6699 12.0624 37.6599C12.1533 40.6498 13.0452 43.2441 13.9275 44.9882C14.796 46.7419 15.5725 47.7033 15.4902 47.7611C15.4628 47.7804 15.227 47.5718 14.8758 47.1488C14.5129 46.7242 14.0389 46.0625 13.5444 45.1885C12.5513 43.4633 11.5537 40.7955 11.4584 37.7003C11.3515 34.6034 12.1755 31.8274 13.0525 29.9893C13.4863 29.0638 13.9172 28.3472 14.2418 27.8826C14.5685 27.4066 14.7794 27.1697 14.81 27.1974L14.8121 27.1861Z" fill="#748A5B"/>
</g>
</svg>
