<svg width="44" height="44" viewBox="0 0 44 44" fill="none" xmlns="http://www.w3.org/2000/svg">
<rect width="44" height="44" rx="22" fill="#FFFFD0"/>
<g clip-path="url(#clip0_971_581)">
<mask id="path-2-inside-1_971_581" fill="white">
<path d="M26.9092 18.7273H31.2727H33.4546C33.7561 18.7273 34.0001 18.4833 34.0001 18.1818V13.0911C34 11.3866 32.6135 10 30.9089 10C29.9416 10 29.0174 10.4624 28.4368 11.2363L23.6365 17.6364H22V13.0911C22 11.3866 20.6135 10 18.9089 10C17.9416 10 17.0174 10.4624 16.4368 11.2363L11.6366 17.6364H10.5455C10.244 17.6364 10 17.8803 10 18.1818C10 18.4833 10.244 18.7273 10.5455 18.7273H10.8183L10.1092 19.6728C10.0384 19.7671 10 19.8816 10 19.9998V33.4546C10 33.7561 10.244 34.0001 10.5455 34.0001H12.7273C13.0288 34.0001 13.2728 33.7561 13.2728 33.4546V31.8482C14.0174 31.9127 14.4703 32.0992 14.9603 32.3168C15.5851 32.5943 16.2935 32.9091 17.6364 32.9091C18.9792 32.9091 19.6877 32.5943 20.3125 32.3168C20.8025 32.0992 21.2554 31.9127 22 31.8482V33.4546C22 33.7561 22.2439 34.0001 22.5454 34.0001H24.7273C25.0288 34.0001 25.2728 33.7561 25.2728 33.4546V31.852C25.8773 31.9213 26.254 32.1003 26.6651 32.3061C27.2303 32.589 27.8711 32.9091 29.0909 32.9091C30.3107 32.9091 30.9515 32.589 31.5167 32.3061C32.0404 32.044 32.4925 31.8182 33.4546 31.8182C33.7561 31.8182 34.0001 31.5742 34.0001 31.2727C34.0001 30.9712 33.7561 30.7272 33.4546 30.7272C32.2348 30.7272 31.594 31.0473 31.0288 31.3302C30.5051 31.5923 30.0529 31.8182 29.0909 31.8182C28.1289 31.8182 27.6767 31.5923 27.153 31.3302C26.6825 31.0947 26.1385 30.8446 25.2727 30.7637V20.9091L26.9092 18.7273ZM30.7273 17.6364H27.7274L30.7273 13.6365V17.6364ZM11.0909 20.1815L17.3093 11.8905C17.6848 11.3897 18.283 11.0909 18.9089 11.0909C20.012 11.0909 20.9091 11.988 20.9091 13.0911V17.6364H19.8182V13.0911C19.8182 12.7102 19.5721 12.3816 19.1907 12.2537C18.8146 12.1259 18.4098 12.2436 18.1823 12.5451L12.291 20.4004C12.2202 20.4947 12.1818 20.6092 12.1818 20.7274V25.2727H11.6364C11.4442 25.2727 11.2624 25.3121 11.0909 25.3732V20.1815ZM18.7273 13.6366V17.6364H15.7274L18.7273 13.6366ZM12.1818 32.9091H11.0909V28.445C11.2624 28.5061 11.4442 28.5455 11.6364 28.5455H12.1818V32.9091ZM22 30.7598C21.0141 30.8341 20.3991 31.0843 19.8693 31.3196C19.2674 31.587 18.7481 31.8182 17.6364 31.8182C16.5246 31.8182 16.0053 31.587 15.4034 31.3196C14.8736 31.0843 14.2586 30.8341 13.2727 30.7598V28.5455H22V30.7598ZM22 27.4545H11.6364C11.3354 27.4545 11.0909 27.2101 11.0909 26.9091C11.0909 26.6081 11.3354 26.3636 11.6364 26.3636H22V27.4545ZM22.1092 19.6728C22.0384 19.7671 22 19.8815 22 19.9998V25.2728H13.2727V20.9091L14.9091 18.7273H19.2727H21.4546H22.8183L22.1092 19.6728ZM24.291 20.4004C24.2202 20.4947 24.1819 20.6092 24.1819 20.7274V32.9091H23.0909V28V25.8182V20.1815L29.3093 11.8905C29.6849 11.3897 30.283 11.0909 30.9089 11.0909C32.0121 11.0909 32.9091 11.988 32.9091 13.0911V17.6364H31.8182V13.0911C31.8182 12.7102 31.5721 12.3816 31.1907 12.2537C30.8147 12.1259 30.4098 12.2436 30.1824 12.5451L24.291 20.4004Z"/>
</mask>
<path d="M26.9092 18.7273H31.2727H33.4546C33.7561 18.7273 34.0001 18.4833 34.0001 18.1818V13.0911C34 11.3866 32.6135 10 30.9089 10C29.9416 10 29.0174 10.4624 28.4368 11.2363L23.6365 17.6364H22V13.0911C22 11.3866 20.6135 10 18.9089 10C17.9416 10 17.0174 10.4624 16.4368 11.2363L11.6366 17.6364H10.5455C10.244 17.6364 10 17.8803 10 18.1818C10 18.4833 10.244 18.7273 10.5455 18.7273H10.8183L10.1092 19.6728C10.0384 19.7671 10 19.8816 10 19.9998V33.4546C10 33.7561 10.244 34.0001 10.5455 34.0001H12.7273C13.0288 34.0001 13.2728 33.7561 13.2728 33.4546V31.8482C14.0174 31.9127 14.4703 32.0992 14.9603 32.3168C15.5851 32.5943 16.2935 32.9091 17.6364 32.9091C18.9792 32.9091 19.6877 32.5943 20.3125 32.3168C20.8025 32.0992 21.2554 31.9127 22 31.8482V33.4546C22 33.7561 22.2439 34.0001 22.5454 34.0001H24.7273C25.0288 34.0001 25.2728 33.7561 25.2728 33.4546V31.852C25.8773 31.9213 26.254 32.1003 26.6651 32.3061C27.2303 32.589 27.8711 32.9091 29.0909 32.9091C30.3107 32.9091 30.9515 32.589 31.5167 32.3061C32.0404 32.044 32.4925 31.8182 33.4546 31.8182C33.7561 31.8182 34.0001 31.5742 34.0001 31.2727C34.0001 30.9712 33.7561 30.7272 33.4546 30.7272C32.2348 30.7272 31.594 31.0473 31.0288 31.3302C30.5051 31.5923 30.0529 31.8182 29.0909 31.8182C28.1289 31.8182 27.6767 31.5923 27.153 31.3302C26.6825 31.0947 26.1385 30.8446 25.2727 30.7637V20.9091L26.9092 18.7273ZM30.7273 17.6364H27.7274L30.7273 13.6365V17.6364ZM11.0909 20.1815L17.3093 11.8905C17.6848 11.3897 18.283 11.0909 18.9089 11.0909C20.012 11.0909 20.9091 11.988 20.9091 13.0911V17.6364H19.8182V13.0911C19.8182 12.7102 19.5721 12.3816 19.1907 12.2537C18.8146 12.1259 18.4098 12.2436 18.1823 12.5451L12.291 20.4004C12.2202 20.4947 12.1818 20.6092 12.1818 20.7274V25.2727H11.6364C11.4442 25.2727 11.2624 25.3121 11.0909 25.3732V20.1815ZM18.7273 13.6366V17.6364H15.7274L18.7273 13.6366ZM12.1818 32.9091H11.0909V28.445C11.2624 28.5061 11.4442 28.5455 11.6364 28.5455H12.1818V32.9091ZM22 30.7598C21.0141 30.8341 20.3991 31.0843 19.8693 31.3196C19.2674 31.587 18.7481 31.8182 17.6364 31.8182C16.5246 31.8182 16.0053 31.587 15.4034 31.3196C14.8736 31.0843 14.2586 30.8341 13.2727 30.7598V28.5455H22V30.7598ZM22 27.4545H11.6364C11.3354 27.4545 11.0909 27.2101 11.0909 26.9091C11.0909 26.6081 11.3354 26.3636 11.6364 26.3636H22V27.4545ZM22.1092 19.6728C22.0384 19.7671 22 19.8815 22 19.9998V25.2728H13.2727V20.9091L14.9091 18.7273H19.2727H21.4546H22.8183L22.1092 19.6728ZM24.291 20.4004C24.2202 20.4947 24.1819 20.6092 24.1819 20.7274V32.9091H23.0909V28V25.8182V20.1815L29.3093 11.8905C29.6849 11.3897 30.283 11.0909 30.9089 11.0909C32.0121 11.0909 32.9091 11.988 32.9091 13.0911V17.6364H31.8182V13.0911C31.8182 12.7102 31.5721 12.3816 31.1907 12.2537C30.8147 12.1259 30.4098 12.2436 30.1824 12.5451L24.291 20.4004Z" fill="#748A5B" stroke="#748A5B" stroke-width="0.102273" mask="url(#path-2-inside-1_971_581)"/>
</g>
<defs>
<clipPath id="clip0_971_581">
<rect width="24" height="24" fill="white" transform="translate(10 10)"/>
</clipPath>
</defs>
</svg>
